<svg xmlns="http://www.w3.org/2000/svg" viewBox="0 0 484.48 465.36"><defs><style>.cls-1{fill:#e6e6e6}.cls-2{fill:#fafafa}.cls-3{opacity:.05}.cls-4{fill:#27debf}.cls-5{opacity:.1}.cls-6{fill:#ebebeb}.cls-8{fill:#455a64}.cls-27,.cls-9{opacity:.2}.cls-10{fill:#37474f}.cls-11{opacity:.4}.cls-12{opacity:.15}.cls-14{fill:#f0f0f0}.cls-15{opacity:.3}.cls-16,.cls-17,.cls-26,.cls-27{fill:#fff}.cls-16{opacity:.6}.cls-17{opacity:.65}.cls-18{fill:#263238}.cls-19{fill:#f5f5f5}.cls-20{fill:#b16668}.cls-22{fill:#ffa8a7}.cls-24{opacity:.25}.cls-25{fill:#f28f8f}</style></defs><g id="Layer_2" data-name="Layer 2"><g id="Mountains"><g id="Mountains-2" data-name="Mountains"><path id="Mountain" class="cls-1" d="M447.37 264.87V155.81L410 99.67a4.06 4.06 0 0 0-6.66-.15l-31.08 42.22-51.47-85.41a4.07 4.07 0 0 0-7.15-.19l-34.4 51.22-19.07-24.22a4.07 4.07 0 0 0-6.72.48L226 123l-35.11-49.27a4.06 4.06 0 0 0-7.11-.07l-43.08 61.05-16.93-25.41a4.07 4.07 0 0 0-6.77 0l-16.92 25.41-26.79-36.09a4.07 4.07 0 0 0-6.79.38l-29.4 50.93v114.94z"/><path class="cls-2" d="M260.17 83.14l6.93 8.8-2.35 2.71a2.81 2.81 0 0 1-4.31-.07l-1.51-1.86a2.82 2.82 0 0 0-4.29-.1 2.81 2.81 0 0 1-4.55-.48l-1.15-2 4.51-6.48a4.07 4.07 0 0 1 6.72-.52zm-69.28-9.41l14.78 20.73-3.27 6.46a3.08 3.08 0 0 1-5.35.28l-2.92-4.56a3.08 3.08 0 0 0-5-.3 3.08 3.08 0 0 1-4.86-.14l-3-4.12a3.08 3.08 0 0 0-4.39-.59l-9.43 5.3 16.33-23.13a4.06 4.06 0 0 1 7.11.07zm-67.12 35.57l7.55 11.34-6-3.46a2 2 0 0 0-2.61.52l-1.63 2.11a2 2 0 0 1-3 .21l-1.38-1.35a2 2 0 0 0-2.83 0l-8.72 8.42L117 109.3a4.07 4.07 0 0 1 6.77 0zm197.02-52.97l9.51 15.8-1.83 2.7a3.77 3.77 0 0 1-6 .54l-2.54-2.83a3.77 3.77 0 0 0-5.61 0l-5.45 6a3.76 3.76 0 0 1-5.66-.07l-2.94-2.41 13.39-19.94a4.07 4.07 0 0 1 7.13.21zM66.5 99a4.07 4.07 0 0 1 6.79-.39L81 109.05l-3.6 6.24a2.36 2.36 0 0 1-3.89.28l-2.87-3.63a2.35 2.35 0 0 0-3.67 0l-1 1.22a2.36 2.36 0 0 1-4-.58l-1.38-3.37zm340.09 13.53l-3.68 2.12a3.56 3.56 0 0 1-4.17-.44l-3.74-3.37 8.33-11.32a4.06 4.06 0 0 1 6.66.15l10.09 15.14-.8.88a3.58 3.58 0 0 1-5 .31l-3.55-3.08a3.58 3.58 0 0 0-4.14-.39z" id="Snow"/><path d="M403.31 99.52l1.4 29.49-8.12-3.4 6.42 25.51-10.16-14.07-12.1 21.45-8.52-16.76 31.08-42.22zm-89.67-43.38l-10.32 31.74 16.11 18.68-13.54 12.5 15.72 42.12-42.37-53.82 34.4-51.22zm-60.19 27.49l2.52 19.15-6.3-3.65 8.81 40.27-16.24-18.76-10.37 13.02-5.87-10.68 27.45-39.35zM140.7 134.71l43.08-61.05-10.59 23.52 13.85 20.15-34.16 10.34 10.99 12.42-5.77 7.17 8.89 26.92-26.29-39.47zM117 109.3l6.96 21-9.38-1.29.12 25.4-14.62-19.7L117 109.3zM66.5 99.01l-12.76 38.25 15.12 15.47-11.81 12.43 11.81 38.29-31.76-53.51 29.4-50.93z" id="Shadow"/></g></g><g id="Grass"><ellipse id="Grass-2" data-name="Grass" class="cls-4" cx="242.24" cy="327" rx="239.65" ry="138.36"/></g><g id="Shadows"><ellipse id="Shadow-2" data-name="Shadow" class="cls-5" cx="126.7" cy="375.11" rx="68.14" ry="39.34"/><ellipse id="Shadow-3" data-name="Shadow" class="cls-5" cx="413.3" cy="366.04" rx="37.24" ry="21.5"/><path id="Shadow-4" data-name="Shadow" class="cls-5" d="M386.16 410.64c4.82 2.78 4.82 7.29 0 10.08s-12.65 2.78-17.47 0-4.82-7.3 0-10.08 12.64-2.79 17.47 0z"/><path id="Shadow-5" data-name="Shadow" class="cls-5" d="M337.28 383.87c4.83 2.78 4.83 7.3 0 10.08s-12.64 2.79-17.46 0-4.82-7.3 0-10.08 12.64-2.79 17.46 0z"/><path id="Shadow-6" data-name="Shadow" class="cls-5" d="M302.06 415.87c4.82 2.78 4.82 7.29 0 10.08s-12.64 2.78-17.47 0-4.82-7.3 0-10.08 12.64-2.79 17.47 0z"/><path id="Shadow-7" data-name="Shadow" class="cls-5" d="M239.27 373.23l22.53-13 11 6.36c4.5 2.6 11.69 2.32 16-.63l65.05-44.7c4.28-2.95 4.1-7.48-.4-10.08l-41.22-23.8c-4.5-2.6-12-2.87-16.68-.6l-79 38.3c-4.68 2.27-4.82 6.25-.32 8.85l10.89 6.28-22.42 13.04c-4.49 2.62-4.48 6.88 0 9.48l18.18 10.5c4.52 2.6 11.89 2.6 16.39 0z"/></g><g id="Clouds"><g id="Clouds-2" data-name="Clouds"><g id="_Group_" data-name="&lt;Group&gt;"><path id="_Path_" data-name="&lt;Path&gt;" class="cls-6" d="M108.86 2.53l-4.64 2.68V3.25c0-2.39-1.68-3.36-3.76-2.16a7.21 7.21 0 0 0-2.23 2.15c-.34-3-2.7-4.13-5.57-2.47a12.41 12.41 0 0 0-5.61 9.71v2a5.18 5.18 0 0 0 .48 2.32l-3.86 2.23a4.62 4.62 0 0 0-2.08 3.6c0 1.33.94 1.87 2.08 1.2l25.19-14.49a4.59 4.59 0 0 0 2.08-3.6c0-1.33-.94-1.87-2.08-1.21z"/></g><g id="_Group_2" data-name="&lt;Group&gt;"><path id="_Path_2" data-name="&lt;Path&gt;" class="cls-6" d="M62.92 16.39l-2.56 1v-5.65c0-4.47-3.56-5.55-7.43-3.31a15.49 15.49 0 0 0-7 12.14v.82a3.74 3.74 0 0 0-3.25.5 11.15 11.15 0 0 0-5.05 8.73V31l-3.56 2.06a7.31 7.31 0 0 0-3.33 5.75c0 2.12 1.49 3 3.33 1.92l28.85-16.67a7.33 7.33 0 0 0 3.32-5.75c0-2.12-1.48-2.98-3.32-1.92z"/></g></g></g><g id="Sun"><circle id="Sun-2" data-name="Sun" cx="387.59" cy="38.15" r="15.12" transform="rotate(-45 387.59 38.145)" fill="#f0997a"/></g><g id="Trees"><g id="Tree"><path id="Bush" class="cls-8" d="M459.43 266.49c-4.51.72-8.56-.52-9.25-5.41a43 43 0 0 1 0-12.1c.2-1.45.72-3.17 2.13-3.54a2.7 2.7 0 0 1 2.91 1.63 8 8 0 0 1 .5 3.55c.71-1.58 1.77-3.41 3.51-3.45s2.82 1.65 2.87 3.26a9.38 9.38 0 0 1-1.47 4.52c1.22-.16 2.6-.25 3.52.55a3.08 3.08 0 0 1 .13 4 9 9 0 0 1-3.54 2.53 1.6 1.6 0 0 1 2.15 1 2.43 2.43 0 0 1-.92 2.43 5.2 5.2 0 0 1-2.54 1.03z"/><g id="Tree-2" data-name="Tree"><path class="cls-4" d="M464.26 77.1c-2.18-4.7-5-7.82-9.93-9.68-7.31-2.78-18.93-2.79-23.07 5.28-1.53 3-1.59 6.61-2.74 9.74-1.63 4.45-6.16 7-9.81 9.62-6.41 4.55-9.42 13.79-6.82 21.14 1.39 3.91 4.46 7.17 5.16 11.32.8 4.8-2.56 9.67-3.62 14.23a36.93 36.93 0 0 0-.66 12.41c1.28 10.79 12.49 17.5 22.17 19.7 11.15 2.54 24.28 2.15 34.65-3.07 5.77-2.9 10.84-6.37 13-12.72 1.76-5.25.33-11.27-2.51-15.86-3-4.83-6.37-8.94-2.7-14.35 2.26-3.33 5-6.23 6.41-10a16.33 16.33 0 0 0-.27-10.29c-1.19-3.46-4.18-6-7-8.19-3.2-2.45-7.77-4.55-9.4-8.46-1.07-2.58-.82-5.22-1.65-7.81a27.94 27.94 0 0 0-1.21-3.01z"/><path class="cls-3" d="M464.26 77.1c-2.18-4.7-5-7.82-9.93-9.68-7.31-2.78-18.93-2.79-23.07 5.28-1.53 3-1.59 6.61-2.74 9.74-1.63 4.45-6.16 7-9.81 9.62-6.41 4.55-9.42 13.79-6.82 21.14 1.39 3.91 4.46 7.17 5.16 11.32.8 4.8-2.56 9.67-3.62 14.23a36.93 36.93 0 0 0-.66 12.41c1.28 10.79 12.49 17.5 22.17 19.7 11.15 2.54 24.28 2.15 34.65-3.07 5.77-2.9 10.84-6.37 13-12.72 1.76-5.25.33-11.27-2.51-15.86-3-4.83-6.37-8.94-2.7-14.35 2.26-3.33 5-6.23 6.41-10a16.33 16.33 0 0 0-.27-10.29c-1.19-3.46-4.18-6-7-8.19-3.2-2.45-7.77-4.55-9.4-8.46-1.07-2.58-.82-5.22-1.65-7.81a27.94 27.94 0 0 0-1.21-3.01z"/><path class="cls-9" d="M464.26 77.1c-2.18-4.7-5-7.82-9.93-9.68-7.31-2.78-18.93-2.79-23.07 5.28-1.53 3-1.59 6.61-2.74 9.74-1.63 4.45-6.16 7-9.81 9.62-6.41 4.55-9.42 13.79-6.82 21.14 1.39 3.91 4.46 7.17 5.16 11.32.8 4.8-2.56 9.67-3.62 14.23a36.93 36.93 0 0 0-.66 12.41c1.28 10.79 12.49 17.5 22.17 19.7 11.15 2.54 24.28 2.15 34.65-3.07 5.77-2.9 10.84-6.37 13-12.72 1.76-5.25.33-11.27-2.51-15.86-3-4.83-6.37-8.94-2.7-14.35 2.26-3.33 5-6.23 6.41-10a16.33 16.33 0 0 0-.27-10.29c-1.19-3.46-4.18-6-7-8.19-3.2-2.45-7.77-4.55-9.4-8.46-1.07-2.58-.82-5.22-1.65-7.81a27.94 27.94 0 0 0-1.21-3.01z"/><path class="cls-5" d="M473.53 165.61c-12.54 3-24.76 6.29-37.36.4-9.08-4.24-20.76-13.11-15.18-24.26 2.66-5.33 7.18-10.29 6.43-16.69-.66-5.58-4.48-8.23-8.31-11.81-3.3-3.09-6.41-6.93-7.29-11.33a18.26 18.26 0 0 0 .07 11.28c1.39 3.91 4.46 7.17 5.16 11.32.8 4.8-2.56 9.67-3.62 14.23a36.93 36.93 0 0 0-.66 12.41c1.28 10.79 12.49 17.5 22.17 19.7 11.15 2.54 24.28 2.15 34.65-3.07 1.41-.69 2.68-1.41 3.94-2.18zM446.4 65.78a19.11 19.11 0 0 1 8.8 4c2.15 1.88 3.85 5.42 3.23 8.27s-3 5.37-2.77 8.33a8.19 8.19 0 0 0 4.12 6.27c4.56 2.52 10.26 2.13 15.53 2.8-3.06-2.12-6.79-4.16-8.24-7.62-1.07-2.58-.82-5.22-1.65-7.81a27.94 27.94 0 0 0-1.16-3c-2.18-4.7-5-7.82-9.93-9.68a26.59 26.59 0 0 0-7.93-1.56zm34.95 75.85a22.4 22.4 0 0 0-1.3-2.42c-3-4.83-6.37-8.94-2.7-14.35.71-1 1.46-2 2.2-3-5.07 1.44-12 3.67-10.32 9.93 1.11 4.13 7.77 7.01 12.12 9.84z"/></g><path id="_Path_3" data-name="&lt;Path&gt;" class="cls-10" d="M431.16 148.92l15.84 31.4v-14.46l1.62-61.54 2.38 61.54v9.72l17.4-30.43-17.4 37.36v78.71a1 1 0 0 1-.58.81 3.13 3.13 0 0 1-2.8 0 1 1 0 0 1-.58-.81v-72.89z"/><path id="Bush-2" data-name="Bush" class="cls-4" d="M447.37 264.87l-14.2-8.2a11.35 11.35 0 0 1-3.09-2.91 8.18 8.18 0 0 1-1.73-3.68 1.93 1.93 0 0 1 .15-1.4c.51-.75 1.73-.49 2.4.12s1.22 1.15 1.94 1.91a20.86 20.86 0 0 1-.28-4.93 2.21 2.21 0 0 1 .6-1.64 1.84 1.84 0 0 1 2 0c1.87 1 2.66 3.22 3.3 5.24a16.74 16.74 0 0 1 .19-6.27c.49-2.24 3.06-3.12 3.93-1a12.1 12.1 0 0 1 .75 3.57 14.64 14.64 0 0 1-.31 4.72 14.67 14.67 0 0 1 3.78-5.24 2.31 2.31 0 0 1 2.19-.77c.89.35 1 1.54.95 2.5a13.42 13.42 0 0 1-1.93 5.72 11.79 11.79 0 0 1 4.8-1.87 1.43 1.43 0 0 1 1.51.49 1.94 1.94 0 0 1-.33 2 12 12 0 0 1-3.82 3.55 12.4 12.4 0 0 1 4.65-.49 1.64 1.64 0 0 1 1.25.52c.4.6-.07 1.39-.59 1.89a14 14 0 0 1-3.32 2 4.58 4.58 0 0 1 2.05.35 1.64 1.64 0 0 1 1 1.68 2.1 2.1 0 0 1-1.5 1.32c-2.81.95-3.58 1.27-6.34.82z"/><path id="Bush-3" data-name="Bush" class="cls-11" d="M447.37 264.87l-14.2-8.2a11.35 11.35 0 0 1-3.09-2.91 8.18 8.18 0 0 1-1.73-3.68 1.93 1.93 0 0 1 .15-1.4c.51-.75 1.73-.49 2.4.12s1.22 1.15 1.94 1.91a20.86 20.86 0 0 1-.28-4.93 2.21 2.21 0 0 1 .6-1.64 1.84 1.84 0 0 1 2 0c1.87 1 2.66 3.22 3.3 5.24a16.74 16.74 0 0 1 .19-6.27c.49-2.24 3.06-3.12 3.93-1a12.1 12.1 0 0 1 .75 3.57 14.64 14.64 0 0 1-.31 4.72 14.67 14.67 0 0 1 3.78-5.24 2.31 2.31 0 0 1 2.19-.77c.89.35 1 1.54.95 2.5a13.42 13.42 0 0 1-1.93 5.72 11.79 11.79 0 0 1 4.8-1.87 1.43 1.43 0 0 1 1.51.49 1.94 1.94 0 0 1-.33 2 12 12 0 0 1-3.82 3.55 12.4 12.4 0 0 1 4.65-.49 1.64 1.64 0 0 1 1.25.52c.4.6-.07 1.39-.59 1.89a14 14 0 0 1-3.32 2 4.58 4.58 0 0 1 2.05.35 1.64 1.64 0 0 1 1 1.68 2.1 2.1 0 0 1-1.5 1.32c-2.81.95-3.58 1.27-6.34.82z"/></g><g id="Tree-3" data-name="Tree"><path id="Bush-4" data-name="Bush" class="cls-8" d="M25 266.49c4.52.72 8.56-.52 9.25-5.41a43.4 43.4 0 0 0 0-12.1c-.21-1.45-.72-3.17-2.14-3.54a2.71 2.71 0 0 0-2.91 1.63 7.87 7.87 0 0 0-.49 3.55c-.71-1.58-1.78-3.41-3.51-3.45s-2.82 1.65-2.87 3.26a9.26 9.26 0 0 0 1.51 4.57c-1.21-.16-2.59-.25-3.52.55a3.11 3.11 0 0 0-.13 4 9.09 9.09 0 0 0 3.55 2.45 1.6 1.6 0 0 0-2.15 1 2.43 2.43 0 0 0 .92 2.43 5.2 5.2 0 0 0 2.49 1.06z"/><g id="Tree-4" data-name="Tree"><path class="cls-4" d="M20.22 88.22c2.18-4.7 5-7.82 9.92-9.68 7.32-2.78 18.94-2.79 23.08 5.29 1.53 3 1.59 6.61 2.74 9.73 1.63 4.45 6.16 7 9.81 9.62 6.41 4.55 9.42 13.79 6.81 21.15-1.38 3.9-4.45 7.16-5.15 11.32-.8 4.8 2.55 9.66 3.62 14.22a37 37 0 0 1 .65 12.41c-1.27 10.79-12.48 17.5-22.16 19.7-11.16 2.54-24.29 2.15-34.65-3.07-5.77-2.9-10.84-6.37-13-12.72-1.74-5.19-.31-11.27 2.53-15.86 3-4.82 6.37-8.93 2.7-14.35-2.26-3.33-5-6.22-6.41-10A16.33 16.33 0 0 1 1 115.64c1.2-3.46 4.19-6 7-8.19 3.2-2.45 7.76-4.55 9.39-8.46 1.08-2.58.83-5.22 1.66-7.81a25.55 25.55 0 0 1 1.17-2.96z"/><path class="cls-3" d="M20.22 88.22c2.18-4.7 5-7.82 9.92-9.68 7.32-2.78 18.94-2.79 23.08 5.29 1.53 3 1.59 6.61 2.74 9.73 1.63 4.45 6.16 7 9.81 9.62 6.41 4.55 9.42 13.79 6.81 21.15-1.38 3.9-4.45 7.16-5.15 11.32-.8 4.8 2.55 9.66 3.62 14.22a37 37 0 0 1 .65 12.41c-1.27 10.79-12.48 17.5-22.16 19.7-11.16 2.54-24.29 2.15-34.65-3.07-5.77-2.9-10.84-6.37-13-12.72-1.74-5.19-.31-11.27 2.53-15.86 3-4.82 6.37-8.93 2.7-14.35-2.26-3.33-5-6.22-6.41-10A16.33 16.33 0 0 1 1 115.64c1.2-3.46 4.19-6 7-8.19 3.2-2.45 7.76-4.55 9.39-8.46 1.08-2.58.83-5.22 1.66-7.81a25.55 25.55 0 0 1 1.17-2.96z"/><path class="cls-9" d="M20.22 88.22c2.18-4.7 5-7.82 9.92-9.68 7.32-2.78 18.94-2.79 23.08 5.29 1.53 3 1.59 6.61 2.74 9.73 1.63 4.45 6.16 7 9.81 9.62 6.41 4.55 9.42 13.79 6.81 21.15-1.38 3.9-4.45 7.16-5.15 11.32-.8 4.8 2.55 9.66 3.62 14.22a37 37 0 0 1 .65 12.41c-1.27 10.79-12.48 17.5-22.16 19.7-11.16 2.54-24.29 2.15-34.65-3.07-5.77-2.9-10.84-6.37-13-12.72-1.74-5.19-.31-11.27 2.53-15.86 3-4.82 6.37-8.93 2.7-14.35-2.26-3.33-5-6.22-6.41-10A16.33 16.33 0 0 1 1 115.64c1.2-3.46 4.19-6 7-8.19 3.2-2.45 7.76-4.55 9.39-8.46 1.08-2.58.83-5.22 1.66-7.81a25.55 25.55 0 0 1 1.17-2.96z"/><path class="cls-5" d="M11 176.73c12.54 3 24.76 6.29 37.35.4 9.09-4.24 20.77-13.11 15.19-24.26-2.66-5.32-7.19-10.28-6.43-16.69.66-5.58 4.47-8.23 8.31-11.81 3.3-3.09 6.4-6.93 7.28-11.33a18.15 18.15 0 0 1-.07 11.29c-1.38 3.9-4.45 7.16-5.15 11.32-.8 4.8 2.55 9.66 3.62 14.22a37 37 0 0 1 .65 12.41c-1.27 10.79-12.48 17.5-22.16 19.7-11.16 2.54-24.29 2.15-34.65-3.07-1.42-.68-2.74-1.4-3.94-2.18zM38.07 76.9a19.13 19.13 0 0 0-8.79 4c-2.15 1.87-3.86 5.41-3.23 8.27s3 5.36 2.77 8.32a8.23 8.23 0 0 1-4.12 6.28c-4.57 2.51-10.27 2.12-15.54 2.8 3.06-2.13 6.8-4.17 8.24-7.63 1.08-2.58.83-5.22 1.66-7.81a25.55 25.55 0 0 1 1.16-3c2.18-4.7 5-7.82 9.92-9.68a26.73 26.73 0 0 1 7.93-1.55zM3.13 152.75a22.33 22.33 0 0 1 1.29-2.42c3-4.82 6.37-8.93 2.7-14.35-.7-1-1.45-2-2.2-3 5.07 1.45 12 3.67 10.33 9.93-1.11 4.09-7.77 7.01-12.12 9.84z"/></g><path id="_Path_4" data-name="&lt;Path&gt;" class="cls-10" d="M53.32 160l-15.84 31.4V177l-1.61-61.55L33.53 177v9.72l-17.41-30.44 17.41 37.35v67.59a1 1 0 0 0 .58.81 3.11 3.11 0 0 0 2.79 0 1 1 0 0 0 .58-.81v-61.77z"/><path id="Bush-5" data-name="Bush" class="cls-4" d="M37.1 264.87l14.21-8.2a11.33 11.33 0 0 0 3.08-2.91 8 8 0 0 0 1.73-3.68 1.87 1.87 0 0 0-.14-1.4c-.52-.75-1.73-.49-2.41.12s-1.21 1.15-1.93 1.91a21.4 21.4 0 0 0 .27-4.93 2.2 2.2 0 0 0-.59-1.64 1.86 1.86 0 0 0-2 0c-1.86 1-2.65 3.22-3.29 5.24a17 17 0 0 0-.19-6.27c-.49-2.24-3.06-3.12-3.94-1a12.77 12.77 0 0 0-.75 3.57 14.64 14.64 0 0 0 .32 4.72 14.82 14.82 0 0 0-3.79-5.24 2.29 2.29 0 0 0-2.18-.77c-.9.35-1 1.54-1 2.5a13.55 13.55 0 0 0 1.93 5.72 11.73 11.73 0 0 0-4.8-1.87 1.42 1.42 0 0 0-1.5.49 1.91 1.91 0 0 0 .32 2 12 12 0 0 0 3.82 3.55 12.38 12.38 0 0 0-4.65-.49 1.61 1.61 0 0 0-1.24.52c-.41.6.07 1.39.58 1.89a14.24 14.24 0 0 0 3.32 2 4.63 4.63 0 0 0-2 .35 1.63 1.63 0 0 0-1 1.68 2.08 2.08 0 0 0 1.5 1.32c2.8.95 3.57 1.27 6.32.82z"/><path id="Bush-6" data-name="Bush" class="cls-11" d="M37.1 264.87l14.21-8.2a11.33 11.33 0 0 0 3.08-2.91 8 8 0 0 0 1.73-3.68 1.87 1.87 0 0 0-.14-1.4c-.52-.75-1.73-.49-2.41.12s-1.21 1.15-1.93 1.91a21.4 21.4 0 0 0 .27-4.93 2.2 2.2 0 0 0-.59-1.64 1.86 1.86 0 0 0-2 0c-1.86 1-2.65 3.22-3.29 5.24a17 17 0 0 0-.19-6.27c-.49-2.24-3.06-3.12-3.94-1a12.77 12.77 0 0 0-.75 3.57 14.64 14.64 0 0 0 .32 4.72 14.82 14.82 0 0 0-3.79-5.24 2.29 2.29 0 0 0-2.18-.77c-.9.35-1 1.54-1 2.5a13.55 13.55 0 0 0 1.93 5.72 11.73 11.73 0 0 0-4.8-1.87 1.42 1.42 0 0 0-1.5.49 1.91 1.91 0 0 0 .32 2 12 12 0 0 0 3.82 3.55 12.38 12.38 0 0 0-4.65-.49 1.61 1.61 0 0 0-1.24.52c-.41.6.07 1.39.58 1.89a14.24 14.24 0 0 0 3.32 2 4.63 4.63 0 0 0-2 .35 1.63 1.63 0 0 0-1 1.68 2.08 2.08 0 0 0 1.5 1.32c2.8.95 3.57 1.27 6.32.82z"/></g></g><g id="Hen"><g id="Hen-2" data-name="Hen"><path class="cls-8" d="M428.55 352.25l-2.13 14.37s4.12-.15 3.79.75-4.34 1.46-4.34 1.46-3.16 10.42-4.42 10.42 2.21-9.63 2.21-9.63-11.45 7.19-12.48 6.4 10.19-7.9 10.19-7.9-11 1.58-11.14.63 13.82-2.84 13.82-3l.08-14.92z"/><path class="cls-12" d="M424.1 357.2a12.11 12.11 0 0 0 3.09-.41 5.46 5.46 0 0 0 .73-.28l.63-4.26-4.42-1.42s-.01 3.03-.03 6.37zm-2.73 10.92l1.11-.72-8.73 1.15c-2.25.3-3.18.3-3.37 0-.1.07-.16.14-.15.2.16.95 11.14-.63 11.14-.63zm2.72.27s-3.17 2.05-6.68 4.24-5.4 3.36-6.29 3.25a.2.2 0 0 0 .06.14c1 .79 12.48-6.4 12.48-6.4zm6.12-1.02c.07-.18-.06-.32-.29-.43.23.26 0 .57-1.28.82s-2.53.33-2.53.33l-.24.74s4.01-.55 4.34-1.46z"/><path class="cls-8" d="M409.45 342.09l-2.14 14.37s4.12-.15 3.79.75-4.34 1.46-4.34 1.46-3.16 10.43-4.42 10.43 2.21-9.64 2.21-9.64-11.45 7.19-12.48 6.4 10.19-7.9 10.19-7.9-11 1.58-11.13.63 13.81-2.84 13.81-3l.08-14.92z"/><path class="cls-12" d="M405 353.22c.92.14 1.85.25 2.78.33l1.71-11.46-4.49-1.42v12.55zm-2.74 4.78l1.11-.72-8.73 1.16c-2.24.29-3.18.29-3.37 0-.1.07-.15.13-.14.19.15.91 11.13-.63 11.13-.63zm2.74.23s-3.16 2.06-6.67 4.24-5.41 3.37-6.3 3.25a.22.22 0 0 0 .06.14c1 .79 12.48-6.4 12.48-6.4zm6.1-1.02c.07-.18-.05-.32-.29-.43.23.26 0 .57-1.28.82s-2.53.33-2.53.33l-.24.74s4.02-.55 4.34-1.46z"/><path d="M409 351.63c3.61 2.08 13.31 4.15 17.78 2.84s9.15-10.47 9.15-10.47z" fill="#e0e0e0"/><path class="cls-14" d="M376.27 324.57c.67 6 3.92 16.1 13.06 21.22 11.49 6.43 26.15 7.95 38.54 3s17.53-16.42 18.6-24.3c.31-2.26.5-4.54.62-6.81.09-1.68-.07-3.38.05-5 .22-3 3.18-6 2-9.08a5.3 5.3 0 0 1-.7-2c0-1.23 1.59-1.73 2.48-2.3s1.92-1.36 1.84-2.42a4.07 4.07 0 0 0-.84-1.72 1.69 1.69 0 0 1-.22-1.81 1.55 1.55 0 0 1 1.36-.54 12 12 0 0 1 2.28.49 3.09 3.09 0 0 0 2.26-.15 2.85 2.85 0 0 0 1.2-2.65c-.07-2.43-1.78-4.52-3.69-6a19.19 19.19 0 0 0-15.86-3.67c-4.82 1.07-8.51 3.22-11.56 9.31-2.14 4.28-5.66 8.76-10 10.57-6.44 2.7-10.49 2.18-20.16 4.92s-21.26 18.94-21.26 18.94z"/><path class="cls-1" d="M387 288.48c3.08 1.12 5 4.44 5.81 9.56s1.82 7.12 4 7.3 2.91 3.83 0 4.92a4.07 4.07 0 0 1 .27 5.83c-2.64 3.36-5.1 2.09-5.1 2.09a4.48 4.48 0 0 1-1.63 6c-3.65 2.64-7.2-1.73-7.2-1.73s-1.51 3.48-6.87 2.11a32.19 32.19 0 0 1 .05-10.4c1-5.09 3.64-10.1 2.09-12s-3.08-5.74-2.82-8.1 3.1-9.24 11.4-5.58z"/><path class="cls-4" d="M378.81 297.83c.64.09 1.62 1.06 1.6 2.82 0 1.5-1.4 3.12-2.94 2.72s-1.51-1.71-1.11-2.65a2.92 2.92 0 0 0-.24-2.13z"/><path class="cls-15" d="M378.81 297.83c.64.09 1.62 1.06 1.6 2.82 0 1.5-1.4 3.12-2.94 2.72s-1.51-1.71-1.11-2.65a2.92 2.92 0 0 0-.24-2.13z"/><path class="cls-4" d="M376 294.59a6.8 6.8 0 0 1 3.33-5.79c2.5-1.65 5.89-1 7.66-.32a5.43 5.43 0 0 0 3.13-3.76c.59-2.79 0-4-1.17-3.37s-2 1.88-2.24 1.21-.19-2-1.25-1.65-1.14 1.77-1.92 1.85-1-1.81-2.12-1.1-.53 3-1.29 3.14-1.78-1.28-2.38-.36c-.94 1.44.64 3.11-.39 3.58-1.23.56-2.44.77-3.1 3.33a6.09 6.09 0 0 0 .51 3.76z"/><path class="cls-15" d="M376 294.59a6.8 6.8 0 0 1 3.33-5.79c2.5-1.65 5.89-1 7.66-.32a5.43 5.43 0 0 0 3.13-3.76c.59-2.79 0-4-1.17-3.37s-2 1.88-2.24 1.21-.19-2-1.25-1.65-1.14 1.77-1.92 1.85-1-1.81-2.12-1.1-.53 3-1.29 3.14-1.78-1.28-2.38-.36c-.94 1.44.64 3.11-.39 3.58-1.23.56-2.44.77-3.1 3.33a6.09 6.09 0 0 0 .51 3.76z"/><path class="cls-8" d="M374.76 295.11c1.07-1.09 4.56-.72 4.56 2.93a3.23 3.23 0 0 0-2.38.87c-1.57 1.39-1.47 2.53-2.18 2.53s-1.87-3.28 0-6.33zm6.86-.72a.72.72 0 1 1-.71-.72.71.71 0 0 1 .71.72z"/><path class="cls-1" d="M403.13 319.08c-5.85 5.7 0 15.24 10.83 17.52s16.72-1.47 13.37-4.15c0 0 9.9.8 12.71-2.41s-4.82-6.82-4.82-6.82 10.57-1.62 7.62-5.49-26.74-11.28-39.71 1.35z"/></g></g><g id="Chicks"><g id="Chicken"><path class="cls-8" d="M379.84 412.1l-.42 4.16s1.19-.1 1.1.17-1.22.48-1.22.48-.77 3-1.13 3.06.5-2.81.5-2.81-3.2 2.23-3.5 2 2.82-2.42 2.82-2.42-3.14.61-3.2.34 3.94-1 3.94-1.05-.18-4.3-.18-4.3z"/><path class="cls-12" d="M378.62 413.58a3.22 3.22 0 0 0 .89-.16l.21-.09.12-1.23-1.29-.35s.03.87.07 1.83zm-.62 3.18l.31-.22-2.5.45c-.64.12-.91.13-1 .05a.07.07 0 0 0 0 .06c.04.27 3.19-.34 3.19-.34zm.78.04s-.89.64-1.87 1.32-1.5 1-1.76 1c.3.21 3.5-2 3.5-2zm1.74-.37c0-.06 0-.1-.08-.12s0 .16-.36.25a7 7 0 0 1-.73.13l-.05.22s1.14-.22 1.22-.48z"/><path class="cls-8" d="M374.84 410.38l-.42 4.17s1.19-.1 1.1.16-1.23.48-1.23.48-.76 3.05-1.12 3.06.5-2.8.5-2.8-3.2 2.23-3.5 2 2.82-2.41 2.82-2.41-3.14.61-3.2.34 3.94-1 3.94-1.06-.18-4.29-.18-4.29z"/><path class="cls-12" d="M373.7 413.65q.41 0 .81.06l.33-3.33-1.29-.34zm-.7 1.4l.31-.22-2.5.45c-.64.12-.91.13-1 .05a.07.07 0 0 0 0 .06c.04.27 3.19-.34 3.19-.34zm.78.04s-.89.64-1.87 1.31-1.51 1.05-1.76 1c.3.22 3.5-2 3.5-2zm1.74-.38s0-.09-.09-.12 0 .17-.35.26-.73.13-.73.13l-.06.21s1.15-.19 1.23-.48z"/><path class="cls-4" d="M382.76 409.57c-.77 1-2.28 2.92-3.46 3.1s-2.94-1.37-2.94-1.37a2.72 2.72 0 0 1-2.17 1.1c-1.29-.11-2.64-2.36-2.64-2.36a13.42 13.42 0 0 1 5.41-1.31 24.36 24.36 0 0 1 5.8.84z"/><path class="cls-16" d="M382.76 409.57c-.77 1-2.28 2.92-3.46 3.1s-2.94-1.37-2.94-1.37a2.72 2.72 0 0 1-2.17 1.1c-1.29-.11-2.64-2.36-2.64-2.36a13.42 13.42 0 0 1 5.41-1.31 24.36 24.36 0 0 1 5.8.84z"/><path class="cls-3" d="M382.76 409.57c-.77 1-2.28 2.92-3.46 3.1s-2.94-1.37-2.94-1.37a2.72 2.72 0 0 1-2.17 1.1c-1.29-.11-2.64-2.36-2.64-2.36a13.42 13.42 0 0 1 5.41-1.31 24.36 24.36 0 0 1 5.8.84z"/><path class="cls-4" d="M364 399.16c-.77-2.66-.05-5.62 3-6.63 4.16-1.39 5.89 1.71 7.76 3a6.82 6.82 0 0 0 7 .19c2.77-1.71 3.53-4.49 5.1-3.83 1.39.59.43 3.83.43 3.83a2.67 2.67 0 0 1 1.49 2.45c-.11 1.7-1.92 3.4-1.92 3.4a6.7 6.7 0 0 1-.35 3.65 10.63 10.63 0 0 1-8.23 6c-5.2.62-8.36-1.37-9.72-4.73-1.2-3-1.61-4.29-2.55-5.13-1.19-1.14-1.61-.96-2.01-2.2z"/><path class="cls-17" d="M364 399.16c-.77-2.66-.05-5.62 3-6.63 4.16-1.39 5.89 1.71 7.76 3a6.82 6.82 0 0 0 7 .19c2.77-1.71 3.53-4.49 5.1-3.83 1.39.59.43 3.83.43 3.83a2.67 2.67 0 0 1 1.49 2.45c-.11 1.7-1.92 3.4-1.92 3.4a6.7 6.7 0 0 1-.35 3.65 10.63 10.63 0 0 1-8.23 6c-5.2.62-8.36-1.37-9.72-4.73-1.2-3-1.61-4.29-2.55-5.13-1.19-1.14-1.61-.96-2.01-2.2z"/><path class="cls-2" d="M366.07 401.33a2.07 2.07 0 0 0-.75-1.7c-.85-.69-1.28-.47-1.28-.47a4.33 4.33 0 0 0-1 2.76 8 8 0 0 0 3.03-.59z"/><path class="cls-8" d="M368.18 397.64a.63.63 0 1 0 .63-.63.63.63 0 0 0-.63.63z"/><path class="cls-5" d="M373.89 404.1c1.66 2.8 6.13 2 6.45.93s-.49-1.38-.49-1.38 2.6-.2 3.54-1.58-.25-2.19-.65-2.19a1.51 1.51 0 0 1 1.34 2.39A5.81 5.81 0 0 1 381 404a1.78 1.78 0 0 1-.48 1.82 4.3 4.3 0 0 1-6.63-1.72z"/></g><g id="Chicken-2" data-name="Chicken"><path class="cls-8" d="M324.87 384.19l.42 4.17s-1.19-.11-1.11.16 1.23.48 1.23.48.77 3 1.13 3.06-.5-2.8-.5-2.8 3.2 2.22 3.5 2-2.82-2.41-2.82-2.41 3.14.6 3.2.33-3.94-1-3.94-1.05.18-4.3.18-4.3z"/><path class="cls-12" d="M326.09 385.68a4.18 4.18 0 0 1-.89-.16l-.21-.1-.12-1.23 1.29-.35s-.03.88-.07 1.84zm.63 3.18l-.31-.22 2.5.45c.64.11.91.13 1 0v.06c-.05.31-3.19-.29-3.19-.29zm-.79.04l1.87 1.31c1 .67 1.5 1 1.76 1-.3.21-3.5-2-3.5-2zm-1.75-.38s0-.09.09-.12 0 .16.36.25a7.13 7.13 0 0 0 .72.13l.06.22s-1.14-.22-1.23-.48z"/><path class="cls-8" d="M329.87 382.48l.42 4.16s-1.19-.1-1.1.17 1.23.48 1.23.48.76 3 1.12 3.06-.5-2.81-.5-2.81 3.2 2.23 3.5 2-2.82-2.42-2.82-2.42 3.14.61 3.2.34-3.94-1-3.94-1.05.18-4.3.18-4.3z"/><path class="cls-12" d="M331 385.74l-.81.06-.33-3.32 1.29-.35zm.72 1.4l-.31-.22 2.5.45c.64.12.91.13 1 .05a.07.07 0 0 1 0 .06c-.05.27-3.19-.34-3.19-.34zm-.79.04s.89.64 1.87 1.32 1.51 1 1.76 1c-.3.21-3.5-2-3.5-2zm-1.74-.37c0-.06 0-.1.08-.12s0 .16.36.25a7 7 0 0 0 .73.13l.06.22s-1.15-.22-1.23-.48z"/><path class="cls-4" d="M322 381.66c.77 1 2.28 2.93 3.46 3.1s2.94-1.36 2.94-1.36a2.72 2.72 0 0 0 2.17 1.09c1.29-.11 2.64-2.36 2.64-2.36a13.5 13.5 0 0 0-5.41-1.3 24.63 24.63 0 0 0-5.8.83z"/><path class="cls-16" d="M322 381.66c.77 1 2.28 2.93 3.46 3.1s2.94-1.36 2.94-1.36a2.72 2.72 0 0 0 2.17 1.09c1.29-.11 2.64-2.36 2.64-2.36a13.5 13.5 0 0 0-5.41-1.3 24.63 24.63 0 0 0-5.8.83z"/><path class="cls-3" d="M322 381.66c.77 1 2.28 2.93 3.46 3.1s2.94-1.36 2.94-1.36a2.72 2.72 0 0 0 2.17 1.09c1.29-.11 2.64-2.36 2.64-2.36a13.5 13.5 0 0 0-5.41-1.3 24.63 24.63 0 0 0-5.8.83z"/><path class="cls-4" d="M340.67 371.26c.77-2.66.05-5.63-3-6.64-4.17-1.38-5.89 1.71-7.76 3a6.79 6.79 0 0 1-7 .18c-2.77-1.7-3.53-4.49-5.11-3.83-1.38.59-.42 3.83-.42 3.83a2.67 2.67 0 0 0-1.49 2.45c.11 1.7 1.91 3.41 1.91 3.41a6.76 6.76 0 0 0 .36 3.65 10.63 10.63 0 0 0 8.23 6c5.2.62 8.36-1.37 9.72-4.73 1.2-3 1.61-4.28 2.55-5.12 1.23-1.15 1.65-.97 2.01-2.2z"/><path class="cls-17" d="M340.67 371.26c.77-2.66.05-5.63-3-6.64-4.17-1.38-5.89 1.71-7.76 3a6.79 6.79 0 0 1-7 .18c-2.77-1.7-3.53-4.49-5.11-3.83-1.38.59-.42 3.83-.42 3.83a2.67 2.67 0 0 0-1.49 2.45c.11 1.7 1.91 3.41 1.91 3.41a6.76 6.76 0 0 0 .36 3.65 10.63 10.63 0 0 0 8.23 6c5.2.62 8.36-1.37 9.72-4.73 1.2-3 1.61-4.28 2.55-5.12 1.23-1.15 1.65-.97 2.01-2.2z"/><path class="cls-2" d="M338.64 373.43a2.09 2.09 0 0 1 .75-1.71c.85-.69 1.28-.46 1.28-.46a4.32 4.32 0 0 1 1 2.75 8.1 8.1 0 0 1-3.03-.58z"/><path class="cls-8" d="M336.53 369.73a.63.63 0 1 1-.63-.62.63.63 0 0 1 .63.62z"/><path class="cls-5" d="M330.82 376.19c-1.66 2.8-6.13 2-6.45.93s.48-1.38.48-1.38-2.59-.2-3.53-1.58.25-2.19.65-2.19a1.51 1.51 0 0 0-1.34 2.39 5.78 5.78 0 0 0 3.05 1.75 1.79 1.79 0 0 0 .48 1.83 4.31 4.31 0 0 0 6.66-1.75z"/></g><g id="Chicken-3" data-name="Chicken"><path class="cls-8" d="M289.44 416.45l.42 4.16s-1.19-.1-1.1.17 1.23.47 1.23.47.76 3.05 1.13 3.07-.51-2.81-.51-2.81 3.2 2.23 3.5 2-2.82-2.42-2.82-2.42 3.14.61 3.2.34-3.94-1-3.94-1.06.19-4.29.19-4.29z"/><path class="cls-12" d="M290.66 417.93a3.22 3.22 0 0 1-.89-.16.88.88 0 0 1-.2-.09l-.13-1.23 1.3-.35-.08 1.83zm.63 3.18l-.31-.22 2.5.45c.64.12.91.13 1 .05a.07.07 0 0 1 0 .06c-.05.27-3.19-.34-3.19-.34zm-.78.04s.88.64 1.86 1.31 1.51 1.05 1.76 1c-.3.21-3.5-2-3.5-2zm-1.75-.37c0-.06 0-.1.09-.12s0 .16.35.25a7 7 0 0 0 .73.13l.06.21s-1.15-.25-1.23-.47z"/><path class="cls-8" d="M294.44 414.73l.42 4.17s-1.18-.1-1.1.16 1.23.48 1.23.48.76 3 1.13 3.06-.51-2.8-.51-2.8 3.2 2.23 3.51 2-2.83-2.41-2.83-2.41 3.14.61 3.2.34-3.94-1-3.94-1.06.19-4.3.19-4.3z"/><path class="cls-12" d="M295.58 418l-.8.06-.34-3.33 1.3-.35s-.11 2.4-.16 3.62zm.71 1.4l-.31-.22 2.5.45c.64.12.91.13 1 .05a.07.07 0 0 1 0 .06c-.05.26-3.19-.34-3.19-.34zm-.78.04s.88.63 1.86 1.31 1.51 1.05 1.76 1c-.31.22-3.51-2-3.51-2zm-1.75-.38c0-.05 0-.09.09-.12s0 .17.35.25a7 7 0 0 0 .73.13l.06.22s-1.15-.21-1.23-.48z"/><path class="cls-4" d="M286.52 413.92c.77 1 2.28 2.92 3.47 3.09s2.93-1.36 2.93-1.36a2.72 2.72 0 0 0 2.17 1.1c1.29-.11 2.65-2.37 2.65-2.37a13.58 13.58 0 0 0-5.42-1.3 24.36 24.36 0 0 0-5.8.84z"/><path class="cls-16" d="M286.52 413.92c.77 1 2.28 2.92 3.47 3.09s2.93-1.36 2.93-1.36a2.72 2.72 0 0 0 2.17 1.1c1.29-.11 2.65-2.37 2.65-2.37a13.58 13.58 0 0 0-5.42-1.3 24.36 24.36 0 0 0-5.8.84z"/><path class="cls-3" d="M286.52 413.92c.77 1 2.28 2.92 3.47 3.09s2.93-1.36 2.93-1.36a2.72 2.72 0 0 0 2.17 1.1c1.29-.11 2.65-2.37 2.65-2.37a13.58 13.58 0 0 0-5.42-1.3 24.36 24.36 0 0 0-5.8.84z"/><path class="cls-4" d="M305.24 403.51c.78-2.66.05-5.62-3-6.63-4.16-1.39-5.89 1.71-7.76 3a6.82 6.82 0 0 1-7 .19c-2.77-1.71-3.53-4.49-5.1-3.83-1.39.58-.43 3.83-.43 3.83a2.67 2.67 0 0 0-1.49 2.45c.11 1.7 1.92 3.4 1.92 3.4a6.7 6.7 0 0 0 .35 3.65 10.6 10.6 0 0 0 8.23 6c5.2.63 8.36-1.36 9.72-4.72 1.2-3 1.61-4.29 2.55-5.13 1.23-1.15 1.66-.98 2.01-2.21z"/><path class="cls-17" d="M305.24 403.51c.78-2.66.05-5.62-3-6.63-4.16-1.39-5.89 1.71-7.76 3a6.82 6.82 0 0 1-7 .19c-2.77-1.71-3.53-4.49-5.1-3.83-1.39.58-.43 3.83-.43 3.83a2.67 2.67 0 0 0-1.49 2.45c.11 1.7 1.92 3.4 1.92 3.4a6.7 6.7 0 0 0 .35 3.65 10.6 10.6 0 0 0 8.23 6c5.2.63 8.36-1.36 9.72-4.72 1.2-3 1.61-4.29 2.55-5.13 1.23-1.15 1.66-.98 2.01-2.21z"/><path class="cls-2" d="M303.21 405.68A2.07 2.07 0 0 1 304 404c.86-.69 1.28-.47 1.28-.47a4.33 4.33 0 0 1 1 2.76 8.24 8.24 0 0 1-3.07-.61z"/><path class="cls-8" d="M301.1 402a.63.63 0 1 1-.63-.63.63.63 0 0 1 .63.63z"/><path class="cls-5" d="M295.4 408.45c-1.67 2.8-6.14 2-6.46.93s.49-1.38.49-1.38-2.6-.2-3.54-1.58.25-2.2.65-2.2a1.51 1.51 0 0 0-1.34 2.4 5.81 5.81 0 0 0 3.05 1.75 1.77 1.77 0 0 0 .49 1.82 4.3 4.3 0 0 0 6.66-1.74z"/></g></g><g id="Wheelbarrow"><g id="Wheelbarrow-2" data-name="Wheelbarrow"><path class="cls-8" d="M368 152.82a1.72 1.72 0 0 1 1.76.17 5.5 5.5 0 0 1 2.49 4.3 1.73 1.73 0 0 1-.75 1.62L355.71 168l-3.51-6.09z"/><path class="cls-10" d="M352.61 159.64a2.61 2.61 0 0 1 2.6.25 8.26 8.26 0 0 1 3.72 6.45 2.62 2.62 0 0 1-1.05 2.36c-.09.06-1.05.58-1.17.64a2.65 2.65 0 0 1-2.5-.3 8.23 8.23 0 0 1-3.72-6.45 2.62 2.62 0 0 1 1-2.34c.12-.07 1.03-.56 1.12-.61z"/><path class="cls-18" d="M357.9 166.89a8.18 8.18 0 0 0-3.71-6.42c-2-1.18-3.7-.22-3.7 2.14a8.21 8.21 0 0 0 3.7 6.42c2.05 1.18 3.71.22 3.71-2.14z"/><path class="cls-19" d="M205.81 336.87a1.25 1.25 0 0 0 .66-.19l79.31-50.88a1.26 1.26 0 0 0 .55-.83l8.88-51.29a11.37 11.37 0 0 1 2.49-5.35l47.82-57.11 9.15-5.28c.59-.34-.64-2.46-1.22-2.12l-9.35 5.39a1.4 1.4 0 0 0-.33.27l-47.95 57.28a13.76 13.76 0 0 0-3 6.5L284 284l-78.86 50.59a1.23 1.23 0 0 0 .67 2.26z"/><path class="cls-19" transform="rotate(-62.06 222.457 308.97)" d="M195.07 307.75h54.81v2.45h-54.81z"/><g id="_Group_3" data-name="&lt;Group&gt;"><path id="_Path_5" data-name="&lt;Path&gt;" class="cls-10" d="M254.11 320.79l4.47-8.88-10.64-6.16c-3.39-1.95-7.89-1.73-12.84 1.13-10.51 6.07-19 21.72-19 35 0 6.93 2.34 11.82 6.07 14l.15.09 10.91 6.3 4.72-9.37c8.92-6.82 15.81-20.3 16.16-32.11z"/><path id="_Path_6" data-name="&lt;Path&gt;" class="cls-18" d="M254.11 320.79l4.47-8.88-10.64-6.16c-3.39-1.95-7.89-1.73-12.84 1.13-10.51 6.07-19 21.72-19 35 0 6.93 2.34 11.82 6.07 14l.15.09 10.91 6.3 4.72-9.37c8.92-6.82 15.81-20.3 16.16-32.11z"/><path id="_Path_7" data-name="&lt;Path&gt;" class="cls-10" d="M265.2 326.26c0 11.41-6.34 24.62-14.82 31.93a28 28 0 0 1-4.18 3c-10.51 6.08-19 .26-19-13 0-10 4.87-21.39 11.77-29 0 0 .05 0 .06-.06a30.86 30.86 0 0 1 7.2-5.93c10.45-5.99 18.97-.2 18.97 13.06z"/><path id="_Path_8" data-name="&lt;Path&gt;" class="cls-8" d="M246.17 321.26c6.69-3.86 12.11.17 12.11 9s-5.42 19.11-12.11 23-12.11-.17-12.11-9 5.42-19.13 12.11-23z"/><path id="_Path_9" data-name="&lt;Path&gt;" class="cls-2" d="M251.64 334.8c-.46 4.39-3.28 9.05-6.3 10.39a3 3 0 0 1-3.3-.28c-1.06-.9-1.6-2.76-1.34-5.22.46-4.39 3.28-9.05 6.3-10.39a3.4 3.4 0 0 1 2.22-.29c1.78.43 2.78 2.6 2.42 5.79z"/><path id="_Path_10" data-name="&lt;Path&gt;" class="cls-14" d="M250.56 334.24c-.46 4.38-3.28 9-6.3 10.38a3.39 3.39 0 0 1-2.22.29c-1.06-.9-1.6-2.76-1.34-5.22.46-4.39 3.28-9.05 6.3-10.39a3.4 3.4 0 0 1 2.22-.29c1.06.91 1.6 2.77 1.34 5.23z"/><path id="_Path_11" data-name="&lt;Path&gt;" class="cls-8" d="M265.2 326.26c0 11.41-6.34 24.62-14.82 31.93a53.94 53.94 0 0 0 12.07-23.36c1.61-7.63 1-18.58-5.55-21.35s-15.19 3.06-17.93 5.72a30.86 30.86 0 0 1 7.2-5.93c10.51-6.06 19.03-.27 19.03 12.99z"/></g><path class="cls-8" d="M427.79 187.55a1.74 1.74 0 0 1 1.76.17A5.48 5.48 0 0 1 432 192a1.72 1.72 0 0 1-.75 1.61l-15.83 9.11-3.51-6.1z"/><path class="cls-10" d="M412.36 194.38a2.58 2.58 0 0 1 2.6.25 8.22 8.22 0 0 1 3.72 6.44 2.61 2.61 0 0 1-1.05 2.36c-.09.06-1.05.58-1.17.64a2.62 2.62 0 0 1-2.5-.3 8.21 8.21 0 0 1-3.72-6.45 2.62 2.62 0 0 1 1-2.34z"/><path class="cls-18" d="M417.65 201.62a8.19 8.19 0 0 0-3.71-6.42c-2-1.18-3.7-.22-3.7 2.14a8.19 8.19 0 0 0 3.7 6.42c2.06 1.18 3.71.24 3.71-2.14z"/><path class="cls-19" d="M215.84 351.68a24.46 24.46 0 0 0 11-2.45l77.33-40a6.3 6.3 0 0 1 8.36 2.45l5.21 9c3.72 6.44 11.69 8.83 17.77 5.32s11.46-11.85 12.79-19.55l6.79-39.18a11.47 11.47 0 0 1 2.52-5.39L404 207.23a11.19 11.19 0 0 1 3-2.49l7.45-4.3c.58-.34-.64-2.46-1.23-2.12l-7.45 4.29a13.77 13.77 0 0 0-3.63 3l-46.36 54.73a13.78 13.78 0 0 0-3.07 6.55l-6.78 39.18c-1.2 6.94-6.3 14.78-11.61 17.84-4.9 2.84-11.37.85-14.41-4.41l-5.22-9a8.74 8.74 0 0 0-11.6-3.4l-77.34 39.95c-5.67 2.93-14.5 2.89-19.67-.1-2.16-1.24-3.37-2.91-3.41-4.69-.05-2 1.35-4 3.82-5.58a1.23 1.23 0 0 0-1.33-2.07c-3.21 2.06-5 4.87-4.94 7.71.06 2.67 1.71 5.07 4.63 6.76a22.54 22.54 0 0 0 10.99 2.6z"/><path class="cls-19" transform="rotate(-58 245.68 322.375)" d="M218.29 321.15h54.81v2.45h-54.81z"/><path class="cls-18" d="M195.48 250.27l19.7 25a46.12 46.12 0 0 0 5.63 5.73l87.64-60.7a12.54 12.54 0 0 1 6.53-2.22v-25.32z"/><path class="cls-10" d="M315 218.09a12.53 12.53 0 0 1 6.92 1.67L367.35 246a26.6 26.6 0 0 0 2.42-10.11v-11.5L315 192.76z"/><path class="cls-8" d="M308.44 220.31a12.58 12.58 0 0 1 13.46-.56L367.36 246a30.18 30.18 0 0 1-6.53 9.78l-56.4 52.92a26.49 26.49 0 0 1-31.35 3.62l-45.41-26.22a47.33 47.33 0 0 1-6.86-5.08z"/><path class="cls-10" d="M369.77 224.39V236c0 6.34-4 15.16-8.94 19.77l-56.4 52.92a26.43 26.43 0 0 1-18.7 7.14l-15.55-22.45z"/><path class="cls-18" d="M270.18 293.39l15.55 22.45a26.4 26.4 0 0 1-12.65-3.52l-45.41-26.22a52.32 52.32 0 0 1-12.49-10.82l-19.69-25z"/><path class="cls-8" d="M196.26 256.46l68.61 39.62a10.69 10.69 0 0 0 10.37-.39l95.05-64.85c5.19-3.55 5-9-.46-12.17l-49.52-28.59a13 13 0 0 0-10.82-.37l-112.82 55.11c-6.13 3-6.31 8.24-.41 11.64zm4.75-8.85l108.46-52.19a13 13 0 0 1 10.84.41l44.15 25.5c2.94 1.69 3.06 4.62.27 6.55l-89.51 62a10.55 10.55 0 0 1-10.35.43l-64.07-37c-2.94-1.67-2.8-4.23.2-5.7z"/><path class="cls-20" d="M215 251.46a8.41 8.41 0 0 1 6.91 3.61 21 21 0 0 1 14.56-9 8.41 8.41 0 0 1 14-5.2 21 21 0 0 1 35.8 3.13 5 5 0 0 1 1.52-2 5.12 5.12 0 0 1 7.19.88 5 5 0 0 1 1.07 3.3 20.65 20.65 0 0 1 5-.6 20.94 20.94 0 0 1 16.66 8.24 5 5 0 0 1 1.67-2.37 5.11 5.11 0 0 1 7.19.87 5.32 5.32 0 0 1 .81 1.52l-52.16 36.06a10.55 10.55 0 0 1-10.35.43L207.09 257a8.42 8.42 0 0 1 7.91-5.54z"/><path d="M277.73 260a6.82 6.82 0 0 1 8.82-2 9.8 9.8 0 0 1 16.73 2.91 9.8 9.8 0 0 0-14.87-1.41 10.7 10.7 0 0 0-1 1.06 5.46 5.46 0 0 0-.45-.36 6.58 6.58 0 0 0-1.44-.8 6.83 6.83 0 0 0-9.14 4.44 6.79 6.79 0 0 1 1.35-3.84zm-15.14-8.11a5.19 5.19 0 0 0-6.7-1.49 7.45 7.45 0 0 0-12.71 2.21 7.45 7.45 0 0 1 11.3-1.07 8 8 0 0 1 .72.81 3.17 3.17 0 0 1 .34-.28 5.32 5.32 0 0 1 1.09-.61 5.19 5.19 0 0 1 6.15 1.76 5 5 0 0 1 .79 1.62 5.14 5.14 0 0 0-.98-2.95zm9.48 22.17a5.17 5.17 0 0 0-6.7-1.49 7.45 7.45 0 0 0-12.71 2.21 7.45 7.45 0 0 1 11.3-1.07 7.79 7.79 0 0 1 .71.8c.11-.09.23-.19.35-.27a5.32 5.32 0 0 1 1.09-.61 5.18 5.18 0 0 1 6.15 1.76 5 5 0 0 1 .79 1.61 5.2 5.2 0 0 0-.98-2.94z" fill="#9a4a4d"/></g></g><g id="Character"><g id="Character-2" data-name="Character"><g id="Arm"><path id="_Path_12" data-name="&lt;Path&gt;" class="cls-22" d="M166.82 126.4c5.06 12.32 12 30.25 12 30.25 7.79 5.59 16.09 10.41 23.76 12.92a6 6 0 0 0 4.12-.19c3.47-1.44 5.92-1.32 9.39-1.83 2.72-.4 4-1.42 4.42-.86.51.71.86 2.53-1 4a22 22 0 0 1-4.6 2.26c.22-.1 1.43.59 1.66.68a28.36 28.36 0 0 0 4.33 1.2 18.43 18.43 0 0 0 4.85.4l5.67-.54a4.19 4.19 0 0 1 1.73.07 1.44 1.44 0 0 1 1.07 1.22 1.86 1.86 0 0 1-1 1.5 4.41 4.41 0 0 0-1.49 1.16c-.42.66-.32 1.53-.66 2.24a5.39 5.39 0 0 1-.92 1.17 24.86 24.86 0 0 0-2 2.89 5.65 5.65 0 0 1-3.15 2.5 17.85 17.85 0 0 1-2.89.68 29 29 0 0 1-7.84.1 46.35 46.35 0 0 1-7.38-1.47 117.32 117.32 0 0 1-13.65-4.29c-12.1-5.07-14-5.25-22.12-9.45-2-1.06-5.8-3.76-7.46-6.92-11.33-21.51-14.84-28-19.18-39.85l-.27-23.45c12.51 4.09 14.18 3.09 22.61 23.61z"/><path id="_Path_13" data-name="&lt;Path&gt;" class="cls-10" d="M145.29 102.34c11.31 1 13.71 5.43 17.78 13.91 5 10.51 15.4 38.66 15.4 38.66a29.84 29.84 0 0 1-17 8l-15.58-29.62s-8.35-22.41-.6-30.95z"/><path class="cls-18" d="M182.69 159.31c.14-.71-1.3-1.63-2.25-3.17s-2.09-5.7-3.45-5.22c0 0-7.08 4.31-11.4 5.16a46.84 46.84 0 0 1-7.28.93s-2.06.08.62 5.85 7 9.16 8.63 9.41 1.92-.25 1.92-.25a36.52 36.52 0 0 0 13.21-12.71z"/></g><g id="Chest"><path id="_Path_14" data-name="&lt;Path&gt;" class="cls-8" d="M94.87 109.08s-3.43 2.19-3.43 8.53c0 2.51.18 8.58 3 20.18 2.48 10.52 2.56 15.21 3.22 22.65l-2 26.52c7.88 8.83 42.62 12.87 60.29.35 0 0 1-48-.65-63.34-1.09-10.39-6.36-18.51-10-21.63-4.89-.73-6.27-1.21-9.65-1.25l-18.3-1.86z"/></g><g id="Botom"><g id="_Group_4" data-name="&lt;Group&gt;"><g id="_Group_5" data-name="&lt;Group&gt;"><path class="cls-10" d="M132.92 364.79c-.34.32-.31 3.24.29 3.6 2.2 1.33 11.31 2.93 13.67 4.56 2.75 1.89 6.05 6.83 15.61 7.6 12.1 1 17.54-2.84 19.23-4.9.54-.67.73-5.27.26-5.35-1.88-.3-49.06-5.51-49.06-5.51z"/><path id="_Path_15" data-name="&lt;Path&gt;" class="cls-4" d="M95.35 177.72c-1.72 25.31-3 91.82-3 91.82-.41 3.14-4.47 11.15-5.21 22.49-1.06 16.44-.87 44.13-.87 44.13s9.9 4.64 17.24 2c0 0 12.18-47.66 14.92-59.47 3.27-14.06 6.74-48.24 6.74-48.24l4.35 42.66a96.79 96.79 0 0 0 0 20.45c.83 7.52 5 38.28 5 38.28s11 2.28 18.9 0c0 0 2.87-52.49 3.3-59.4.5-7.88.07-93.09.07-93.09.65-27.13 3-67.78-11.62-76.95l-5.84-1a39.82 39.82 0 0 1 6.82 19.94l-27.22 1.89-9.62-20.53-7.4 3.25s5.61 13.56 6.32 26.82-12 33.41-12 33.41-.52 6.18-.88 11.54z"/><path id="_Path_16" data-name="&lt;Path&gt;" class="cls-16" d="M95.35 177.72c-1.72 25.31-3 91.82-3 91.82-.41 3.14-4.47 11.15-5.21 22.49-1.06 16.44-.87 44.13-.87 44.13s9.9 4.64 17.24 2c0 0 12.18-47.66 14.92-59.47 3.27-14.06 6.74-48.24 6.74-48.24l4.35 42.66a96.79 96.79 0 0 0 0 20.45c.83 7.52 5 38.28 5 38.28s11 2.28 18.9 0c0 0 2.87-52.49 3.3-59.4.5-7.88.07-93.09.07-93.09.65-27.13 3-67.78-11.62-76.95l-5.84-1a39.82 39.82 0 0 1 6.82 19.94l-27.22 1.89-9.62-20.53-7.4 3.25s5.61 13.56 6.32 26.82-12 33.41-12 33.41-.52 6.18-.88 11.54z"/><path d="M125.2 230.41l3.7-23.72s8.7-.29 14.69-5.83c0 0-.78 5.57-11.67 8.85l-4.24 20 1.74 42.67z" opacity=".25" fill="#27debf"/><path class="cls-4" d="M125.2 230.41l3.7-23.72s8.7-.29 14.69-5.83c0 0-.78 5.57-11.67 8.85l-4.24 20 1.74 42.67z"/><path class="cls-8" d="M129.05 284.56c0 2.25 6.55 3.88 14.54 4.3s12.5-3.31 12.55-4.3l.11-1.87s1.77-.23 1.21 5.65-2.12 50.27-2.12 53.3 1.5 9.26 6.18 12.79a96.7 96.7 0 0 0 15.48 9.25c4.56 2.16 6.05 4.26 5.31 8.66 0 0-3.23 6.05-16 6.22-11.62.16-14.39-4.24-18.31-7.36s-9.64-2.45-14.69-5.54c0 0-1.54-2.88.17-11.23.87-4.21.16-10.62-.75-18.21s-5-46.14-5.24-49.77.52-5.14 1.59-5.14z"/><path class="cls-18" d="M103.63 379.3c-.1 4.95-.82 8.26-2.68 11.23s-5.56 4-9.4 3.31-8.8-2.79-10.09-7-1.2-7.15-.54-11.76z"/><path class="cls-8" d="M115.05 292.64l-.62 2.46s-5.43 2.13-15.25-.1-11.54-7.45-11.54-7.45l.52-3c-1.6.13-1.68 1.89-1.88 6.19s-1.1 21.94-1 30.07-.25 16.44-.53 22.25-1 9-1.06 14.52-3.1 12.42-2.9 19.93a14.18 14.18 0 0 0 2.94 9.73c2.84 3.93 12.4 7.54 16.76 1.59a16.53 16.53 0 0 0 3.13-9.54 51.57 51.57 0 0 0-.31-7.18c-.18-1.81-.34-3.47-.49-5-.57-7.54.53-16.95 1.78-25.41s9.57-41.12 10.52-45-.07-4.06-.07-4.06z"/></g></g></g><g id="Apple_Box" data-name="Apple Box"><path class="cls-8" d="M146.21 247.69l69.69-40.23-41.82-24.15-69.69 40.24 41.82 24.14z"/><path class="cls-4" d="M224.46 155.18l-2.79 1.61-50.31-29.04 2.8-1.62 50.3 29.05z"/><path class="cls-4" d="M224.46 155.18v9.68l-2.79 1.61v-9.68l2.79-1.61z"/><path class="cls-9" d="M224.46 155.18v9.68l-2.79 1.61v-9.68l2.79-1.61z"/><path class="cls-4" d="M171.36 127.75v9.68l50.31 29.04v-9.68l-50.31-29.04z"/><path class="cls-15" d="M171.36 127.75v9.68l50.31 29.04v-9.68l-50.31-29.04z"/><path class="cls-4" d="M98.7 169.7l72.66-41.95 2.8 1.61-72.67 41.95-2.79-1.61z"/><path class="cls-4" d="M101.49 171.31V181l72.67-41.96v-9.68l-72.67 41.95z"/><path class="cls-15" d="M101.49 171.31V181l72.67-41.96v-9.68l-72.67 41.95z"/><path class="cls-9" d="M173.73 139.29l.43-9.93v9.68l-.43.25z"/><path class="cls-4" d="M98.7 189.06l72.66-41.95 2.8 1.61-72.67 41.96-2.79-1.62z"/><path class="cls-4" d="M101.49 190.68v9.68l72.67-41.95v-9.69l-72.67 41.96z"/><path class="cls-15" d="M101.49 190.68v9.68l72.67-41.95v-9.69l-72.67 41.96z"/><path class="cls-9" d="M173.73 158.65l.43-9.93v9.69l-.43.24z"/><path class="cls-4" d="M98.7 208.43l72.66-41.96 2.8 1.62-72.67 41.95-2.79-1.61z"/><path class="cls-4" d="M101.49 210.04v9.68l72.67-41.95v-9.68l-72.67 41.95z"/><path class="cls-15" d="M101.49 210.04v9.68l72.67-41.95v-9.68l-72.67 41.95z"/><path class="cls-9" d="M173.73 178.01l.43-9.92v9.68l-.43.24z"/><path class="cls-4" d="M224.46 174.54l-2.79 1.62-50.31-29.05 2.8-1.61 50.3 29.04zm0 0v9.68l-2.79 1.62v-9.68l2.79-1.62z"/><path class="cls-9" d="M224.46 174.54v9.68l-2.79 1.62v-9.68l2.79-1.62z"/><path class="cls-4" d="M171.36 147.11v9.68l50.31 29.05v-9.68l-50.31-29.05z"/><path class="cls-15" d="M171.36 147.11v9.68l50.31 29.05v-9.68l-50.31-29.05z"/><path class="cls-4" d="M224.46 193.91l-2.79 1.61-50.31-29.05 2.8-1.61 50.3 29.05z"/><path class="cls-4" d="M224.46 193.91v9.68l-2.79 1.61v-9.68l2.79-1.61z"/><path class="cls-9" d="M224.46 193.91v9.68l-2.79 1.61v-9.68l2.79-1.61z"/><path class="cls-4" d="M171.36 166.47v9.69l50.31 29.04v-9.68l-50.31-29.05z"/><path class="cls-15" d="M171.36 166.47v9.69l50.31 29.04v-9.68l-50.31-29.05z"/><path class="cls-4" d="M101.49 171.31l2.79 1.62 2.8-1.62-2.8-1.61-2.79 1.61z"/><path class="cls-4" d="M104.28 172.93v51.63l-2.79-1.61v-51.64l2.79 1.62z"/><path class="cls-24" d="M104.28 172.93v51.63l-2.79-1.61v-51.64l2.79 1.62z"/><path class="cls-4" d="M104.28 172.93v51.63l2.8-1.61v-51.64l-2.8 1.62z"/><path class="cls-12" d="M104.28 172.93v51.63l2.8-1.61v-51.64l-2.8 1.62z"/><path class="cls-9" d="M101.49 184.22l2.8 1.62-.01 1.21-2.79-1.61v-1.22zm0 19.37l2.79 1.61v1.21l-2.79-1.61v-1.21zm2.79-33.89l-2.79 1.61 2.79 1.62-1.94-1.62 1.94-1.61z"/><path class="cls-4" d="M171.36 130.97l2.8 1.62 2.79-1.62-2.79-1.61-2.8 1.61z"/><path class="cls-4" d="M174.16 132.59v51.63l-2.8-1.61v-51.64l2.8 1.62z"/><path class="cls-24" d="M174.16 132.59v51.63l-2.8-1.61v-51.64l2.8 1.62z"/><path class="cls-4" d="M174.16 132.59v51.63l2.79-1.61v-51.64l-2.79 1.62z"/><path class="cls-12" d="M174.16 132.59v51.63l2.79-1.61v-51.64l-2.79 1.62z"/><path class="cls-9" d="M171.36 130.97l2.8-1.61 2.79 1.61-2.79-1.06-2.8 1.06z"/><g id="Apple"><g id="_Group_6" data-name="&lt;Group&gt;"><g id="_Group_7" data-name="&lt;Group&gt;"><path id="_Path_17" data-name="&lt;Path&gt;" class="cls-25" d="M190.1 183.85c-2.37-.37-6.5-.95-10.17 3.71-4.18 5.3-2.91 13.31.84 17.39 4.7 5.13 13.37 7.27 19.52 3.71 6.81-3.93 9.36-13.64 6.43-18.77s-9.16-5.22-10.86-4.9c-2.55.48-3.92-.84-5.76-1.14z"/><path id="_Path_18" data-name="&lt;Path&gt;" class="cls-12" d="M190.1 183.85c-2.37-.37-6.5-.95-10.17 3.71-4.18 5.3-2.91 13.31.84 17.39 4.7 5.13 13.37 7.27 19.52 3.71 6.81-3.93 9.36-13.64 6.43-18.77s-9.16-5.22-10.86-4.9c-2.55.48-3.92-.84-5.76-1.14z"/><path id="_Path_19" data-name="&lt;Path&gt;" class="cls-5" d="M197.34 206.76c-6.78 2-14.81-.86-19-5.78a12.63 12.63 0 0 0 2.41 4c4.7 5.13 13.37 7.27 19.52 3.71 5.16-3 7.87-9.28 7.61-14.39-.05 1.37-3.09 10.27-10.54 12.46z"/><g id="_Group_8" data-name="&lt;Group&gt;" class="cls-9"><path class="cls-26" d="M187.22 185.4c-1.48-.46-4 .4-5.55 2.2a14.73 14.73 0 0 0-3.08 8.51c-.26 5.48 4.24 9.36 4.83 9s-2.36-4.6.83-9.41 5.39-9.55 2.97-10.3z"/></g><g id="_Group_9" data-name="&lt;Group&gt;" class="cls-9"><path class="cls-26" d="M185.87 186c-1.65.18-4 2.25-4.8 3.88s-.88 2.87-.69 3.12c.35.46 4.13-1.9 5.44-3.05 1.86-1.62 2.71-4.25.05-3.95z"/></g><path id="_Path_20" data-name="&lt;Path&gt;" class="cls-20" d="M191.54 188.9c-.68-.83-1.37-1.33-2-.43s1.22 2.91 3.79 2.73 3.76-1.57 3.88-2.38a4.56 4.56 0 0 1-3.13 1.34 4.2 4.2 0 0 1-2.54-1.26z"/></g><g id="_Group_10" data-name="&lt;Group&gt;"><path id="_Path_21" data-name="&lt;Path&gt;" class="cls-10" d="M193.47 190.58a23.19 23.19 0 0 0 .35-6.84c-.42-3.34-1.87-5.93-2.35-6.28a6.73 6.73 0 0 0-2.55-1c-1.25-.25-2.91.26-2.61.83s2 1.31 3.74 3.81 2.94 6.89 2.42 9.25a1 1 0 0 0 1 .23z"/><path id="_Path_22" data-name="&lt;Path&gt;" class="cls-8" d="M191.39 177.4l-.11-.07a7.29 7.29 0 0 0-2.35-.84 3.49 3.49 0 0 0-2.48.41c-.12.16.1.46 1.17.85a6.87 6.87 0 0 0 3.33.41c.51-.08.79-.46.44-.76z"/><path id="_Path_23" data-name="&lt;Path&gt;" class="cls-5" d="M192.71 186.33c-.37-3-2.82-6-4.62-7.46a13.38 13.38 0 0 1 2 2.25c1.73 2.5 2.94 6.89 2.42 9.25a1 1 0 0 0 1 .21 21.13 21.13 0 0 0 .33-2.09c-.36 1.12-.79.61-1.13-2.16z"/></g><g id="_Group_11" data-name="&lt;Group&gt;"><path id="_Path_24" data-name="&lt;Path&gt;" class="cls-4" d="M194 185.59a5.94 5.94 0 0 0 5.86-.94c2.2-1.87 1.73-5 1.73-5a5.54 5.54 0 0 0-5.09.45 6.57 6.57 0 0 0-2.5 5.49z"/><path id="_Path_25" data-name="&lt;Path&gt;" class="cls-15" d="M194 185.59a5.94 5.94 0 0 0 5.86-.94c2.2-1.87 1.73-5 1.73-5a5.54 5.54 0 0 0-5.09.45 6.57 6.57 0 0 0-2.5 5.49z"/><path id="_Path_26" data-name="&lt;Path&gt;" class="cls-4" d="M201.54 179.62a5.54 5.54 0 0 0-5.09.45 6.57 6.57 0 0 0-2.5 5.52c2.33-4.02 7.59-5.97 7.59-5.97z"/></g></g></g><g id="Apple-2" data-name="Apple"><g id="_Group_12" data-name="&lt;Group&gt;"><g id="_Group_13" data-name="&lt;Group&gt;"><path id="_Path_27" data-name="&lt;Path&gt;" class="cls-25" d="M171 196.67c-2.36-.38-6.49-1-10.16 3.7-4.18 5.3-2.91 13.31.83 17.39 4.71 5.13 13.37 7.27 19.53 3.71 6.8-3.93 9.36-13.64 6.42-18.77s-9.16-5.22-10.86-4.9c-2.51.48-3.87-.8-5.76-1.13z"/><path id="_Path_28" data-name="&lt;Path&gt;" class="cls-5" d="M171 196.67c-2.36-.38-6.49-1-10.16 3.7-4.18 5.3-2.91 13.31.83 17.39 4.71 5.13 13.37 7.27 19.53 3.71 6.8-3.93 9.36-13.64 6.42-18.77s-9.16-5.22-10.86-4.9c-2.51.48-3.87-.8-5.76-1.13z"/><path id="_Path_29" data-name="&lt;Path&gt;" class="cls-5" d="M178.28 219.57c-6.77 2-14.81-.86-19-5.78a12.8 12.8 0 0 0 2.4 4c4.71 5.13 13.37 7.27 19.53 3.71 5.15-3 7.87-9.28 7.6-14.39-.03 1.38-3.08 10.27-10.53 12.46z"/><g id="_Group_14" data-name="&lt;Group&gt;" class="cls-9"><path class="cls-26" d="M168.17 198.21c-1.48-.46-4 .4-5.56 2.2a14.78 14.78 0 0 0-3.07 8.51c-.26 5.48 4.24 9.36 4.83 9s-2.36-4.6.83-9.4 5.39-9.52 2.97-10.31z"/></g><g id="_Group_15" data-name="&lt;Group&gt;" class="cls-9"><path class="cls-26" d="M166.82 198.81c-1.65.18-4 2.25-4.81 3.88s-.87 2.87-.68 3.13c.34.45 4.13-1.91 5.44-3.06 1.86-1.62 2.7-4.25.05-3.95z"/></g><path id="_Path_30" data-name="&lt;Path&gt;" class="cls-20" d="M172.49 201.71c-.68-.83-1.38-1.33-2-.43s1.22 2.91 3.79 2.73 3.75-1.57 3.87-2.38A4.53 4.53 0 0 1 175 203a4.17 4.17 0 0 1-2.51-1.29z"/></g><g id="_Group_16" data-name="&lt;Group&gt;"><path id="_Path_31" data-name="&lt;Path&gt;" class="cls-10" d="M174.41 203.39a23 23 0 0 0 .36-6.84c-.42-3.34-1.88-5.93-2.35-6.28a6.8 6.8 0 0 0-2.56-1c-1.24-.25-2.9.26-2.6.83s2 1.31 3.74 3.81 2.93 6.89 2.42 9.25a1 1 0 0 0 .99.23z"/><path id="_Path_32" data-name="&lt;Path&gt;" class="cls-8" d="M172.34 190.21l-.11-.07a7.37 7.37 0 0 0-2.36-.84 3.5 3.5 0 0 0-2.48.41c-.12.16.1.46 1.17.86a7 7 0 0 0 3.33.4c.51-.08.79-.46.45-.76z"/><path id="_Path_33" data-name="&lt;Path&gt;" class="cls-5" d="M173.66 199.14c-.37-3-2.82-6-4.63-7.46a13 13 0 0 1 2 2.25c1.72 2.5 2.93 6.89 2.42 9.25a1 1 0 0 0 1 .21 21.13 21.13 0 0 0 .33-2.09c-.35 1.12-.78.61-1.12-2.16z"/></g><g id="_Group_17" data-name="&lt;Group&gt;"><path id="_Path_34" data-name="&lt;Path&gt;" class="cls-4" d="M174.89 198.4a6 6 0 0 0 5.87-.93c2.2-1.88 1.72-5 1.72-5a5.52 5.52 0 0 0-5.08.45 6.58 6.58 0 0 0-2.51 5.48z"/><path id="_Path_35" data-name="&lt;Path&gt;" class="cls-15" d="M174.89 198.4a6 6 0 0 0 5.87-.93c2.2-1.88 1.72-5 1.72-5a5.52 5.52 0 0 0-5.08.45 6.58 6.58 0 0 0-2.51 5.48z"/><path id="_Path_36" data-name="&lt;Path&gt;" class="cls-4" d="M182.48 192.43a5.52 5.52 0 0 0-5.08.45 6.58 6.58 0 0 0-2.51 5.52c2.34-4.02 7.59-5.97 7.59-5.97z"/></g></g></g><g id="Apple-3" data-name="Apple"><g id="_Group_18" data-name="&lt;Group&gt;"><g id="_Group_19" data-name="&lt;Group&gt;"><path id="_Path_37" data-name="&lt;Path&gt;" class="cls-25" d="M150 207.56c-2.36-.38-6.5-1-10.17 3.7-4.17 5.3-2.9 13.31.84 17.39 4.7 5.13 13.37 7.27 19.52 3.71 6.81-3.93 9.37-13.64 6.43-18.77s-9.16-5.22-10.86-4.9c-2.51.48-3.88-.84-5.76-1.13z"/><path id="_Path_38" data-name="&lt;Path&gt;" class="cls-12" d="M150 207.56c-2.36-.38-6.5-1-10.17 3.7-4.17 5.3-2.9 13.31.84 17.39 4.7 5.13 13.37 7.27 19.52 3.71 6.81-3.93 9.37-13.64 6.43-18.77s-9.16-5.22-10.86-4.9c-2.51.48-3.88-.84-5.76-1.13z"/><path id="_Path_39" data-name="&lt;Path&gt;" class="cls-5" d="M157.28 230.46c-6.77 2-14.81-.86-19-5.78a12.63 12.63 0 0 0 2.41 4c4.7 5.13 13.37 7.27 19.52 3.71 5.16-3 7.87-9.28 7.61-14.39-.05 1.38-3.09 10.27-10.54 12.46z"/><g id="_Group_20" data-name="&lt;Group&gt;" class="cls-9"><path class="cls-26" d="M147.16 209.1c-1.48-.46-4 .4-5.55 2.2a14.72 14.72 0 0 0-3.07 8.52c-.26 5.47 4.23 9.35 4.83 9s-2.37-4.6.82-9.4 5.4-9.57 2.97-10.32z"/></g><g id="_Group_21" data-name="&lt;Group&gt;" class="cls-9"><path class="cls-26" d="M145.81 209.7c-1.65.18-4 2.25-4.8 3.88s-.88 2.87-.68 3.13c.34.45 4.12-1.91 5.44-3.06 1.85-1.65 2.7-4.24.04-3.95z"/></g><path id="_Path_40" data-name="&lt;Path&gt;" class="cls-20" d="M151.48 212.6c-.67-.83-1.37-1.33-2-.43s1.22 2.91 3.8 2.73 3.75-1.57 3.87-2.38a4.56 4.56 0 0 1-3.13 1.34 4.15 4.15 0 0 1-2.54-1.26z"/></g><g id="_Group_22" data-name="&lt;Group&gt;"><path id="_Path_41" data-name="&lt;Path&gt;" class="cls-10" d="M153.41 214.29a23.06 23.06 0 0 0 .36-6.85c-.42-3.34-1.88-5.93-2.35-6.28a6.87 6.87 0 0 0-2.56-1c-1.25-.25-2.91.26-2.6.83s2 1.31 3.73 3.81 2.94 6.89 2.43 9.25a1 1 0 0 0 .99.24z"/><path id="_Path_42" data-name="&lt;Path&gt;" class="cls-8" d="M151.33 201.1l-.11-.07a7.44 7.44 0 0 0-2.35-.84 3.5 3.5 0 0 0-2.48.41c-.12.16.1.46 1.17.86a7 7 0 0 0 3.33.4c.51-.08.79-.46.44-.76z"/><path id="_Path_43" data-name="&lt;Path&gt;" class="cls-5" d="M152.65 210c-.36-3-2.82-6-4.62-7.46a13 13 0 0 1 2 2.25c1.73 2.5 2.94 6.89 2.43 9.25a1 1 0 0 0 1 .22s.19-.85.33-2.1c-.36 1.15-.79.64-1.14-2.16z"/></g><g id="_Group_23" data-name="&lt;Group&gt;"><path id="_Path_44" data-name="&lt;Path&gt;" class="cls-4" d="M153.89 209.29a6 6 0 0 0 5.87-.93c2.19-1.88 1.72-5 1.72-5a5.54 5.54 0 0 0-5.09.45 6.57 6.57 0 0 0-2.5 5.48z"/><path id="_Path_45" data-name="&lt;Path&gt;" class="cls-15" d="M153.89 209.29a6 6 0 0 0 5.87-.93c2.19-1.88 1.72-5 1.72-5a5.54 5.54 0 0 0-5.09.45 6.57 6.57 0 0 0-2.5 5.48z"/><path id="_Path_46" data-name="&lt;Path&gt;" class="cls-4" d="M161.48 203.32a5.54 5.54 0 0 0-5.09.45 6.57 6.57 0 0 0-2.5 5.52c2.33-4.02 7.59-5.97 7.59-5.97z"/></g></g></g><g id="Apple-4" data-name="Apple"><g id="_Group_24" data-name="&lt;Group&gt;"><g id="_Group_25" data-name="&lt;Group&gt;"><path id="_Path_47" data-name="&lt;Path&gt;" class="cls-25" d="M168.27 142.85c-2.1.47-5.75 1.35-7.28 6.47-1.75 5.82 2 12.11 6.46 14.28 5.63 2.74 13.6 1.66 17.57-3.36 4.4-5.54 3.32-14.52-.84-17.84s-9.4-1.34-10.71-.51c-1.98 1.25-3.56.59-5.2.96z"/><path id="_Path_48" data-name="&lt;Path&gt;" class="cls-27" d="M168.27 142.85c-2.1.47-5.75 1.35-7.28 6.47-1.75 5.82 2 12.11 6.46 14.28 5.63 2.74 13.6 1.66 17.57-3.36 4.4-5.54 3.32-14.52-.84-17.84s-9.4-1.34-10.71-.51c-1.98 1.25-3.56.59-5.2.96z"/><path id="_Path_49" data-name="&lt;Path&gt;" class="cls-5" d="M181.92 159.62a17.26 17.26 0 0 1-17.8 1.45 11.19 11.19 0 0 0 3.33 2.53c5.63 2.74 13.6 1.66 17.57-3.36a14.69 14.69 0 0 0 1.6-14.57c.38 1.2.81 9.66-4.7 13.95z"/><g id="_Group_26" data-name="&lt;Group&gt;" class="cls-9"><path class="cls-26" d="M166.37 145.1c-1.39.1-3.18 1.64-3.92 3.68a13.28 13.28 0 0 0 .25 8.14c1.6 4.67 6.65 6.43 7 6s-3.5-3.07-2.42-8.15 1.37-9.85-.91-9.67z"/></g><g id="_Group_27" data-name="&lt;Group&gt;" class="cls-9"><path class="cls-26" d="M165.44 146.05c-1.32.7-2.57 3.19-2.73 4.84s.21 2.69.46 2.84c.44.27 2.82-3 3.54-4.36 1.02-1.97.86-4.45-1.27-3.32z"/></g><path id="_Path_50" data-name="&lt;Path&gt;" class="cls-20" d="M171.15 146.6c-.84-.48-1.59-.66-1.82.29s2 2 4.08 1 2.62-2.56 2.46-3.28a4.1 4.1 0 0 1-2.18 2.16 3.8 3.8 0 0 1-2.54-.17z"/></g><g id="_Group_28" data-name="&lt;Group&gt;"><path id="_Path_51" data-name="&lt;Path&gt;" class="cls-10" d="M173.32 147.37a20.65 20.65 0 0 0-2-5.85 11.29 11.29 0 0 0-4-4.48 5.92 5.92 0 0 0-2.46 0c-1.13.2-2.35 1.18-1.91 1.55s2.12.43 4.39 2 4.74 4.79 5.1 6.93a.87.87 0 0 0 .88-.15z"/><path id="_Path_52" data-name="&lt;Path&gt;" class="cls-8" d="M167.21 137h-.11a6.82 6.82 0 0 0-2.25.08 3.12 3.12 0 0 0-1.94 1.16c-.05.17.23.35 1.26.33a6.37 6.37 0 0 0 2.92-.76c.4-.24.51-.66.12-.81z"/><path id="_Path_53" data-name="&lt;Path&gt;" class="cls-5" d="M171.28 144.05c-1.31-2.39-4.35-4.07-6.34-4.71a11.68 11.68 0 0 1 2.38 1.24c2.28 1.52 4.74 4.79 5.1 6.93a.87.87 0 0 0 .9-.14 19 19 0 0 0-.42-1.87c.1 1.05-.42.76-1.62-1.45z"/></g><g id="_Group_29" data-name="&lt;Group&gt;"><path id="_Path_54" data-name="&lt;Path&gt;" class="cls-4" d="M172.07 143a4.92 4.92 0 0 0 4.37-7.52 5 5 0 0 0-4.11 2.06 5.94 5.94 0 0 0-.26 5.46z"/><path id="_Path_55" data-name="&lt;Path&gt;" class="cls-15" d="M172.07 143a4.92 4.92 0 0 0 4.37-7.52 5 5 0 0 0-4.11 2.06 5.94 5.94 0 0 0-.26 5.46z"/><path id="_Path_56" data-name="&lt;Path&gt;" class="cls-4" d="M176.44 135.51a5 5 0 0 0-4.11 2.06 5.94 5.94 0 0 0-.26 5.46c.62-4.14 4.37-7.52 4.37-7.52z"/></g></g></g><g id="Apple-5" data-name="Apple"><g id="_Group_30" data-name="&lt;Group&gt;"><g id="_Group_31" data-name="&lt;Group&gt;"><path id="_Path_57" data-name="&lt;Path&gt;" class="cls-25" d="M195.19 153.44c-2.25-.36-6.18-.91-9.68 3.52-4 5-2.76 12.67.8 16.55 4.47 4.88 12.72 6.91 18.58 3.53 6.47-3.74 8.91-13 6.11-17.86s-8.72-5-10.33-4.66c-2.43.48-3.73-.8-5.48-1.08z"/><path id="_Path_58" data-name="&lt;Path&gt;" class="cls-3" d="M195.19 153.44c-2.25-.36-6.18-.91-9.68 3.52-4 5-2.76 12.67.8 16.55 4.47 4.88 12.72 6.91 18.58 3.53 6.47-3.74 8.91-13 6.11-17.86s-8.72-5-10.33-4.66c-2.43.48-3.73-.8-5.48-1.08z"/><path id="_Path_59" data-name="&lt;Path&gt;" class="cls-5" d="M202.07 175.23c-6.44 1.89-14.09-.81-18-5.5a11.91 11.91 0 0 0 2.29 3.78c4.47 4.88 12.72 6.91 18.58 3.53 4.91-2.83 7.49-8.83 7.23-13.69-.11 1.33-3 9.8-10.1 11.88z"/><g id="_Group_32" data-name="&lt;Group&gt;" class="cls-9"><path class="cls-26" d="M192.45 154.91c-1.41-.44-3.77.38-5.28 2.09a13.94 13.94 0 0 0-2.93 8.1c-.25 5.21 4 8.91 4.6 8.58s-2.25-4.37.78-9 5.13-9.06 2.83-9.77z"/></g><g id="_Group_33" data-name="&lt;Group&gt;" class="cls-9"><path class="cls-26" d="M191.16 155.48c-1.56.17-3.77 2.14-4.57 3.69s-.83 2.73-.65 3c.33.44 3.93-1.81 5.18-2.9 1.77-1.58 2.57-4.07.04-3.79z"/></g><path id="_Path_60" data-name="&lt;Path&gt;" class="cls-20" d="M196.56 158.24c-.64-.79-1.31-1.27-1.9-.42s1.16 2.78 3.61 2.61 3.57-1.5 3.68-2.27a4.28 4.28 0 0 1-3 1.27 4 4 0 0 1-2.39-1.19z"/></g><g id="_Group_34" data-name="&lt;Group&gt;"><path id="_Path_61" data-name="&lt;Path&gt;" class="cls-10" d="M198.4 159.84a22.12 22.12 0 0 0 .33-6.51 12 12 0 0 0-2.23-6 6.44 6.44 0 0 0-2.44-.93c-1.18-.24-2.76.25-2.47.78s1.91 1.26 3.55 3.63 2.8 6.56 2.31 8.8a.93.93 0 0 0 .95.23z"/><path id="_Path_62" data-name="&lt;Path&gt;" class="cls-8" d="M196.42 147.3l-.11-.07a7 7 0 0 0-2.24-.8 3.21 3.21 0 0 0-2.35.39c-.12.15.09.43 1.11.81a6.7 6.7 0 0 0 3.17.37c.48-.06.75-.42.42-.7z"/><path id="_Path_63" data-name="&lt;Path&gt;" class="cls-5" d="M197.67 155.79c-.35-2.86-2.68-5.69-4.4-7.09a11.9 11.9 0 0 1 1.87 2.13c1.64 2.38 2.8 6.56 2.31 8.8a.93.93 0 0 0 1 .21s.17-.8.31-2c-.35 1.07-.76.59-1.09-2.05z"/></g><g id="_Group_35" data-name="&lt;Group&gt;"><path id="_Path_64" data-name="&lt;Path&gt;" class="cls-4" d="M198.85 155.09a5.2 5.2 0 0 0 7.22-5.69 5.3 5.3 0 0 0-4.84.43 6.26 6.26 0 0 0-2.38 5.26z"/><path id="_Path_65" data-name="&lt;Path&gt;" class="cls-15" d="M198.85 155.09a5.2 5.2 0 0 0 7.22-5.69 5.3 5.3 0 0 0-4.84.43 6.26 6.26 0 0 0-2.38 5.26z"/><path id="_Path_66" data-name="&lt;Path&gt;" class="cls-4" d="M206.07 149.4a5.3 5.3 0 0 0-4.84.43 6.26 6.26 0 0 0-2.38 5.26c2.22-3.83 7.22-5.69 7.22-5.69z"/></g></g></g><g id="Apple-6" data-name="Apple"><g id="_Group_36" data-name="&lt;Group&gt;"><g id="_Group_37" data-name="&lt;Group&gt;"><path id="_Path_67" data-name="&lt;Path&gt;" class="cls-25" d="M122.26 199.14c-2.54-.41-7-1-10.91 4-4.49 5.69-3.12 14.29.89 18.67 5.05 5.5 14.35 7.8 21 4 7.3-4.22 10.05-14.64 6.9-20.15s-9.84-5.6-11.66-5.26c-2.77.47-4.24-.95-6.22-1.26z"/><path id="_Path_68" data-name="&lt;Path&gt;" class="cls-5" d="M122.26 199.14c-2.54-.41-7-1-10.91 4-4.49 5.69-3.12 14.29.89 18.67 5.05 5.5 14.35 7.8 21 4 7.3-4.22 10.05-14.64 6.9-20.15s-9.84-5.6-11.66-5.26c-2.77.47-4.24-.95-6.22-1.26z"/><path id="_Path_69" data-name="&lt;Path&gt;" class="cls-5" d="M130 223.71c-7.27 2.14-15.9-.91-20.37-6.2a13.61 13.61 0 0 0 2.58 4.27c5.05 5.5 14.35 7.8 21 4 5.54-3.2 8.45-10 8.16-15.44-.08 1.48-3.37 11.03-11.37 13.37z"/><g id="_Group_38" data-name="&lt;Group&gt;" class="cls-9"><path class="cls-26" d="M119.17 200.8c-1.59-.5-4.25.42-6 2.36-2.12 2.4-3.16 6.22-3.3 9.13-.28 5.88 4.55 10.05 5.18 9.68s-2.53-4.94.89-10.1 5.83-10.27 3.23-11.07z"/></g><g id="_Group_39" data-name="&lt;Group&gt;" class="cls-9"><path class="cls-26" d="M117.72 201.44c-1.77.19-4.25 2.41-5.16 4.17s-.93 3.07-.73 3.35c.37.49 4.43-2.05 5.84-3.28 2-1.74 2.9-4.56.05-4.24z"/></g><path id="_Path_70" data-name="&lt;Path&gt;" class="cls-20" d="M123.81 204.55c-.73-.89-1.48-1.43-2.15-.47s1.31 3.13 4.07 2.94 4-1.69 4.16-2.55a4.86 4.86 0 0 1-3.36 1.43 4.42 4.42 0 0 1-2.72-1.35z"/></g><g id="_Group_40" data-name="&lt;Group&gt;"><path id="_Path_71" data-name="&lt;Path&gt;" class="cls-10" d="M125.88 206.36a24.89 24.89 0 0 0 .38-7.35c-.45-3.58-2-6.36-2.52-6.74a7.3 7.3 0 0 0-2.75-1.05c-1.33-.27-3.12.28-2.79.89s2.15 1.41 4 4.09 3.15 7.4 2.6 9.92a1.06 1.06 0 0 0 1.08.24z"/><path id="_Path_72" data-name="&lt;Path&gt;" class="cls-8" d="M123.65 192.21l-.12-.08a8 8 0 0 0-2.53-.9 3.69 3.69 0 0 0-2.66.44c-.13.17.1.49 1.26.92a7.48 7.48 0 0 0 3.57.43c.55-.08.83-.5.48-.81z"/><path id="_Path_73" data-name="&lt;Path&gt;" class="cls-5" d="M125.06 201.79c-.39-3.23-3-6.42-5-8a13.72 13.72 0 0 1 2.11 2.41c1.85 2.68 3.15 7.4 2.6 9.92a1.06 1.06 0 0 0 1.07.24s.2-.91.35-2.25c-.3 1.2-.77.65-1.13-2.32z"/></g><g id="_Group_41" data-name="&lt;Group&gt;"><path id="_Path_74" data-name="&lt;Path&gt;" class="cls-4" d="M126.39 201a6.4 6.4 0 0 0 6.3-1c2.36-2 1.85-5.4 1.85-5.4a6 6 0 0 0-5.46.48 7.07 7.07 0 0 0-2.69 5.92z"/><path id="_Path_75" data-name="&lt;Path&gt;" class="cls-15" d="M126.39 201a6.4 6.4 0 0 0 6.3-1c2.36-2 1.85-5.4 1.85-5.4a6 6 0 0 0-5.46.48 7.07 7.07 0 0 0-2.69 5.92z"/><path id="_Path_76" data-name="&lt;Path&gt;" class="cls-4" d="M134.54 194.59a6 6 0 0 0-5.46.48 7.07 7.07 0 0 0-2.69 5.93c2.5-4.32 8.15-6.41 8.15-6.41z"/></g></g></g><g id="Apple-7" data-name="Apple"><g id="_Group_42" data-name="&lt;Group&gt;"><g id="_Group_43" data-name="&lt;Group&gt;"><path id="_Path_77" data-name="&lt;Path&gt;" class="cls-25" d="M150.28 148.14c2.2-.35 6-.88 9.46 3.45 3.89 4.93 2.71 12.39-.78 16.18-4.37 4.77-12.44 6.76-18.16 3.46-6.34-3.66-8.72-12.69-6-17.47s8.52-4.86 10.1-4.56c2.39.45 3.67-.78 5.38-1.06z"/><path id="_Path_78" data-name="&lt;Path&gt;" class="cls-3" d="M150.28 148.14c2.2-.35 6-.88 9.46 3.45 3.89 4.93 2.71 12.39-.78 16.18-4.37 4.77-12.44 6.76-18.16 3.46-6.34-3.66-8.72-12.69-6-17.47s8.52-4.86 10.1-4.56c2.39.45 3.67-.78 5.38-1.06z"/><path id="_Path_79" data-name="&lt;Path&gt;" class="cls-5" d="M143.55 169.45c6.3 1.85 13.78-.79 17.65-5.37a11.76 11.76 0 0 1-2.24 3.69c-4.37 4.77-12.44 6.76-18.16 3.46-4.8-2.77-7.33-8.64-7.08-13.39.06 1.3 2.89 9.58 9.83 11.61z"/><g id="_Group_44" data-name="&lt;Group&gt;" class="cls-9"><path class="cls-26" d="M153 149.58c1.37-.42 3.68.38 5.16 2a13.63 13.63 0 0 1 2.86 7.92c.25 5.09-3.94 8.71-4.49 8.39s2.2-4.28-.77-8.75-5.06-8.86-2.76-9.56z"/></g><g id="_Group_45" data-name="&lt;Group&gt;" class="cls-9"><path class="cls-26" d="M154.21 150.14c1.54.17 3.69 2.09 4.47 3.61s.82 2.67.64 2.91c-.32.42-3.84-1.78-5.06-2.84-1.73-1.51-2.52-3.95-.05-3.68z"/></g><path id="_Path_80" data-name="&lt;Path&gt;" class="cls-20" d="M148.94 152.84c.63-.77 1.28-1.24 1.86-.41s-1.14 2.72-3.53 2.55-3.49-1.46-3.61-2.21a4.25 4.25 0 0 0 2.92 1.24 3.9 3.9 0 0 0 2.36-1.17z"/></g><g id="_Group_46" data-name="&lt;Group&gt;"><path id="_Path_81" data-name="&lt;Path&gt;" class="cls-10" d="M147.14 154.41a21.57 21.57 0 0 1-.33-6.37 11.74 11.74 0 0 1 2.19-5.85 6.19 6.19 0 0 1 2.38-.91c1.16-.23 2.7.24 2.42.77s-1.87 1.22-3.48 3.55-2.73 6.41-2.25 8.6a.93.93 0 0 1-.93.21z"/><path id="_Path_82" data-name="&lt;Path&gt;" class="cls-8" d="M149.08 142.14l.1-.07a7.06 7.06 0 0 1 2.19-.78 3.19 3.19 0 0 1 2.3.38c.12.15-.08.43-1.08.8a6.66 6.66 0 0 1-3.1.38c-.49-.08-.73-.44-.41-.71z"/><path id="_Path_83" data-name="&lt;Path&gt;" class="cls-5" d="M147.85 150.44c.34-2.79 2.62-5.56 4.3-6.93a11.85 11.85 0 0 0-1.83 2.09c-1.6 2.33-2.73 6.41-2.25 8.6a.93.93 0 0 1-.93.21s-.17-.79-.3-2c.29 1.09.7.59 1.01-1.97z"/></g><g id="_Group_47" data-name="&lt;Group&gt;"><path id="_Path_84" data-name="&lt;Path&gt;" class="cls-4" d="M146.7 149.76a5.08 5.08 0 0 1-7.06-5.56 5.16 5.16 0 0 1 4.73.42 6.13 6.13 0 0 1 2.33 5.14z"/><path id="_Path_85" data-name="&lt;Path&gt;" class="cls-15" d="M146.7 149.76a5.08 5.08 0 0 1-7.06-5.56 5.16 5.16 0 0 1 4.73.42 6.13 6.13 0 0 1 2.33 5.14z"/><path id="_Path_86" data-name="&lt;Path&gt;" class="cls-4" d="M139.64 144.2a5.16 5.16 0 0 1 4.73.42 6.13 6.13 0 0 1 2.33 5.14c-2.17-3.76-7.06-5.56-7.06-5.56z"/></g></g></g><g id="Apple-8" data-name="Apple"><g id="_Group_48" data-name="&lt;Group&gt;"><g id="_Group_49" data-name="&lt;Group&gt;"><path id="_Path_87" data-name="&lt;Path&gt;" class="cls-25" d="M122.19 162.88c-2.3-.37-6.32-.93-9.89 3.6-4.07 5.16-2.83 13 .81 16.93 4.58 5 13 7.07 19 3.61 6.63-3.82 9.12-13.27 6.26-18.27s-8.92-5.08-10.57-4.77c-2.48.47-3.8-.82-5.61-1.1z"/><path id="_Path_88" data-name="&lt;Path&gt;" class="cls-5" d="M129.24 185.17c-6.59 1.93-14.41-.84-18.47-5.63a12.28 12.28 0 0 0 2.34 3.87c4.58 5 13 7.07 19 3.61 5-2.9 7.66-9 7.4-14-.06 1.36-3.02 9.98-10.27 12.15z"/><g id="_Group_50" data-name="&lt;Group&gt;" class="cls-9"><path class="cls-26" d="M119.39 164.38c-1.44-.44-3.85.39-5.4 2.15a14.22 14.22 0 0 0-3 8.28c-.26 5.33 4.12 9.11 4.7 8.78s-2.3-4.48.8-9.16 5.26-9.31 2.9-10.05z"/></g><g id="_Group_51" data-name="&lt;Group&gt;" class="cls-9"><path class="cls-26" d="M118.08 165c-1.6.17-3.86 2.18-4.68 3.78s-.85 2.78-.66 3c.34.45 4-1.85 5.29-3 1.81-1.55 2.63-4.1.05-3.78z"/></g><path id="_Path_89" data-name="&lt;Path&gt;" class="cls-20" d="M123.6 167.79c-.66-.81-1.34-1.29-1.95-.42s1.19 2.83 3.69 2.66 3.65-1.53 3.77-2.32a4.41 4.41 0 0 1-3 1.3 4 4 0 0 1-2.51-1.22z"/></g><g id="_Group_52" data-name="&lt;Group&gt;"><path id="_Path_90" data-name="&lt;Path&gt;" class="cls-10" d="M125.47 169.43a22.38 22.38 0 0 0 .35-6.66 12.34 12.34 0 0 0-2.29-6.12 6.57 6.57 0 0 0-2.49-1c-1.21-.24-2.82.25-2.53.8s2 1.28 3.64 3.72 2.85 6.7 2.36 9a1 1 0 0 0 .96.26z"/><path id="_Path_91" data-name="&lt;Path&gt;" class="cls-8" d="M123.45 156.6l-.1-.07a7.24 7.24 0 0 0-2.29-.82 3.38 3.38 0 0 0-2.41.4c-.12.15.1.44 1.14.83a6.87 6.87 0 0 0 3.24.4c.49-.08.76-.46.42-.74z"/><path id="_Path_92" data-name="&lt;Path&gt;" class="cls-5" d="M124.74 165.28c-.36-2.92-2.75-5.82-4.5-7.25a12.26 12.26 0 0 1 1.91 2.19c1.68 2.43 2.85 6.7 2.36 9a1 1 0 0 0 1 .21 19.38 19.38 0 0 0 .32-2c-.34 1.05-.77.57-1.09-2.15z"/></g><g id="_Group_53" data-name="&lt;Group&gt;"><path id="_Path_93" data-name="&lt;Path&gt;" class="cls-4" d="M125.94 164.57a5.32 5.32 0 0 0 7.39-5.82 5.41 5.41 0 0 0-5 .44 6.4 6.4 0 0 0-2.39 5.38z"/><path id="_Path_94" data-name="&lt;Path&gt;" class="cls-15" d="M125.94 164.57a5.32 5.32 0 0 0 7.39-5.82 5.41 5.41 0 0 0-5 .44 6.4 6.4 0 0 0-2.39 5.38z"/><path id="_Path_95" data-name="&lt;Path&gt;" class="cls-4" d="M133.33 158.75a5.41 5.41 0 0 0-5 .44 6.4 6.4 0 0 0-2.44 5.38c2.32-3.92 7.44-5.82 7.44-5.82z"/></g></g></g><g id="Apple-9" data-name="Apple"><g id="_Group_54" data-name="&lt;Group&gt;"><g id="_Group_55" data-name="&lt;Group&gt;"><path id="_Path_96" data-name="&lt;Path&gt;" class="cls-25" d="M173.41 160.34c2.27-.36 6.24-.91 9.76 3.56 4 5.09 2.8 12.78-.8 16.69-4.51 4.93-12.83 7-18.74 3.57-6.53-3.77-9-13.1-6.17-18s8.8-5 10.43-4.71c2.44.44 3.76-.83 5.52-1.11z"/><path id="_Path_97" data-name="&lt;Path&gt;" class="cls-5" d="M166.47 182.33c6.5 1.9 14.21-.82 18.21-5.55a11.92 11.92 0 0 1-2.31 3.81c-4.51 4.93-12.83 7-18.74 3.57-4.95-2.86-7.56-8.91-7.3-13.82.06 1.35 2.98 9.89 10.14 11.99z"/><g id="_Group_56" data-name="&lt;Group&gt;" class="cls-9"><path class="cls-26" d="M176.18 161.83c1.42-.44 3.8.38 5.33 2.11a14.17 14.17 0 0 1 3 8.17c.25 5.26-4.07 9-4.64 8.66s2.27-4.42-.79-9-5.23-9.22-2.9-9.94z"/></g><g id="_Group_57" data-name="&lt;Group&gt;" class="cls-9"><path class="cls-26" d="M177.47 162.4c1.59.18 3.81 2.16 4.62 3.73s.84 2.75.65 3c-.33.44-4-1.83-5.22-2.93-1.79-1.56-2.6-4.08-.05-3.8z"/></g><path id="_Path_98" data-name="&lt;Path&gt;" class="cls-20" d="M172 165.19c.65-.8 1.32-1.28 1.92-.42s-1.17 2.8-3.64 2.63-3.6-1.51-3.72-2.29a4.35 4.35 0 0 0 3 1.28 4 4 0 0 0 2.44-1.2z"/></g><g id="_Group_58" data-name="&lt;Group&gt;"><path id="_Path_99" data-name="&lt;Path&gt;" class="cls-10" d="M170.18 166.8a22.33 22.33 0 0 1-.34-6.57 12.16 12.16 0 0 1 2.25-6 6.4 6.4 0 0 1 2.46-.93c1.19-.25 2.79.24 2.5.79s-1.93 1.26-3.59 3.66-2.82 6.61-2.33 8.87a.93.93 0 0 1-.95.18z"/><path id="_Path_100" data-name="&lt;Path&gt;" class="cls-8" d="M172.17 154.15l.11-.07a6.93 6.93 0 0 1 2.26-.8 3.35 3.35 0 0 1 2.38.38c.12.16-.09.45-1.13.83a6.77 6.77 0 0 1-3.19.39c-.49-.08-.76-.45-.43-.73z"/><path id="_Path_101" data-name="&lt;Path&gt;" class="cls-5" d="M170.91 162.72c.35-2.89 2.7-5.75 4.44-7.16a12.28 12.28 0 0 0-1.89 2.16c-1.66 2.4-2.82 6.61-2.33 8.87a.93.93 0 0 1-.95.21 20.34 20.34 0 0 1-.31-2c.29 1.07.71.58 1.04-2.08z"/></g><g id="_Group_59" data-name="&lt;Group&gt;"><path id="_Path_102" data-name="&lt;Path&gt;" class="cls-4" d="M169.72 162a5.25 5.25 0 0 1-7.29-5.74 5.36 5.36 0 0 1 4.89.44 6.3 6.3 0 0 1 2.4 5.3z"/><path id="_Path_103" data-name="&lt;Path&gt;" class="cls-15" d="M169.72 162a5.25 5.25 0 0 1-7.29-5.74 5.36 5.36 0 0 1 4.89.44 6.3 6.3 0 0 1 2.4 5.3z"/><path id="_Path_104" data-name="&lt;Path&gt;" class="cls-4" d="M162.43 156.27a5.36 5.36 0 0 1 4.89.44 6.3 6.3 0 0 1 2.4 5.3c-2.24-3.86-7.29-5.74-7.29-5.74z"/></g></g></g><g id="Apple-10" data-name="Apple"><g id="_Group_60" data-name="&lt;Group&gt;"><g id="_Group_61" data-name="&lt;Group&gt;"><path id="_Path_105" data-name="&lt;Path&gt;" class="cls-25" d="M145.79 170.82c-2.54-.41-7-1-10.91 4-4.48 5.69-3.12 14.29.9 18.67 5.05 5.5 14.34 7.8 20.95 4 7.3-4.21 10.05-14.64 6.9-20.14S153.8 171.69 152 172c-2.76.55-4.23-.87-6.21-1.18z"/><path id="_Path_106" data-name="&lt;Path&gt;" class="cls-27" d="M145.79 170.82c-2.54-.41-7-1-10.91 4-4.48 5.69-3.12 14.29.9 18.67 5.05 5.5 14.34 7.8 20.95 4 7.3-4.21 10.05-14.64 6.9-20.14S153.8 171.69 152 172c-2.76.55-4.23-.87-6.21-1.18z"/><path id="_Path_107" data-name="&lt;Path&gt;" class="cls-5" d="M153.56 195.4c-7.27 2.13-15.89-.92-20.37-6.21a13.7 13.7 0 0 0 2.59 4.27c5.05 5.5 14.34 7.8 20.95 4 5.54-3.19 8.45-10 8.16-15.44-.07 1.48-3.33 11.03-11.33 13.38z"/><g id="_Group_62" data-name="&lt;Group&gt;" class="cls-9"><path class="cls-26" d="M142.7 172.48c-1.58-.49-4.24.43-5.95 2.36-2.13 2.4-3.17 6.22-3.3 9.14-.29 5.87 4.54 10 5.18 9.67s-2.54-4.93.89-10.09 5.78-10.28 3.18-11.08z"/></g><g id="_Group_63" data-name="&lt;Group&gt;" class="cls-9"><path class="cls-26" d="M141.25 173.12c-1.77.2-4.25 2.41-5.15 4.17s-.94 3.07-.73 3.35c.37.49 4.42-2 5.83-3.28 2-1.74 2.91-4.56.05-4.24z"/></g><path id="_Path_108" data-name="&lt;Path&gt;" class="cls-20" d="M147.34 176.24c-.73-.9-1.48-1.43-2.15-.47s1.31 3.13 4.08 2.93 4-1.68 4.15-2.55a4.84 4.84 0 0 1-3.36 1.43 4.48 4.48 0 0 1-2.72-1.34z"/></g><g id="_Group_64" data-name="&lt;Group&gt;"><path id="_Path_109" data-name="&lt;Path&gt;" class="cls-10" d="M149.41 178a24.89 24.89 0 0 0 .38-7.35c-.45-3.58-2-6.36-2.52-6.74a7.09 7.09 0 0 0-2.75-1c-1.33-.28-3.11.27-2.79.88s2.16 1.41 4 4.09 3.15 7.4 2.6 9.93a1.07 1.07 0 0 0 1.08.19z"/><path id="_Path_110" data-name="&lt;Path&gt;" class="cls-8" d="M147.18 163.89l-.12-.08a7.77 7.77 0 0 0-2.53-.89 3.66 3.66 0 0 0-2.66.43c-.13.17.11.49 1.26.92a7.61 7.61 0 0 0 3.57.44c.55-.09.85-.5.48-.82z"/><path id="_Path_111" data-name="&lt;Path&gt;" class="cls-5" d="M148.59 173.47c-.39-3.23-3-6.42-5-8a13.72 13.72 0 0 1 2.11 2.41c1.85 2.69 3.15 7.4 2.6 9.93a1.07 1.07 0 0 0 1.07.23s.2-.91.35-2.25c-.29 1.21-.72.65-1.13-2.32z"/></g><g id="_Group_65" data-name="&lt;Group&gt;"><path id="_Path_112" data-name="&lt;Path&gt;" class="cls-4" d="M149.92 172.68a6.42 6.42 0 0 0 6.3-1c2.36-2 1.85-5.41 1.85-5.41a6 6 0 0 0-5.46.48 7.07 7.07 0 0 0-2.69 5.93z"/><path id="_Path_113" data-name="&lt;Path&gt;" class="cls-15" d="M149.92 172.68a6.42 6.42 0 0 0 6.3-1c2.36-2 1.85-5.41 1.85-5.41a6 6 0 0 0-5.46.48 7.07 7.07 0 0 0-2.69 5.93z"/><path id="_Path_114" data-name="&lt;Path&gt;" class="cls-4" d="M158.07 166.27a6 6 0 0 0-5.46.48 7.07 7.07 0 0 0-2.69 5.93c2.51-4.32 8.15-6.41 8.15-6.41z"/></g></g></g><path class="cls-4" d="M143.41 195.52l2.8 1.61 2.79-1.61-2.79-1.61-2.8 1.61z"/><path class="cls-4" d="M146.21 197.13v51.64l-2.8-1.62v-51.63l2.8 1.61z"/><path class="cls-24" d="M146.21 197.13v51.64l-2.8-1.62v-51.63l2.8 1.61z"/><path class="cls-4" d="M146.21 197.13v51.64l2.79-1.62v-51.63l-2.79 1.61z"/><path class="cls-12" d="M146.21 197.13v51.64l2.79-1.62v-51.63l-2.79 1.61z"/><path class="cls-9" d="M143.41 208.43l2.8 1.61 2.79-1.61v1.15l-2.79 1.61-2.8-1.61v-1.15zm0 19.36l2.8 1.61 2.79-1.61v1.15l-2.79 1.62-2.8-1.62v-1.15zm0-32.27l2.8 1.61 2.79-1.61-2.79 1.15-2.8-1.15z"/><path class="cls-4" d="M213.28 155.18l2.8 1.61 2.79-1.61-2.79-1.62-2.8 1.62z"/><path class="cls-4" d="M216.08 156.79v51.64l-2.8-1.62v-51.63l2.8 1.61z"/><path class="cls-24" d="M216.08 156.79v51.64l-2.8-1.62v-51.63l2.8 1.61z"/><path class="cls-4" d="M216.08 156.79v51.64l2.79-1.62v-51.63l-2.79 1.61z"/><path class="cls-12" d="M216.08 156.79v51.64l2.79-1.62v-51.63l-2.79 1.61z"/><path class="cls-9" d="M218.87 168.09l-2.79 1.61v1.21l2.79-1.61v-1.21zm0 19.36l-2.79 1.61v1.22l2.79-1.62v-1.21zm-2.79-33.89l2.79 1.62-2.79 1.61 1.98-1.61-1.98-1.62z"/><path class="cls-4" d="M146.21 197.13l72.66-41.95 2.8 1.61L149 198.75l-2.79-1.62z"/><path class="cls-4" d="M149 198.75v9.68l72.67-41.96v-9.68L149 198.75z"/><path class="cls-12" d="M149 198.75v9.68l72.67-41.96v-9.68L149 198.75z"/><path class="cls-9" d="M221.24 166.72l.43-9.93v9.68l-.43.25z"/><path class="cls-4" d="M149 198.75l-2.79 1.61-50.31-29.05 2.79-1.61L149 198.75z"/><path class="cls-4" d="M149 198.75v9.68l-2.79 1.61v-9.68l2.79-1.61z"/><path class="cls-9" d="M149 198.75v9.68l-2.79 1.61v-9.68l2.79-1.61zm0 9.68v-9.68l.43 9.43-.43.25z"/><path class="cls-4" d="M95.9 171.31V181l50.31 29.04v-9.68L95.9 171.31z"/><path class="cls-24" d="M95.9 171.31V181l50.31 29.04v-9.68L95.9 171.31z"/><path class="cls-4" d="M146.21 216.5l72.66-41.96 2.8 1.62L149 218.11l-2.79-1.61zm2.79 1.61v9.68l72.67-41.95v-9.68L149 218.11z"/><path class="cls-12" d="M149 218.11v9.68l72.67-41.95v-9.68L149 218.11z"/><path class="cls-9" d="M221.24 186.08l.43-9.92v9.68l-.43.24z"/><path class="cls-4" d="M149 218.11l-2.79 1.61-50.31-29.04 2.79-1.62L149 218.11z"/><path class="cls-4" d="M149 218.11v9.68l-2.79 1.61v-9.68l2.79-1.61z"/><path class="cls-9" d="M149 218.11v9.68l-2.79 1.61v-9.68l2.79-1.61zm0 9.68v-9.68l.43 9.44-.43.24z"/><path class="cls-4" d="M95.9 190.68v9.68l50.31 29.04v-9.68L95.9 190.68z"/><path class="cls-24" d="M95.9 190.68v9.68l50.31 29.04v-9.68L95.9 190.68z"/><path class="cls-4" d="M146.21 235.86l72.66-41.95 2.8 1.61L149 237.47l-2.79-1.61z"/><path class="cls-4" d="M149 237.47v9.68l72.67-41.95v-9.68L149 237.47z"/><path class="cls-12" d="M149 237.47v9.68l72.67-41.95v-9.68L149 237.47z"/><path class="cls-9" d="M221.24 205.44l.43-9.92v9.68l-.43.24z"/><path class="cls-4" d="M149 237.47l-2.79 1.62-50.31-29.05 2.79-1.61L149 237.47z"/><path class="cls-4" d="M149 237.47v9.68l-2.79 1.62v-9.68l2.79-1.62z"/><path class="cls-9" d="M149 237.47v9.68l-2.79 1.62v-9.68l2.79-1.62zm0 9.68v-9.68l.43 9.44-.43.24z"/><path class="cls-4" d="M95.9 210.04v9.68l50.31 29.05v-9.68L95.9 210.04z"/><path class="cls-24" d="M95.9 210.04v9.68l50.31 29.05v-9.68L95.9 210.04z"/></g><g id="Hat"><path id="_Path_115" data-name="&lt;Path&gt;" class="cls-4" d="M127.81 77c-12.38 4.83-25.64.49-29.6-9.69s2.85-22.31 15.23-27.15 25.63-.49 29.6 9.69-2.85 22.34-15.23 27.15z"/><ellipse id="_Path_116" data-name="&lt;Path&gt;" class="cls-4" cx="123.78" cy="73.12" rx="43.92" ry="27.05" transform="rotate(-23.91 123.75 73.106)"/><ellipse id="_Path_117" data-name="&lt;Path&gt;" class="cls-15" cx="123.78" cy="73.12" rx="43.92" ry="27.05" transform="rotate(-23.91 123.75 73.106)"/></g><g id="Head"><g id="_Group_66" data-name="&lt;Group&gt;"><g id="_Group_67" data-name="&lt;Group&gt;"><path class="cls-8" d="M117.93 69.13c-.39 4.24-4.14 9.43-4.14 9.43l.35 5.9.26 8.45a9.57 9.57 0 0 1-6.61-5.38 5.33 5.33 0 0 0-2.2-3.08c-.93-.57-2-1-2.87-1.57a7.11 7.11 0 0 1-3-5.55c.53-6.22 6.55-12.58 14.41-16.93l1.17-.62c.67.59 1.33 1.2 2 1.73a4.84 4.84 0 0 1 .34 1 19.53 19.53 0 0 1 .29 6.62z"/><path class="cls-8" d="M148.52 66.17a15.8 15.8 0 1 1-29.12-8.33c9.47-3.77 20.26-4.43 27.24 1a15.76 15.76 0 0 1 1.88 7.33z"/><path class="cls-22" d="M106.87 86.84a4.66 4.66 0 0 0 5.35-.93l.67 18.07a13.89 13.89 0 0 0 6.36 6.08c4.34 1.88 9.26.31 13.63 5.11 3.45-5.32 5.38-8 .12-12.41l-.19-5.36a32.75 32.75 0 0 0 6.14-.07c3.87-.63 6.29-3.73 7.43-7.94 1.82-6.77 1.31-16.91-1.38-30-4.37-3.35-18.65-3.77-27.74 2.07.49 7.72-1.63 11.17-1.59 14a7.29 7.29 0 0 1-1.67 2.16c-1.42 1.25-2.6-1.94-3.8-3.18s-5.74-1.93-7.65 2.18 1.65 9.2 4.32 10.22z"/><path class="cls-25" d="M132.81 97.4c-4.64-.19-11-1.86-13-4a28 28 0 0 1-3.81-6.11s.44 5.64 3 8.25 8.47 4.29 13.86 4.73z"/><path class="cls-10" d="M132.88 115.17c-2.26-1.37-7.21-3.73-9.66-1.09s-3.77 3.36-5.41 2.89-8.28-6.11-10.65-8.69-1.89-3.76-1.89-3.76a45.17 45.17 0 0 1 3.89-4.51c1.69-1.59 2-2 3.48-2.11l.13 2.62s.93 2 5 4.76 12.16 3.55 15.11 9.89z"/><path class="cls-10" d="M132.88 115.17c1.33-1.23 4.22-4.28 6.42-3.67s3.15 1.94 3.21.77-1.91-5.4-3.58-7.87-4.59-4.93-6.05-5.17l.12 3.53s2.61 3.4 2.32 5.38-2.18 5.11-2.44 7.03z"/><path class="cls-8" d="M146.09 58.46a4.47 4.47 0 0 1-1 1.55 13 13 0 0 1-1.48 2.31 5.19 5.19 0 0 1-3 .83c-1.39.15-2 1-3.24 1.49a7 7 0 0 1-4.74-.17c-1.5-.53-3.09-1.73-2.94-3.32a5.4 5.4 0 0 1-5.11 2.39 4.94 4.94 0 0 1-3.93-2.54 4 4 0 0 1-3 1.5 3.41 3.41 0 0 1-1.1-.12 4 4 0 0 1-2.43-2l1.17-.62c10.04-5.23 22.71-7.09 30.8-1.3z"/></g><g id="_Group_68" data-name="&lt;Group&gt;"><path id="_Path_118" data-name="&lt;Path&gt;" class="cls-18" d="M129.52 74.78a1.74 1.74 0 1 1-1.75-1.78 1.77 1.77 0 0 1 1.75 1.78z"/><path id="_Path_119" data-name="&lt;Path&gt;" class="cls-18" d="M127.16 68.79l-3.69 2.09a2.21 2.21 0 0 1 .84-3 2.05 2.05 0 0 1 2.85.91z"/><path id="_Path_120" data-name="&lt;Path&gt;" class="cls-18" d="M144 69.52L140 68a2 2 0 0 1 2.68-1.29 2.23 2.23 0 0 1 1.32 2.81z"/><path id="_Path_121" data-name="&lt;Path&gt;" class="cls-18" d="M142.93 73.8a1.74 1.74 0 1 1-1.76-1.8 1.77 1.77 0 0 1 1.76 1.8z"/><path id="_Path_122" data-name="&lt;Path&gt;" class="cls-25" d="M133.78 70.87l1.15 11.07 5.8-2.2-6.95-8.87z"/></g></g><path id="_Path_123" data-name="&lt;Path&gt;" class="cls-20" d="M129.45 85.19l7.4 1.59a3.72 3.72 0 0 1-4.42 3 4 4 0 0 1-2.98-4.59z"/><path class="cls-25" d="M130.34 86.4a4 4 0 0 0-.92 0 3.92 3.92 0 0 0 3 3.4 3.59 3.59 0 0 0 1.22 0 3.47 3.47 0 0 0-3.3-3.4z"/></g><g id="Arm-2" data-name="Arm"><path class="cls-22" d="M121 193c-1.26-.54-2.57-.95-3.82-1.52a27.16 27.16 0 0 1-3.07-1.61c-.2-.12-.84-.71-1.07-.7a20.38 20.38 0 0 0 4.9-.54 3 3 0 0 0 2.35-3.27c-.14-.63-1.67-.14-4.22-.66-3.27-.67-5.4-1.58-9-1.4a5.49 5.49 0 0 1-3.72-1.18c-5.89-4.76-19.64-18.34-19.64-18.34l-16.92 6c.82 4.41.35 4.29 8.52 9.83 6 4.06 8.66 4.77 16.25 10.54 3.66 2.79 7.42 6.38 10.34 8.53a46.36 46.36 0 0 0 7.8 4.81c2.39 1.12 4.69 2.07 7.18.67a16.26 16.26 0 0 1 3.43-1.79c1.15-.31 2.56-.3 3.21-1.29.31-.48.36-1.09.69-1.55.49-.68 1.41-.83 2.2-1.11s1.6-1 1.36-1.8c-.16-.52-.7-.8-1.19-1-1.7-.79-3.4-1.56-5.09-2.36z"/><path id="_Path_124" data-name="&lt;Path&gt;" class="cls-10" d="M96.5 108.36a24.73 24.73 0 0 0-10.49 4c-3.87 2.64-6.34 8.39-11.12 20.64-6.84 17.47-9.73 28.29-9.3 34.75 0 0 5.89-6.2 18.2-1.06l15.36-26.85s6.36-13.95-2.65-31.48z"/><path class="cls-18" d="M87.21 167.28s.75-.82-.46-2.34c-1-1.3.51-3-.39-3.5a15.57 15.57 0 0 0-10.78-2.87c-5.34.5-9.41 2.77-9.94 3.6s-1.26 10.37 2.48 12.92a1.75 1.75 0 0 0 1.34.39l-.75-.68s1.64-3.14 7.56-5.63c6.83-2.87 10.24-2.56 10.24-2.56z"/></g></g></g></g></svg>