<svg xmlns="http://www.w3.org/2000/svg" width="156" height="81.817"><path fill="#B01E31" d="M85.602 10.811c-1.16 0-2.393.269-3.293.952-.761.588-1.411 1.629-1.411 2.593 0 1.398 1.008 2.624 2.567 2.624.292 0 .569-.027.86-.133l-.174-.648c-1.007-.169-1.656-.997-1.554-1.945.186-1.535 1.63-2.688 3.191-2.688 2.974 0 4.598 2.817 4.484 5.343-.136 3.792-3.367 6.551-7.237 6.551-1.693 0-3.398-.52-4.744-1.437 1.522-1.246 2.53-2.979 2.53-5.142 0-1.75-.796-3.078-1.968-4.139.814-.513 1.7-.961 2.505-1.393 2.654-1.388 5.329-2.585 5.329-5.852 0-2.621-2.391-4.27-5.034-4.375-.874-.03-1.741.313-2.534.586L79.11.598h.576v-.23h-1.889v.23c.463-.011.678.044.707.604V2.77h-2.237V.598h.603v-.23h-1.872v.23c.466-.011.628.044.656.604v.506c-.799-.273-1.669-.616-2.547-.586-2.64.105-5.034 1.754-5.034 4.375 0 3.267 2.68 4.464 5.334 5.852.807.432 1.69.864 2.509 1.375-1.176 1.078-1.988 2.397-1.988 4.156 0 2.162 1.009 3.904 2.537 5.154-1.338.904-3.041 1.424-4.729 1.424-3.877 0-7.104-2.759-7.243-6.551-.116-2.525 1.513-5.343 4.497-5.343 1.555 0 2.993 1.153 3.186 2.688.104.948-.555 1.776-1.558 1.945l-.188.648c.295.105.582.133.874.133 1.557 0 2.576-1.226 2.576-2.624 0-.964-.655-2.005-1.422-2.593-.903-.684-2.134-.952-3.296-.952-3.661 0-6.375 2.937-6.375 6.275 0 4.53 4.17 7.218 8.695 7.218 2.073 0 4.194-.563 5.893-1.634 1.721 1.071 3.844 1.634 5.903 1.634 4.538 0 8.706-2.688 8.706-7.218-.003-3.336-2.72-6.273-6.382-6.273M73.664 9.583c-1.967-1.019-4.322-2.182-4.322-4.607 0-1.702 1.41-2.924 3.197-2.998a2.911 2.911 0 0 1 2.644 1.44c.501.843.44 1.942.477 2.86V8.84h-.57v.223h1.874v-.224c-.474.012-.679-.043-.697-.601V3.353h2.237v5.486h-.621v.223h1.885v-.223c-.471.012-.627-.043-.657-.601l.009-1.961c.032-.918-.054-2.018.468-2.86a2.9 2.9 0 0 1 2.646-1.44c1.779.074 3.187.348 3.187 2.998 0 2.426-2.357 3.589-4.316 4.607-1.198.623-2.528 1.269-3.712 2.037-1.197-.768-2.538-1.413-3.729-2.036m1.969 7.674c.038-1.464.751-2.552 1.758-3.455 1 .897 1.702 1.999 1.739 3.455.03 1.614-.655 3.004-1.757 4.042-1.075-1.038-1.769-2.427-1.74-4.042M25.292 66.618h-3.896v-.537c.32 0 .561-.035.725-.105.164-.07.268-.172.315-.303.047-.133.07-.309.07-.527v-2.377h-3.673v2.377c0 .328.068.564.205.713.136.148.447.223.934.223v.537h-3.924v-.537c.315 0 .556-.035.721-.105.166-.07.272-.17.322-.301.048-.131.073-.307.073-.529V60.17c0-.223-.023-.396-.07-.523-.046-.127-.15-.227-.31-.301-.16-.074-.405-.111-.736-.111v-.537h3.924v.537c-.482 0-.793.072-.931.217-.139.145-.208.385-.208.719v1.951h3.673V60.17c0-.223-.021-.396-.064-.523-.042-.127-.144-.227-.304-.301-.159-.074-.407-.111-.742-.111v-.537h3.896v.537c-.331 0-.576.037-.735.111-.16.074-.262.174-.307.301a1.62 1.62 0 0 0-.067.523v4.975c0 .215.021.385.062.512.041.127.143.229.306.307.164.078.411.117.742.117v.537zm9.707-3.959c0 .721-.172 1.395-.514 2.023-.343.629-.85 1.133-1.521 1.512-.671.379-1.465.568-2.38.568-.748 0-1.405-.119-1.974-.361-.568-.24-1.033-.564-1.393-.969-.359-.404-.626-.85-.8-1.332s-.26-.967-.26-1.453c0-.705.166-1.371.496-1.998.332-.627.83-1.131 1.495-1.516.667-.383 1.463-.574 2.389-.574.845 0 1.563.137 2.155.414.592.275 1.053.625 1.384 1.045.331.422.567.861.71 1.322.141.463.213.901.213 1.319zm-1.894-.024c0-.445-.038-.865-.113-1.262a3.323 3.323 0 0 0-.4-1.078 2.132 2.132 0 0 0-.783-.766c-.331-.188-.74-.281-1.227-.281-.669 0-1.192.166-1.567.498-.376.332-.631.75-.766 1.25a6.323 6.323 0 0 0-.201 1.639c0 .326.021.668.064 1.021s.146.717.31 1.09c.164.371.424.684.783.939.358.256.821.383 1.391.383.563 0 1.022-.131 1.375-.395.352-.264.609-.584.771-.963.162-.381.262-.744.304-1.09.04-.346.059-.674.059-.985zm10.384-1.687h-.555c-.05-.492-.158-.854-.324-1.088-.166-.232-.344-.377-.535-.432s-.411-.082-.66-.082h-1.004v5.799c0 .23.024.408.07.535.047.127.156.225.327.295.172.07.423.105.754.105v.537h-3.971v-.537c.486 0 .8-.07.94-.211.141-.139.21-.381.21-.725v-5.799H37.9c-.331 0-.605.027-.823.08-.218.051-.409.195-.575.432s-.26.598-.283 1.09h-.555v-2.25h7.826v2.251zm7.727 3.064l-.064 2.605h-7.055v-.537c.487 0 .8-.07.94-.211.14-.139.21-.381.21-.725V60.17a1.64 1.64 0 0 0-.067-.529c-.045-.125-.149-.225-.314-.297-.166-.072-.422-.109-.769-.109v-.537h6.57l.105 2.057h-.538c-.121-.455-.26-.781-.418-.979-.157-.197-.334-.316-.531-.361-.196-.045-.491-.068-.884-.068h-1.483v2.797h.806c.276 0 .482-.023.619-.072a.464.464 0 0 0 .286-.277c.055-.137.092-.352.111-.643h.56v2.635h-.537c-.015-.293-.055-.508-.117-.646-.062-.137-.161-.23-.295-.277s-.339-.07-.616-.07h-.818v1.863c0 .313.008.539.024.684.015.145.057.264.125.359s.179.164.333.207c.154.043.373.064.656.064h.637c.269 0 .525-.033.768-.102.244-.068.482-.244.715-.525.234-.283.397-.727.491-1.33h.55zm7.831-.041l-.052 2.646H51.94v-.537c.487 0 .8-.07.94-.211.14-.139.21-.381.21-.725V60.17c0-.23-.023-.408-.07-.535-.046-.125-.154-.225-.325-.293-.168-.072-.42-.107-.755-.107v-.537h3.982v.537c-.331 0-.581.035-.75.1-.169.066-.281.164-.333.289-.052.127-.079.309-.079.547v4.555c0 .357.018.615.052.771.036.156.131.273.287.354s.411.119.765.119c.448 0 .84-.033 1.177-.102s.648-.25.935-.543c.286-.295.464-.746.534-1.354h.537zm6.669.375c0 .244-.053.504-.158.779a2.743 2.743 0 0 1-.476.787c-.213.252-.48.457-.804.615a2.546 2.546 0 0 1-1.121.234 3.11 3.11 0 0 1-1.253-.273 2.761 2.761 0 0 1-1.054-.816 3.186 3.186 0 0 0-.24.799h-.538v-2.709h.538c.097.389.232.756.403 1.098.172.342.414.637.728.885.313.246.698.371 1.153.371.397 0 .715-.109.955-.328.239-.217.358-.492.358-.822 0-.188-.037-.352-.11-.49a1.164 1.164 0 0 0-.321-.377 3.682 3.682 0 0 0-.576-.357c-.243-.125-.52-.26-.832-.4a6.836 6.836 0 0 1-1.179-.682 3.323 3.323 0 0 1-.699-.668 2.16 2.16 0 0 1-.327-.617 1.994 1.994 0 0 1-.091-.59c0-.354.096-.705.287-1.049a2.27 2.27 0 0 1 .838-.848c.368-.219.793-.328 1.276-.328.37 0 .722.082 1.058.248.335.166.625.391.87.68.069-.164.134-.393.193-.689h.548v2.209h-.548c-.39-1.203-1.067-1.805-2.033-1.805-.351 0-.631.092-.844.275a.909.909 0 0 0-.318.717c0 .23.066.43.199.598.132.17.306.314.522.436s.565.295 1.048.52c.584.277 1.041.516 1.37.719.329.203.607.457.834.766.23.304.344.677.344 1.112zm12.913.332a3.057 3.057 0 0 1-.229.979c-.132.318-.33.584-.594.799-.266.213-.599.32-1.002.32-.2 0-.396-.031-.588-.096a2.287 2.287 0 0 1-.626-.34 7.384 7.384 0 0 1-.833-.74c-.425.402-.856.701-1.294.896s-.857.291-1.255.291a2.4 2.4 0 0 1-1.237-.322 2.297 2.297 0 0 1-.849-.852c-.2-.354-.299-.73-.299-1.133 0-.236.039-.494.118-.771.079-.277.265-.598.559-.961.295-.363.724-.695 1.288-1.002a7.28 7.28 0 0 1-.492-.992 2.533 2.533 0 0 1-.169-.934c0-.322.062-.611.185-.871.123-.258.281-.467.474-.627.193-.158.412-.279.658-.365a2.29 2.29 0 0 1 .744-.127c.369 0 .69.082.963.244.273.164.482.373.626.627s.216.52.216.795c0 .365-.131.727-.394 1.084-.263.359-.646.668-1.151.932l1.965 2.568c.238-.297.446-.596.627-.896.18-.301.27-.594.27-.877 0-.094-.042-.211-.124-.35-.083-.141-.262-.211-.537-.211v-.584h2.613v.584a1.71 1.71 0 0 0-.563.217 1.56 1.56 0 0 0-.382.359c-.113.146-.3.428-.563.842l-.274.446a6.92 6.92 0 0 1-.693.936c.203.295.44.564.712.805.271.238.526.357.763.357a.638.638 0 0 0 .331-.092.764.764 0 0 0 .28-.33c.08-.16.135-.361.165-.607h.591zm-4.247.483l-2.238-2.904c-.636.381-.954.854-.954 1.418 0 .322.085.641.254.957.17.314.396.576.68.781.285.205.589.309.915.309.263 0 .5-.055.71-.162.21-.11.421-.241.633-.399zm-.261-5.69c0-.174-.032-.338-.098-.49a.875.875 0 0 0-.302-.371.815.815 0 0 0-.483-.143c-.267 0-.477.084-.629.256a.852.852 0 0 0-.229.576c0 .496.237 1.068.712 1.717.31-.232.559-.461.748-.684.187-.222.281-.509.281-.861zm16.714 7.147h-2.12a3.869 3.869 0 0 1-.289-.373c-.115-.164-.24-.355-.376-.576l-.339-.547-.537-.887c-.242-.396-.423-.668-.546-.814-.123-.146-.263-.24-.42-.281s-.426-.061-.803-.061h-.298v2.066c0 .219.023.395.071.527.046.131.156.232.33.303.173.07.425.105.756.105v.537h-3.971v-.537c.483 0 .793-.07.932-.211.138-.139.207-.381.207-.725v-4.998c0-.338-.066-.578-.201-.721-.134-.143-.447-.215-.938-.215v-.549l1.834-.057a23.002 23.002 0 0 1 .987-.024c.121 0 .32.004.601.012.393.012.761.035 1.104.068.343.035.613.08.812.135.292.074.569.197.832.369.263.17.478.396.643.676.166.281.248.605.248.977 0 .264-.057.521-.172.771a1.78 1.78 0 0 1-.554.664c-.255.195-.591.35-1.008.461.285.168.525.375.724.623s.51.701.935 1.363c.246.379.448.664.607.855.16.193.307.324.441.391.134.068.305.113.511.133v.54zm-3.282-5.811c0-.631-.191-1.049-.575-1.256-.384-.207-.885-.311-1.504-.311-.085 0-.152.002-.201.004s-.104.004-.167.004v3.182h.368c.588 0 1.082-.096 1.481-.287.398-.189.598-.635.598-1.336zm10.687 3.205l-.064 2.605h-7.055v-.537c.487 0 .8-.07.94-.211.14-.139.21-.381.21-.725V60.17c0-.227-.022-.402-.066-.529-.045-.125-.15-.225-.316-.297-.165-.072-.421-.109-.768-.109v-.537h6.57l.105 2.057h-.538c-.12-.455-.26-.781-.417-.979-.158-.197-.335-.316-.532-.361-.197-.045-.492-.068-.885-.068h-1.483v2.797h.805c.277 0 .483-.023.619-.072s.232-.141.287-.277c.054-.137.091-.352.111-.643h.561v2.635h-.538c-.016-.293-.055-.508-.117-.646a.498.498 0 0 0-.294-.277c-.135-.047-.34-.07-.616-.07h-.817v1.863c0 .313.007.539.022.684s.058.264.125.359a.583.583 0 0 0 .333.207c.153.043.373.064.657.064h.636c.269 0 .525-.033.768-.102.244-.068.482-.244.715-.525.233-.283.397-.727.491-1.33h.551zm6.775.334c0 .244-.053.504-.158.779a2.743 2.743 0 0 1-.476.787c-.212.252-.48.457-.803.615a2.55 2.55 0 0 1-1.122.234c-.42 0-.838-.092-1.253-.273a2.769 2.769 0 0 1-1.054-.816 3.1 3.1 0 0 0-.239.799h-.537v-2.709h.537c.098.389.231.756.403 1.098.171.342.414.637.727.885.313.246.697.371 1.153.371.397 0 .716-.109.955-.328.24-.217.359-.492.359-.822 0-.188-.037-.352-.11-.49a1.164 1.164 0 0 0-.321-.377 3.763 3.763 0 0 0-.575-.357c-.244-.125-.521-.26-.833-.4a6.875 6.875 0 0 1-1.179-.682c-.308-.23-.541-.453-.698-.668a2.19 2.19 0 0 1-.328-.617 1.993 1.993 0 0 1-.09-.59c0-.354.095-.705.286-1.049.19-.344.47-.627.838-.848.368-.219.793-.328 1.276-.328.37 0 .722.082 1.057.248.334.166.625.391.87.68.07-.164.135-.393.193-.689h.549v2.209h-.549c-.389-1.203-1.067-1.805-2.032-1.805-.351 0-.632.092-.844.275a.909.909 0 0 0-.318.717c0 .23.066.43.198.598.132.17.306.314.523.436.215.121.565.295 1.048.52.584.277 1.04.516 1.369.719s.608.457.835.766c.229.304.343.677.343 1.112zm9.922-1.687c0 .721-.171 1.395-.514 2.023-.343.629-.85 1.133-1.522 1.512-.671.379-1.464.568-2.379.568-.748 0-1.405-.119-1.974-.361-.569-.24-1.033-.564-1.393-.969s-.627-.85-.8-1.332-.26-.967-.26-1.453c0-.705.166-1.371.497-1.998.331-.627.83-1.131 1.495-1.516.666-.383 1.462-.574 2.389-.574.844 0 1.563.137 2.155.414.592.275 1.053.625 1.384 1.045.331.422.567.861.709 1.322.141.463.213.901.213 1.319zm-1.893-.024a6.7 6.7 0 0 0-.114-1.262 3.323 3.323 0 0 0-.4-1.078 2.129 2.129 0 0 0-.782-.766c-.331-.188-.74-.281-1.227-.281-.67 0-1.192.166-1.568.498s-.631.75-.765 1.25a6.323 6.323 0 0 0-.201 1.639c0 .326.021.668.064 1.021.042.354.146.717.31 1.09.164.371.424.684.783.939.358.256.821.383 1.39.383.564 0 1.023-.131 1.375-.395s.61-.584.771-.963c.161-.381.263-.744.304-1.09a8.82 8.82 0 0 0 .06-.985zm11.306 3.983h-2.12a4.22 4.22 0 0 1-.289-.373c-.115-.164-.24-.355-.377-.576l-.339-.547-.537-.887c-.242-.396-.423-.668-.546-.814a.816.816 0 0 0-.42-.281c-.158-.041-.426-.061-.803-.061h-.297v2.066c0 .219.023.395.069.527.047.131.157.232.331.303.173.07.426.105.756.105v.537h-3.971v-.537c.483 0 .793-.07.931-.211.138-.139.208-.381.208-.725v-4.998c0-.338-.067-.578-.202-.721-.133-.143-.446-.215-.937-.215v-.549l1.833-.057a22.86 22.86 0 0 1 .987-.024c.121 0 .321.004.601.012.393.012.761.035 1.104.068.342.035.613.08.812.135.292.074.569.197.832.369.263.17.477.396.643.676.165.281.248.605.248.977 0 .264-.058.521-.172.771-.115.248-.3.471-.555.664-.255.195-.59.35-1.007.461.284.168.525.375.724.623.199.248.51.701.935 1.363.245.379.448.664.607.855.16.193.307.324.441.391.134.068.305.113.511.133v.54zm-3.282-5.811c0-.631-.192-1.049-.576-1.256-.383-.207-.885-.311-1.503-.311-.085 0-.153.002-.201.004a3.969 3.969 0 0 1-.167.004v3.182h.368c.588 0 1.081-.096 1.48-.287.4-.189.599-.635.599-1.336zm10.769.141h-.555c-.051-.492-.159-.854-.324-1.088-.166-.232-.344-.377-.534-.432a2.395 2.395 0 0 0-.661-.082h-1.003v5.799c0 .23.022.408.069.535.046.127.156.225.328.295.17.07.422.105.753.105v.537h-3.972v-.537c.487 0 .8-.07.94-.211.14-.139.21-.381.21-.725v-5.799h-.84c-.331 0-.606.027-.824.08-.218.051-.41.195-.575.432-.166.236-.26.598-.284 1.09h-.554v-2.25h7.825v2.251zm6.657 3.398c0 .244-.053.504-.157.779a2.743 2.743 0 0 1-.476.787c-.212.252-.48.457-.803.615a2.55 2.55 0 0 1-1.121.234c-.421 0-.838-.092-1.252-.273a2.761 2.761 0 0 1-1.054-.816 3.145 3.145 0 0 0-.24.799h-.537v-2.709h.537c.097.389.231.756.403 1.098.171.342.414.637.727.885.313.246.698.371 1.153.371.397 0 .716-.109.955-.328.24-.217.359-.492.359-.822 0-.188-.037-.352-.111-.49a1.164 1.164 0 0 0-.321-.377 3.714 3.714 0 0 0-.575-.357c-.244-.125-.521-.26-.833-.4a6.875 6.875 0 0 1-1.179-.682 3.347 3.347 0 0 1-.699-.668 2.212 2.212 0 0 1-.327-.617 1.993 1.993 0 0 1-.09-.59c0-.354.096-.705.286-1.049.191-.344.471-.627.839-.848a2.445 2.445 0 0 1 1.275-.328c.37 0 .723.082 1.057.248.335.166.625.391.87.68.071-.164.134-.393.193-.689h.549v2.209h-.549c-.389-1.203-1.066-1.805-2.032-1.805-.35 0-.632.092-.844.275a.909.909 0 0 0-.318.717c0 .23.066.43.198.598.132.17.307.314.522.436.216.121.565.295 1.048.52.584.277 1.04.516 1.369.719s.607.457.835.766c.23.304.343.677.343 1.112zM66.623 81.723h-4.142v-.506h.336c.286 0 .481-.018.586-.053s.157-.098.157-.184c0-.129-.151-.404-.452-.826l-1.601-2.26-.946.83v1.611c0 .326.076.555.226.686.15.129.437.195.858.195v.506h-3.729v-.506c.319 0 .555-.033.707-.1.152-.066.251-.16.297-.281s.068-.287.068-.5v-4.686c0-.213-.021-.379-.063-.498-.042-.119-.141-.213-.297-.279-.156-.068-.393-.104-.712-.104v-.506h3.729v.506c-.458 0-.753.066-.885.199-.132.131-.199.359-.199.682v2.244l2.321-2.029c.162-.141.279-.26.352-.361a.56.56 0 0 0 .11-.338c0-.264-.251-.396-.754-.396v-.506h3.405v.506a4.717 4.717 0 0 0-.646.094c-.167.041-.33.107-.487.199-.158.092-.33.211-.517.361a35.3 35.3 0 0 0-.886.754l-.781.678 2.2 3.135c.234.334.427.582.577.744.151.164.312.281.484.355.172.072.399.115.682.127v.507zm6.93-2.453l-.061 2.453h-6.644v-.506c.458 0 .753-.066.886-.199.132-.131.198-.359.198-.682V75.65c0-.213-.021-.379-.063-.498-.043-.119-.142-.213-.298-.279-.155-.068-.396-.104-.723-.104v-.506h6.187l.099 1.936h-.505c-.114-.428-.245-.734-.394-.92s-.315-.299-.5-.342c-.185-.041-.462-.063-.833-.063h-1.396v2.635h.759c.261 0 .455-.023.583-.07a.432.432 0 0 0 .27-.26c.051-.129.086-.33.104-.605h.528v2.48h-.506c-.014-.275-.051-.479-.11-.607a.467.467 0 0 0-.277-.262c-.127-.045-.32-.066-.58-.066h-.771v1.756c0 .293.007.508.022.643a.691.691 0 0 0 .119.338c.063.09.168.154.313.195.144.041.351.061.618.061h.6c.253 0 .494-.031.724-.096.229-.064.454-.229.673-.496.22-.266.374-.682.462-1.25h.516zm8.794-4.5c-.355 0-.61.037-.764.107a.483.483 0 0 0-.286.316c-.037.141-.056.367-.056.684v5.912h-.505l-4.878-5.797V80.1c0 .313.019.539.058.68.038.141.137.248.294.324.158.074.413.113.765.113v.506h-2.772v-.506c.33 0 .57-.039.718-.113a.495.495 0 0 0 .275-.324c.035-.141.052-.367.052-.68v-3.805c0-.309-.009-.541-.025-.693a1.102 1.102 0 0 0-.119-.406.679.679 0 0 0-.305-.279c-.141-.072-.336-.119-.586-.146v-.506h2.172l4.246 5.016v-3.402c0-.279-.019-.494-.057-.643a.54.54 0 0 0-.286-.344c-.152-.08-.394-.121-.723-.121v-.506h2.782v.505zm8.013 0a1.17 1.17 0 0 0-.503.139c-.134.076-.268.203-.402.379s-.331.463-.591.857l-1.567 2.426v1.766c0 .201.021.363.063.484s.14.217.294.289c.153.07.396.107.726.107v.506h-3.751v-.506c.312 0 .548-.031.707-.092s.264-.15.313-.271c.05-.121.074-.293.074-.518V78.67l-1.87-3.119c-.015-.021-.03-.047-.046-.074a.617.617 0 0 0-.036-.053c-.162-.264-.306-.436-.432-.516-.127-.08-.313-.127-.559-.139v-.506h3.492v.506c-.176 0-.315.006-.418.018a.496.496 0 0 0-.25.088c-.064.049-.096.123-.096.225 0 .07.022.154.066.254s.145.285.302.555l1.161 1.963 1.105-1.748c.238-.377.357-.654.357-.83 0-.23-.075-.377-.226-.436s-.359-.088-.627-.088v-.506h2.712v.506zm6.649 6.953h-3.515v-.506c.296 0 .513-.021.649-.064.136-.041.204-.143.204-.299a.921.921 0 0 0-.066-.336l-.352-.879h-2.42l-.181.482c-.103.271-.154.469-.154.59 0 .219.086.359.256.418s.369.088.596.088v.506h-2.567v-.506c.205 0 .378-.039.522-.115.143-.078.279-.223.41-.438.13-.215.27-.52.42-.912l2.151-5.631h.522l2.271 5.809c.165.41.286.688.363.832a.822.822 0 0 0 .319.336c.136.078.327.119.572.119v.506zM93.731 79.1l-1.029-2.602-.978 2.602h2.007zM2.522 56.866c.069-.484.554-4.326.554-5.676 0-.899.208-4.636.104-5.467l.796.208c-.034.449.139 2.422.242 3.045.935 2.214 2.976 3.772 5.363 3.772 2.734 0 4.914-1.801 4.914-4.361 0-2.803-2.18-4.187-4.429-5.64-3.392-2.215-6.09-4.153-6.09-8.063 0-2.698 2.007-6.089 7.128-6.089 2.042 0 3.841.414 4.672.623.242-.832.415-1.869.623-2.804l.796-.104c-.484 3.427-.831 6.645-.831 9.482l-.796-.347c0-1.177-.069-2.008-.138-2.63-.381-1.245-2.18-3.114-4.603-3.114-2.976 0-4.222 1.903-4.222 3.461 0 2.249 2.353 3.46 4.983 5.12 2.873 1.8 5.779 3.737 5.779 8.098 0 4.81-3.807 7.544-8.513 7.544-1.661 0-3.807-.346-4.775-.865-.172.658-.519 2.318-.761 3.6l-.796.207zm32.214-4.084c1.211-.104 2.422-.242 3.496-.484-.623-1.799-3.08-9.135-3.633-10.139-1.211 0-6.713.243-7.994.45-.208.484-2.075 7.024-2.422 9.688.866.242 2.008.381 2.976.484l.139.727c-1.073-.068-4.222-.137-5.226-.137-.899 0-3.218.068-4.014.137l.104-.727a26.895 26.895 0 0 0 2.976-.484c1.246-2.18 8.132-20.796 8.617-22.112-.762-.207-1.904-.345-2.734-.448l-.035-.728c1.038.069 3.911.139 4.499.139 1.453 0 4.913-.069 5.917-.139l-.104.728c-.9.104-1.834.241-2.629.448.415 1.524 2.318 6.956 3.633 10.59.969 2.664 3.115 8.478 4.706 11.522 1.004.207 2.007.346 3.045.484l.104.727c-.416-.068-3.91-.137-5.745-.137-1.003 0-4.913.068-5.848.137l.172-.726zm-3.909-22.007h-.069c-1.072 3.079-3.322 9.065-3.668 10.207l7.267.139c-.762-2.285-2.942-8.443-3.53-10.346zm19.376 7.993c0-1.246-.034-7.89-.173-8.547-.588-.138-2.94-.347-3.702-.416l-.104-.727 7.474-.034c3.287 0 7.405.034 9.758.969 1.833.727 2.976 2.041 2.976 3.944 0 2.181-2.214 5.052-4.879 6.54.381.865 5.952 9.932 9.551 13.737l-1.522.242c-2.422-1.105-11.627-11.729-12.181-12.457-1.314.104-2.734.208-3.322.208v.899c0 2.249.069 7.578.173 9.17.588.173 2.872.416 3.633.484l.138.727c-.865-.068-4.359-.137-5.951-.137-1.419 0-5.052.068-5.848.137l.139-.727c.484-.033 2.699-.242 3.667-.484.139-1.004.173-7.785.173-11.419v-2.109zm3.876 2.388c1.246 0 2.734-.104 4.222-.658s3.945-2.145 3.945-5.57c0-2.215-2.007-4.914-7.993-4.914-.104 1.418-.173 7.613-.173 10.069v1.073zm21.626 8.892c-2.526-2.596-3.322-5.121-3.322-8.373 0-6.853 5.64-13.08 15.19-13.08 3.668 0 6.575.588 9.585 2.802 2.734 2.008 4.187 5.364 4.187 8.581 0 8.478-6.437 13.946-14.949 13.946-3.494 0-7.473-.588-10.691-3.876zm21.42-7.543c0-7.336-5.086-12.596-10.831-12.596-4.741 0-9.931 3.183-9.931 10.311 0 6.195 4.983 12.284 11.73 12.284 4.948 0 9.032-4.462 9.032-9.999zm5.05-13.496c1.108.069 3.045.139 4.983.139 2.145 0 5.225-.069 5.986-.139l-.173.728c-.728.068-2.665.276-3.253.484.243 1.176 7.024 17.128 7.924 18.234.795-1.591 7.059-14.567 7.751-18.234-.658-.138-2.077-.312-3.183-.484l-.174-.728c.485.069 2.941.139 5.052.139 1.626 0 3.045-.069 3.875-.139l-.173.728c-.657.138-1.21.276-2.11.484-.727.415-12.007 23.564-12.458 24.672-1.107-1.938-10.069-22.319-11.765-24.672-.449-.138-1.038-.312-2.146-.484l-.136-.728zm40.831 23.773c1.21-.104 2.422-.242 3.495-.484-.623-1.799-3.08-9.135-3.633-10.139-1.211 0-6.713.243-7.994.45-.207.484-2.076 7.024-2.421 9.688.865.242 2.007.381 2.976.484l.138.727c-1.072-.068-4.222-.137-5.225-.137-.899 0-3.218.068-4.015.137l.104-.727a26.857 26.857 0 0 0 2.976-.484c1.245-2.18 8.132-20.796 8.616-22.112-.762-.207-1.903-.345-2.733-.448l-.035-.728c1.038.069 3.91.139 4.499.139 1.453 0 4.914-.069 5.917-.139l-.104.728c-.899.104-1.834.241-2.629.448.415 1.524 2.318 6.956 3.633 10.59.969 2.664 3.114 8.478 4.706 11.522 1.003.207 2.007.346 3.045.484l.104.727c-.416-.068-3.91-.137-5.745-.137-1.003 0-4.913.068-5.848.137l.173-.726zm-3.91-22.007h-.07c-1.072 3.079-3.321 9.065-3.667 10.207l7.266.139c-.761-2.285-2.94-8.443-3.529-10.346zM15.818 70.127h123.13v.734H15.818z"/></svg>