<svg xmlns="http://www.w3.org/2000/svg" viewBox="0 0 414 414"><defs><style>.cls-2{fill:#d3e6f8}.cls-3{fill:#a4cff2}.cls-4{fill:#0f752a}.cls-5{fill:#ec7123}.cls-6{fill:#fd919e}</style></defs><g id="Layer_2" data-name="Layer 2"><g id="Icon_Set" data-name="Icon Set"><g id="Artificial_Intelligence" data-name="Artificial Intelligence"><circle cx="207" cy="207" r="207" fill="#f0c48a"/><path class="cls-2" d="M192.16 35.55a94.59 94.59 0 0 0-94.58 94.58v46.73l-28.86 50a7.63 7.63 0 0 0 6.61 11.45h22.25v27.89a52.29 52.29 0 0 0 52.29 52.29H195v60h91.74V130.13a94.58 94.58 0 0 0-94.58-94.58z"/><path class="cls-3" d="M192.16 35.55a95.69 95.69 0 0 0-11.79.73 94.6 94.6 0 0 1 82.8 93.85v248.32h23.57V130.13a94.58 94.58 0 0 0-94.58-94.58z"/><rect class="cls-3" x="161.75" y="84.71" width="74.9" height="74.9" rx="7.44" ry="7.44"/><rect class="cls-2" x="180.26" y="103.22" width="37.87" height="37.87" rx="3.76" ry="3.76"/><path class="cls-4" d="M229.21 165.61h-60a13.46 13.46 0 0 1-13.44-13.44v-60a13.46 13.46 0 0 1 13.44-13.44h60a13.46 13.46 0 0 1 13.44 13.44v60a13.46 13.46 0 0 1-13.44 13.44zm-60-74.9a1.45 1.45 0 0 0-1.44 1.44v60a1.45 1.45 0 0 0 1.44 1.44h60a1.45 1.45 0 0 0 1.44-1.44v-60a1.45 1.45 0 0 0-1.44-1.44z"/><path class="cls-4" d="M214.37 147.09H184a9.77 9.77 0 0 1-9.76-9.76V107a9.77 9.77 0 0 1 9.76-9.78h30.35a9.77 9.77 0 0 1 9.76 9.76v30.35a9.76 9.76 0 0 1-9.74 9.76zm-28.11-12h25.87v-25.87h-25.87zm34.45-44.38a6 6 0 0 1-6-6V68.49a6 6 0 0 1 12 0v16.22a6 6 0 0 1-6 6zm-21.51 0a6 6 0 0 1-6-6V68.49a6 6 0 0 1 12 0v16.22a6 6 0 0 1-6 6zm-21.51 0a6 6 0 0 1-6-6V68.49a6 6 0 1 1 12 0v16.22a6 6 0 0 1-6 6zm0 91.12a6 6 0 0 1-6-6v-16.22a6 6 0 0 1 12 0v16.22a6 6 0 0 1-6 6zm21.51 0a6 6 0 0 1-6-6v-16.22a6 6 0 0 1 12 0v16.22a6 6 0 0 1-6 6zm21.51 0a6 6 0 0 1-6-6v-16.22a6 6 0 0 1 12 0v16.22a6 6 0 0 1-6 6zM313.24 165a6 6 0 0 1-6-6v-9.32h-70.59a6 6 0 0 1 0-12h76.59a6 6 0 0 1 6 6V159a6 6 0 0 1-6 6zm15.31-36.84h-91.9a6 6 0 0 1 0-12h91.9a6 6 0 0 1 0 12zm-15.31-21.51h-76.59a6 6 0 0 1 0-12h70.59v-9.32a6 6 0 1 1 12 0v15.32a6 6 0 0 1-6 6zm-151.49 0h-16.22a6 6 0 0 1 0-12h16.22a6 6 0 0 1 0 12zm0 21.51h-16.22a6 6 0 0 1 0-12h16.22a6 6 0 0 1 0 12zm0 21.51h-16.22a6 6 0 0 1 0-12h16.22a6 6 0 0 1 0 12z"/><path class="cls-5" d="M286.74 384.45H195a6 6 0 0 1-6-6v-54h-39.13a58.36 58.36 0 0 1-58.29-58.25v-21.89H75.33a13.64 13.64 0 0 1-11.81-20.45l28.06-48.61v-45.12A100.69 100.69 0 0 1 192.16 29.55a100.69 100.69 0 0 1 100.58 100.58v248.32a6 6 0 0 1-6 6zm-85.74-12h79.74V130.13a88.58 88.58 0 0 0-177.16 0v46.73a6.07 6.07 0 0 1-.8 3l-28.86 50a1.64 1.64 0 0 0 1.41 2.45h22.25a6 6 0 0 1 6 6v27.89a46.35 46.35 0 0 0 46.29 46.29H195a6 6 0 0 1 6 6z"/><path class="cls-6" d="M333.66 134.81a12.65 12.65 0 1 1 12.65-12.65 12.65 12.65 0 0 1-12.65 12.65z"/><path class="cls-5" d="M333.66 140.81a18.65 18.65 0 1 1 18.65-18.65 18.68 18.68 0 0 1-18.65 18.65zm0-25.3a6.65 6.65 0 1 0 6.65 6.65 6.65 6.65 0 0 0-6.65-6.65z"/><path class="cls-6" d="M313.24 85.33a12.66 12.66 0 1 1 12.65-12.65 12.66 12.66 0 0 1-12.65 12.65z"/><path class="cls-5" d="M313.24 91.33a18.66 18.66 0 1 1 18.65-18.65 18.68 18.68 0 0 1-18.65 18.65zm0-25.31a6.66 6.66 0 1 0 6.65 6.66 6.67 6.67 0 0 0-6.65-6.68z"/><path class="cls-6" d="M313.24 184.29a12.65 12.65 0 1 1 12.65-12.65 12.65 12.65 0 0 1-12.65 12.65z"/><path class="cls-5" d="M313.24 190.29a18.65 18.65 0 1 1 18.65-18.65 18.68 18.68 0 0 1-18.65 18.65zm0-25.3a6.65 6.65 0 1 0 6.65 6.65 6.66 6.66 0 0 0-6.65-6.64z"/></g></g></g></svg>