<svg xmlns="http://www.w3.org/2000/svg" viewBox="0 0 414 414"><defs><style>.cls-2{fill:#d3e6f8}.cls-4{fill:#2a9342}.cls-6{fill:#ec7123}.cls-7{fill:#fff}</style></defs><g id="Layer_2" data-name="Layer 2"><g id="Icon_Set" data-name="Icon Set"><g id="Fast_Delivery" data-name="Fast Delivery"><circle cx="207" cy="207" r="207" fill="#f0c48a"/><path class="cls-2" d="M83.39 232.54h197.35v53.7H96.35a13 13 0 0 1-13-13v-40.7h.04z"/><path d="M97.91 95.52h168.31A14.52 14.52 0 0 1 280.74 110v122.5H83.39V110a14.52 14.52 0 0 1 14.52-14.48z" fill="#0f752a"/><path class="cls-4" d="M266.22 95.52h-14.4v137h28.92V110a14.52 14.52 0 0 0-14.52-14.48z"/><path fill="#a4cff2" d="M251.82 232.54h28.92v53.7h-28.92z"/><path class="cls-6" d="M280.74 292.23H96.35a19 19 0 0 1-19-19v-40.69a6 6 0 0 1 6-6h197.39a6 6 0 0 1 6 6v53.69a6 6 0 0 1-6 6zM89.39 238.54v34.73a7 7 0 0 0 7 7h178.35v-41.73z"/><path class="cls-6" d="M280.74 238.54H83.39a6 6 0 0 1-6-6V110a20.54 20.54 0 0 1 20.52-20.48h168.31A20.53 20.53 0 0 1 286.74 110v122.54a6 6 0 0 1-6 6zm-191.35-12h185.35V110a8.52 8.52 0 0 0-8.52-8.51H97.91a8.52 8.52 0 0 0-8.52 8.51z"/><rect class="cls-2" x="64.12" y="259.89" width="323.45" height="26.35" rx="5.9" ry="5.9"/><path class="cls-2" d="M375.68 259.89h-94.94v-122.1h51a18.93 18.93 0 0 1 15.86 8.6l25 38.4a19.09 19.09 0 0 1 3.09 10.43z"/><path class="cls-7" d="M353.29 155.14h-53.8v40.08h76.19a19.09 19.09 0 0 0-3.09-10.43zm7.47 61.72h14.93v29.27h-14.93a4.5 4.5 0 0 1-4.5-4.5v-20.27a4.5 4.5 0 0 1 4.5-4.5z"/><path class="cls-6" d="M375.68 265.89h-94.94a6 6 0 0 1-6-6v-122.1a6 6 0 0 1 6-6h51a24.86 24.86 0 0 1 20.89 11.33l25 38.39a25.08 25.08 0 0 1 4.06 13.71v64.67a6 6 0 0 1-6.01 6zm-88.94-12h82.94v-58.67a13.07 13.07 0 0 0-2.12-7.16l-25-38.39a12.87 12.87 0 0 0-10.83-5.88h-45z"/><path class="cls-6" d="M381.67 292.23H70a11.91 11.91 0 0 1-11.9-11.89v-14.55a11.91 11.91 0 0 1 11.9-11.9h311.67a11.91 11.91 0 0 1 11.9 11.9v14.55a11.91 11.91 0 0 1-11.9 11.89zm0-12zm-311.55 0h311.45v-14.34H70.12zm305.56-28.1h-14.92a10.51 10.51 0 0 1-10.5-10.5v-20.27a10.51 10.51 0 0 1 10.5-10.5h14.92a6 6 0 0 1 6 6v29.27a6 6 0 0 1-6 6zm-13.42-12h7.42v-17.27h-7.42z"/><path class="cls-6" d="M299.49 265.89a6 6 0 0 1-6-6V155.14a6 6 0 0 1 6-6h53.8a6 6 0 0 1 0 12h-47.8v98.75a6 6 0 0 1-6 6zm76.19-64.67h-26.34a6 6 0 0 1 0-12h26.34a6 6 0 0 1 0 12z"/><path class="cls-6" d="M329.92 201.22h-30.43a6 6 0 0 1 0-12h30.43a6 6 0 0 1 0 12z"/><circle class="cls-4" cx="328.91" cy="286.23" r="32.25" transform="rotate(-21.98 328.932 286.25)"/><path class="cls-6" d="M328.91 324.48a38.25 38.25 0 1 1 38.25-38.25 38.29 38.29 0 0 1-38.25 38.25zm0-64.49a26.25 26.25 0 1 0 26.25 26.24A26.27 26.27 0 0 0 328.91 260z"/><circle class="cls-7" cx="328.91" cy="286.23" r="13.17" transform="matrix(.16 -.99 .99 .16 -6.5 564.82)"/><path class="cls-6" d="M328.91 305.41a19.18 19.18 0 1 1 19.17-19.18 19.19 19.19 0 0 1-19.17 19.18zm0-26.35a7.18 7.18 0 1 0 7.17 7.17 7.18 7.18 0 0 0-7.17-7.17z"/><rect class="cls-2" x="329.92" y="175.04" width="19.42" height="34.85" rx="4.5" ry="4.5"/><path class="cls-6" d="M344.84 215.89h-10.42a10.51 10.51 0 0 1-10.5-10.5v-25.85a10.51 10.51 0 0 1 10.5-10.5h10.42a10.51 10.51 0 0 1 10.5 10.5v25.85a10.51 10.51 0 0 1-10.5 10.5zm-8.92-12h7.42V181h-7.42z"/><circle class="cls-4" cx="154.37" cy="286.23" r="32.25" transform="rotate(-6.35 154.453 286.412)"/><path class="cls-6" d="M154.37 324.48a38.25 38.25 0 1 1 38.24-38.25 38.29 38.29 0 0 1-38.24 38.25zm0-64.49a26.25 26.25 0 1 0 26.24 26.24A26.27 26.27 0 0 0 154.37 260z"/><circle class="cls-7" cx="154.37" cy="286.23" r="13.17" transform="rotate(-80.74 154.382 286.24)"/><path class="cls-6" d="M154.37 305.41a19.18 19.18 0 1 1 19.17-19.18 19.2 19.2 0 0 1-19.17 19.18zm0-26.35a7.18 7.18 0 1 0 7.17 7.17 7.18 7.18 0 0 0-7.17-7.17zm-30.51-144.6H40.08a6 6 0 1 1 0-12h83.78a6 6 0 0 1 0 12zm23.81 53.36H40.08a6 6 0 1 1 0-12h107.59a6 6 0 1 1 0 12zm-32.14 28.07H64.12a6 6 0 0 1 0-12h51.41a6 6 0 0 1 0 12zm-69.59 0H26.66a6 6 0 1 1 0-12h19.28a6 6 0 0 1 0 12zm-5.43-54.75H26.43a6 6 0 0 1 0-12h14.08a6 6 0 0 1 0 12zm60.74 0H59.88a6 6 0 1 1 0-12h41.37a6 6 0 0 1 0 12zm-17.86 86.4H30.44a6 6 0 0 1 0-12h53a6 6 0 1 1 0 12zm54.54-86.4h-14.07a6 6 0 0 1 0-12h14.07a6 6 0 0 1 0 12z"/></g></g></g></svg>