<svg xmlns="http://www.w3.org/2000/svg" viewBox="0 0 511 471.08"><g data-name="Layer 2"><path d="M508.08 454L444 390a51.29 51.29 0 00-26.56-14.13V246.55c2.09.17 4.17.26 6.26.26a75.53 75.53 0 0073.49-92.21 10 10 0 00-7.54-7.54 75.23 75.23 0 00-70.08 20.25c-.73.73-1.44 1.48-2.13 2.23v-52.23a62.08 62.08 0 00-4.65-101.79 10 10 0 00-10.67 0 62.08 62.08 0 00-4.65 101.79v13.1a67 67 0 00-62.24-17.82 10 10 0 00-7.54 7.54 67.35 67.35 0 0065.54 82.23c1.41 0 2.83-.06 4.24-.15v40.09c-1.29-1.5-2.65-3-4.07-4.39a81.72 81.72 0 00-75.34-22.18 32 32 0 00-31.64-27.42h-64.15l-29.88-41.07A56.69 56.69 0 00177 132.78a48.28 48.28 0 0029.69-44.5V64.42h15.39a10 10 0 000-20H209.4v-16A28.5 28.5 0 00180.93 0h-47.18a28.51 28.51 0 00-28.48 28.47v16H92.63a10 10 0 100 20h17.62v23.81a48.13 48.13 0 0018.86 38.2 57 57 0 00-39.67 54.24v108.67a63.13 63.13 0 0031.67 54.69v64.12H31.44a31.44 31.44 0 000 62.88h12.85a10 10 0 100-20H31.44a11.48 11.48 0 010-23h99.65a10 10 0 0010-10v-66.64a63.12 63.12 0 0011.49 1.07h19.77v64.55a34.1 34.1 0 01-34.05 34.06h-14.17a10 10 0 000 20h14.15a54.07 54.07 0 0054-54v-64.61h36.5v87.13a31.44 31.44 0 1062.88 0V331.35a54.07 54.07 0 00-54-54h-48.08v-25.58a10.08 10.08 0 003 .48h93.78a31.81 31.81 0 0021.24-8.11 82.17 82.17 0 0081.91 79.55c2.63 0 5.27-.13 7.9-.38v52.55A51.2 51.2 0 00371.06 390l-63.79 63.8a10 10 0 0014.11 14.11l63.79-63.79a31.63 31.63 0 0144.7 0L494 468.15A10 10 0 10508.08 454zM397.3 182.22a47.37 47.37 0 01-51.16-51.17 47.36 47.36 0 0151.16 51.17zm36.38-.79a55.2 55.2 0 0145.1-16 55.55 55.55 0 01-61.07 61.06c-.18-1.7-.26-3.38-.28-5.07v-1.94a55.15 55.15 0 0116.25-38.05zM407.45 36.37a42.13 42.13 0 010 63.33 42.11 42.11 0 010-63.33zM186.7 88.28a28.25 28.25 0 01-56.49 0V64.42h56.49zm-61.46-59.81a8.52 8.52 0 018.51-8.47h47.18a8.52 8.52 0 018.51 8.51v16h-64.2zM237.66 297.3a34.09 34.09 0 0134 34.05v108.29a11.48 11.48 0 11-22.95 0v-97.11a10 10 0 00-10-10h-86.15a43.23 43.23 0 01-42.42-35.25zm48.75-65h-89.3l-19.39-21.8a10 10 0 10-14.92 13.27l6.82 7.66v45.92H109.4v-96.63A37 37 0 01176.25 159l32.87 45.18a10 10 0 008.07 4.11h69.22a12 12 0 010 24zm110.63 71a62.12 62.12 0 01-69-69 62.11 62.11 0 0169.43 61.1v1.41a61.85 61.85 0 01-.47 6.47z" fill="#00a651" data-name="Layer 1"/></g></svg>