<svg xmlns="http://www.w3.org/2000/svg" viewBox="0 0 511 471.08"><g data-name="Layer 2"><path d="M508.08 454L444 390a51.29 51.29 0 0 0-26.56-14.13V246.55c2.09.17 4.17.26 6.26.26a75.53 75.53 0 0 0 73.49-92.21 10 10 0 0 0-7.54-7.54 75.23 75.23 0 0 0-70.08 20.25c-.73.73-1.44 1.48-2.13 2.23v-52.23a62.08 62.08 0 0 0-4.65-101.79 10 10 0 0 0-10.67 0 62.08 62.08 0 0 0-4.65 101.79v13.1a67 67 0 0 0-62.24-17.82 10 10 0 0 0-7.54 7.54 67.35 67.35 0 0 0 65.54 82.23c1.41 0 2.83-.06 4.24-.15v40.09c-1.29-1.5-2.65-3-4.07-4.39a81.72 81.72 0 0 0-75.34-22.18 32 32 0 0 0-31.64-27.42h-64.15l-29.88-41.07A56.69 56.69 0 0 0 177 132.78a48.28 48.28 0 0 0 29.69-44.5V64.42h15.39a10 10 0 0 0 0-20H209.4v-16A28.5 28.5 0 0 0 180.93 0h-47.18a28.51 28.51 0 0 0-28.48 28.47v16H92.63a10 10 0 1 0 0 20h17.62v23.81a48.13 48.13 0 0 0 18.86 38.2 57 57 0 0 0-39.67 54.24v108.67a63.13 63.13 0 0 0 31.67 54.69v64.12H31.44a31.44 31.44 0 0 0 0 62.88h12.85a10 10 0 1 0 0-20H31.44a11.48 11.48 0 0 1 0-23h99.65a10 10 0 0 0 10-10v-66.64a63.12 63.12 0 0 0 11.49 1.07h19.77v64.55a34.1 34.1 0 0 1-34.05 34.06h-14.17a10 10 0 0 0 0 20h14.15a54.07 54.07 0 0 0 54-54v-64.61h36.5v87.13a31.44 31.44 0 1 0 62.88 0V331.35a54.07 54.07 0 0 0-54-54h-48.08v-25.58a10.08 10.08 0 0 0 3 .48h93.78a31.81 31.81 0 0 0 21.24-8.11 82.17 82.17 0 0 0 81.91 79.55c2.63 0 5.27-.13 7.9-.38v52.55A51.2 51.2 0 0 0 371.06 390l-63.79 63.8a10 10 0 0 0 14.11 14.11l63.79-63.79a31.63 31.63 0 0 1 44.7 0L494 468.15A10 10 0 1 0 508.08 454zM397.3 182.22a47.37 47.37 0 0 1-51.16-51.17 47.36 47.36 0 0 1 51.16 51.17zm36.38-.79a55.2 55.2 0 0 1 45.1-16 55.55 55.55 0 0 1-61.07 61.06c-.18-1.7-.26-3.38-.28-5.07v-1.94a55.15 55.15 0 0 1 16.25-38.05zM407.45 36.37a42.13 42.13 0 0 1 0 63.33 42.11 42.11 0 0 1 0-63.33zM186.7 88.28a28.25 28.25 0 0 1-56.49 0V64.42h56.49zm-61.46-59.81a8.52 8.52 0 0 1 8.51-8.47h47.18a8.52 8.52 0 0 1 8.51 8.51v16h-64.2zM237.66 297.3a34.09 34.09 0 0 1 34 34.05v108.29a11.48 11.48 0 1 1-22.95 0v-97.11a10 10 0 0 0-10-10h-86.15a43.23 43.23 0 0 1-42.42-35.25zm48.75-65h-89.3l-19.39-21.8a10 10 0 1 0-14.92 13.27l6.82 7.66v45.92H109.4v-96.63A37 37 0 0 1 176.25 159l32.87 45.18a10 10 0 0 0 8.07 4.11h69.22a12 12 0 0 1 0 24zm110.63 71a62.12 62.12 0 0 1-69-69 62.11 62.11 0 0 1 69.43 61.1v1.41a61.85 61.85 0 0 1-.47 6.47z" fill="#00a651" data-name="Layer 1"/></g></svg>