<svg width="166" height="122" xmlns="http://www.w3.org/2000/svg"><g fill="none" fill-rule="evenodd"><path fill="#000" d="M.157 96.5h2v-69h-2zm78.786 0h-2.026L33.824 32.15h-.426l-.108 42.828V96.5h-2.133V75.951l.108-48.343h2.025l43.094 64.35h.426l.214-64.242 2.133-.216-.106 49.966zm42.293-55.566V30.38h15.737c-2.934 6.002-8.848 10.21-15.737 10.553zM103.68 30.38h15.501v10.537c-6.788-.426-12.602-4.603-15.501-10.537zm-1.97-8.55c0-10.546 8.35-19.126 18.616-19.126s18.618 8.58 18.618 19.127c0 2.258-.386 4.425-1.089 6.439h-35.057a19.499 19.499 0 0 1-1.089-6.44zm41.447 6.44h-3.036c.628-2.033.97-4.196.97-6.44C141.09 10.07 131.774.5 120.325.5s-20.763 9.57-20.763 21.332c0 2.243.34 4.406.968 6.439h-3.374v2.11h4.152c3.07 7.177 9.873 12.299 17.872 12.748V95.5h2.055V43.14c8.1-.362 15.008-5.512 18.107-12.759h3.814v-2.11zm20 67.23h2v-67h-2z"/><path d="M7.843 117.934l2.262-5.816c.02-.047.037-.093.052-.137.015.044.032.09.052.135l2.263 5.818h-4.63zm6.015 3.566h.3l-3.894-10h-.213l-3.894 10h.301l1.282-3.296h4.834l1.281 3.292c0 .002.002.002.003.004zm10.129-2.286l-5.725-7.43a.633.633 0 0 0-.533-.284h-.572v10h1.17v-7.753l5.775 7.499c.12.161.3.254.537.254h.518v-10h-1.17v7.714zm3.17 2.286h1v-10h-1zm12.725-10h-1.324a.763.763 0 0 0-.341.075 1.203 1.203 0 0 0-.24.166l-4.264 4.037a.27.27 0 0 1-.11.069 2.547 2.547 0 0 1-.175.005h-.112V111.5h-1.159v10h1.159v-4.532h.112c.071 0 .129.002.172.01l.045.008 4.597 4.278a.829.829 0 0 0 .24.171.823.823 0 0 0 .35.065h1.325l-5.465-5.091 5.19-4.909zm9 0h-1.324a.763.763 0 0 0-.341.075 1.203 1.203 0 0 0-.24.166l-4.264 4.037a.27.27 0 0 1-.11.069 2.547 2.547 0 0 1-.175.005h-.112V111.5h-1.159v10h1.159v-4.532h.112c.071 0 .129.002.172.01l.045.008 4.597 4.278a.829.829 0 0 0 .24.171.823.823 0 0 0 .35.065h1.325l-5.465-5.091 5.19-4.909zm4.361 5.494h4.124v-1.13h-4.124v-3.235H58.1V111.5h-5.944v10h5.903l.097-1.13h-4.914zm6.914 4.506h1v-10h-1zm6.3-4.937h4.821v-.281h-4.821v-4.5h5.68v-.282h-5.98v10h5.974l.026-.281h-5.7zm15.529-5.063h-.283a.168.168 0 0 0-.12.05.389.389 0 0 0-.06.075l-3.349 4.533-.015.023-3.373-4.564a.287.287 0 0 1-.038-.05.154.154 0 0 0-.136-.067h-.284l3.643 4.88-3.814 5.12h.283c.049 0 .09-.02.118-.056a.966.966 0 0 1 .063-.069l3.53-4.78.018-.024 3.531 4.812c.008.007.02.022.038.05.02.03.06.067.136.067h.283l-3.799-5.134 3.628-4.866zm8.86 2.884c0 .365-.078.71-.232 1.025a2.514 2.514 0 0 1-.655.828 3.158 3.158 0 0 1-1.03.56 4.242 4.242 0 0 1-1.358.204h-2.103v-5.234h2.103c1.092 0 1.92.224 2.463.665.539.44.812 1.096.812 1.952m-.623-2.172c-.616-.472-1.509-.712-2.652-.712h-2.414v10h.311v-4.232h2.103c.524 0 1.011-.072 1.447-.215a3.605 3.605 0 0 0 1.135-.597c.318-.254.567-.561.742-.913.174-.353.262-.743.262-1.159 0-.965-.314-1.696-.934-2.172m5.233 4.351h4.823v-.281h-4.823v-4.5h5.681v-.282h-5.98v10h5.975l.025-.281h-5.7zm14.477-.751a3.2 3.2 0 0 1-1.037.483c-.404.113-.866.17-1.374.17h-2.05v-4.698h2.186c1.021 0 1.814.185 2.356.549.535.36.806.937.806 1.716 0 .378-.077.722-.23 1.02a2.155 2.155 0 0 1-.657.76m-2.06.913a5.03 5.03 0 0 0 1.19-.2 3.53 3.53 0 0 0 1.1-.54 2.46 2.46 0 0 0 .717-.844c.169-.33.254-.703.254-1.11 0-.863-.306-1.51-.91-1.92-.597-.405-1.46-.611-2.566-.611h-2.5v10h.314v-4.768h1.57c.103 0 .19.004.259.01a.528.528 0 0 1 .295.11c.038.03.077.067.115.111l3.937 4.431c.049.052.09.082.129.093.031.009.07.013.116.013h.264l-4.194-4.689a1.143 1.143 0 0 0-.09-.086m6.137 4.775h.294v-10h-.294zm6.447-4.937h4.821v-.281h-4.821v-4.5h5.68v-.282h-5.98v10h5.973l.027-.281h-5.7zm16.448 4.369l-6.491-9.346a.162.162 0 0 0-.144-.086h-.113v10h.253v-9.474l6.526 9.398c.041.063.089.076.121.076h.1v-10h-.252v9.432zm12.053-.969c-.041 0-.075.03-.096.05a6.554 6.554 0 0 1-.641.523c-.212.15-.445.28-.695.384a3.995 3.995 0 0 1-.826.237c-.3.054-.647.082-1.03.082a4.335 4.335 0 0 1-1.678-.323 3.815 3.815 0 0 1-1.338-.933 4.396 4.396 0 0 1-.889-1.49c-.213-.583-.32-1.254-.32-1.993 0-.725.109-1.389.324-1.972a4.379 4.379 0 0 1 .901-1.493 3.928 3.928 0 0 1 1.377-.944 4.603 4.603 0 0 1 1.76-.33 4.3 4.3 0 0 1 1.253.163c.353.108.651.23.889.36.236.13.42.251.549.36.196.165.248.18.282.18.076 0 .109-.034.12-.056l.057-.087-.042-.035a5.734 5.734 0 0 0-.678-.492 4.232 4.232 0 0 0-1.529-.58 5.3 5.3 0 0 0-.9-.074 4.85 4.85 0 0 0-1.89.36c-.57.24-1.065.583-1.474 1.022a4.631 4.631 0 0 0-.95 1.583 5.911 5.911 0 0 0-.337 2.035c0 .767.113 1.467.337 2.08.222.614.539 1.144.94 1.576a4.11 4.11 0 0 0 1.432.998c.548.23 1.155.346 1.805.346.398 0 .769-.034 1.101-.101.33-.067.638-.161.916-.28.276-.118.534-.262.768-.427.232-.164.453-.349.655-.547l.046-.047-.109-.098a.13.13 0 0 0-.09-.037m4.499 1.256v-4.656h4.822v-.281h-4.822v-4.5h5.68v-.282h-5.98v10h5.975l.025-.281z" fill="#E7E8E3"/></g></svg>