<svg xmlns="http://www.w3.org/2000/svg" viewBox="0 0 550 106.73"><defs><style>.cls-1{fill:#ea7024}.cls-2{fill:#30a249}</style></defs><g id="Layer_2" data-name="Layer 2"><g id="Kwikbasket"><g id="_1" data-name="1"><circle class="cls-1" cx="242.26" cy="99.9" r="6.83" id="Wheel"/><circle class="cls-2" cx="271.81" cy="99.9" r="6.83" id="Wheel-2" data-name="Wheel"/><path class="cls-2" d="M353.39 40.16v49.59h-12.05l-.28-7.45c-3.49 5.24-9 8.37-16.65 8.37-13.43 0-23.74-10.21-23.74-25.48 0-15.55 10.31-25.95 23.74-25.95 7.64 0 13.16 3.13 16.65 8.37l.28-7.45zm-12.51 24.75c0-8.92-5.52-15-13.62-15S313.65 56 313.65 65s5.42 14.91 13.61 14.91 13.62-5.98 13.62-15zm22.91 19.87l4.69-7.54a27.07 27.07 0 0 0 14.26 3.68c4.6 0 7.73-1.93 7.73-5S387 71.26 382 70l-4.14-1.1c-8.37-2.21-14.07-5.43-14.07-13.25 0-9.84 7.73-16.38 19.5-16.38 7.45 0 13.8 1.57 18.68 4.88l-5.25 8.19a25.39 25.39 0 0 0-12.6-3.22c-4.51 0-7.64 1.65-7.64 4.5s3.13 4.33 7.46 5.43l4.14 1.2c8.46 2.21 15.18 6.07 15.18 14.81 0 9.38-8.28 15.64-20.7 15.64-7.56-.03-14.26-1.96-18.77-5.92zm66.33-15.91h-4.23v20.88h-12.51V18h12.51v40.56h4.32l16.38-18.4h15.83l-22 23.46 23.18 26.13h-15.81zm82.53.55h-35.88c.92 7 4.6 11.41 11.87 11.41a15.39 15.39 0 0 0 12.14-5.89l9.66 4.87c-4.44 6.63-12.24 10.86-21.62 10.86-15.18 0-25.3-10.12-25.3-25.39 0-15.64 9.84-26 24.75-26S513 49.18 513 64.17a46.42 46.42 0 0 1-.35 5.25zM476.77 61h23.09c-.92-7.55-4.88-11.87-11.59-11.87s-10.49 4.28-11.5 11.87zM550 78.25v10.12a33.73 33.73 0 0 1-12.7 2.3c-9 0-15.18-6.26-15.18-15.64v-49.4h12.52v14.53h14.62v10.21h-14.62v22.09c0 4.5 2.76 7.45 6.71 7.45a21.82 21.82 0 0 0 8.65-1.66zM266.17 37.67h-26.6l2.16 13H269c6.54 0 11 1.49 11 9.78s-4.5 16.17-11.22 16.17h-26.51L231.59 4.4a5.16 5.16 0 0 0-5.1-4.4h-26.33a6.29 6.29 0 0 0-6.37 5.44 6.07 6.07 0 0 0 6 6.68h19.84l11.77 77.63h38.27c14.35 0 23.74-11.5 23.74-28.76 0-11.24-2.3-23.32-27.24-23.32z" id="Basket"/><path class="cls-1" d="M16.67 67h-4.21v20.8H0V16.29h12.46V56.7h4.31l16.3-18.33h15.76L26.94 61.74 50 87.76H34.27zm116.09-28.63l-18.14 49.39h-12.46L91.35 53.67 80.54 87.76H68.08L49.94 38.37h13.65l11.54 35.18 11.09-35.18h10.26l11.08 35.18 11.55-35.18zM138.72 23a7.18 7.18 0 0 1 7.42-7.42 7.1 7.1 0 0 1 7.33 7.42 7 7 0 0 1-7.33 7.33 7.1 7.1 0 0 1-7.42-7.33zm1.19 15.39h12.46v49.37h-12.46zM181.69 67h-4.21v20.8H165V16.29h12.46V56.7h4.3l16.31-18.33h15.76L192 61.74l23.09 26h-15.81z" id="Kwik"/></g></g></g></svg>