<svg xmlns="http://www.w3.org/2000/svg" viewBox="0 0 698.16 424.68"><defs><style>.cls-1{fill:#f5f5f5}.cls-2{fill:#ebebeb}.cls-3{fill:#e0e0e0}.cls-4{fill:#fafafa}.cls-5{fill:#fff}.cls-6{fill:#263238}.cls-7{fill:#e8505b}.cls-10{fill:#455a64}.cls-12{opacity:.6}.cls-13{fill:#ffbe9d}.cls-14{fill:#eb996e}</style></defs><g id="Layer_2" data-name="Layer 2"><g id="Background_Complete" data-name="Background Complete"><path class="cls-1" d="M635.37 23.47c.58-4.24-5.4-7.73-9.9-8.09-2.14-.18-4.37.15-6.4-.56-4.41-1.53-6.16-7.22-10.46-9-3.21-1.35-6.91-.15-10 1.42s-6.19 3.54-9.67 3.76c-3 .19-6.31-.93-8.95.55-2 1.1-3 3.37-4.83 4.71s-4.1 1.59-6.3 1.71-4.49.15-6.5 1.07-3.68 3-3.26 5.21zM69.16 98.99h84.52v267.86H69.16z"/><path class="cls-2" d="M111.41 98.99h42.26v267.12h-42.26z"/><path class="cls-1" d="M78.81 72.7h29.85V99H78.81z"/><path class="cls-2" d="M101.54 72.7h7.11V99h-7.11z"/><path class="cls-3" d="M62.11 98.99v-1.53h94.04v1.53"/><path class="cls-4" d="M85.84 110.46h7.15v15.08h-7.15z"/><path class="cls-3" d="M111.41 131.47c0 .16-9.46.28-21.12.28s-21.13-.12-21.13-.28 9.45-.29 21.13-.29 21.12.13 21.12.29zm17.05-21.01h7.15v15.08h-7.15zM154 131.47c0 .16-9.46.28-21.13.28s-21.13-.12-21.13-.28 9.46-.29 21.13-.29 21.13.13 21.13.29zm-25.54 8.94h7.15v15.09h-7.15zM154 161.42c0 .15-9.46.28-21.13.28s-21.13-.13-21.13-.28 9.46-.29 21.13-.29 21.13.13 21.13.29zm-25.54 9.84h7.15v15.08h-7.15zM154 192.27c0 .16-9.46.29-21.13.29s-21.13-.13-21.13-.29 9.46-.29 21.13-.29 21.13.13 21.13.29zm-25.54 9.85h7.15v15.08h-7.15zm25.54 21c0 .16-9.46.29-21.13.29s-21.13-.13-21.13-.29 9.46-.29 21.13-.29 21.13.17 21.13.29zm-25.54 8.97h7.15v15.08h-7.15zm25.54 21c0 .16-9.46.29-21.13.29s-21.13-.13-21.13-.29 9.46-.29 21.13-.29 21.13.13 21.13.29zm-25.54 9.09h7.15v15.08h-7.15zm0 30.49h7.15v15.08h-7.15zm25.54-9.49c0 .16-9.46.29-21.13.29s-21.13-.13-21.13-.29 9.46-.28 21.13-.28 21.13.1 21.13.28z"/><path class="cls-4" d="M85.84 140.87h7.15v15.08h-7.15z"/><path class="cls-3" d="M111.41 161.87c0 .16-9.46.29-21.12.29s-21.13-.13-21.13-.29 9.45-.28 21.13-.28 21.12.12 21.12.28z"/><path class="cls-4" d="M85.84 171.27h7.15v15.08h-7.15z"/><path class="cls-3" d="M111.41 192.28c0 .16-9.46.29-21.12.29s-21.13-.13-21.13-.29 9.45-.29 21.13-.29 21.12.13 21.12.29z"/><path class="cls-4" d="M85.84 201.68h7.15v15.08h-7.15z"/><path class="cls-3" d="M111.41 222.69c0 .16-9.46.28-21.12.28s-21.13-.12-21.13-.28 9.45-.29 21.13-.29 21.12.13 21.12.29z"/><path class="cls-4" d="M85.84 232.09h7.15v15.08h-7.15z"/><path class="cls-3" d="M111.41 253.09c0 .16-9.46.29-21.12.29s-21.13-.13-21.13-.29 9.45-.29 21.13-.29 21.12.13 21.12.29z"/><path class="cls-4" d="M85.84 262.49h7.15v15.08h-7.15z"/><path class="cls-3" d="M111.41 283.5c0 .16-9.46.29-21.12.29s-21.13-.13-21.13-.29 9.45-.29 21.13-.29 21.12.13 21.12.29z"/><path class="cls-4" d="M85.84 292.9h7.15v15.08h-7.15z"/><path class="cls-1" d="M365.34 37.91h121.83v386.1H365.34z"/><path class="cls-2" d="M426.26 37.91h60.91v385.04h-60.91z"/><path class="cls-1" d="M379.25 0h43.02v37.91h-43.02z"/><path class="cls-2" d="M412.02 0h10.25v37.91h-10.25z"/><path class="cls-3" d="M355.19 37.91V35.7h135.55v2.21"/><path class="cls-4" d="M389.39 54.44h10.31v21.74h-10.31z"/><path class="cls-3" d="M426.26 84.72c0 .22-13.64.41-30.46.41s-30.46-.19-30.46-.41 13.66-.42 30.46-.42 30.46.19 30.46.42zm24.58-30.28h10.31v21.74h-10.31zm36.86 30.28c0 .22-13.63.41-30.45.41s-30.46-.19-30.46-.41 13.63-.42 30.46-.42 30.45.19 30.45.42zm-36.86 12.89h10.31v21.74h-10.31zm36.86 30.28c0 .23-13.63.41-30.45.41s-30.46-.18-30.46-.41 13.63-.42 30.46-.42 30.45.19 30.45.42zm-36.86 14.19h10.31v21.74h-10.31zm36.86 30.28c0 .23-13.63.42-30.45.42s-30.46-.19-30.46-.42 13.63-.41 30.46-.41 30.45.18 30.45.41zm-36.86 14.2h10.31v21.74h-10.31zm36.86 30.27c0 .23-13.63.42-30.45.42s-30.46-.19-30.46-.42 13.63-.41 30.46-.41 30.45.19 30.45.41zm-36.86 12.93h10.31v21.74h-10.31zM487.7 260c0 .23-13.63.41-30.45.41s-30.46-.18-30.46-.41 13.63-.42 30.46-.42 30.45.23 30.45.42zm-36.86 13.13h10.31v21.74h-10.31zm0 43.95h10.31v21.74h-10.31zm36.86-13.67c0 .23-13.63.42-30.45.42s-30.46-.19-30.46-.42 13.63-.41 30.46-.41 30.45.18 30.45.41z"/><path class="cls-4" d="M389.39 98.27h10.31v21.74h-10.31z"/><path class="cls-3" d="M426.26 128.55c0 .23-13.64.41-30.46.41s-30.46-.18-30.46-.41 13.64-.42 30.46-.42 30.46.19 30.46.42z"/><path class="cls-4" d="M389.39 142.1h10.31v21.74h-10.31z"/><path class="cls-3" d="M426.26 172.38c0 .23-13.64.41-30.46.41s-30.46-.18-30.46-.41S379 172 395.8 172s30.46.15 30.46.38z"/><path class="cls-4" d="M389.39 185.93h10.31v21.74h-10.31z"/><path class="cls-3" d="M426.26 216.21c0 .23-13.64.41-30.46.41s-30.46-.18-30.46-.41 13.64-.42 30.46-.42 30.46.21 30.46.42z"/><path class="cls-4" d="M389.39 229.76h10.31v21.74h-10.31z"/><path class="cls-3" d="M426.26 260c0 .23-13.64.41-30.46.41s-30.46-.18-30.46-.41 13.64-.42 30.46-.42 30.46.23 30.46.42z"/><path class="cls-4" d="M389.39 273.59h10.31v21.74h-10.31z"/><path class="cls-3" d="M426.26 303.87c0 .23-13.64.41-30.46.41s-30.46-.18-30.46-.41 13.64-.42 30.46-.42 30.46.19 30.46.42z"/><path class="cls-4" d="M389.39 317.42h10.31v21.74h-10.31z"/><path class="cls-1" d="M463.6 213.05h66.56v210.94H463.6z"/><path class="cls-2" d="M496.88 213.05h33.28v210.36h-33.28z"/><path class="cls-1" d="M471.2 192.34h23.5v20.71h-23.5z"/><path class="cls-2" d="M489.11 192.34h5.6v20.71h-5.6z"/><path class="cls-3" d="M458.06 213.05v-1.21h74.05v1.21"/><path class="cls-4" d="M476.74 222.08h5.63v11.88h-5.63z"/><path class="cls-3" d="M496.88 238.63c0 .12-7.45.22-16.63.22s-16.65-.1-16.65-.22 7.45-.23 16.65-.23 16.63.1 16.63.23zm13.43-16.55h5.63v11.88h-5.63zm20.14 16.55c0 .12-7.45.22-16.64.22s-16.64-.1-16.64-.22 7.45-.23 16.64-.23 16.64.1 16.64.23zm-20.14 7.04h5.63v11.88h-5.63zm20.14 16.54c0 .13-7.45.23-16.64.23s-16.64-.1-16.64-.23 7.45-.22 16.64-.22 16.64.1 16.64.22zm-20.14 7.76h5.63v11.88h-5.63zm20.14 16.54c0 .13-7.45.23-16.64.23s-16.64-.1-16.64-.23 7.45-.23 16.64-.23 16.64.1 16.64.23zm-20.14 7.76h5.63v11.88h-5.63zm20.14 16.54c0 .12-7.45.22-16.64.22s-16.64-.1-16.64-.22 7.45-.23 16.64-.23 16.64.1 16.64.23zm-20.14 7.06h5.63v11.88h-5.63zm20.14 16.54c0 .13-7.45.23-16.64.23s-16.64-.1-16.64-.23 7.45-.23 16.64-.23 16.64.11 16.64.23zm-20.14 7.16h5.63v11.88h-5.63zm0 24h5.63v11.88h-5.63zm20.14-7.46c0 .12-7.45.23-16.64.23s-16.64-.11-16.64-.23 7.45-.23 16.64-.23 16.64.12 16.64.23z"/><path class="cls-4" d="M476.74 246.03h5.63v11.88h-5.63z"/><path class="cls-3" d="M496.88 262.57c0 .13-7.45.23-16.63.23s-16.65-.1-16.65-.23 7.45-.22 16.65-.22 16.63.1 16.63.22z"/><path class="cls-4" d="M476.74 269.98h5.63v11.88h-5.63z"/><path class="cls-3" d="M496.88 286.52c0 .12-7.45.22-16.63.22s-16.65-.1-16.65-.22 7.45-.23 16.65-.23 16.63.1 16.63.23z"/><path class="cls-4" d="M476.74 293.92h5.63v11.88h-5.63z"/><path class="cls-3" d="M496.88 310.46c0 .13-7.45.23-16.63.23s-16.65-.1-16.65-.23 7.45-.22 16.65-.22 16.63.1 16.63.22z"/><path class="cls-4" d="M476.74 317.87h5.63v11.88h-5.63z"/><path class="cls-3" d="M496.88 334.41c0 .13-7.45.23-16.63.23s-16.65-.1-16.65-.23 7.45-.23 16.65-.23 16.63.11 16.63.23z"/><path class="cls-4" d="M476.74 341.81h5.63v11.88h-5.63z"/><path class="cls-3" d="M496.88 358.36c0 .12-7.45.22-16.63.22s-16.65-.1-16.65-.22 7.45-.23 16.65-.23 16.63.1 16.63.23z"/><path class="cls-4" d="M476.74 365.76h5.63v11.88h-5.63z"/><path class="cls-3" d="M124.71 288h71.66v136h-71.66z"/><path class="cls-2" d="M162.77 288h33.6v136h-33.6z"/><path class="cls-1" d="M139.73 300.79h6.44v15.65h-6.44zm0 61.27h6.44v15.65h-6.44zm23.04-39.47c0 .14-8.52.25-19 .25s-19-.11-19-.25 8.52-.24 19-.24 19 .11 19 .24zm-23.04 9.07h6.44v15.65h-6.44zm23.04 21.8c0 .13-8.52.24-19 .24s-19-.11-19-.24 8.52-.25 19-.25 19 .11 19 .25z"/><path class="cls-3" d="M169.9 300.79h6.44v15.65h-6.44zm13.98 0h6.44v15.65h-6.44zM169.9 330.5h6.44v15.65h-6.44zm13.98 0h6.44v15.65h-6.44zm-13.98 29.7h6.44v15.65h-6.44zm13.98 0h6.44v15.65h-6.44zm-64.56-75.49h82.43v3.41h-82.43z"/><path class="cls-2" d="M196.87 288.44c0 .13-16 .24-35.77.24s-35.78-.11-35.78-.24 16-.25 35.78-.25 35.77.11 35.77.25zM125.53 423.9H10.12l-.5-182.39h115.41l.5 182.39z"/><path class="cls-3" d="M67.32 241.51h57.7V423.9h-57.7z"/><path class="cls-2" d="M22.8 205.6h40.75v35.91H22.8z"/><path class="cls-3" d="M53.84 205.6h9.71v35.91h-9.71z"/><path class="cls-3" d="M0 239.41h128.4v2.09H0z"/><path class="cls-5" d="M32.4 257.17h9.77v20.6H32.4z"/><path class="cls-3" d="M67.32 285.85c0 .22-12.92.39-28.85.39s-28.85-.17-28.85-.39 12.91-.39 28.85-.39 28.85.17 28.85.39z"/><path class="cls-1" d="M90.6 257.17h9.77v20.6H90.6z"/><path class="cls-2" d="M125.53 285.85c0 .22-12.92.39-28.85.39s-28.86-.17-28.86-.39 12.92-.39 28.86-.39 28.85.17 28.85.39z"/><path class="cls-1" d="M90.6 298.06h9.77v20.6H90.6z"/><path class="cls-2" d="M125.53 326.75c0 .21-12.92.39-28.85.39s-28.86-.18-28.86-.39 12.92-.4 28.86-.4 28.85.18 28.85.4z"/><path class="cls-1" d="M90.6 340.19h9.77v20.6H90.6z"/><path class="cls-2" d="M125.53 368.88c0 .21-12.92.39-28.85.39s-28.86-.18-28.86-.39 12.92-.4 28.86-.4 28.85.18 28.85.4z"/><path class="cls-1" d="M90.6 382.32h9.77v20.6H90.6z"/><path class="cls-2" d="M125.53 411c0 .21-12.92.39-28.85.39s-28.86-.18-28.86-.39 12.92-.4 28.86-.4 28.85.19 28.85.4z"/><path class="cls-5" d="M32.4 298.69h9.77v20.6H32.4z"/><path class="cls-3" d="M67.32 327.37c0 .22-12.92.39-28.85.39s-28.85-.17-28.85-.39 12.91-.37 28.85-.37 28.85.15 28.85.37z"/><path class="cls-5" d="M32.4 340.21h9.77v20.6H32.4z"/><path class="cls-3" d="M67.32 368.89c0 .22-12.92.39-28.85.39s-28.85-.17-28.85-.39 12.91-.39 28.85-.39 28.85.17 28.85.39z"/><path class="cls-5" d="M32.4 381.73h9.77v20.6H32.4z"/><path class="cls-3" d="M67.32 410.41c0 .22-12.92.39-28.85.39s-28.85-.17-28.85-.39 12.91-.41 28.85-.41 28.85.19 28.85.41z"/><path class="cls-1" d="M672.58 141.47c.84-6.06-7.72-11-14.14-11.56-3.07-.25-6.25.22-9.16-.79-6.29-2.19-8.8-10.32-14.94-12.91-4.59-1.94-9.87-.21-14.32 2s-8.85 5.05-13.82 5.37c-4.32.28-9-1.32-12.8.79-2.82 1.57-4.29 4.82-6.89 6.74s-5.86 2.27-9 2.44-6.42.2-9.29 1.52-5.25 4.35-4.66 7.45z"/><path class="cls-2" d="M605.32 357.25h92.84v66.74h-92.84z"/><path class="cls-1" d="M630.22 357.25c.13 0 0 14.09 0 14.09h-6.87v-14.09z"/><path class="cls-3" transform="rotate(180 674.945 390.625)" d="M651.74 357.25h46.42v66.74h-46.42z"/><path class="cls-5" d="M608.15 410.93h12.43v8.79h-12.43zm14.72 0h6.21v8.79h-6.21z"/><path class="cls-2" d="M628.89 313.79h60.45v43.46h-60.45z"/><path class="cls-1" d="M645.1 313.79c.09 0 0 9.18 0 9.18h-4.47v-9.18z"/><path class="cls-3" transform="rotate(180 674.225 335.52)" d="M659.11 313.79h30.22v43.46h-30.22z"/><path class="cls-5" d="M630.73 348.74h8.09v5.73h-8.09zm9.59 0h4.05v5.73h-4.05z"/><path class="cls-2" d="M71.44 25c.47-3.43-4.37-6.26-8-6.55-1.74-.14-3.54.12-5.18-.45-3.57-1.24-5-5.84-8.47-7.31-2.59-1.09-5.59-.12-8.11 1.15s-5 2.86-7.82 3c-2.45.16-5.11-.75-7.25.45-1.6.89-2.43 2.73-3.9 3.81a9.29 9.29 0 0 1-5.11 1.39 14.14 14.14 0 0 0-5.26.86c-1.62.74-3 2.46-2.63 4.22zm618.01 69.65c.46-3.35-4.27-6.1-7.82-6.39-1.69-.13-3.45.13-5-.43-3.48-1.22-4.86-5.7-8.25-7.13-2.54-1.07-5.46-.12-7.92 1.11s-4.88 2.8-7.63 3c-2.39.16-5-.73-7.07.44-1.56.87-2.37 2.66-3.81 3.72a9.06 9.06 0 0 1-5 1.35 13.79 13.79 0 0 0-5.13.84c-1.59.72-2.9 2.4-2.57 4.11z"/><path class="cls-1" d="M177.75 46.23c.86-6.27-8-11.43-14.63-12-3.17-.26-6.46.22-9.47-.82-6.5-2.27-9.1-10.68-15.45-13.36-4.75-2-10.22-.22-14.82 2.1s-9.15 5.23-14.29 5.56c-4.47.29-9.33-1.37-13.24.81-2.92 1.63-4.44 5-7.13 7s-6.06 2.35-9.32 2.53-6.64.21-9.61 1.57-5.43 4.5-4.81 7.71z"/></g><path class="cls-6" d="M697.82 424c0 .15-152.7.27-341 .27s-341-.12-341-.27 152.66-.26 341.05-.26 340.95.11 340.95.26z" id="Floor"/><g id="Plants"><path class="cls-7" d="M288.58 382.12a8.09 8.09 0 0 1 5.13 3.75 14.35 14.35 0 0 1 1.93 6.17c.43 4.19-1 8.83-2.76 12.64-4.11-2.25-6.05-7.31-6.87-9.94-1.31-4.16-1.14-12.47 2.57-12.62m9.78 28.43a6.92 6.92 0 0 1 .77-6.91 9.16 9.16 0 0 1 6.16-3.52 3.83 3.83 0 0 1 3.19.67 3 3 0 0 1 .69 2.92 6 6 0 0 1-1.7 2.61c-2.57 2.52-5.52 4.5-9.11 4.23"/><path class="cls-6" d="M296.7 424.05a5.22 5.22 0 0 1-.06-.87c0-.61-.05-1.41-.09-2.36a24.65 24.65 0 0 1 .75-7.77 14.93 14.93 0 0 1 4-6.67 9.76 9.76 0 0 1 1.92-1.4 4.38 4.38 0 0 1 .57-.29l.21-.08a15.73 15.73 0 0 0-2.55 1.93 15.26 15.26 0 0 0-3.84 6.6 26.17 26.17 0 0 0-.83 7.68v2.36a5.07 5.07 0 0 1-.08.87z"/><path class="cls-6" d="M289 388.46a1.63 1.63 0 0 1 .12.35l.3 1c.25.91.59 2.22 1 3.85.82 3.25 1.9 7.75 3 12.76s1.95 9.56 2.53 12.86c.3 1.65.52 3 .66 3.91.07.44.12.8.16 1.07a1.56 1.56 0 0 1 0 .38 2.63 2.63 0 0 1-.1-.37c0-.27-.12-.62-.21-1.06-.19-.95-.45-2.28-.76-3.89-.64-3.29-1.54-7.84-2.62-12.84s-2.08-9.48-2.85-12.73c-.38-1.61-.69-2.92-.92-3.87q-.13-.64-.24-1.05a1.71 1.71 0 0 1-.07-.37z"/><path class="cls-7" d="M293 414.34a16.18 16.18 0 0 0-11.17-9.68c-1.27-.3-2.85-.32-3.61.74s-.21 2.55.51 3.64a13.83 13.83 0 0 0 14.26 5.66"/><path class="cls-6" d="M283.19 408.42a4 4 0 0 1 .8.15c.25.06.57.14.92.26s.76.23 1.19.43a12.11 12.11 0 0 1 1.4.64 16.57 16.57 0 0 1 1.54.88 17.73 17.73 0 0 1 3.11 2.59 17.07 17.07 0 0 1 2.4 3.27c.29.55.57 1.07.78 1.59a14.43 14.43 0 0 1 .53 1.44c.16.45.23.87.33 1.23a7.56 7.56 0 0 1 .18.94 4.4 4.4 0 0 1 .08.81c-.07 0-.2-1.15-.8-2.91a11.76 11.76 0 0 0-.56-1.41 14.06 14.06 0 0 0-.78-1.55 17.14 17.14 0 0 0-5.43-5.76 15.14 15.14 0 0 0-1.49-.9c-.48-.27-.95-.47-1.37-.66-1.71-.74-2.85-.98-2.83-1.04z"/><path class="cls-7" d="M607 413.52c.38-1.47-.58-2.94-1.66-4s-2.36-2-2.92-3.42c-.91-2.28.31-5.23-1.24-7.13-.91-1.12-2.55-1.5-3.36-2.69a6.31 6.31 0 0 1-.73-2.14 21.67 21.67 0 0 0-5.38-10.14 18.81 18.81 0 0 0 2.11 9.73 12.33 12.33 0 0 1 1.61 3.69c.34 2.17-.87 4.4-.34 6.53.61 2.43 3.34 4.06 3.47 6.57.11 2.11-1.73 4-1.59 6.09a5.58 5.58 0 0 0 .94 2.51 8.38 8.38 0 0 0 7.69 4.53l4.46.16z"/><path d="M607 413.52c.38-1.47-.58-2.94-1.66-4s-2.36-2-2.92-3.42c-.91-2.28.31-5.23-1.24-7.13-.91-1.12-2.55-1.5-3.36-2.69a6.31 6.31 0 0 1-.73-2.14 21.67 21.67 0 0 0-5.38-10.14 18.81 18.81 0 0 0 2.11 9.73 12.33 12.33 0 0 1 1.61 3.69c.34 2.17-.87 4.4-.34 6.53.61 2.43 3.34 4.06 3.47 6.57.11 2.11-1.73 4-1.59 6.09a5.58 5.58 0 0 0 .94 2.51 8.38 8.38 0 0 0 7.69 4.53l4.46.16z"/><path class="cls-6" d="M611 424a3.44 3.44 0 0 0 1.22 0 7.67 7.67 0 0 0 1.46-.36 6.47 6.47 0 0 0 1.79-1 2.37 2.37 0 0 0 .73-1 4.16 4.16 0 0 0 .21-1.33c0-.47 0-.95.11-1.45a4 4 0 0 1 .54-1.43 10.82 10.82 0 0 0 1.69-3.06 10.36 10.36 0 0 0-.12-3.91 8.32 8.32 0 0 1 .1-4.2c.48-1.39 1.46-2.65 1.95-4.23s.26-3.3.36-5a6.75 6.75 0 0 1 .58-2.48c.36-.79.87-1.53 1.26-2.36a17.56 17.56 0 0 0 1.15-5.46c.1-.94.21-1.89.32-2.85a13.8 13.8 0 0 1 .49-2.86 26.62 26.62 0 0 1 1.07-2.76 9.57 9.57 0 0 0 .52-1.45 13.38 13.38 0 0 0 .14-1.53 17.76 17.76 0 0 0-.12-3.09c-.12-1-.3-2.06-.41-3.09v-.38l-.18.09a6.84 6.84 0 0 0-2.4 2 10.91 10.91 0 0 0-1.48 2.72 33.54 33.54 0 0 0-1.39 5.85 15.85 15.85 0 0 1-1.84 5.4c-.48.79-1.08 1.52-1.59 2.3a6.16 6.16 0 0 0-1.11 2.54c-.27 1.89.77 3.55.56 5.22a5.81 5.81 0 0 1-.82 2.32c-.4.71-.88 1.37-1.33 2a13.32 13.32 0 0 0-1.2 2.06 6.63 6.63 0 0 0-.55 2.24c-.11 1.5.11 2.93 0 4.28a9.77 9.77 0 0 1-1.11 3.67c-.54 1.1-1.14 2.09-1.64 3.06-.25.48-.49 1-.68 1.42a6.92 6.92 0 0 0-.39 1.41 8.77 8.77 0 0 0 0 2.55 6.32 6.32 0 0 0 1.28 3.25 2.77 2.77 0 0 0 .36.39 1.56 1.56 0 0 0 .29.25l.26.18a5.09 5.09 0 0 1-.87-.86 6.4 6.4 0 0 1-1.21-3.23 8.56 8.56 0 0 1 .06-2.51 6.66 6.66 0 0 1 .39-1.38c.19-.46.43-.92.68-1.4.51-.95 1.12-1.94 1.67-3a10.18 10.18 0 0 0 1.14-3.73c.12-1.38-.09-2.82 0-4.29a6.42 6.42 0 0 1 .54-2.16 13 13 0 0 1 1.18-2c.46-.66.94-1.32 1.36-2a6.2 6.2 0 0 0 .85-2.41c.21-1.78-.82-3.45-.55-5.21a6 6 0 0 1 1.07-2.43c.51-.77 1.1-1.49 1.61-2.31a16.4 16.4 0 0 0 1.88-5.49 32 32 0 0 1 1.38-5.8 10.78 10.78 0 0 1 1.34-2.71 6.56 6.56 0 0 1 2.31-1.94l-.21-.12v.18c.11 1.05.3 2.07.42 3.09a17.26 17.26 0 0 1 .12 3 14.2 14.2 0 0 1-.14 1.49 9.37 9.37 0 0 1-.5 1.4 24.75 24.75 0 0 0-1.08 2.79 14 14 0 0 0-.5 2.9c-.11 1-.21 1.92-.32 2.86a17.12 17.12 0 0 1-1.11 5.37c-.38.81-.88 1.56-1.25 2.38a6.66 6.66 0 0 0-.6 2.57c-.1 1.72.13 3.41-.34 4.93s-1.44 2.79-1.93 4.23a8.39 8.39 0 0 0-.09 4.3 10 10 0 0 1 .14 3.84 11.1 11.1 0 0 1-1.64 3 4.23 4.23 0 0 0-.56 1.49 12.56 12.56 0 0 0-.09 1.46 4.49 4.49 0 0 1-.19 1.3 2.45 2.45 0 0 1-.69.94 6.42 6.42 0 0 1-1.75 1 7.69 7.69 0 0 1-1.43.38 4.53 4.53 0 0 1-.91.09 2.38 2.38 0 0 0-.26.07z"/><path class="cls-6" d="M625.07 371.36a1 1 0 0 0 0 .14l-.1.4c-.09.35-.19.88-.36 1.55s-.58 1.41-.93 2.33-.72 2-1.06 3.17-.64 2.51-1 3.93a16.69 16.69 0 0 1-1.42 4.36c-.37.72-.78 1.46-1.11 2.26a10 10 0 0 0-.64 2.56 51.2 51.2 0 0 1-1 5.4c-.89 3.66-1.74 7.15-2.52 10.32s-1.51 6-2.12 8.42-1.06 4.31-1.4 5.68c-.15.65-.28 1.17-.37 1.54l-.08.41v.14a1.11 1.11 0 0 0 0-.13l.12-.4c.1-.38.24-.89.42-1.54.36-1.36.87-3.28 1.49-5.65s1.36-5.25 2.18-8.4 1.64-6.66 2.54-10.32a50.11 50.11 0 0 0 1-5.43 10.28 10.28 0 0 1 .61-2.5c.32-.78.73-1.51 1.09-2.25a16.61 16.61 0 0 0 1.43-4.42c.3-1.42.59-2.74.92-3.93s.67-2.25 1-3.16.72-1.68.89-2.37.24-1.2.31-1.56c0-.16 0-.3.07-.41s.05-.14.04-.14z"/><path class="cls-7" d="M611.75 424c2.92-1.73 3.76-7 2.54-10.16s-3.35-6.06-3.67-9.44c-.26-2.6.59-5.26 0-7.8-.82-3.42-4.16-6.07-4.12-9.59 0-2 1.14-3.84 1-5.81-.11-2.42-2-4.34-3.11-6.47-1.76-3.27-1.88-7.12-2.48-10.78s-2-7.58-5.24-9.38c-.48 3.11-1.3 5.24-1 9.44.09 1.52 1.85 4.41 2.09 7.72.14 2 .24 4 .36 5.94a19.16 19.16 0 0 0 .93 5.7c.53 1.38 1.38 2.64 1.78 4.06.73 2.69-.24 5.6.36 8.32.51 2.3 2.1 4.28 2.43 6.62.45 3.28-1.67 6.69-.58 9.83.54 1.55 1.82 2.8 2.18 4.4.28 1.25 0 2.56.23 3.82.41 2 4.25 3.58 6.3 3.45"/><path class="cls-6" d="M597.51 357.64v.17l.07.51c.07.45.14 1.11.29 2s.61 1.82 1 3 .74 2.5 1.07 4 .61 3.15.9 4.93a21.09 21.09 0 0 0 1.5 5.58c.41.94.87 1.87 1.21 2.86a12.56 12.56 0 0 1 .62 3.16 63.92 63.92 0 0 0 .85 6.79c.9 4.6 1.75 9 2.52 13s1.55 7.55 2.17 10.57 1.13 5.42 1.49 7.12l.42 1.93.11.5-.08-.51c-.09-.46-.21-1.12-.37-1.94-.33-1.71-.81-4.14-1.4-7.14s-1.32-6.61-2.11-10.59-1.61-8.37-2.49-13a60.86 60.86 0 0 1-.86-6.77 12.86 12.86 0 0 0-.64-3.22c-.35-1-.82-2-1.23-2.87a20.4 20.4 0 0 1-1.5-5.52c-.3-1.78-.59-3.44-.94-4.94a41 41 0 0 0-1.12-4c-.37-1.16-.82-2.12-1-2.95s-.26-1.5-.34-1.95c0-.21-.07-.37-.1-.5s-.03-.22-.04-.22z"/></g><g id="Vehicle"><path class="cls-7" d="M82.52 292.01h444.07v44.38H82.52z"/><path d="M82.52 292.01h444.07v44.38H82.52z" opacity=".4"/><path class="cls-7" d="M517.38 159.38c-3.28 0-5.2 2.15-5.7 5.89h11.46c-.46-3.74-2.42-5.89-5.76-5.89zm-79.9.41c-4.07 0-6.76 3-6.76 7.49s2.69 7.4 6.76 7.4 6.76-3 6.76-7.44-2.74-7.45-6.76-7.45z"/><path class="cls-7" d="M607 323.12V60.8H213v262.32zM292.07 178.57l-8.73-10.32h-2.1v10.32h-6.18v-35.46h6.18v20h2.14l8.1-9.09h7.82l-10.87 11.59 11.46 12.91zm39.87 0h-6.18l-5.36-16.91-5.4 16.91h-6.18l-9-24.5h6.78l5.73 17.46 5.5-17.46h5.09l5.5 17.46 5.73-17.46H341zm18.74 0h-6.18v-24.5h6.18zm-3.09-28.5a3.67 3.67 0 1 1 3.64-3.64 3.52 3.52 0 0 1-3.64 3.64zm26.41 28.5l-8.73-10.32h-2.09v10.32H357v-35.46h6.18v20h2.14l8.09-9.09h7.82l-10.86 11.59 11.45 12.91zm21.29 9.43a3.39 3.39 0 1 1 3.39-3.39 3.39 3.39 0 0 1-3.39 3.39zm14.71 0a3.39 3.39 0 1 1 3.38-3.39A3.38 3.38 0 0 1 410 188zm-1.07-8.43h-19L384.08 141h-9.85a3 3 0 0 1-3-3.32 3.12 3.12 0 0 1 3.16-2.7h13.06a2.57 2.57 0 0 1 2.55 2.22l5.3 35.85h13.18c3.34 0 5.57-4 5.57-8s-2.23-4.85-5.47-4.85H395l-1-6.5h13.2c12.37 0 13.52 6 13.52 11.57-.04 8.58-4.72 14.29-11.83 14.29zm41.55 0h-6l-.13-3.69a9.39 9.39 0 0 1-8.27 4.15c-6.66 0-11.78-5.07-11.78-12.65s5.12-12.87 11.78-12.87a9.39 9.39 0 0 1 8.27 4.15l.13-3.7h6zm14.48.46c-3.74 0-7.08-1-9.31-2.92l2.32-3.75a13.46 13.46 0 0 0 7.08 1.83c2.28 0 3.84-1 3.84-2.46s-1.74-2.33-4.2-3l-2.06-.55c-4.15-1.1-7-2.69-7-6.58 0-4.88 3.83-8.12 9.67-8.12a16.23 16.23 0 0 1 9.27 2.42L472 161a12.67 12.67 0 0 0-6.25-1.6c-2.24 0-3.79.83-3.79 2.24s1.55 2.15 3.69 2.69l2.06.6c4.2 1.09 7.53 3 7.53 7.35-.05 4.64-4.16 7.72-10.32 7.72zm32.37-.46l-8.76-10.36h-2.1v10.36h-6.21V144h6.21v20.14h2.14l8.09-9.14h7.85l-10.91 11.6 11.51 13zm32.19-10.09h-17.8c.45 3.47 2.28 5.67 5.89 5.67a7.64 7.64 0 0 0 6-2.93l4.8 2.42a12.62 12.62 0 0 1-10.75 5.36c-7.54 0-12.56-5-12.56-12.6 0-7.76 4.89-12.92 12.28-12.92s12.29 4.93 12.29 12.37a22.65 22.65 0 0 1-.19 2.62zm18.48 9.4a16.72 16.72 0 0 1-6.3 1.14c-4.47 0-7.53-3.1-7.53-7.76v-24.52h6.21V155h7.26v5h-7.24v11c0 2.24 1.37 3.7 3.33 3.7a10.94 10.94 0 0 0 4.29-.82z"/><path class="cls-10" d="M299.31 342h131.08v41.1H299.31z"/><path class="cls-6" d="M207.7 323.4v54.33h44.76l17.94-26h326.81V323.4H207.7z"/><path class="cls-7" d="M204.91 151.36a3.33 3.33 0 0 0-3.46-3.15c-17.68.73-101.67 4.58-118.94 12.88-13.21 6.36-27.7 30.1-37.91 46.09-7.32 11.46-23.49 36.9-26.76 49.91-2.77 11-4.44 33.88-4.24 45.24l4.61 60.05h76.12l7.67-19.84a33.48 33.48 0 0 1 31.26-21.47h75.63V221.4z"/><path class="cls-10" d="M73.49 167.74c-10.47 10-21 27-28.89 39.44-6.77 10.61-21.14 33.2-25.83 46.82-.08.25-.15.49-.24.74 2.32-.64 5.89-2 7-4.15 1.66-3.33 3.81-14.74 30.26-57.81 8.05-13.12 15.89-20.78 17.7-25.04z"/><path class="cls-6" d="M165.82 163.29c-19.46 1.11-61.65 4-75.13 8.58-17.56 6-37.27 52.49-38.2 54.53l-13.29 34a1.48 1.48 0 0 0 1.41 1.95h34.33a11 11 0 0 0 3.8-.68L169 228a10.42 10.42 0 0 0 6.79-9.78v-45.46a9.47 9.47 0 0 0-9.97-9.47z"/><path class="cls-10" d="M43 259s12.74-28.55 17-37.88c6.46-14.12 21.55-43 31.74-46.1 9.37-2.81 36.31-6.24 74.24-8.41h.36a6.15 6.15 0 0 1 6.13 6.15v46.51a5.64 5.64 0 0 1-3.66 5.26l-66.71 8.23A18.55 18.55 0 0 0 88.89 241l-11.56 17.63a6.21 6.21 0 0 1-2.13.38z"/><path class="cls-6" d="M99.71 233.28L77 258.54l12.55-83.87 3.14-1.08-6.17 62.13a1.82 1.82 0 0 0 2.5 1.87z"/><path class="cls-2" d="M12.11 308.15c-.08-1.09.29-2 .84-2L25.11 305c1-.09 1.94 1.79 2.06 4l.54 9.33c.09 1.5-.36 2.77-1 2.88l-12.4 2.14c-.56.1-1.09-.73-1.17-1.83z"/><path class="cls-6" d="M12.1 351.74h87.62v35.13H12.1z"/><circle class="cls-6" cx="156.39" cy="375.65" r="47.94" transform="rotate(-2.2 156.634 376.043)"/><path class="cls-6" d="M108.47 374.83v.13a47.93 47.93 0 1 0 95.86 1.38v-.12z"/><path class="cls-4" d="M122.74 375.16A33.65 33.65 0 1 0 156.87 342a33.65 33.65 0 0 0-34.13 33.16z"/><path class="cls-3" d="M156.87 342a33.65 33.65 0 0 0-34.13 33.16l67.3 1A33.65 33.65 0 0 0 156.87 342z"/><path class="cls-6" d="M135.89 375.35a20.5 20.5 0 1 0 20.79-20.2 20.51 20.51 0 0 0-20.79 20.2z"/><rect class="cls-6" x="51.52" y="193.74" width="19.87" height="47.69" rx="7.98" ry="7.98"/><path class="cls-6" d="M43.29 270.91h-1v-50.42a9.08 9.08 0 0 1 9.07-9.07h2.4v1h-2.4a8.08 8.08 0 0 0-8.07 8.07z"/><path class="cls-6" d="M50.11 271l-2.78-47.16a6 6 0 0 1 5.93-6.29v1a4.93 4.93 0 0 0-4.93 5.23l2.78 47.16z"/><path class="cls-6" d="M39.77 266.37h13.48v15.61H39.77zm3.02-29.63h5.48v1h-5.48z"/><path class="cls-6" d="M94 164.64l1.2-.16 3.51-.41 13.59-1.57 50.7-5.77c2.71-.29 5.46-.65 8.31-.9a15.51 15.51 0 0 1 4.34.28 16.73 16.73 0 0 1 4.17 1.58 15.49 15.49 0 0 1 6.31 6.56 14.62 14.62 0 0 1 1.45 4.51 17.4 17.4 0 0 1 .21 2.4v141.13h-52.63a57.12 57.12 0 0 0-9 .43 35.06 35.06 0 0 0-8.67 2.42 35.61 35.61 0 0 0-19 19.65 27.31 27.31 0 0 0-1.1 3.27 27.93 27.93 0 0 0-.76 3.35l-.26 1.7-.13.85v.85l-.09 1.71v.96c.23-.22-.31.34-.27.28h-66.8v-78.63c0-1.59.15-3.17.34-4.73a47.45 47.45 0 0 1 5.66-17.22l8-15 14.16-26.56L68.77 184l2.43-4.55c.4-.72.74-1.45 1.17-2.13a19.6 19.6 0 0 1 1.34-1.91 28.22 28.22 0 0 1 6.07-5.64 30.47 30.47 0 0 1 10.37-4.51 26.3 26.3 0 0 1 3.86-.63l-1 .15c-.64.1-1.61.27-2.86.56a30.72 30.72 0 0 0-10.3 4.56 28.43 28.43 0 0 0-6 5.63 19.38 19.38 0 0 0-1.33 1.9c-.41.67-.76 1.4-1.15 2.13L69 184.13l-11.47 21.59-14.1 26.59q-3.82 7.23-8 15a47.1 47.1 0 0 0-5.6 17.09c-.18 1.55-.29 3.11-.33 4.69s0 3.18 0 4.78v73.59l-.24-.24h66.59c.07-.05-.48.48-.25.24v-.97l.09-1.74.05-.86.12-.86.27-1.73a28.76 28.76 0 0 1 .77-3.4 27.51 27.51 0 0 1 1.11-3.32 35.48 35.48 0 0 1 28.05-22.4 57.27 57.27 0 0 1 9-.43h52.42l-.25.25V173.54a28.62 28.62 0 0 0-.21-4.75 14.3 14.3 0 0 0-1.4-4.41 15.15 15.15 0 0 0-6.15-6.4 16.11 16.11 0 0 0-4.07-1.55 15.23 15.23 0 0 0-4.25-.29c-2.82.24-5.59.6-8.29.89l-50.69 5.61-13.6 1.49-3.52.37z"/><path class="cls-6" d="M171.87 275.16s.27 0 .78-.12a5.33 5.33 0 0 0 2.06-.82 5.26 5.26 0 0 0 2.09-2.72 6 6 0 0 0 .27-2.16 5.39 5.39 0 0 0-.61-2.32 5.18 5.18 0 0 0-4.51-2.75h-21.72a5.11 5.11 0 0 0-5.08 4.55 5.77 5.77 0 0 0 .62 3.45 5.27 5.27 0 0 0 2.51 2.23 7.91 7.91 0 0 0 3.25.39h8.96l8.33.08 2.26.05a3.71 3.71 0 0 1 .79.05 6.93 6.93 0 0 1-.79 0l-2.26.05-8.33.08h-10.65a5.87 5.87 0 0 1-1.74-.4 5.62 5.62 0 0 1-2.75-2.42 6.21 6.21 0 0 1-.7-3.75 5.63 5.63 0 0 1 5.58-5h21.73a5.56 5.56 0 0 1 4.82 3 5.67 5.67 0 0 1 .61 2.49 6.11 6.11 0 0 1-.32 2.25 5.45 5.45 0 0 1-2.26 2.8 5.15 5.15 0 0 1-2.15.75 3.37 3.37 0 0 1-.79.24z"/><path class="cls-5" d="M170 262.6a73.3 73.3 0 0 1-8.58.25 73.2 73.2 0 0 1-8.57-.25 71.79 71.79 0 0 1 8.57-.26 71.89 71.89 0 0 1 8.58.26z"/><path class="cls-6" d="M103.7 387.16l-8-.58c2.09-28.65 5.15-45.79 9.36-52.4 8.08-12.7 16.11-15 25-16.51 8.28-1.41 16.64-1.07 24.72-.75l2 .08c16.68.65 51.62.07 52 .07l.14 8c-.35 0-35.52.59-52.42-.07l-2-.08c-7.67-.3-15.6-.63-23.05.65-8 1.36-13.25 2.9-19.62 12.92-1.93 3.02-5.55 13.38-8.13 48.67zm498.59-69.23c0-1.69-.08-97.9-.2-251.2l.2.2-385 .06.26-.26v251.2l-.23-.24 385 .24-385 .24H217V66.47h385.5v.21c-.12 153.32-.2 249.57-.21 251.25z"/><path d="M426.95 257.27l1.42 28.66 111.61-23.22-1.97-29.87-111.06 24.43z" opacity=".5"/><path class="cls-5" d="M435.42 277.11l.75-2.68a7.8 7.8 0 0 0 4.74.45c1.71-.36 2.66-1.19 2.45-2.17-.46-2.15-6.88.43-7.8-3.86-.6-2.76 1.44-5.07 5.17-5.87a9 9 0 0 1 4.9.16l-.67 2.63a6.66 6.66 0 0 0-3.87-.25c-1.81.38-2.71 1.3-2.51 2.26.46 2.22 6.9-.37 7.78 3.76.6 2.79-1.47 5.1-5.22 5.91a9.87 9.87 0 0 1-5.72-.34zm25.38-18.2l.2 14-3.12.67-.08-5.71-6.09 1.31.08 5.71-3.13.67-.2-14 3.13-.67.08 5.51 6.09-1.31-.07-5.51zm3.2-.68l3.13-.67.2 14-3.13.67zm17.89.54c.74 3.42-1.32 6.09-5.34 7l-3 .65.06 3.86-3.13.68-.2-14 5.44-1.17c3.37-.79 5.61.35 6.17 2.98zm-3.09.94c-.28-1.3-1.33-1.72-2.91-1.38l-2.44.52.06 4.87 2.63-.56c2.06-.44 3.04-1.66 2.66-3.45zm16.97-3.92c.73 3.42-1.33 6.09-5.34 7l-3 .64.06 3.87-3.13.67-.2-14 5.44-1.17c3.4-.8 5.6.36 6.17 2.99zm-3.1 1c-.28-1.31-1.33-1.73-2.91-1.39l-2.44.52.06 4.88 2.64-.57c2.05-.49 3.04-1.71 2.65-3.49zm5.33-5.87l3.13-.67.2 14-3.13.67zm18.68-4l.2 14-2.56.55-6.82-7.34.11 8.78-3.07.66-.2-14 2.58-.55 6.82 7.35-.14-8.79zm12.39 4.15l2.84-.61.08 5.78a8.83 8.83 0 0 1-4.8 2.74c-4.08.87-7.16-.94-7.91-4.42-1-4.59 1.63-8.79 6.73-9.88 2.57-.56 4.63-.13 6.11 1.14l-1.84 2.28a4.32 4.32 0 0 0-3.84-.74 5.09 5.09 0 0 0-4.05 6.33c.44 2 2.07 3.1 4.63 2.55a5.35 5.35 0 0 0 2.13-1z"/><path class="cls-7" d="M449.2 230.75v25.03l63.61-13.99-.03-24.74-63.58 13.7z"/><path d="M449.2 230.75v25.03l63.61-13.99-.03-24.74-63.58 13.7z"/><path class="cls-5" d="M458.53 237l.14 5.51 7-1.58v1.28l-7 1.58.16 5.95-1.4.32-.36-14 9.2-2.09v1.28zm18.23 3.94l3.55 3.91-1.53.34-3.39-3.72a7 7 0 0 1-.69.17l-3.81.87.11 4.49-1.42.32-.36-14 4.83-1.09c3.05-.69 5.11.31 5.65 2.7a5.05 5.05 0 0 1-2.94 6.01zm1.57-5.62c-.4-1.76-1.86-2.42-4.09-1.91l-3.56.81.16 7 3.62-.82c3.03-.68 4.47-2.4 3.87-5.08zm6.18-4.25l.13 5 7-1.58v1.26l-7 1.58.14 5.21 8.07-1.83v1.28l-9.47 2.15-.36-14 9.2-2.09v1.28zm12.83-2.91l.12 5 7-1.58v1.26l-6.95 1.58.13 5.21 8.07-1.83v1.28l-9.47 2.15-.36-14 9.2-2.09v1.29z"/><path class="cls-4" d="M520.1 230.75l22.53-5.28-.89-2.39-21.64 7.67zm-100.86 16.86l15.66-3.67-.62-1.67-15.04 5.34zm53.62 37.73l22.52-5.27-.88-2.4-21.64 7.67zm29.86-66.59c0 .06-12 2.93-26.88 6.42s-26.92 6.29-26.93 6.23 12-2.92 26.88-6.42 26.91-6.28 26.93-6.23zM449 253.27s-5.15 1.14-11.54 2.43-11.57 2.29-11.58 2.23 5.15-1.14 11.54-2.43 11.58-2.29 11.58-2.23z"/><path class="cls-4" d="M449.23 251v-2.9c0-1.82 0-4.29-.05-7s-.05-5.19-.07-7v-2.7a1.57 1.57 0 0 1 0-.2.55.55 0 0 1 0 .2v.57c0 .51.06 1.23.09 2.13.07 1.79.12 4.27.13 7s0 5.21 0 7v2.7c-.08.13-.09.2-.1.2zM157 185s-.11.12-.36.31l-1.1.8c-1 .68-2.37 1.64-4.12 2.83-3.49 2.36-8.35 5.58-13.77 9s-10.37 6.54-14 8.73c-1.81 1.09-3.27 2-4.29 2.56l-1.19.67a2.22 2.22 0 0 1-.43.2s.12-.12.38-.29l1.13-.76 4.2-2.69 13.89-8.86 13.85-8.92 4.2-2.69 1.16-.72a2.73 2.73 0 0 1 .45-.17zm-17.06 4.54s-.12.12-.36.31-.67.48-1.11.79c-1 .68-2.37 1.65-4.11 2.83-3.49 2.37-8.35 5.58-13.77 9.06s-10.37 6.54-14 8.73c-1.8 1.09-3.27 2-4.29 2.55l-1.18.67c-.27.15-.42.22-.43.2a2 2 0 0 1 .38-.29l1.13-.75 4.2-2.7 13.89-8.85c5.37-3.47 10.24-6.6 13.85-8.92l4.2-2.7 1.16-.71a1.91 1.91 0 0 1 .44-.22zm-84.19 29.11a3.49 3.49 0 0 1-.31-.88c-.16-.57-.38-1.41-.62-2.45a35.55 35.55 0 0 1-1.06-8.3 17.82 17.82 0 0 1 1.91-8.14 11.83 11.83 0 0 1 1.41-2.12c.39-.45.64-.67.67-.65a30.68 30.68 0 0 0-1.75 2.94 19.34 19.34 0 0 0-1.71 8 43.46 43.46 0 0 0 .9 8.22 26 26 0 0 1 .56 3.38zm-40.69 70.9a4.74 4.74 0 0 1-.06-1.12c0-.72 0-1.76.07-3 .08-2.57.26-6.12.57-10s.68-7.44 1-10c.16-1.28.3-2.31.42-3a4 4 0 0 1 .23-1.09 5.3 5.3 0 0 1 0 1.12l-.25 3c-.23 2.68-.52 6.15-.85 10s-.53 7.31-.73 10c-.09 1.2-.16 2.21-.22 3a5 5 0 0 1-.18 1.09zM124.62 309c0 .11-1.92.39-4.92 1.35a39.38 39.38 0 0 0-5.1 2.07 42.68 42.68 0 0 0-5.76 3.5 41.07 41.07 0 0 0-5.06 4.45 37.58 37.58 0 0 0-3.51 4.25c-1.82 2.57-2.66 4.34-2.76 4.29a7.71 7.71 0 0 1 .56-1.26 15 15 0 0 1 .76-1.42c.33-.54.67-1.17 1.14-1.82a34.13 34.13 0 0 1 3.46-4.37 39.73 39.73 0 0 1 5.1-4.54 38.76 38.76 0 0 1 5.86-3.51 34.72 34.72 0 0 1 5.21-2c.75-.25 1.46-.39 2.07-.54a15.1 15.1 0 0 1 1.58-.3 7.27 7.27 0 0 1 1.37-.15zm98.48-60.41a2.43 2.43 0 0 1 0-.43v-1.26c0-1.14 0-2.77-.06-4.85-.06-4.24-.15-10.33-.25-17.84-.27-15.08-.64-35.88-1.06-58.85s-.76-43.8-.9-58.86c-.07-7.53-.09-13.63-.08-17.84v-6.11a2.3 2.3 0 0 1 0-.43 2.3 2.3 0 0 1 0 .43v1.26c0 1.13 0 2.76.06 4.85.06 4.24.15 10.32.25 17.83.27 15.09.64 35.89 1.06 58.86s.76 43.79.9 58.85c.07 7.54.09 13.63.08 17.85v6.11a2.43 2.43 0 0 1 0 .43z"/><circle class="cls-6" cx="510.49" cy="375.65" r="47.94" transform="rotate(-2.29 509.56 374.823)"/><path class="cls-6" d="M462.57 374.83v.13a47.93 47.93 0 1 0 95.86 1.38v-.12z"/><path class="cls-4" d="M476.84 375.16A33.65 33.65 0 1 0 511 342a33.65 33.65 0 0 0-34.16 33.16z"/><path class="cls-3" d="M511 342a33.65 33.65 0 0 0-34.13 33.16l67.3 1A33.65 33.65 0 0 0 511 342z"/><path class="cls-6" d="M490 375.35a20.5 20.5 0 1 0 20.79-20.2 20.51 20.51 0 0 0-20.79 20.2z"/><path class="cls-10" d="M447.47 388.78s-7.3-68 63.16-68c65 0 63.56 58.48 63 67.53h-10.2s5.2-57.64-52.75-57.64-52.9 58.81-52.9 58.81-4.33-.21-10.31-.7z"/><path class="cls-4" d="M485.21 327.82a1.91 1.91 0 0 1-.55.2c-.36.13-.91.26-1.6.5a48.72 48.72 0 0 0-5.73 2.23 45.79 45.79 0 0 0-25.21 30 47.51 47.51 0 0 0-1.22 6c-.11.72-.15 1.29-.21 1.66a2.54 2.54 0 0 1-.1.58 2.14 2.14 0 0 1 0-.58c0-.39 0-1 .11-1.68a42.36 42.36 0 0 1 1.06-6.1 44.79 44.79 0 0 1 25.42-30.27 42.57 42.57 0 0 1 5.82-2.1c.7-.2 1.26-.31 1.63-.4a3.61 3.61 0 0 1 .58-.04z"/></g><g id="Character"><path class="cls-10" d="M658.28 397l8.53 12.82 3.82 12.08a1.57 1.57 0 0 0 2.08 1 1.56 1.56 0 0 0 1-1.08c.78-3.16 3.59-14.8 2.91-15.7-.78-1.05-8.1-14.12-8.1-14.12z"/><g class="cls-12"><path class="cls-5" d="M672.71 422.91l3.29-17.66.34.55a2.31 2.31 0 0 1 .35 1.6c-.21 1.49-.88 5.61-3 14.4a1.57 1.57 0 0 1-1 1.11z"/></g><g class="cls-12"><path class="cls-5" d="M670.7 402.74a1 1 0 0 0 .45 1.19.91.91 0 0 0 1.18-.43 1 1 0 0 0-.48-1.26 1 1 0 0 0-1.18.59"/></g><path class="cls-6" d="M672.09 415.35a4.61 4.61 0 0 0-1.78-.29 4.79 4.79 0 0 0-1.68.66s.07-.23.34-.47a2.56 2.56 0 0 1 1.3-.53 2.38 2.38 0 0 1 1.38.25c.35.17.46.35.44.38zm.17 2.33a10.36 10.36 0 0 0-1.5.17 11.42 11.42 0 0 0-1.38.64c-.08-.05.38-.72 1.29-1a1.72 1.72 0 0 1 1.59.19zm.14-5.68a15.19 15.19 0 0 0-2.34.11 16.46 16.46 0 0 0-2.22.77 3.48 3.48 0 0 1 2.15-1.1 3.57 3.57 0 0 1 2.41.22zm-2.27-4.09c0 .1-.89.26-1.85.81s-1.55 1.26-1.63 1.19a3.9 3.9 0 0 1 3.48-2zm-2.41-3.83a8.22 8.22 0 0 0-1.94.8c-1 .65-1.36 1.57-1.46 1.52s0-.26.2-.63a3.41 3.41 0 0 1 1.06-1.17 3.45 3.45 0 0 1 1.49-.57c.41-.03.66-.03.65.05zm-2.38.06s-.16-.15-.33-.48a4.27 4.27 0 0 1-.43-1.54 1.77 1.77 0 0 1 .2-1.13.64.64 0 0 1 .68-.27 1 1 0 0 1 .57.46 2.23 2.23 0 0 1-.54 2.79 2.59 2.59 0 0 1-2.87.21.89.89 0 0 1-.44-.6.63.63 0 0 1 .37-.63 2.2 2.2 0 0 1 1.14-.1 4.52 4.52 0 0 1 1.53.45 1.53 1.53 0 0 1 .49.32 7.65 7.65 0 0 0-2-.53 2.08 2.08 0 0 0-1 .11.32.32 0 0 0-.2.34.57.57 0 0 0 .3.38 2.32 2.32 0 0 0 2.49-.21 1.94 1.94 0 0 0 .5-2.36.74.74 0 0 0-.39-.34.36.36 0 0 0-.38.14 1.73 1.73 0 0 0-.18 1 5.92 5.92 0 0 0 .49 1.99z"/><path class="cls-10" d="M650.18 404.35l-1 12.87S662 421.59 662 424l-25-.06.7-20.11z"/><g class="cls-12"><path class="cls-5" d="M641.51 415.83a1 1 0 0 0-.75 1.14 1 1 0 0 0 1.12.75 1.08 1.08 0 0 0 .79-1.21 1 1 0 0 0-1.25-.65"/></g><g class="cls-12"><path class="cls-5" d="M637 423.93l.07-2 24.18.9a1.72 1.72 0 0 1 .91 1.37z"/></g><path class="cls-6" d="M649.62 417.11c0 .12-.63.15-1.24.52s-1 .87-1.07.82.1-.75.85-1.19 1.49-.26 1.46-.15zm2.58 1.19c0 .12-.52.3-1 .8s-.58 1-.7 1-.17-.7.38-1.31 1.32-.61 1.32-.49zm1.36 3.2c-.11 0-.26-.6.08-1.26s.93-.9 1-.79-.32.45-.59 1-.37 1.04-.49 1.05zm-4.05-7.35c0 .11-.61-.08-1.3-.06s-1.24.22-1.3.11.48-.52 1.29-.54 1.38.4 1.31.49z"/><path d="M649.99 406.9l-.18 2.29-12.28-.6.06-2.07 12.4.38z"/><path class="cls-6" d="M649.66 411.55a2.33 2.33 0 0 1-1.25-.05 6.2 6.2 0 0 1-1.3-.46 5.76 5.76 0 0 1-.7-.41 1.64 1.64 0 0 1-.37-.31.54.54 0 0 1 0-.65.69.69 0 0 1 .55-.26 1.57 1.57 0 0 1 .47.09 4.71 4.71 0 0 1 .77.29 4.43 4.43 0 0 1 1.12.81c.56.56.74 1 .7 1s-.33-.35-.9-.82a5.24 5.24 0 0 0-1.09-.67 4 4 0 0 0-.71-.25c-.26-.08-.49-.09-.56 0s0 .06 0 .14a1.08 1.08 0 0 0 .27.23 5 5 0 0 0 .65.4 6.53 6.53 0 0 0 1.19.52 8.33 8.33 0 0 1 1.16.4z"/><path class="cls-6" d="M649.5 411.72s-.27-.43-.29-1.22a4.31 4.31 0 0 1 .23-1.37 4.13 4.13 0 0 1 .35-.74 1 1 0 0 1 .82-.6.58.58 0 0 1 .51.37 1.39 1.39 0 0 1 .11.46 2.6 2.6 0 0 1 0 .84 2.93 2.93 0 0 1-.59 1.28c-.51.62-1 .75-1 .71s.4-.28.8-.89a2.76 2.76 0 0 0 .44-1.16 2.54 2.54 0 0 0 0-.73c0-.26-.12-.48-.22-.46s-.35.19-.46.39a5.19 5.19 0 0 0-.33.67 4.72 4.72 0 0 0-.3 1.24c-.12.73-.01 1.2-.07 1.21z"/><path class="cls-6" d="M659.33 298.43s4.59 9.41 5.79 16.12c.33 1.9-13.15 98.36-13.15 98.36l-15.94-.6 7.47-89.76-2.66-18z"/><path class="cls-6" d="M620.6 304.31a143.21 143.21 0 0 0 1 19.5c1.18 9.46 3.88 20.23 4.76 26.25 2 13.32 5.76 15.84 5.76 15.84l30.63 39.1 12-10.79-27-43.13s-7.18-47.86-6.93-46.57-20.22-.2-20.22-.2z"/><path class="cls-10" d="M632.77 366.45a2.62 2.62 0 0 0 .28.41l.88 1.12 3.21 4.14 10.48 13.72c4.09 5.37 7.81 10.21 10.57 13.67 1.38 1.73 2.51 3.12 3.3 4.07l.92 1.08a3 3 0 0 0 .34.37 2.62 2.62 0 0 0-.28-.41l-.88-1.13-3.21-4.13-10.48-13.73c-4.09-5.36-7.81-10.21-10.57-13.66-1.38-1.74-2.51-3.12-3.3-4.07l-.92-1.09a3.26 3.26 0 0 0-.34-.36zm-3.42-54.81a3.38 3.38 0 0 1-.42 1.53 9.86 9.86 0 0 1-5.47 5.12 3.66 3.66 0 0 1-1.55.33 13 13 0 0 0 7.44-7zm33.01-5.46a4.19 4.19 0 0 1-4.49-.66c.08-.13 1 .3 2.22.47s2.23.01 2.27.19zm-17.22 13.3a3.39 3.39 0 0 1 .11.64c.06.46.14 1.07.23 1.84.19 1.65.45 4 .77 6.86.62 5.89 1.48 14 2.45 23.34v-.11l4.43 7.08 15.39 24.77 4.61 7.54 1.23 2.06a5 5 0 0 1 .4.74 5.1 5.1 0 0 1-.49-.69c-.33-.49-.76-1.16-1.31-2l-4.76-7.45-15.51-24.68-4.43-7.09v-.11c-.91-9.31-1.7-17.47-2.28-23.36l-.68-6.86c-.06-.77-.1-1.38-.14-1.85a3.86 3.86 0 0 1-.02-.67zm-4.64-84.06l9.55 3.06.73 20.23s5.13 23.72 6.24 26.74a61.26 61.26 0 0 1 2.91 11.08s-1.83 13.42-15.24 15-25.89-6.12-25.89-6.12-4.48-20-8.58-37.94c-3.9-17.07-.73-27.25-.73-27.25l14.7-5.28z"/><path class="cls-4" transform="rotate(-6.9 643.364 248.297)" d="M638.93 247.2h8.83v2.27h-8.83z"/><path class="cls-6" d="M649.69 222.43a2 2 0 0 0-2.12-1.66 1.67 1.67 0 0 0-.22-2.8 3.45 3.45 0 0 0-.7-4.56l-10.08 13.89a7.33 7.33 0 0 0 5.56 1.52 14.87 14.87 0 0 0 5.54-2 2.26 2.26 0 0 0 1.11-1c.19-.47-.09-1.15-.6-1.16a2 2 0 0 0 1.51-2.23zm-25.01-7.54a.95.95 0 0 0-1 1.48 1.7 1.7 0 0 0-1.59.67 1.72 1.72 0 0 0-.15 1.71 3.27 3.27 0 0 0-2 .55 1.91 1.91 0 0 0-.8 1.87 1.36 1.36 0 0 0 1.61 1 1.86 1.86 0 0 0 .1 2 1.2 1.2 0 0 0 1.81.05 1.47 1.47 0 0 0 .06 1.76 1.49 1.49 0 0 0 1.73.38 1.57 1.57 0 0 0 2.45 1.64z"/><path class="cls-13" d="M625.3 212.23l-.43 24.59a7.64 7.64 0 0 0 7 7.75 7.65 7.65 0 0 0 8.32-7.44c.05-2.34.08-4.26.08-4.26s6-.4 6.6-6.3c.34-3.42.44-11.22.46-17.21a7.8 7.8 0 0 0-7.11-7.78l-3.57-.31a11 11 0 0 0-11.35 10.96z"/><path class="cls-14" d="M640.24 232.87a14.35 14.35 0 0 1-7.5-3s1.53 4.47 7.48 4.46z"/><path class="cls-6" d="M645.65 215.37c-.12.1-.71-.43-1.62-.51s-1.62.32-1.71.2.08-.24.39-.43a2.34 2.34 0 0 1 2.66.25c.26.24.33.44.28.49zm-9.65.4a.85.85 0 0 1-.89.78.81.81 0 0 1-.8-.84.84.84 0 0 1 .89-.78.8.8 0 0 1 .8.84zm8.84.79a.87.87 0 0 1-.89.78.82.82 0 0 1-.81-.84.85.85 0 0 1 .89-.78.81.81 0 0 1 .81.84zm-8.04-1.97c-.11.1-.71-.43-1.62-.51s-1.61.32-1.7.2.08-.25.39-.43a2.31 2.31 0 0 1 2.65.24c.26.24.34.45.28.5zm2.71 7.03a6.21 6.21 0 0 1 1.5-.14c.23 0 .45 0 .51-.18a1.17 1.17 0 0 0-.1-.7c-.16-.58-.34-1.19-.53-1.83a31 31 0 0 1-1.13-4.76 29.66 29.66 0 0 1 1.51 4.66c.18.64.35 1.25.5 1.83a1.31 1.31 0 0 1 0 .92.58.58 0 0 1-.41.31 1.88 1.88 0 0 1-.4 0 5.92 5.92 0 0 1-1.45-.11zm-2.73.38c.14 0 .06 1 .84 1.77s1.84.76 1.84.9-.25.17-.7.14a2.48 2.48 0 0 1-1.54-.69 2.2 2.2 0 0 1-.64-1.48c0-.41.13-.64.2-.64zm.52-10.35c-.11.24-1 0-2.09.08s-2 .25-2.08 0 .11-.33.48-.54a3.69 3.69 0 0 1 1.58-.4 3.53 3.53 0 0 1 1.6.33c.38.21.56.42.51.53zm8.45 1.1c-.18.2-.78-.07-1.54-.15s-1.4 0-1.53-.21.07-.31.36-.48a2.15 2.15 0 0 1 1.28-.23 2.13 2.13 0 0 1 1.19.52c.25.24.32.46.24.55z"/><path class="cls-13" d="M626.9 216.85c-.09-.06-3.95-1.57-4.18 2.49s3.89 3.45 3.9 3.33.28-5.82.28-5.82z"/><path class="cls-14" d="M625.47 221.06s-.07.05-.2.1a.7.7 0 0 1-.53 0 1.77 1.77 0 0 1-.72-1.61 2.28 2.28 0 0 1 .26-1 .83.83 0 0 1 .56-.52.38.38 0 0 1 .41.22v.2s.09-.06.06-.23a.42.42 0 0 0-.14-.26.56.56 0 0 0-.39-.13 1 1 0 0 0-.77.59 2.36 2.36 0 0 0-.31 1.12 1.85 1.85 0 0 0 .93 1.81.81.81 0 0 0 .66-.07c.17-.12.19-.21.18-.22z"/><path class="cls-6" d="M624.67 216.51a2.11 2.11 0 0 1 1.85 1.17c.22.6.22 1.26.43 1.86s.76 1.18 1.39 1.08a1.24 1.24 0 0 0 .92-.84 3.61 3.61 0 0 0 .13-1.31c-.07-1.91-.31-3.81-.21-5.72a9.71 9.71 0 0 1 1.68-5.4 5.33 5.33 0 0 1 5-2.24c1.25.22 2.34 1 3.58 1.26a5 5 0 0 0 4.22-1c.15-.12.82-.48.82-.48a2.31 2.31 0 0 0-.32-1.29c-2.27-2.51-6.68-3.54-10-3a11.83 11.83 0 0 0-8.3 5.51c-1.68 2.95-1.63 7.25-1.13 10.42"/><path class="cls-6" d="M648 208.35a3.87 3.87 0 0 1-3.4 1.8 10.8 10.8 0 0 1-3.89-.92 31.21 31.21 0 0 0-6-1.44c-.2 0-.44 0-.53-.21s.12-.49.35-.64c1.88-1.22 6.22-1.69 8.46-1.59a6.61 6.61 0 0 1 5.56 3.26"/><path class="cls-10" d="M647.44 208.46a7.23 7.23 0 0 0-4.73-2.68 19.55 19.55 0 0 0-18.24 9.15 25.17 25.17 0 0 1-.55-5.25c.11-1.21 1.46-8.31 9-9.91.08 0 11.51-3.25 14.52 8.69z"/><path class="cls-10" d="M625.26 213.41a29.25 29.25 0 0 1 9.8-7.86 57.51 57.51 0 0 1 14-4.31 8.89 8.89 0 0 1 3.77-.07 3.39 3.39 0 0 1 2.57 2.52c.25 1.56-2.68 3.69-4 4.5a42.13 42.13 0 0 1-4.09 2s.29-2.84-4.21-3.83c-6.1-1.36-17.84 7.05-17.84 7.05z"/><path class="cls-6" d="M653.64 201.37a12.58 12.58 0 0 0-1.3-.2 17 17 0 0 0-3.56.24 53.93 53.93 0 0 0-11.39 3.23 31.28 31.28 0 0 0-10 6.2 13.78 13.78 0 0 0-2.28 2.74c-.44.72-.62 1.16-.66 1.15s0-.13.08-.34a7.77 7.77 0 0 1 .4-.91 12.43 12.43 0 0 1 2.2-2.9 29.44 29.44 0 0 1 10.06-6.42 48.49 48.49 0 0 1 11.54-3.16 15.07 15.07 0 0 1 3.63-.07 3.23 3.23 0 0 1 1 .24c.18.13.29.18.28.2z"/><path class="cls-4" d="M639 202.94a14.63 14.63 0 0 1 4.61-1.13 5.84 5.84 0 0 0-1.15-.84 11.73 11.73 0 0 0-3.6.87z"/><path class="cls-6" d="M648.13 210.47a1.84 1.84 0 0 0 .16-1.8 1.81 1.81 0 0 0-1.49-1 1.63 1.63 0 0 0 .86-2.24 2.08 2.08 0 0 0-2.37-.93 2.91 2.91 0 0 0-1.85 1.88 1.94 1.94 0 0 0-3.31.14 1.06 1.06 0 0 0-1.28-.66 3.65 3.65 0 0 0-1.36.81 2.41 2.41 0 0 1-1.42.65l-.36.15a2.24 2.24 0 0 0 2.83.84 1.56 1.56 0 0 0 2.88.87 1.56 1.56 0 0 0 2.47.86 2 2 0 0 0 3.1.86 3.33 3.33 0 0 1 .38 2.75 1.81 1.81 0 0 0 .76-3.15zm-16.92-.97a26.6 26.6 0 0 0-4 2.21 8.7 8.7 0 0 0-3 3.45l2 1.91c.54.18 1 .37 1.41 0a1.71 1.71 0 0 0 .58-1.54 1.48 1.48 0 0 0 1.73-2.09 1.14 1.14 0 0 0 .54-1.92 1.16 1.16 0 0 0 .73-2z"/><path class="cls-10" d="M650.05 238.48s5.92 3.55 7.69 6.71 11.24 26.23 10.85 30-9.26 6.12-9.26 6.12l-9.28-12 4.24-2.53-4.24-8.12z"/><path class="cls-13" d="M659.33 281.28s-21.49 4.29-29.28-5l2.26-7.85s14.19 3.36 18.62 1.92z"/><path class="cls-6" d="M661.54 262.19c.08.16-2.51 1.25-5.22 3.32s-4.43 4.31-4.56 4.2a5.58 5.58 0 0 1 1-1.52 19.66 19.66 0 0 1 7-5.38 5.65 5.65 0 0 1 1.78-.62z"/><path class="cls-6" d="M654.65 266.43a22.14 22.14 0 0 1-1.93-3.83 28.83 28.83 0 0 1-1.75-3.91 13.16 13.16 0 0 1 2.22 3.69 15 15 0 0 1 1.46 4.05zm-3.89-9.65a17.61 17.61 0 0 0-.53-3.35 16.91 16.91 0 0 0-.86-3.28 16.22 16.22 0 0 0 .52 3.35 17.33 17.33 0 0 0 .87 3.28z"/><path class="cls-10" d="M612.19 241.44c.41.43 6.31 4.34 8.28 11s4.14 13.61 4.14 13.61l7.7 1-4.31 17.77a20.73 20.73 0 0 1-14.4-9.46 96.41 96.41 0 0 1-8.28-18.93s.62-21.49 6.87-14.99z"/><path class="cls-13" d="M629.67 266.74s-3.27-7.3-3.7-7.4-6.74-2.31-6.74-2.31a2.27 2.27 0 0 0 0 1.59l-2.26.29s.34 1.39 1.11 1.58l-.82.73a4.49 4.49 0 0 0 1.54 1.3 1.68 1.68 0 0 0 1.49 0s-.29.52 1 1.34 3.51 2 3.51 2z"/><path class="cls-14" d="M624.81 265.9s-2.22-1.21-3.51-2c-1.1-.7-1.07-1.18-1-1.32a1.8 1.8 0 0 1-1.47 0 4.67 4.67 0 0 1-1.55-1.31l.8-.71c-.75-.22-1.07-1.53-1.09-1.59l2.26-.29a2.39 2.39 0 0 1 0-1.58c.06 0 6.3 2.22 6.73 2.31s3.58 7.11 3.71 7.41zm-5.57-7.29l-2.26.29c0 .16.38 1.38 1.09 1.56l-.83.73a4.52 4.52 0 0 0 1.52 1.29 1.71 1.71 0 0 0 1.48 0h.05s-.26.52 1 1.32 3.42 2 3.51 2l4.82.85c-1.13-2.53-3.34-7.29-3.68-7.36s-6.37-2.19-6.72-2.31a2.3 2.3 0 0 0 .02 1.63z"/><path class="cls-14" d="M619.43 258.65a31.21 31.21 0 0 0 4.13 1.6c.57.21 1.14.37 1.59.58a2.13 2.13 0 0 1 1 .9c.37.68.51 1.17.57 1.15a3 3 0 0 0-.36-1.27 2.27 2.27 0 0 0-1-1.06 14.16 14.16 0 0 0-1.63-.62 28.13 28.13 0 0 0-4.3-1.28zM618 260.5a3.28 3.28 0 0 0 1.14.41c.72.2 1.74.36 2.82.65a7.55 7.55 0 0 1 2.56 1.2c.57.45.82.84.87.81a2.11 2.11 0 0 0-.72-1 6.24 6.24 0 0 0-2.62-1.35c-1.11-.3-2.13-.42-2.86-.55a5.43 5.43 0 0 0-1.19-.17zm5.74 3.32a2.75 2.75 0 0 0-1.51-1 2.7 2.7 0 0 0-1.82-.16c0 .1.79.15 1.7.48s1.57.76 1.63.68z"/><path class="cls-13" d="M631.65 269l19.35-9.8 3.56 7.23s-17.88 17.71-26.25 17.48"/><path class="cls-6" d="M619.86 248.47a6.6 6.6 0 0 0 .27 1.43c.2.87.5 2.07.86 3.39s.7 2.52 1 3.38a6.25 6.25 0 0 0 .49 1.36 6.05 6.05 0 0 0-.26-1.43c-.21-.87-.51-2.07-.87-3.4s-.7-2.51-1-3.36a5.37 5.37 0 0 0-.49-1.37zm.84 24.08c.06 0 .23-.89.68-2.28a7.22 7.22 0 0 1 1.17-2.24 4.14 4.14 0 0 1 2.51-1.59 9.66 9.66 0 0 1 3.07.35l2.54.51a3.91 3.91 0 0 1 .93.24.87.87 0 0 1 .47.48.73.73 0 0 1 0 .58s.28-.16.16-.62a1 1 0 0 0-.51-.61 3.68 3.68 0 0 0-1-.31l-2.52-.57a9.19 9.19 0 0 0-3.19-.39 4.37 4.37 0 0 0-2.71 1.73 7.24 7.24 0 0 0-1.15 2.37 14 14 0 0 0-.38 1.71 2.34 2.34 0 0 0-.07.64zm-2.64-3.9a8.35 8.35 0 0 1 2.1-2.41 11.65 11.65 0 0 1 3-1.3c0-.05-.38-.06-1 .07a5.93 5.93 0 0 0-2.16.99 5.13 5.13 0 0 0-1.58 1.77c-.33.5-.42.87-.36.88zm-12.77-12.22a1.64 1.64 0 0 0 .1.38c.1.27.22.63.36 1.06.33 1 .79 2.28 1.34 3.89s1.25 3.61 2.21 5.71 2.09 4.36 3.46 6.65a22.42 22.42 0 0 0 4.83 5.74 20.66 20.66 0 0 0 5.2 3.25 15.82 15.82 0 0 0 4 1.12c.49.06.87.09 1.12.1s.4 0 .4 0-.54-.05-1.49-.23a16.68 16.68 0 0 1-3.91-1.21 22.18 22.18 0 0 1-9.83-8.93c-1.35-2.27-2.45-4.56-3.47-6.61s-1.66-4-2.26-5.66-1.09-2.95-1.44-3.86l-.42-1a1.61 1.61 0 0 0-.2-.4zm5.56-14.53c0 .1 1.48.64 3.17 1.65s2.9 2.06 3 2a12 12 0 0 0-6.14-3.63zm14.71 47.1a7.18 7.18 0 0 0 1 .5 12.5 12.5 0 0 0 1.2.52c.47.19 1 .42 1.61.61a39.5 39.5 0 0 0 4.33 1.26 40.42 40.42 0 0 0 11 1 40.55 40.55 0 0 0 4.48-.48c.63-.09 1.2-.22 1.7-.32s.92-.2 1.27-.3a6.37 6.37 0 0 0 1.06-.32 8.34 8.34 0 0 0-1.09.19c-.35.07-.78.16-1.28.24s-1.06.2-1.7.27a42.18 42.18 0 0 1-4.45.4 46.72 46.72 0 0 1-5.47-.14 44.75 44.75 0 0 1-5.41-.82 43.08 43.08 0 0 1-4.32-1.18c-.61-.18-1.15-.39-1.63-.56s-.88-.32-1.21-.46a7.66 7.66 0 0 0-1.09-.41zm15.75 10.09a16.63 16.63 0 0 0 3.93-1 17 17 0 0 0 3.73-1.58c0-.09-1.73.55-3.84 1.25s-3.84 1.24-3.82 1.33z"/><path d="M656.11 281.8a37.21 37.21 0 0 1-13.43.2 14.84 14.84 0 0 0-5-.6 16.66 16.66 0 0 0-3.85 1.46 15.05 15.05 0 0 1-14.18-1.47 9.79 9.79 0 0 0 7.34 5.15 21.74 21.74 0 0 0 9.22-.82 23.75 23.75 0 0 1 5.45-1.1c2.36-.06 4.67.71 7 .75a12.66 12.66 0 0 0 7.66-2.3zm-7.67 15.4a12.44 12.44 0 0 1-9.45 6 6.16 6.16 0 0 1-2.49-.2 3.12 3.12 0 0 1-1.88-1.57 9 9 0 0 1 2.93-1.21l10.77-2.95"/><path class="cls-14" d="M654.29 266.72a5.48 5.48 0 0 1-.87.89c-.57.56-1.41 1.36-2.41 2.38s-2.17 2.28-3.61 3.53-3.07 2.54-4.8 3.89a51.94 51.94 0 0 1-5.11 3.5 26.14 26.14 0 0 1-4.6 2.13 20.64 20.64 0 0 1-3.32.8 5.36 5.36 0 0 1-1.25.07 38.71 38.71 0 0 0 4.45-1.22 26.88 26.88 0 0 0 4.47-2.2 55.2 55.2 0 0 0 5-3.5c1.72-1.34 3.37-2.61 4.81-3.83s2.62-2.43 3.66-3.43 1.92-1.76 2.54-2.27a5.14 5.14 0 0 1 1.04-.74z"/></g></g></svg>