<svg xmlns="http://www.w3.org/2000/svg" viewBox="0 0 465.53 410.07"><defs><style>.cls-1{fill:#ebebeb}.cls-2{fill:#fafafa}.cls-3{fill:#e0e0e0}.cls-5{fill:#fff}.cls-6{fill:#263238}.cls-7{fill:#e8505b}.cls-8{fill:#ffbe9d}.cls-9{fill:#eb996e}.cls-10{fill:#455a64}</style></defs><g id="Layer_2" data-name="Layer 2"><g id="Background_Complete" data-name="Background Complete"><rect class="cls-1" x="322.97" y="8.9" width="105.35" height="99.92" rx="6.79" ry="6.79" transform="rotate(-12.49 375.583 58.856)"/><path class="cls-2" d="M396.13 69.72a3.43 3.43 0 0 1-.69.2l-2 .49-7.35 1.72-24.72 5.62h-.2l-.08-.2c-.47-1.27-1-2.61-1.49-4l-10.7-28.72.18.1-6.61 1.41-1.76.35a4 4 0 0 1-.61.1 2.62 2.62 0 0 1 .59-.18l1.75-.43 6.56-1.55h.13l.05.13c2.56 6.77 6.48 17.13 10.88 28.73.51 1.36 1 2.71 1.49 4l-.27-.14L386 71.82l7.38-1.58 2-.41a6.62 6.62 0 0 1 .75-.11z"/><path class="cls-2" d="M358.72 70.54l.17-.06.51-.14 2-.48 7.43-1.73 25.65-5.84-.18.24c-.21-4.49-.43-9.35-.66-14.38-.12-2.58-.23-5.12-.34-7.55l.28.22-30.27 6.71-9 1.93-2.43.5-.63.12a1.08 1.08 0 0 1-.22 0l.21-.07.62-.16 2.41-.58 8.94-2.08 30.24-6.86.28-.06v.28c.11 2.42.23 5 .35 7.55.22 5 .44 9.88.64 14.38v.19h-.19l-25.69 5.67-7.43 1.66-2 .41-.52.1zM372.15 85s-.11-.3-.38-.78a3.58 3.58 0 0 0-1.68-1.52 3.41 3.41 0 0 0-3.22.27 3.35 3.35 0 0 0 1.38 6.13 3.44 3.44 0 0 0 3-1.13 3.63 3.63 0 0 0 .87-2.1V85a1.86 1.86 0 0 1 .17.88 3.51 3.51 0 0 1-.79 2.3 3.74 3.74 0 0 1-3.34 1.35 3.77 3.77 0 0 1-1.55-6.94 3.71 3.71 0 0 1 3.59-.2 3.53 3.53 0 0 1 1.7 1.74 1.89 1.89 0 0 1 .25.87zm22.39-5s-.11-.3-.38-.79a3.61 3.61 0 0 0-1.69-1.52 3.42 3.42 0 0 0-3.21.27 3.36 3.36 0 1 0 4.4 5 3.58 3.58 0 0 0 .87-2.09V80a1.79 1.79 0 0 1 .17.87 3.51 3.51 0 0 1-.8 2.31 3.73 3.73 0 0 1-3.33 1.35 3.77 3.77 0 0 1-1.57-6.94 3.76 3.76 0 0 1 3.6-.21 3.5 3.5 0 0 1 1.7 1.75 1.87 1.87 0 0 1 .24.87z"/><path class="cls-2" d="M400.75 35.28a10.17 10.17 0 1 1-12.15-7.71 10.17 10.17 0 0 1 12.15 7.71z"/><path class="cls-3" d="M395.38 32.59a9 9 0 0 1-.93 1.89c-.62 1.13-1.52 2.68-2.53 4.38-.38.63-.74 1.24-1.09 1.81l-.11.19-.19-.1a31.76 31.76 0 0 1-4.34-2.61 35.11 35.11 0 0 1 4.56 2.2l-.31.09 1.07-1.82c1-1.7 1.95-3.23 2.65-4.32a9.12 9.12 0 0 1 1.22-1.71zM53.47 149.9c-1.84-6.53-10.33-5.9-10.33-5.9l.23 4.55c4.91-.85 8 4.9 8 4.9zm124.7-75.43c9.85 3 16-8.38 16-8.38l-6-3.41c-2.93 7-12.77 6.15-12.77 6.15zm81.76 60.98C258 130 250.87 131 250.87 131l.44 3.84c4.11-1 7 3.73 7 3.73zM147 8.21c-1.9-5.43-9.06-4.45-9.06-4.45l.44 3.83c4.11-1 7 3.74 7 3.74z"/><path class="cls-1" d="M61.61 77.72c-1.9-5.44-9.06-4.45-9.06-4.45L53 77.1c4.11-1 7 3.73 7 3.73zM43.68 26.93c-5.68.94-6 8.15-6 8.15l3.85.24c-.25-4.22 4.89-6.24 4.89-6.24zM2.78 195.92c9.85 3 16-8.38 16-8.38l-6-3.41C9.84 191.09 0 190.28 0 190.28z"/><path class="cls-3" d="M283.39 75.1c.67-4.56-4.77-6.52-4.77-6.52l-1.12 2.88c3.28.83 3.58 5.24 3.58 5.24z"/><path class="cls-1" d="M250.64 25c-3.84 2.55-1.66 7.91-1.66 7.91l2.89-1.1c-1.57-3 1.51-6.16 1.51-6.16z"/><path fill="#f5f5f5" d="M417.27 127.09l-13.29 39.17 39.32 7.81 2.27-41.36-28.3-5.62z"/><path class="cls-5" d="M441.21 137.91c.05 0-.07.44-.44 1.13a11.52 11.52 0 0 1-2 2.63 10.76 10.76 0 0 1-4.17 2.6 11.69 11.69 0 0 1-6 .3 12 12 0 0 1-5.49-2.47 9.52 9.52 0 0 1-2.81-4 10.63 10.63 0 0 1-.68-3.23 2.69 2.69 0 0 1 .09-1.2 18.91 18.91 0 0 0 1.07 4.23 9.49 9.49 0 0 0 2.77 3.7 11.67 11.67 0 0 0 5.18 2.26 11.51 11.51 0 0 0 5.66-.22 10.75 10.75 0 0 0 4-2.33 20.21 20.21 0 0 0 2.82-3.4z"/></g><g id="Screen"><path class="cls-2" d="M13.95 101.36H257.8v190.9H13.95z"/><path class="cls-6" d="M257.8 292.26c0-1.8-.08-75.74-.21-190.9l.21.22-243.8.04.26-.26v190.9L14 292l243.85.24-243.85.25h-.24V101.1H14l243.83.05h.17v.21c-.11 115.16-.2 189.11-.2 190.9z"/><path class="cls-7" d="M172.12 266.27H99.63a15 15 0 0 1-15-15 15 15 0 0 1 15-15h72.49a15 15 0 0 1 15 15 15 15 0 0 1-15 15z"/><path class="cls-5" d="M123.47 247.81H126a2.95 2.95 0 1 1 0 5.87h-2.56zm2.51 4.95a2 2 0 1 0 0-4h-1.42v4zm4.02-2.02a3.17 3.17 0 1 1 3.17 3 3 3 0 0 1-3.17-3zm5.23 0a2.07 2.07 0 1 0-2.06 2.07 2 2 0 0 0 2.03-2.07zm7.44-2.93v5.87h-.9l-3.24-4v4h-1.08v-5.87h.9l3.24 4v-4zm5.98 4.96v.91h-4.41v-5.87h4.29v.91h-3.2v1.53h2.84v.9h-2.84v1.62z"/><path class="cls-7" d="M136.89 216.51a19.38 19.38 0 1 1 19.39-19.38 19.4 19.4 0 0 1-19.39 19.38zm0-36.76a17.38 17.38 0 1 0 17.39 17.38 17.4 17.4 0 0 0-17.39-17.38z"/><path class="cls-7" d="M135.49 203.1a1 1 0 0 1-.66-.25c-1.7-1.49-4.6-4.08-5-4.63a1 1 0 0 1 1.65-1.13c.27.34 2.11 2 4 3.65l9.82-9.31a1 1 0 0 1 1.38 1.45l-10.48 10a1 1 0 0 1-.71.22z"/><path class="cls-6" d="M257.8 120c0 .14-54.45.26-121.61.26s-121.63-.11-121.63-.26 54.44-.26 121.63-.26 121.61.13 121.61.26z"/><circle class="cls-6" cx="22.58" cy="110.42" r="1.42"/><circle class="cls-6" cx="27.86" cy="110.42" r="1.42"/><path class="cls-6" d="M34.47 110.42a1.42 1.42 0 1 1-1.41-1.42 1.42 1.42 0 0 1 1.41 1.42z"/><g id="_1" data-name="1"><circle id="Wheel" class="cls-7" cx="134.33" cy="164.85" r="1.09"/><circle id="Wheel-2" data-name="Wheel" class="cls-7" cx="139.03" cy="164.85" r="1.09"/><g id="Basket"><path class="cls-7" d="M152 155.35v7.89h-1.9v-1.19a3 3 0 0 1-2.65 1.33 3.77 3.77 0 0 1-3.77-4 3.81 3.81 0 0 1 3.77-4.13 3 3 0 0 1 2.65 1.33v-1.18zm-2 3.93a2.17 2.17 0 1 0-2.16 2.39 2.16 2.16 0 0 0 2.16-2.39zm3.67 3.17l.75-1.2a4.36 4.36 0 0 0 2.26.58c.74 0 1.23-.31 1.23-.79s-.55-.75-1.34-.95l-.66-.18c-1.33-.35-2.24-.86-2.24-2.1 0-1.57 1.23-2.61 3.1-2.61a5.17 5.17 0 0 1 3 .78l-.83 1.3a4.06 4.06 0 0 0-2-.51c-.71 0-1.21.26-1.21.71s.5.69 1.19.87l.65.19c1.35.35 2.42 1 2.42 2.35s-1.32 2.49-3.29 2.49a4.5 4.5 0 0 1-3.03-.93zm10.55-2.54h-.67v3.33h-2v-11.42h2v6.45h.69l2.6-2.92h2.52l-3.5 3.73 3.69 4.16H167z"/><path class="cls-7" d="M177.35 160h-5.7a1.8 1.8 0 0 0 1.88 1.82 2.47 2.47 0 0 0 1.94-.94l1.53.78a4 4 0 0 1-3.44 1.72 4.09 4.09 0 0 1-.08-8.18 3.73 3.73 0 0 1 3.93 4 7 7 0 0 1-.06.8zm-5.7-1.35h3.67c-.15-1.2-.78-1.88-1.84-1.88s-1.67.68-1.83 1.88zm11.65 2.76V163a5.37 5.37 0 0 1-2 .36 2.32 2.32 0 0 1-2.42-2.49V153h2v2.32h2.33V157h-2.33v3.51a1.08 1.08 0 0 0 1.07 1.19 3.52 3.52 0 0 0 1.35-.29zM138.14 155h-4.23l.34 2.08h4.34c1 0 1.76.24 1.76 1.55s-.72 2.58-1.79 2.58h-4.23l-1.69-11.49a.82.82 0 0 0-.82-.7h-4.18a1 1 0 0 0-1 .86 1 1 0 0 0 1 1.06h3.16l1.87 12.36h6.08c2.29 0 3.78-1.83 3.78-4.58-.06-1.85-.42-3.72-4.39-3.72z"/></g><path class="cls-7" d="M98.44 159.61h-.67v3.31h-2v-11.37h2V158h.68l2.6-2.92h2.51l-3.49 3.72 3.68 4.14h-2.51zm18.47-4.55l-2.91 7.86h-2l-1.72-5.42-1.72 5.42h-2l-2.89-7.86h2.17l1.84 5.6 1.77-5.6h1.63l1.76 5.6 1.84-5.6zm.95-2.45a1.18 1.18 0 1 1 2.35 0 1.18 1.18 0 0 1-2.35 0zm.19 2.45h2v7.86h-2zm6.65 4.55h-.7v3.31h-2v-11.37h2V158h.68l2.6-2.92h2.5l-3.48 3.72 3.67 4.14h-2.51z" id="Kwik"/></g></g><g id="Character"><path class="cls-8" d="M418.11 229.61s12.13-7.38 14.87-5.21c3.95 3.13 5.26 8.41 5.26 8.41s6.41-24.45 12.53-23.52c3.51.53 1.79 3.27.21 6.7-1.46 3.19-4 14.88-4 14.88s11.6-13.76 15-13.51c2.64.19 3 2.51-.78 6.23S451.17 239 451.17 239s8.12-7.57 11.48-7.62c2.68 0 4.41 1.83.94 4.84s-8.7 5.26-11.5 10.7c-3.45 6.71-10.8 23.43-10.8 23.43l-25.72-9.11s-4.19-17.06-4.36-21.21c0 0 .35-8.76.31-10.32s4.08-2 5.34 1 .68 6.14 1.19 8.13 1.42 3.84 2.88 4.73 5.16 1 6.11-.15a15.81 15.81 0 0 0 2.34-6.28 28.49 28.49 0 0 0-.07-5.08s-10.68 4.4-11.2-2.45zm-289.04 79.62l-17.88-6.69S93 291.88 89.62 295.67a3.73 3.73 0 0 0-5.2 2.12c-.92 2.23 2.13 5.46 2.13 5.46s-1 1 .56 4.23S105.89 321 105.89 321s22.46 12.25 31.54 18.11l15.67-21.31-2.18-.82s-1.29-10.62-5.64-13.45c-4.73-3.08-10.44-11.42-11.69-14.69s-7.29-1.75-6.28 5 6.28 8.54 5.78 13.06-4.02 2.33-4.02 2.33z"/><path class="cls-9" d="M101.66 311.71a72.34 72.34 0 0 1-7.77-4.06 76.29 76.29 0 0 1-7.53-4.51 73 73 0 0 1 7.78 4.06 76.8 76.8 0 0 1 7.52 4.51zm8.73-5.02a23.43 23.43 0 0 1-3.21-1.28c-2-.85-4.64-2.07-7.54-3.55s-5.45-3-7.24-4.14c-.89-.59-1.6-1.08-2.07-1.45s-.73-.57-.71-.6a30 30 0 0 1 3 1.74c1.82 1.08 4.39 2.51 7.28 4s5.54 2.75 7.45 3.69a21.4 21.4 0 0 1 3.04 1.59z"/><path class="cls-9" d="M114.15 316.54a12 12 0 0 1-1.59-.86l-4.21-2.52v-.06a59.54 59.54 0 0 0-3-5.81 14.19 14.19 0 0 0-2.27-3 2.87 2.87 0 0 0-3.52-.26 1.68 1.68 0 0 0-.56.51.55.55 0 0 1 0 .12l.07.22c0 .15.1.3.15.45.22.59.46 1.18.69 1.76l1.37 3.34 2.41 5.76v-.05l3.59 4.21 1 1.17c.22.27.33.42.31.44a2.05 2.05 0 0 1-.39-.36l-1-1.1-3.73-4.1c-.75-1.67-1.59-3.61-2.5-5.74l-1.4-3.33c-.23-.58-.47-1.17-.69-1.78-.06-.15-.12-.3-.17-.46l-.07-.24a1.8 1.8 0 0 1-.06-.36 1.2 1.2 0 0 1 .37-.53 2.67 2.67 0 0 1 .43-.32 3.5 3.5 0 0 1 2.15-.56 3.42 3.42 0 0 1 2 .87 14.48 14.48 0 0 1 2.36 3.15 52.35 52.35 0 0 1 3 5.9l-.07-.08 4.12 2.66a10.76 10.76 0 0 1 1.21.96zm17.92.17a11.06 11.06 0 0 1-2.2-.54 21.79 21.79 0 0 0-5.28-.93 9.66 9.66 0 0 0-5.1 1.24 18.48 18.48 0 0 0-1.76 1.36 4.12 4.12 0 0 1 1.56-1.67 9.08 9.08 0 0 1 5.31-1.45 17.37 17.37 0 0 1 5.38 1.1 8.7 8.7 0 0 1 2.09.89z"/><path class="cls-9" d="M130.73 312c.11.08-.33.86-.76 1.85s-.71 1.84-.86 1.82a3.14 3.14 0 0 1 .38-2c.51-1.09 1.13-1.77 1.24-1.67z"/><path class="cls-6" d="M233.75 227c1.24-8.42 11.05-20.5 19.73-20.51a22.43 22.43 0 0 1-.19-24.65c3.35-5 8.76-8.7 11-14.26 2.59-6.28.6-13.39.85-20.16.36-9.92 5.52-19 10.55-27.6 4.6-7.89 10.21-16.54 19.27-18.48 5.73-1.22 11.67.59 17.05 2.88 25.75 11 45.77 34.07 52.64 60.76 1.65 6.38 2.75 13.29 7.2 18.23 4.71 5.23 13 8.07 14.39 14.9 1 4.91-2.14 9.84-1.67 14.82.4 4.17 8.22 16.34 10 20.14 3.1 6.55 2 13.62-1.18 20.15s-11.21 12.87-18.35 14.65l-79.8-26.59c-7.51 4.27-15 20.81-23.6 21.82s-19.14 4.77-27.43-4.31c-8.63-9.51-11.69-23.36-10.46-31.79z"/><path class="cls-6" d="M366.08 147.63c-.9 6.68.93 17.72 4.59 23.42 2.44 3.83 6.53 6.33 10.57 8.52s8.25 4.29 11.31 7.67 4.7 8.46 2.65 12.51c7.19 2.68 10.42 11.84 7.78 18.92s-9.87 11.85-17.42 13.26L352.64 222l-7.23-42 19-32.4"/><path class="cls-10" d="M370.12 190.45a5.06 5.06 0 0 1 .64.28 20.24 20.24 0 0 1 1.8.93 24.29 24.29 0 0 1 5.77 4.81 26 26 0 0 1 5.47 9.87 24.26 24.26 0 0 1 .09 14l-.12-.3a24.13 24.13 0 0 1 5.35 4.07 25 25 0 0 1 7.18 14.65 24 24 0 0 1-2.36 13.24 24.82 24.82 0 0 1-5.4 7.28 19.08 19.08 0 0 1-1.92 1.55 4.87 4.87 0 0 1-.71.48 5.16 5.16 0 0 1 .65-.56 24.1 24.1 0 0 0 1.84-1.62 25.58 25.58 0 0 0 5.21-7.29 23.78 23.78 0 0 0 2.21-12.95 24.6 24.6 0 0 0-7.07-14.34 23.42 23.42 0 0 0-5.23-4l-.18-.1.06-.2a24 24 0 0 0 0-13.74 26.93 26.93 0 0 0-2.31-5.53 26.56 26.56 0 0 0-3-4.24 24.68 24.68 0 0 0-5.61-4.88c-.72-.49-1.35-.76-1.74-1a3.47 3.47 0 0 1-.62-.41z"/><path class="cls-7" d="M272.75 234s-14.71 4.47-19.86 12c-3.65 5.3-41 86.17-41 86.17l-56.68-17L135 341.81l63.07 35a38.41 38.41 0 0 0 37.55-.17 38.44 38.44 0 0 0 15.14-15.66l16-30.72z"/><path class="cls-7" d="M257.7 410.07l8.85-38.15-6.71-27.7c-4.31-14.26-8-37.49-3.32-56.21l15.68-53.81 17.23-7.92 39.44-6.79c1.52.51 41.25 11.73 41.25 11.73a60 60 0 0 1 7.7 2.15l4.56 29.46-13.7 48.55-6 48.38 13.1 50.31z"/><path class="cls-8" d="M280.49 230.39l11.44-5.12 51.55.71 12.19 7.08s-42.58 47-53.27 48.56c-26.89 3.91-21.91-51.23-21.91-51.23z"/><path class="cls-7" d="M376.7 233s7.73 1.74 14.34 15.86 17.32 53.42 17.32 53.42l4.58-41.65 37.27 4.1-7.21 99.49s-13.18 19.13-35.25 17.37-50.07-71.51-50.07-71.51z"/><path class="cls-6" d="M402.55 353.09a.87.87 0 0 1 0-.24v-.7c0-.67.09-1.57.16-2.71.14-2.35.42-5.75.81-9.95.78-8.39 2.2-19.95 3.94-32.68s3.23-24.28 4.09-32.65c.44-4.19.78-7.58 1-9.93.11-1.14.2-2 .26-2.7 0-.28.06-.51.08-.7a.68.68 0 0 1 .05-.24.93.93 0 0 1 0 .24v.71c0 .66-.1 1.57-.17 2.71-.14 2.35-.42 5.75-.81 9.94-.78 8.39-2.2 19.95-3.94 32.69s-3.22 24.27-4.09 32.65c-.44 4.19-.77 7.58-1 9.92-.11 1.14-.19 2-.26 2.7 0 .29-.06.52-.08.7a.92.92 0 0 1-.04.24zm-190.01.48a3.42 3.42 0 0 1-.41-.75 19.67 19.67 0 0 1-.86-2.15 32 32 0 0 1-1.47-15.08 23 23 0 0 1 .44-2.27 3.09 3.09 0 0 1 .26-.81c.09 0-.14 1.2-.33 3.12a37.94 37.94 0 0 0 1.45 14.93c.55 1.85 1 2.97.92 3.01zm6.27.92a3.82 3.82 0 0 1-.65-.74 25.55 25.55 0 0 1-1.56-2.21 38.53 38.53 0 0 1-3.88-8 37.78 37.78 0 0 1-1.93-8.69 26 26 0 0 1-.15-2.7 3.5 3.5 0 0 1 .05-1c.09 0 .15 1.4.46 3.64a46 46 0 0 0 2.06 8.57 46.72 46.72 0 0 0 3.7 8c1.15 1.93 1.97 3.08 1.9 3.13zm44.13-88.93a6 6 0 0 1-.19.81l-.64 2.29c-.57 2-1.38 4.88-2.38 8.39a185.82 185.82 0 0 0-5.92 28.09 70.25 70.25 0 0 0-.22 15.75 69.49 69.49 0 0 0 2.63 12.61c1 3.52 2 6.33 2.73 8.27.33.93.59 1.68.79 2.23a3.94 3.94 0 0 1 .24.8 8.18 8.18 0 0 1-.34-.76l-.88-2.2c-.74-1.92-1.79-4.72-2.9-8.24a68.53 68.53 0 0 1-2.75-12.66 69.35 69.35 0 0 1 .18-15.86 172.24 172.24 0 0 1 6.09-28.08c1-3.54 1.92-6.39 2.54-8.35.3-1 .55-1.7.73-2.26a4.81 4.81 0 0 1 .29-.83zm104.22 65.58s-.06-.08-.14-.24l-.35-.74-1.29-2.87c-.56-1.25-1.26-2.76-2-4.55s-1.54-3.86-2.45-6.12-1.72-4.82-2.69-7.52l-1.32-4.26c-.23-.73-.45-1.47-.68-2.22s-.41-1.54-.61-2.32a101.57 101.57 0 0 1-3.53-20.71 59.86 59.86 0 0 1 2.16-20.86 37 37 0 0 1 8.25-15 29.09 29.09 0 0 1 9.31-6.83 21.92 21.92 0 0 1 2.95-1.09l.79-.22.27-.06a.84.84 0 0 1-.26.11l-.77.27a25.31 25.31 0 0 0-2.9 1.18 29.47 29.47 0 0 0-9.12 6.89 37 37 0 0 0-8.06 14.84 59.92 59.92 0 0 0-2.1 20.7 104.07 104.07 0 0 0 3.47 20.62q.3 1.17.6 2.31l.67 2.22c.44 1.46.87 2.88 1.29 4.25.95 2.71 1.77 5.25 2.63 7.53s1.67 4.33 2.37 6.14 1.4 3.32 1.92 4.58.92 2.21 1.21 2.91l.3.76a.94.94 0 0 1 .08.3z"/><path d="M353 286.06c-4.87 23.05-4.93 46.76 3.45 68.77.49 1.28 2.42 5.82 3.78 5.89 1.73.08 2.55-2.07 2.85-3.78.62-3.51 1-9.28 1.61-12.79.77-4.39 1.82-14.56 1.82-14.56s-4-9.22-5.8-14.17c-3.29-9.18-6.07-17.94-7.61-28.63" opacity=".3"/><path class="cls-6" d="M349 375.35a2.88 2.88 0 0 1-.38.61c-.31.42-.7 1-1.2 1.67l-.88 1.2c-.33.42-.73.86-1.14 1.34a39.94 39.94 0 0 1-2.92 3.17l-1.79 1.75c-.63.61-1.35 1.16-2.06 1.78-1.4 1.25-3.07 2.38-4.78 3.62a61.54 61.54 0 0 1-25.42 9.91 57.48 57.48 0 0 1-6 .56c-.94 0-1.85.11-2.72.09l-2.51-.05a41.43 41.43 0 0 1-4.29-.37c-.63-.07-1.22-.12-1.75-.21l-1.46-.29-2-.42a3.1 3.1 0 0 1-.69-.18 3.42 3.42 0 0 1 .71.08l2 .32 1.46.24c.54.08 1.13.11 1.75.17 1.26.1 2.69.31 4.28.29h2.49c.86 0 1.76-.08 2.69-.12 1.87 0 3.84-.35 5.92-.61a67.86 67.86 0 0 0 13.16-3.53 68.64 68.64 0 0 0 12.07-6.3 56.37 56.37 0 0 0 4.77-3.56c.71-.6 1.44-1.14 2.07-1.73l1.8-1.72c1.19-1.06 2.1-2.18 3-3.1.42-.47.83-.9 1.17-1.31l.91-1.17 1.27-1.6a5 5 0 0 1 .47-.53zm-8.16-15.25a4 4 0 0 1-.13 1.09 26.29 26.29 0 0 1-.7 2.92 34.8 34.8 0 0 1-10.64 16.42 25.57 25.57 0 0 1-2.38 1.83 4.56 4.56 0 0 1-.94.57c-.05-.08 1.22-1 3.08-2.67A38.66 38.66 0 0 0 339.66 364c.79-2.38 1.09-3.92 1.18-3.9z"/><path class="cls-7" d="M322.69 95a40.51 40.51 0 0 1 35.22 60c-2.29 4.17-5.59 8.12-10.12 9.57a83.49 83.49 0 0 0-25.33-64.86"/><path class="cls-7" d="M339 98.58c-2.07-4.31.14-9.7 3.84-12.73s8.51-4.26 13.16-5.37 9.46-2.26 13.24-5.19c-.54 7.49-2.4 15.19-7.25 20.93s-13.25 8.93-20.17 6"/><path class="cls-7" d="M343.82 103.52c-3.18 1.34-7 .5-9.82-1.45a22.38 22.38 0 0 1-6.56-7.9 33.86 33.86 0 0 1-4.21-11.92 20 20 0 0 1 2.11-12.33c5.47 5.83 11.5 10.73 14.66 18.08 1.84 4.33 1.61 11.26-.36 15.53"/><path class="cls-6" d="M359.33 127.77a7.56 7.56 0 0 1 .27 1.39c.07.45.15 1 .2 1.65s.15 1.38.17 2.19a43.81 43.81 0 0 1-.11 5.74 46.14 46.14 0 0 1-3.24 13.63 46.79 46.79 0 0 1-2.49 5.17c-.38.72-.8 1.34-1.14 1.89s-.65 1-.92 1.38a8.12 8.12 0 0 1-.87 1.12 7.14 7.14 0 0 1 .7-1.23c.24-.39.53-.86.84-1.42s.71-1.19 1.06-1.92a49.67 49.67 0 0 0 2.37-5.16 49.14 49.14 0 0 0 3.22-13.5 53.63 53.63 0 0 0 .21-5.69c0-.81-.06-1.54-.09-2.18s-.07-1.2-.11-1.65a6.81 6.81 0 0 1-.07-1.41zM356.2 101a8.25 8.25 0 0 1-1.1.88 12 12 0 0 1-3.62 1.4 28.17 28.17 0 0 1-12.77-.73h-.14v-.15c-.06-.3-.13-.62-.21-.94a22.54 22.54 0 0 1-.33-7.44 12.81 12.81 0 0 1 2.1-5.71 10.79 10.79 0 0 1 3-2.83 8.89 8.89 0 0 1 1.35-.67 9.29 9.29 0 0 1-1.24.84 11.38 11.38 0 0 0-2.77 2.87 12.73 12.73 0 0 0-2 5.48 22.67 22.67 0 0 0 .36 7.27q.1.48.21.93l-.18-.19a29.31 29.31 0 0 0 12.55.87 13.34 13.34 0 0 0 3.59-1.21 7.46 7.46 0 0 1 1.2-.67z"/><path class="cls-6" d="M360.3 88c0 .09-1.46.3-3.76 1a32.72 32.72 0 0 0-3.92 1.45 32.23 32.23 0 0 0-8.55 5.6 34.14 34.14 0 0 0-2.9 3c-1.54 1.83-2.32 3.1-2.4 3a3.8 3.8 0 0 1 .49-.93 20.84 20.84 0 0 1 1.62-2.36 28.79 28.79 0 0 1 2.87-3.14 32.63 32.63 0 0 1 4.08-3.23 34.61 34.61 0 0 1 4.59-2.39 29.16 29.16 0 0 1 4-1.37 22.29 22.29 0 0 1 2.8-.55 3.79 3.79 0 0 1 1.08-.08z"/><path class="cls-6" d="M343.61 103.4a1 1 0 0 1 0 .3 4.45 4.45 0 0 1-.27.82 6.41 6.41 0 0 1-2 2.5 6.85 6.85 0 0 1-4.49 1.46 6.78 6.78 0 0 1-5.85-8.59 6.94 6.94 0 0 1 3-3.67 6.58 6.58 0 0 1 3.05-.94 4.93 4.93 0 0 1 .87 0 .92.92 0 0 1 .29.07c0 .06-.42 0-1.15.08a6.81 6.81 0 0 0-2.86 1.06 6.63 6.63 0 0 0-2.72 3.5 6.38 6.38 0 0 0 5.46 8 6.67 6.67 0 0 0 4.24-1.27 6.91 6.91 0 0 0 2-2.29 10.6 10.6 0 0 1 .43-1.03z"/><path class="cls-6" d="M331.48 103.65s-.34-.55.13-1.33a2.24 2.24 0 0 1 1.19-.92 4.2 4.2 0 0 1 1.78-.19 8.35 8.35 0 0 1 4.25 1.26c-.06.15-1.9-.58-4.28-.74a2.9 2.9 0 0 0-2.64.8 2.72 2.72 0 0 0-.43 1.12zm-6.14-33.73a12.15 12.15 0 0 0-1.53 4.28 30 30 0 0 0-.24 5 32.68 32.68 0 0 0 .54 6.06 29.9 29.9 0 0 0 4.27 10.12c.81 1.16 1.52 2.07 2 2.68a11.06 11.06 0 0 1 .8.94 14.07 14.07 0 0 1-3.13-3.41 28 28 0 0 1-4.48-10.23 30.63 30.63 0 0 1-.51-6.16 26.92 26.92 0 0 1 .36-5 10 10 0 0 1 1.14-3.22 3.54 3.54 0 0 1 .78-1.06zm5.18 11.86a8.24 8.24 0 0 1 1.4 1.71 29.69 29.69 0 0 1 2.66 4.64 28.44 28.44 0 0 1 1.76 5 8 8 0 0 1 .34 2.19c-.16 0-.84-3.27-2.57-7s-3.73-6.44-3.59-6.54z"/><path class="cls-6" d="M328.83 88c.1-.08 1.79 1.62 4 3.6a31.58 31.58 0 0 1 3.86 3.75 25.65 25.65 0 0 1-4.22-3.35 17.93 17.93 0 0 1-3.64-4z"/><path class="cls-2" d="M355 111.48l-.15.14-.44.37a18.59 18.59 0 0 1-1.7 1.27 26 26 0 0 1-6.3 3.07 25.43 25.43 0 0 1-6.89 1.26 18.12 18.12 0 0 1-2.13 0h-.77.78c.5 0 1.22 0 2.11-.06a27.07 27.07 0 0 0 13.12-4.3c.75-.49 1.34-.91 1.73-1.21l.47-.34c.1-.17.17-.21.17-.2zm5.89 12.1l-.15.14-.44.37c-.39.32-1 .76-1.72 1.26a28.6 28.6 0 0 1-13.1 4.72c-.89.09-1.62.13-2.12.13h-.78.77c.5 0 1.23-.09 2.11-.19a31.1 31.1 0 0 0 6.79-1.61 31.54 31.54 0 0 0 6.25-3.09c.75-.49 1.35-.9 1.75-1.21l.47-.33c.11-.16.16-.2.17-.19zm-1.64 17.65a2.53 2.53 0 0 1-.42.31 13 13 0 0 1-1.23.74 20.5 20.5 0 0 1-4.4 1.74 20.26 20.26 0 0 1-4.69.64h-1.43a2 2 0 0 1-.52-.07 3.09 3.09 0 0 1 .52 0h1.43a22.16 22.16 0 0 0 4.64-.7 21.86 21.86 0 0 0 4.38-1.66c.54-.27 1-.51 1.26-.68zm3.4-2.7a4.81 4.81 0 0 1-1.35.37 5.29 5.29 0 0 1-1.39.16 4.56 4.56 0 0 1 1.35-.37 4.81 4.81 0 0 1 1.39-.16zm-9.93 20.76a6.84 6.84 0 0 1-2.28.11 6.53 6.53 0 0 1-2.24-.45c0-.06 1 .15 2.26.24s2.26.03 2.26.1zM333.75 107a6.14 6.14 0 0 1-1.34.86 6 6 0 0 1-1.43.67 6.35 6.35 0 0 1 1.33-.86 6.17 6.17 0 0 1 1.44-.67zm-4.97-10.5a17.61 17.61 0 0 0-2.95 1.58 19.54 19.54 0 0 0-2.47 2.26 3.54 3.54 0 0 1 .58-.81 9.65 9.65 0 0 1 1.77-1.62 10.21 10.21 0 0 1 2.11-1.14 3 3 0 0 1 .96-.27zm9.01 11.62a13.64 13.64 0 0 0 0-3 14.73 14.73 0 0 0-.82-2.92 2.78 2.78 0 0 1 .44.79 7.61 7.61 0 0 1 .59 2.1 7.79 7.79 0 0 1 0 2.19 2.82 2.82 0 0 1-.21.84zm30.94-32.61a11.74 11.74 0 0 1-1.1 1.16 21.79 21.79 0 0 1-3.46 2.67 44 44 0 0 1-5.75 3c-2.22 1-4.72 2-7.25 3.17a28.55 28.55 0 0 0-6.63 4.23 16.8 16.8 0 0 0-3.89 5.07 11.91 11.91 0 0 0-1.19 4.15c-.09 1 0 1.6 0 1.6v-.41a9.62 9.62 0 0 1 0-1.19 11.89 11.89 0 0 1 1.13-4.21 16.81 16.81 0 0 1 3.9-5.15 28.17 28.17 0 0 1 6.67-4.27c2.54-1.22 5-2.19 7.27-3.17a46.23 46.23 0 0 0 5.75-2.92 24.36 24.36 0 0 0 3.48-2.59c.37-.35.66-.63.85-.83s.22-.31.22-.31zM366 87.38a1.1 1.1 0 0 1-.13.22l-.42.63c-.35.55-.92 1.31-1.65 2.22a39.5 39.5 0 0 1-14.32 11.12c-1.07.48-1.95.84-2.57 1.05l-.71.25a1.17 1.17 0 0 1-.25.07l.24-.11.69-.28c.61-.24 1.48-.61 2.53-1.11a41.74 41.74 0 0 0 14.28-11.08c.74-.9 1.32-1.65 1.7-2.18l.45-.6a1 1 0 0 1 .16-.2zm-41.72-14.06a18.54 18.54 0 0 1 3 1.61 25.08 25.08 0 0 1 10.13 12.78 19.63 19.63 0 0 1 .87 3.31s0-.07-.08-.22-.11-.42-.17-.66a25 25 0 0 0-.76-2.38 26 26 0 0 0-10.07-12.71c-.88-.58-1.62-1-2.14-1.28l-.6-.32a1.12 1.12 0 0 1-.18-.13z"/><path class="cls-6" d="M274.13 110.93c.39 5.3-3.11 10-6.63 14s-7.45 8.12-8.22 13.38c-1.35 9.32 7.78 18 5.9 27.2-1 4.95-5.06 8.92-5.78 13.92-.7 4.83 1.89 9.56 5.1 13.24s6.93 3.14 9.77 7.11a39.85 39.85 0 0 0 12.31 11c10.23 5.6 22.51-2.5 27.44-4"/><path class="cls-6" d="M351.48 132.65c4.71-2.05 5.08-19-6.74-20.9-4.75-.78-8.7-3.1-12.69-5.78-3.53-2.38-4.58-8.41-7.57-11.44a29.6 29.6 0 0 0-49.78 13.58c-1.72 6.84-.55 14.94 4.85 19.49 6.26 5.28 15.55 4.1 23.57 2.46s17.11-3.26 23.81 1.45c4 2.84 6.36 7.47 8.83 11.74s5.57 8.65 10.24 10.26c0 0 3.55 8.36.65 14.17s3.41-4.1 3.41-4.1 11.52-20.48 1.42-30.93"/><path class="cls-8" d="M291.56 251.23c-.06-11 0-42 0-41.95s-17.52-2.95-21.1-25.82c-1.78-11.38-1.17-30-.17-45.27.89-13.72 10-30.53 23.69-29L336.64 120a8.05 8.05 0 0 1 7.18 8.18l-2.6 106z"/><path class="cls-6" d="M277.55 151.26a2.93 2.93 0 0 0 2.82 3 2.81 2.81 0 0 0 3-2.64 2.93 2.93 0 0 0-2.82-3 2.81 2.81 0 0 0-3 2.64zm-3.24-3.36c.36.38 2.59-1.26 5.75-1.24s5.46 1.6 5.81 1.21c.16-.17-.21-.86-1.21-1.59a8 8 0 0 0-4.65-1.45 7.72 7.72 0 0 0-4.57 1.47c-.98.7-1.31 1.43-1.13 1.6zm31.02 5.03c.37.38 2.59-1.26 5.75-1.24s5.46 1.6 5.81 1.21c.17-.17-.2-.86-1.21-1.6a8.09 8.09 0 0 0-4.65-1.44 7.74 7.74 0 0 0-4.57 1.47c-.97.74-1.3 1.43-1.13 1.6zm-11.5 19.01c0-.18-1.95-.52-5.13-.94-.8-.08-1.56-.24-1.7-.79a4.11 4.11 0 0 1 .54-2.39c.77-1.95 1.56-4 2.4-6.13 3.33-8.73 5.74-15.91 5.39-16s-3.34 6.84-6.67 15.57l-2.29 6.16a4.67 4.67 0 0 0-.43 3.17 2 2 0 0 0 1.32 1.18 5.21 5.21 0 0 0 1.37.19c3.2.14 5.19.16 5.2-.02z"/><path class="cls-9" d="M291.56 209.28a58.15 58.15 0 0 0 30.65-8.1c-.26 0-8.43 15.9-30.35 13.5zm3.18-28.23c-.38-1.94 1.91-2.57 3.59-3.62s2.64-2.43 4.22-1.23a6.18 6.18 0 0 1 1.94 2.72 4.43 4.43 0 0 1 .32 2.24 4.36 4.36 0 0 1-1.41 2.33 6.63 6.63 0 0 1-3.43 1.79 4.76 4.76 0 0 1-3.71-.87 3.75 3.75 0 0 1-1.41-3.46"/><path class="cls-6" d="M303.11 174.14c-.51 0-.53 3.4-3.46 5.82s-6.59 2-6.62 2.52c0 .22.82.67 2.36.71a8.52 8.52 0 0 0 5.52-1.9 7.44 7.44 0 0 0 2.68-4.88c.14-1.41-.24-2.29-.48-2.27zm1.75-28.26c.31.86 3.47.46 7.17.91s6.69 1.47 7.19.71c.22-.37-.3-1.18-1.51-2a11.85 11.85 0 0 0-5.32-1.88 12.05 12.05 0 0 0-5.61.64c-1.36.54-2.05 1.21-1.92 1.62zM274.75 137c.55.72 2.73 0 5.34 0s4.83.5 5.34-.25c.23-.37-.12-1.08-1.09-1.77a7.74 7.74 0 0 0-8.6.25c-.93.67-1.23 1.4-.99 1.77z"/><path class="cls-6" d="M346.32 196.53c-6.29 1.27-6.85-1.93-11.55-6.3a20.65 20.65 0 0 1-6.32-17.43c.71-5.61 3.74-11.33 1.79-16.64-2.57-7-12.42-9.19-15-16.21-1.52-4.07-.15-8.84-1.88-12.84-1.62-3.75-5.57-5.92-9.42-7.31s-8-2.35-11.2-4.86-5.24-7.25-3.16-10.77a216.45 216.45 0 0 1 50 12.14c3.74 1.4 7.66 3.07 9.86 6.39 2.34 3.51 2.23 8 2 12.25q-1.44 30.81-2.87 61.61"/><path class="cls-10" d="M360.89 188.85s.1-.08.25-.28a8.09 8.09 0 0 0 .63-.92 12 12 0 0 0 1.51-4 14 14 0 0 0-.37-6.76 12.91 12.91 0 0 0-5.32-7.16c-2.71-1.91-6.24-3.24-8.49-6.29a6.86 6.86 0 0 1-1.24-5.37 30.64 30.64 0 0 1 2-5.93 17 17 0 0 0-.3-13.65 14.79 14.79 0 0 0-4.64-5.77 18.06 18.06 0 0 0-7-2.91c-2.48-.56-4.95-.89-7.24-1.58a14.17 14.17 0 0 1-6.07-3.32 10.06 10.06 0 0 1-2.63-6 50.9 50.9 0 0 0-1.07-6.65 23 23 0 0 0-6.17-10.82 18.2 18.2 0 0 0-9.74-4.81 14.43 14.43 0 0 0-8.84 1.37 13.89 13.89 0 0 0-5.11 4.43 11.62 11.62 0 0 0-1.79 3.88 6.23 6.23 0 0 0-.23 1.47 14.56 14.56 0 0 1 2.33-5.12 13.78 13.78 0 0 1 13.53-5.3 17.47 17.47 0 0 1 9.25 4.72A22.22 22.22 0 0 1 320 112.5a52.32 52.32 0 0 1 1 6.56 10.94 10.94 0 0 0 2.87 6.55 15.08 15.08 0 0 0 6.48 3.59c2.4.72 4.88 1.05 7.31 1.6a17.12 17.12 0 0 1 6.64 2.74 14 14 0 0 1 4.34 5.37 16.14 16.14 0 0 1 .32 12.91 31.83 31.83 0 0 0-2 6.13 7.73 7.73 0 0 0 1.45 6c2.49 3.29 6.13 4.56 8.76 6.39a12.38 12.38 0 0 1 5.19 6.74 14.16 14.16 0 0 1 .52 6.52 15.17 15.17 0 0 1-1.99 5.25z"/><path class="cls-6" d="M331.14 166.13a57.82 57.82 0 0 0-2.67 38.14c1 3.74 2.46 7.62 1.58 11.4-1 4.09-4.38 7.05-6.88 10.43a25.75 25.75 0 0 0 7.89 37.63c.66-3.76 4.16-6.32 7.61-8s7.27-2.85 9.9-5.61 3.38-7.84.32-10.13c8.8-2.3 13.79-12.76 11.94-21.66s-9.1-16-17.34-19.81"/><path class="cls-6" d="M340.52 254.93c-1.57.87-3.1 1.64-3.29 3.42-.23 2.1 1.78 5.78 2.5 7.75a10.77 10.77 0 0 1-14.07 13.71c2.81.21 5.2-2.54 5.46-5.35s-1.12-5.53-2.8-7.81-3.71-4.29-5.13-6.73c-2.9-5-7.21-18.48-3.89-26.05"/><path class="cls-10" d="M348.53 240.38a3.75 3.75 0 0 1 .54-.46c.37-.28.9-.7 1.57-1.27a35.24 35.24 0 0 0 5.14-5.31 26.84 26.84 0 0 0 4.87-9.72 21.94 21.94 0 0 0-.64-13.13 19.72 19.72 0 0 0-3.62-5.85c-1.47-1.69-3.08-3.16-4.58-4.6a46.54 46.54 0 0 1-4.11-4.27 18.51 18.51 0 0 1-2.69-4.42 11.68 11.68 0 0 1-.88-7.35 8.06 8.06 0 0 1 .75-1.9 3 3 0 0 1 .39-.59 12.48 12.48 0 0 0-.94 2.53 11.75 11.75 0 0 0 1 7.16 18.57 18.57 0 0 0 2.69 4.3 48.53 48.53 0 0 0 4.1 4.19 65 65 0 0 1 4.63 4.62 19.78 19.78 0 0 1 3.72 6 22.18 22.18 0 0 1 .63 13.44 26.68 26.68 0 0 1-5.05 9.82 32.27 32.27 0 0 1-5.3 5.25c-.7.54-1.25.94-1.64 1.2a3.56 3.56 0 0 1-.58.36z"/></g><g id="Plant"><path class="cls-7" d="M61.13 359.81c2.53 3.17 7 1.79 8.93-.36s2.67-5.14 3.29-8c1.44-6.5 2.87-13.32 1.1-19.73a10.85 10.85 0 0 0-2.84-5.17 5.69 5.69 0 0 0-5.5-1.46c-2.24.75-3.51 3.06-4.4 5.24a46.83 46.83 0 0 0-3.35 20.33c.19 3.23.78 6.59 2.77 9.14"/><path d="M61.13 359.81c2.53 3.17 7 1.79 8.93-.36s2.67-5.14 3.29-8c1.44-6.5 2.87-13.32 1.1-19.73a10.85 10.85 0 0 0-2.84-5.17 5.69 5.69 0 0 0-5.5-1.46c-2.24.75-3.51 3.06-4.4 5.24a46.83 46.83 0 0 0-3.35 20.33c.19 3.23.78 6.59 2.77 9.14" opacity=".2"/><path class="cls-7" d="M70.88 376.05a20.06 20.06 0 0 1 12.38-2.3c2.28.23 4.69.76 6.33 2.36s2.13 4.57.45 6.15a5.91 5.91 0 0 1-3.82 1.23c-3.3.16-7-.19-9.5 2-1.44 1.23-2.32 3.17-4.08 3.84a4.24 4.24 0 0 1-4.8-1.78 7.26 7.26 0 0 1-.87-5.33 8.17 8.17 0 0 1 3.91-6.17zM55.06 365c2.33-3.15 2.54-7.54 1.18-11.21a21.45 21.45 0 0 0-7.17-9.12 35.23 35.23 0 0 0-12.2-6.2 12.68 12.68 0 0 0-5.35-.57 5.56 5.56 0 0 0-4.27 3c-1.09 2.44.27 5.23 1.7 7.48a91.35 91.35 0 0 0 8.47 11.29c2.51 2.84 5.35 5.62 9 6.74s7.27.74 9-1.83"/><path class="cls-6" d="M64.12 409.8a7.69 7.69 0 0 0 .12-1.51c0-1.11.08-2.49.14-4.14a58.33 58.33 0 0 1 .54-6.08 46.31 46.31 0 0 1 1.75-7.25 26.16 26.16 0 0 1 3.22-6.67 13.79 13.79 0 0 1 4.35-4.15 12.77 12.77 0 0 1 3.76-1.4 7.67 7.67 0 0 0 1.48-.31 6.33 6.33 0 0 0-1.53.07 11.73 11.73 0 0 0-4 1.3 13.43 13.43 0 0 0-4.6 4.16 25.54 25.54 0 0 0-3.36 6.8 44.18 44.18 0 0 0-1.64 7.38 49.91 49.91 0 0 0-.41 6.15c0 1.75 0 3.17.05 4.15a7.12 7.12 0 0 0 .13 1.5z"/><path class="cls-6" d="M64.21 406.62a3.71 3.71 0 0 0 0-.7c0-.52-.08-1.18-.13-2-.11-1.74-.27-4.25-.37-7.35-.24-6.21-.24-14.79.2-24.26s1.28-18 2.16-24.16c.2-1.54.41-2.93.62-4.15s.35-2.26.52-3.12.25-1.45.34-2a2.57 2.57 0 0 0 .08-.69 2.71 2.71 0 0 0-.2.67l-.46 2c-.2.84-.4 1.89-.63 3.1s-.48 2.6-.71 4.14a229.54 229.54 0 0 0-2.35 24.2c-.44 9.49-.36 18.09 0 24.31.16 3.11.38 5.62.57 7.35.1.81.18 1.46.25 2a2.14 2.14 0 0 0 .11.66z"/><path class="cls-6" d="M63.21 390.08a15.19 15.19 0 0 0-.15-2.09c-.16-1.33-.47-3.26-1-5.61a72.25 72.25 0 0 0-2.35-8.12 72.88 72.88 0 0 0-4.06-9.53 51.84 51.84 0 0 0-11.11-15.12 25.53 25.53 0 0 0-2.54-2.06c-.38-.29-.72-.57-1.07-.8l-1-.58a12.65 12.65 0 0 0-1.83-1 60 60 0 0 1 6.08 4.78A54.7 54.7 0 0 1 55.1 365a78.61 78.61 0 0 1 4.07 9.44c1.09 3 1.87 5.71 2.47 8s1 4.23 1.18 5.55a12.56 12.56 0 0 0 .39 2.09z"/></g><path class="cls-7" d="M215.78 161.28c-1.85-6.53-10.34-5.9-10.34-5.9l.23 4.55c4.91-.85 8 4.9 8 4.9zm-83.55-76.01c-4.59.49-5.14 6.24-5.14 6.24l3.07.37c0-3.39 4.2-4.77 4.2-4.77zm42.68-60.98c2.8 7.13 12.25 5.47 12.25 5.47l-.76-5.07c-5.42 1.5-9.48-4.62-9.48-4.62zM68.28 144.66c-4.59.48-5.14 6.24-5.14 6.24l3.07.36c0-3.38 4.2-4.76 4.2-4.76zm18.88-97.6c.67-4.56-4.77-6.52-4.77-6.52l-1.11 2.88c3.27.84 3.57 5.25 3.57 5.25zM8.79 117.07C8 124.22 17.44 126 17.44 126l1.71-4.68c-5.68-.51-6.5-7.21-6.5-7.21zM234 82.56c4.6.26 6.07-5.33 6.07-5.33l-3-.86c-.55 3.34-4.91 4-4.91 4z" id="Confetti"/></g></svg>