<svg xmlns="http://www.w3.org/2000/svg" viewBox="0 0 489.88 465.08"><defs><style>.cls-2{fill:#e0e0e0}.cls-3{fill:#455a64}.cls-4{fill:#37474f}.cls-5{fill:#263238}.cls-6{fill:#f0f0f0}.cls-7{fill:#fafafa}.cls-8{opacity:.1}.cls-9{fill:#27debf}.cls-15{opacity:.3}.cls-14{opacity:.2}.cls-17{fill:#ffa8a7}.cls-19{fill:#f28f8f}.cls-21{opacity:.15}.cls-22{opacity:.4}</style></defs><g id="Layer_2" data-name="Layer 2"><g id="Floor"><ellipse id="Floor-2" data-name="Floor" cx="244.94" cy="341.18" rx="244.94" ry="123.89" fill="#f5f5f5"/></g><g id="Shadows"><ellipse id="Shadow" class="cls-2" cx="105.42" cy="373.59" rx="71.75" ry="41.43"/><path id="Shadow-2" data-name="Shadow" class="cls-2" d="M460.37 328.49l-117.83-67.83a7.94 7.94 0 0 0-7.2 0L160.9 361.38c-2 1.15-2 3 0 4.16l117.83 67.82a7.94 7.94 0 0 0 7.2 0l174.44-100.71c1.99-1.15 1.99-3.01 0-4.16z"/></g><g id="Cargo_Car" data-name="Cargo Car"><g id="Cargo_Car-2" data-name="Cargo Car"><path class="cls-2" d="M352.08 87.56l70 40.45c5 2.86 9 9.91 9 15.64v138.21l5.94 3.43V143.12c0-8.11-5.74-18.05-12.75-22.1l-72.46-41.88c-7-4-12.75-.74-12.75 7.36v142.17l6 3.46V91.63c-.06-4.48 3.15-6.31 7.02-4.07z"/><path id="_Path_" data-name="&lt;Path&gt;" class="cls-3" d="M298.07 396.4c0-7.29 5.12-16.15 11.43-19.79 3.31-1.91 6.28-2 8.36-.59l7.71 4.4-16.39 27.84-7.63-4.4c-2.14-1.18-3.48-3.75-3.48-7.46z"/><path id="_Path_2" data-name="&lt;Path&gt;" class="cls-4" d="M317.5 381.22c-6.31 3.64-11.43 12.5-11.43 19.79s5.12 10.24 11.43 6.59 11.42-12.5 11.42-19.79-5.11-10.24-11.42-6.59z"/><path id="_Path_3" data-name="&lt;Path&gt;" class="cls-5" d="M321.36 392.18c0-2.85-1.73-4.16-3.86-2.93s-3.87 4.54-3.87 7.39 1.73 4.16 3.87 2.93 3.86-4.57 3.86-7.39z"/><path id="_Path_4" data-name="&lt;Path&gt;" class="cls-6" d="M304.1 369.06s0 13 6.22 17.65c1.17.87 2.42 1.47 3.15 2.08 1.59 1.32.54 3.75-1.39 4.78-2.8 1.5-18.05-2.56-24.52-15z"/><path id="_Path_5" data-name="&lt;Path&gt;" class="cls-7" d="M310 372.46s0 13 6.22 17.65c1.17.87 2.41 1.47 3.14 2.08 1.59 1.32.54 3.75-1.39 4.78-2.8 1.5-18.05-2.56-24.52-15z"/><path id="_Path_6" data-name="&lt;Path&gt;" class="cls-5" d="M317.5 393.14a2.42 2.42 0 0 0-1.1 1.9c0 .7.49 1 1.1.64a2.43 2.43 0 0 0 1.09-1.9c0-.7-.49-.99-1.09-.64z"/><path id="_Path_7" data-name="&lt;Path&gt;" class="cls-3" d="M422.11 324.78c0-7.28 5.12-16.14 11.43-19.79 3.31-1.91 6.28-2 8.37-.59l7.7 4.4-16.39 27.84-7.63-4.39c-2.14-1.18-3.48-3.75-3.48-7.47z"/><path id="_Path_8" data-name="&lt;Path&gt;" class="cls-4" d="M441.54 309.6c-6.31 3.65-11.43 12.51-11.43 19.79s5.12 10.24 11.43 6.6S453 323.49 453 316.2s-5.15-10.2-11.46-6.6z"/><path id="_Path_9" data-name="&lt;Path&gt;" class="cls-5" d="M445.4 320.56c0-2.85-1.73-4.16-3.86-2.92s-3.87 4.54-3.87 7.39 1.73 4.16 3.87 2.92 3.86-4.54 3.86-7.39z"/><path id="_Path_10" data-name="&lt;Path&gt;" class="cls-6" d="M428.14 297.45s0 13 6.22 17.65c1.18.86 2.42 1.47 3.15 2.08 1.59 1.32.54 3.74-1.39 4.77-2.8 1.5-18.05-2.56-24.52-15z"/><path id="_Path_11" data-name="&lt;Path&gt;" class="cls-7" d="M434.07 300.85s0 13 6.22 17.65c1.17.87 2.41 1.47 3.14 2.08 1.59 1.32.54 3.74-1.39 4.78-2.8 1.5-18.05-2.56-24.51-15z"/><path id="_Path_12" data-name="&lt;Path&gt;" class="cls-5" d="M441.54 321.53a2.42 2.42 0 0 0-1.1 1.9c0 .7.49 1 1.1.63a2.43 2.43 0 0 0 1.09-1.9c0-.7-.49-.98-1.09-.63z"/><path class="cls-3" d="M443.06 288.74l-109.99-63.52-179.71 103.76 109.99 63.52 179.71-103.76z"/><path class="cls-4" d="M443.06 288.74v6.91L263.35 399.41v-6.91l179.71-103.76z"/><path class="cls-5" d="M153.36 328.98v6.91l109.99 63.52v-6.91l-109.99-63.52z"/></g></g><g id="Boxes"><g id="Box"><path id="Shadow-3" data-name="Shadow" class="cls-8" d="M427.08 289.04l-94.35 54.49-96.21-55.47 94.6-54.35 95.96 55.33z"/><g id="Box-2" data-name="Box"><g id="_Group_" data-name="&lt;Group&gt;"><path id="_Path_13" data-name="&lt;Path&gt;" class="cls-9" d="M423.87 224.25l-86.4-49.97-91.31 52.85 86.4 49.97 91.31-52.85z"/><path id="_Path_14" data-name="&lt;Path&gt;" opacity=".7" fill="#fff" d="M423.87 224.25l-86.4-49.97-91.31 52.85 86.4 49.97 91.31-52.85z"/></g><g id="_Group_2" data-name="&lt;Group&gt;"><path id="_Path_15" data-name="&lt;Path&gt;" class="cls-9" d="M332.56 337.5l91.31-52.85v-60.4l-91.31 52.85v60.4z"/><path id="_Path_16" data-name="&lt;Path&gt;" opacity=".6" fill="#fff" d="M332.56 337.5l91.31-52.85v-60.4l-91.31 52.85v60.4z"/></g><g id="_Group_3" data-name="&lt;Group&gt;"><g id="_Group_4" data-name="&lt;Group&gt;"><path id="_Compound_Path_" data-name="&lt;Compound Path&gt;" class="cls-3" d="M342.64 317.46a1.63 1.63 0 0 1-.79-.2 2.42 2.42 0 0 1-1-2.18v-6.88l.33.06 5-2.95v7.15a5.77 5.77 0 0 1-2.47 4.67 2.21 2.21 0 0 1-1.07.33zm-1-8.3v5.92a1.64 1.64 0 0 0 .58 1.48 1.11 1.11 0 0 0 1.09-.12 5.08 5.08 0 0 0 2.07-4v-.52h-1.86l-.37-2.51zm2.58 2h1.16v-4.41l-3 1.75 1.49.27z"/></g><g id="_Group_5" data-name="&lt;Group&gt;"><path id="_Path_17" data-name="&lt;Path&gt;" class="cls-3" d="M343.54 322.56a.4.4 0 0 1-.4-.4v-5.37a.4.4 0 1 1 .8 0v5.37a.4.4 0 0 1-.4.4z"/></g><g id="_Group_6" data-name="&lt;Group&gt;"><path id="_Path_18" data-name="&lt;Path&gt;" class="cls-3" d="M341.2 323.91a.39.39 0 0 1-.34-.2.4.4 0 0 1 .14-.55l4.68-2.7a.4.4 0 0 1 .55.15.41.41 0 0 1-.15.55l-4.68 2.7a.46.46 0 0 1-.2.05z"/></g></g><g id="_Group_7" data-name="&lt;Group&gt;"><g id="_Group_8" data-name="&lt;Group&gt;"><path id="_Path_19" data-name="&lt;Path&gt;" class="cls-3" d="M357.85 314.65a.87.87 0 0 1-.44-.11 1.07 1.07 0 0 1-.48-1v-1.1a.41.41 0 0 1 .81 0v1.1c0 .17 0 .25.07.27s.13 0 .27-.07a2.36 2.36 0 0 0 .74-1.81v-7.15a.41.41 0 1 1 .81 0V312a3.08 3.08 0 0 1-1.14 2.51 1.32 1.32 0 0 1-.64.14z"/></g><g id="_Group_9" data-name="&lt;Group&gt;"><path id="_Compound_Path_2" data-name="&lt;Compound Path&gt;" class="cls-3" d="M353.62 308.4v-.69a11.39 11.39 0 0 1 5.14-8.92 3.41 3.41 0 0 1 5.55 3.2v.24zm7.55-9.53a4.15 4.15 0 0 0-2 .62 10.63 10.63 0 0 0-4.7 7.5l9-5.22a3 3 0 0 0-1.24-2.63 2.2 2.2 0 0 0-1.06-.27z"/></g></g><g id="_Group_10" data-name="&lt;Group&gt;"><g id="_Group_11" data-name="&lt;Group&gt;"><g id="_Group_12" data-name="&lt;Group&gt;"><path id="_Path_20" data-name="&lt;Path&gt;" class="cls-3" d="M372.3 306.42a.4.4 0 0 1-.4-.41v-13.69a.4.4 0 0 1 .8 0V306a.4.4 0 0 1-.4.42z"/></g><g id="_Group_13" data-name="&lt;Group&gt;"><path id="_Path_21" data-name="&lt;Path&gt;" class="cls-3" d="M371.13 295.44a.41.41 0 0 1-.16 0 .4.4 0 0 1-.21-.53l1.43-3.31 1.6 1.85a.42.42 0 0 1 0 .57.41.41 0 0 1-.57-.05l-.76-.87-.93 2.13a.39.39 0 0 1-.4.21z"/></g></g><g id="_Group_14" data-name="&lt;Group&gt;"><g id="_Group_15" data-name="&lt;Group&gt;"><path id="_Path_22" data-name="&lt;Path&gt;" class="cls-3" d="M376 304.29a.4.4 0 0 1-.4-.4V290.2a.41.41 0 0 1 .81 0v13.69a.4.4 0 0 1-.41.4z"/></g><g id="_Group_16" data-name="&lt;Group&gt;"><path id="_Path_23" data-name="&lt;Path&gt;" class="cls-3" d="M374.85 293.32a.41.41 0 0 1-.16 0 .4.4 0 0 1-.21-.53l1.43-3.31 1.6 1.85a.41.41 0 0 1 0 .56.4.4 0 0 1-.57 0l-.76-.87-.93 2.13a.39.39 0 0 1-.4.17z"/></g></g></g><g id="_Group_17" data-name="&lt;Group&gt;"><path id="_Path_24" data-name="&lt;Path&gt;" class="cls-9" d="M332.56 337.5l-86.4-49.97v-60.4l86.4 49.97v60.4z"/><path id="_Path_25" data-name="&lt;Path&gt;" opacity=".5" fill="#fff" d="M332.56 337.5l-86.4-49.97v-60.4l86.4 49.97v60.4z"/></g><g id="_Group_18" data-name="&lt;Group&gt;"><path id="_Path_26" data-name="&lt;Path&gt;" class="cls-4" d="M282.43 257.25l5.91 3.41v-9.17l-5.91-3.42v9.18z"/><path id="_Path_27" data-name="&lt;Path&gt;" class="cls-3" d="M288.34 251.49l91.31-52.85-5.91-3.42-91.31 52.85 5.91 3.42z"/><path class="cls-4" d="M285.11 246.51l5.91 3.42 3.3-1.9-5.92-3.42-3.29 1.9z"/></g><g id="_Group_19" data-name="&lt;Group&gt;"><path id="_Path_28" data-name="&lt;Path&gt;" class="cls-7" d="M379.89 206.34l-24.19 13.94c-.44.25-.32.73.26 1.06l27.31 15.77a2.09 2.09 0 0 0 1.85.15l24.19-13.94c.44-.25.32-.73-.26-1.07l-27.31-15.76a2.13 2.13 0 0 0-1.85-.15z"/></g><path class="cls-2" d="M392.1 230.05a.51.51 0 0 0 .44-.25.51.51 0 0 0-.19-.68L369.68 216a.49.49 0 0 0-.68.18.51.51 0 0 0 .18.69L391.85 230a.57.57 0 0 0 .25.05zm-2.51 1.44a.5.5 0 0 0 .25-.93l-22.68-13.09a.5.5 0 0 0-.68.19.5.5 0 0 0 .18.68l22.68 13.09a.51.51 0 0 0 .25.06zm-2.52 1.45a.5.5 0 0 0 .43-.25.51.51 0 0 0-.18-.69l-22.67-13.08a.5.5 0 1 0-.5.86l22.67 13.09a.45.45 0 0 0 .25.07zm-2.52 1.44a.5.5 0 0 0 .25-.93l-22.67-13.09a.5.5 0 0 0-.5.86l22.67 13.09a.47.47 0 0 0 .25.07z"/><g id="_Group_20" data-name="&lt;Group&gt;"><g id="_Group_21" data-name="&lt;Group&gt;"><path id="_Path_29" data-name="&lt;Path&gt;" class="cls-3" d="M407.02 222.69l-.88-.51-10.33 5.96.89.51 10.32-5.96z"/></g><g id="_Group_22" data-name="&lt;Group&gt;"><path id="_Path_30" data-name="&lt;Path&gt;" class="cls-3" d="M403.44 220.62l-1.54-.87-10.32 5.96 1.53.87 10.33-5.96z"/></g><g id="_Group_23" data-name="&lt;Group&gt;"><path id="_Path_31" data-name="&lt;Path&gt;" class="cls-3" d="M399.85 218.54l-.89-.51-10.32 5.97.88.51 10.33-5.97z"/></g><g id="_Group_24" data-name="&lt;Group&gt;"><path id="_Path_32" data-name="&lt;Path&gt;" class="cls-3" d="M397.16 216.97l-1.78-1.01-10.33 5.97 1.78 1 10.33-5.96z"/></g><g id="_Group_25" data-name="&lt;Group&gt;"><path id="_Path_33" data-name="&lt;Path&gt;" class="cls-3" d="M392.67 214.4l-.88-.51-10.33 5.96.88.51 10.33-5.96z"/></g><g id="_Group_26" data-name="&lt;Group&gt;"><path id="_Path_34" data-name="&lt;Path&gt;" class="cls-3" d="M390.11 212.9l-1.91-1.08-10.33 5.96 1.91 1.08 10.33-5.96z"/></g><g id="_Group_27" data-name="&lt;Group&gt;"><path id="_Path_35" data-name="&lt;Path&gt;" class="cls-3" d="M385.49 210.25l-.88-.5-10.33 5.96.89.51 10.32-5.97z"/></g><g id="_Group_28" data-name="&lt;Group&gt;"><path id="_Path_36" data-name="&lt;Path&gt;" class="cls-3" d="M383.46 209.06l-.45-.25-10.32 5.96.44.26 10.33-5.97z"/></g><g id="_Group_29" data-name="&lt;Group&gt;"><path id="_Path_37" data-name="&lt;Path&gt;" class="cls-3" d="M387.08 211.23l-.44-.26-10.33 5.97.44.25 10.33-5.96z"/></g><g id="_Group_30" data-name="&lt;Group&gt;"><path id="_Path_38" data-name="&lt;Path&gt;" class="cls-3" d="M394.35 215.38l-.44-.25-10.33 5.96.44.25 10.33-5.96z"/></g><g id="_Group_31" data-name="&lt;Group&gt;"><path id="_Path_39" data-name="&lt;Path&gt;" class="cls-3" d="M398.3 217.67l-.44-.25-10.33 5.96.44.25 10.33-5.96z"/></g><g id="_Group_32" data-name="&lt;Group&gt;"><path id="_Path_40" data-name="&lt;Path&gt;" class="cls-3" d="M401.1 219.34l-.45-.25-10.32 5.96.44.25 10.33-5.96z"/></g><g id="_Group_33" data-name="&lt;Group&gt;"><path id="_Path_41" data-name="&lt;Path&gt;" class="cls-3" d="M405.03 221.52l-.45-.25-10.32 5.96.44.26 10.33-5.97z"/></g><g id="_Group_34" data-name="&lt;Group&gt;"><path id="_Path_42" data-name="&lt;Path&gt;" class="cls-3" d="M381.9 208.18l-.88-.51-10.33 5.96.89.51 10.32-5.96z"/></g></g><g id="_Group_35" data-name="&lt;Group&gt;"><path id="_Path_43" data-name="&lt;Path&gt;" class="cls-7" d="M395.81 278.64v15.15c0 .58.41.82.92.53l23.65-13.65a2.06 2.06 0 0 0 .91-1.59v-15.16c0-.58-.41-.82-.91-.52l-23.65 13.66a2 2 0 0 0-.92 1.58z"/></g><g id="_Group_36" data-name="&lt;Group&gt;"><g id="_Group_37" data-name="&lt;Group&gt;"><path id="_Path_44" data-name="&lt;Path&gt;" class="cls-3" d="M419.83 265.56l-.77.45v13.77l.77-.45v-13.77z"/></g><g id="_Group_38" data-name="&lt;Group&gt;"><path id="_Path_45" data-name="&lt;Path&gt;" class="cls-3" d="M416.72 267.36l-1.32.77v13.77l1.32-.77v-13.77z"/></g><g id="_Group_39" data-name="&lt;Group&gt;"><path id="_Path_46" data-name="&lt;Path&gt;" class="cls-3" d="M413.61 269.15l-.76.44v13.77l.76-.44v-13.77z"/></g><g id="_Group_40" data-name="&lt;Group&gt;"><path id="_Path_47" data-name="&lt;Path&gt;" class="cls-3" d="M411.27 270.48l-1.53.91v13.77l1.53-.91v-13.77z"/></g><g id="_Group_41" data-name="&lt;Group&gt;"><path id="_Path_48" data-name="&lt;Path&gt;" class="cls-3" d="M407.39 272.74l-.76.44v13.77l.76-.44v-13.77z"/></g><g id="_Group_42" data-name="&lt;Group&gt;"><path id="_Path_49" data-name="&lt;Path&gt;" class="cls-3" d="M405.15 274l-1.63.98v13.77l1.63-.98V274z"/></g><g id="_Group_43" data-name="&lt;Group&gt;"><path id="_Path_50" data-name="&lt;Path&gt;" class="cls-3" d="M401.18 276.33l-.77.44v13.77l.77-.44v-13.77z"/></g><g id="_Group_44" data-name="&lt;Group&gt;"><path id="_Path_51" data-name="&lt;Path&gt;" class="cls-3" d="M399.4 277.34l-.38.22v13.77l.38-.22v-13.77z"/></g><g id="_Group_45" data-name="&lt;Group&gt;"><path id="_Path_52" data-name="&lt;Path&gt;" class="cls-3" d="M402.59 275.58l-.38.22v13.77l.38-.22v-13.77z"/></g><g id="_Group_46" data-name="&lt;Group&gt;"><path id="_Path_53" data-name="&lt;Path&gt;" class="cls-3" d="M408.86 271.91l-.39.22v13.77l.39-.22v-13.77z"/></g><g id="_Group_47" data-name="&lt;Group&gt;"><path id="_Path_54" data-name="&lt;Path&gt;" class="cls-3" d="M412.28 269.94l-.38.22v13.77l.38-.22v-13.77z"/></g><g id="_Group_48" data-name="&lt;Group&gt;"><path id="_Path_55" data-name="&lt;Path&gt;" class="cls-3" d="M414.75 268.58l-.38.22v13.77l.38-.22v-13.77z"/></g><g id="_Group_49" data-name="&lt;Group&gt;"><path id="_Path_56" data-name="&lt;Path&gt;" class="cls-3" d="M418.09 266.56l-.39.21v13.78l.39-.23v-13.76z"/></g><g id="_Group_50" data-name="&lt;Group&gt;"><path id="_Path_57" data-name="&lt;Path&gt;" class="cls-3" d="M398.07 278.12l-.77.44.01 13.77.76-.44v-13.77z"/></g></g></g></g><g id="Box-3" data-name="Box"><path id="Shadow-4" data-name="Shadow" class="cls-8" d="M417.99 222.97l-83.82 48.45-88.67-51.3 83.82-48.45 88.67 51.3z"/><g id="Box-4" data-name="Box"><g id="_Group_51" data-name="&lt;Group&gt;"><path id="_Path_58" data-name="&lt;Path&gt;" class="cls-9" d="M243.19 154.52L323.6 108l91 52.65-80.41 46.52-91-52.65z"/><path id="_Path_59" data-name="&lt;Path&gt;" opacity=".3" fill="#fff" d="M243.19 154.52L323.6 108l91 52.65-80.41 46.52-91-52.65z"/></g><g id="_Group_52" data-name="&lt;Group&gt;"><path id="_Path_60" data-name="&lt;Path&gt;" class="cls-7" d="M281.73 138l24.19 14c.44.26.32.73-.26 1.07l-27.31 15.77a2.12 2.12 0 0 1-1.85.15L252.31 155c-.44-.25-.32-.73.26-1.07l27.31-15.76a2.09 2.09 0 0 1 1.85-.17z"/></g><path class="cls-2" d="M269.52 161.75a.5.5 0 0 1-.25-.93l22.67-13.09a.5.5 0 1 1 .5.86l-22.67 13.09a.47.47 0 0 1-.25.07zm2.48 1.44a.5.5 0 0 1-.25-.93l22.67-13.09a.51.51 0 0 1 .69.18.52.52 0 0 1-.19.69l-22.67 13.09a.54.54 0 0 1-.25.06zm2.55 1.44a.48.48 0 0 1-.43-.25.5.5 0 0 1 .18-.68l22.7-13.09a.5.5 0 0 1 .5.87l-22.7 13.09a.57.57 0 0 1-.25.06zm2.52 1.45a.51.51 0 0 1-.44-.25.52.52 0 0 1 .19-.69l22.67-13.08a.5.5 0 1 1 .5.86L277.32 166a.47.47 0 0 1-.25.08z"/><g id="_Group_53" data-name="&lt;Group&gt;"><g id="_Group_54" data-name="&lt;Group&gt;"><path id="_Path_61" data-name="&lt;Path&gt;" class="cls-3" d="M254.59 154.39l.89-.51 10.32 5.96-.88.51-10.33-5.96z"/></g><g id="_Group_55" data-name="&lt;Group&gt;"><path id="_Path_62" data-name="&lt;Path&gt;" class="cls-3" d="M258.18 152.31l1.53-.87 10.33 5.97-1.53.87-10.33-5.97z"/></g><g id="_Group_56" data-name="&lt;Group&gt;"><path id="_Path_63" data-name="&lt;Path&gt;" class="cls-3" d="M261.77 150.24l.88-.51 10.33 5.97-.88.51-10.33-5.97z"/></g><g id="_Group_57" data-name="&lt;Group&gt;"><path id="_Path_64" data-name="&lt;Path&gt;" class="cls-3" d="M264.46 148.67l1.78-1.01 10.33 5.96-1.78 1.01-10.33-5.96z"/></g><g id="_Group_58" data-name="&lt;Group&gt;"><path id="_Path_65" data-name="&lt;Path&gt;" class="cls-3" d="M268.95 146.1l.88-.51 10.33 5.96-.88.51-10.33-5.96z"/></g><g id="_Group_59" data-name="&lt;Group&gt;"><path id="_Path_66" data-name="&lt;Path&gt;" class="cls-3" d="M271.51 144.59l1.91-1.07 10.33 5.96-1.91 1.08-10.33-5.97z"/></g><g id="_Group_60" data-name="&lt;Group&gt;"><path id="_Path_67" data-name="&lt;Path&gt;" class="cls-3" d="M276.13 141.95l.88-.51 10.32 5.97-.88.5-10.32-5.96z"/></g><g id="_Group_61" data-name="&lt;Group&gt;"><path id="_Path_68" data-name="&lt;Path&gt;" class="cls-3" d="M278.16 140.76l.44-.25 10.33 5.96-.44.26-10.33-5.97z"/></g><g id="_Group_62" data-name="&lt;Group&gt;"><path id="_Path_69" data-name="&lt;Path&gt;" class="cls-3" d="M274.54 142.93l.44-.26 10.33 5.96-.44.26-10.33-5.96z"/></g><g id="_Group_63" data-name="&lt;Group&gt;"><path id="_Path_70" data-name="&lt;Path&gt;" class="cls-3" d="M267.27 147.08l.44-.26 10.33 5.97-.44.25-10.33-5.96z"/></g><g id="_Group_64" data-name="&lt;Group&gt;"><path id="_Path_71" data-name="&lt;Path&gt;" class="cls-3" d="M263.32 149.37l.44-.26 10.33 5.97-.44.25-10.33-5.96z"/></g><g id="_Group_65" data-name="&lt;Group&gt;"><path id="_Path_72" data-name="&lt;Path&gt;" class="cls-3" d="M260.52 151.04l.44-.26 10.33 5.97-.44.25-10.33-5.96z"/></g><g id="_Group_66" data-name="&lt;Group&gt;"><path id="_Path_73" data-name="&lt;Path&gt;" class="cls-3" d="M256.59 153.22l.44-.25 10.33 5.96-.44.25-10.33-5.96z"/></g><g id="_Group_67" data-name="&lt;Group&gt;"><path id="_Path_74" data-name="&lt;Path&gt;" class="cls-3" d="M279.71 139.88l.89-.51 10.32 5.96-.88.51-10.33-5.96z"/></g></g><g id="_Group_68" data-name="&lt;Group&gt;"><path id="_Path_75" data-name="&lt;Path&gt;" class="cls-9" d="M334.18 267.56l-90.99-52.65v-60.4l90.99 52.66v60.39z"/></g><g id="_Group_69" data-name="&lt;Group&gt;"><path id="_Path_76" data-name="&lt;Path&gt;" class="cls-9" d="M334.18 267.56l80.42-46.51v-60.4l-80.41 46.52-.01 60.39z"/><path id="_Path_77" data-name="&lt;Path&gt;" class="cls-8" d="M334.18 267.56l80.42-46.51v-60.4l-80.41 46.52-.01 60.39z"/></g><g id="_Group_70" data-name="&lt;Group&gt;"><path id="_Path_78" data-name="&lt;Path&gt;" class="cls-4" d="M378.33 190.77l-5.92 3.42v-9.18l5.92-3.42v9.18z"/></g><g id="_Group_71" data-name="&lt;Group&gt;"><path id="_Path_79" data-name="&lt;Path&gt;" class="cls-3" d="M372.41 185.01l-90.99-52.65 5.91-3.42 91 52.65-5.92 3.42z"/></g><g id="_Group_72" data-name="&lt;Group&gt;"><g id="_Group_73" data-name="&lt;Group&gt;"><path id="_Compound_Path_3" data-name="&lt;Compound Path&gt;" class="cls-3" d="M300.83 238.67a5 5 0 0 1-2.11-4v-6.11l4.29 2.52.28-.05v5.87a2 2 0 0 1-.84 1.85 1.32 1.32 0 0 1-.67.18 1.91 1.91 0 0 1-.95-.26zm.48-6.58l-.31 2.14h-1.59v.45a4.34 4.34 0 0 0 1.77 3.4 1 1 0 0 0 .93.1 1.41 1.41 0 0 0 .49-1.26v-5.06zm-.61-.59l1.27-.23-2.56-1.5v3.77h1z"/></g><g id="_Group_74" data-name="&lt;Group&gt;"><path id="_Path_80" data-name="&lt;Path&gt;" class="cls-3" d="M301 243.31a.35.35 0 0 0 .35-.34v-4.6a.35.35 0 0 0-.35-.37.34.34 0 0 0-.34.34V243a.34.34 0 0 0 .34.31z"/></g><g id="_Group_75" data-name="&lt;Group&gt;"><path id="_Path_81" data-name="&lt;Path&gt;" class="cls-3" d="M303 244.46a.34.34 0 0 0 .3-.17.35.35 0 0 0-.13-.47l-4-2.3a.34.34 0 0 0-.47.12.34.34 0 0 0 .13.47l4 2.31a.33.33 0 0 0 .17.04z"/></g></g><g id="_Group_76" data-name="&lt;Group&gt;"><g id="_Group_77" data-name="&lt;Group&gt;"><path id="_Path_82" data-name="&lt;Path&gt;" class="cls-3" d="M315 251.56a.85.85 0 0 0 .38-.09.91.91 0 0 0 .41-.83v-.94a.35.35 0 0 0-.35-.35.35.35 0 0 0-.34.35v.94c0 .14 0 .22-.07.23s-.1 0-.22-.06a2 2 0 0 1-.64-1.55v-6.11a.35.35 0 0 0-.34-.35.35.35 0 0 0-.35.35v6.11a2.6 2.6 0 0 0 1 2.14 1 1 0 0 0 .52.16z"/></g><g id="_Group_78" data-name="&lt;Group&gt;"><path id="_Compound_Path_4" data-name="&lt;Compound Path&gt;" class="cls-3" d="M309.45 240.94v-.2a2.91 2.91 0 0 1 4.74-2.73 9.73 9.73 0 0 1 4.4 7.62v.59zm1.75-2.63a2.55 2.55 0 0 0-1.06 2.24l7.73 4.46a9.07 9.07 0 0 0-4-6.41 3.54 3.54 0 0 0-1.72-.53 1.84 1.84 0 0 0-.95.24z"/></g></g><g id="_Group_79" data-name="&lt;Group&gt;"><g id="_Group_80" data-name="&lt;Group&gt;"><g id="_Group_81" data-name="&lt;Group&gt;"><path id="_Path_83" data-name="&lt;Path&gt;" class="cls-3" d="M328.79 259.28a.35.35 0 0 0 .35-.35v-11.7a.35.35 0 0 0-.35-.34.34.34 0 0 0-.34.34v11.7a.35.35 0 0 0 .34.35z"/></g><g id="_Group_82" data-name="&lt;Group&gt;"><path id="_Path_84" data-name="&lt;Path&gt;" class="cls-3" d="M329.8 249.9a.28.28 0 0 0 .13 0 .33.33 0 0 0 .18-.45l-1.22-2.83-1.36 1.58a.34.34 0 1 0 .51.45l.65-.75.79 1.82a.36.36 0 0 0 .32.18z"/></g></g><g id="_Group_83" data-name="&lt;Group&gt;"><g id="_Group_84" data-name="&lt;Group&gt;"><path id="_Path_85" data-name="&lt;Path&gt;" class="cls-3" d="M325.61 257.46a.35.35 0 0 0 .35-.34v-11.7a.35.35 0 0 0-.35-.35.35.35 0 0 0-.34.35v11.7a.34.34 0 0 0 .34.34z"/></g><g id="_Group_85" data-name="&lt;Group&gt;"><path id="_Path_86" data-name="&lt;Path&gt;" class="cls-3" d="M326.62 248.09a.35.35 0 0 0 .14 0 .34.34 0 0 0 .17-.45l-1.22-2.83-1.36 1.58a.34.34 0 0 0 0 .48.36.36 0 0 0 .49 0l.64-.75.79 1.82a.36.36 0 0 0 .35.15z"/></g></g></g><g id="_Group_86" data-name="&lt;Group&gt;"><path id="_Path_87" data-name="&lt;Path&gt;" class="cls-7" d="M271 209.44v15.15c0 .59-.41.82-.92.53l-23.65-13.65a2 2 0 0 1-.91-1.59v-15.15c0-.59.41-.82.91-.53l23.65 13.66a2 2 0 0 1 .92 1.58z"/></g><g id="_Group_87" data-name="&lt;Group&gt;"><g id="_Group_88" data-name="&lt;Group&gt;"><path id="_Path_88" data-name="&lt;Path&gt;" class="cls-3" d="M246.96 196.37l.77.44v13.77l-.77-.44v-13.77z"/></g><g id="_Group_89" data-name="&lt;Group&gt;"><path id="_Path_89" data-name="&lt;Path&gt;" class="cls-3" d="M250.07 198.16l1.32.78v13.77l-1.32-.78v-13.77z"/></g><g id="_Group_90" data-name="&lt;Group&gt;"><path id="_Path_90" data-name="&lt;Path&gt;" class="cls-3" d="M253.18 199.96l.76.44v13.77l-.76-.45v-13.76z"/></g><g id="_Group_91" data-name="&lt;Group&gt;"><path id="_Path_91" data-name="&lt;Path&gt;" class="cls-3" d="M255.52 201.28l1.53.91v13.77l-1.53-.91v-13.77z"/></g><g id="_Group_92" data-name="&lt;Group&gt;"><path id="_Path_92" data-name="&lt;Path&gt;" class="cls-3" d="M259.4 203.54l.76.44v13.77l-.76-.44v-13.77z"/></g><g id="_Group_93" data-name="&lt;Group&gt;"><path id="_Path_93" data-name="&lt;Path&gt;" class="cls-3" d="M261.63 204.81l1.64.97v13.77l-1.64-.97v-13.77z"/></g><g id="_Group_94" data-name="&lt;Group&gt;"><path id="_Path_94" data-name="&lt;Path&gt;" class="cls-3" d="M265.61 207.13l.77.44v13.77l-.77-.44v-13.77z"/></g><g id="_Group_95" data-name="&lt;Group&gt;"><path id="_Path_95" data-name="&lt;Path&gt;" class="cls-3" d="M267.39 208.14l.38.22v13.77l-.38-.22v-13.77z"/></g><g id="_Group_96" data-name="&lt;Group&gt;"><path id="_Path_96" data-name="&lt;Path&gt;" class="cls-3" d="M264.2 206.38l.38.22v13.77l-.38-.22v-13.77z"/></g><g id="_Group_97" data-name="&lt;Group&gt;"><path id="_Path_97" data-name="&lt;Path&gt;" class="cls-3" d="M257.94 202.71l.38.22v13.77l-.39-.22.01-13.77z"/></g><g id="_Group_98" data-name="&lt;Group&gt;"><path id="_Path_98" data-name="&lt;Path&gt;" class="cls-3" d="M254.51 200.75l.38.22v13.77l-.39-.23.01-13.76z"/></g><g id="_Group_99" data-name="&lt;Group&gt;"><path id="_Path_99" data-name="&lt;Path&gt;" class="cls-3" d="M252.04 199.38l.38.22v13.78l-.38-.22v-13.78z"/></g><g id="_Group_100" data-name="&lt;Group&gt;"><path id="_Path_100" data-name="&lt;Path&gt;" class="cls-3" d="M248.7 197.36l.39.22-.01 13.77-.38-.22v-13.77z"/></g><g id="_Group_101" data-name="&lt;Group&gt;"><path id="_Path_101" data-name="&lt;Path&gt;" class="cls-3" d="M268.72 208.92l.77.45v13.76l-.77-.44v-13.77z"/></g></g></g></g><g id="Box-5" data-name="Box"><path id="Shadow-5" data-name="Shadow" class="cls-8" d="M241.75 153.69l87.15 50.42 68.29-39.43-87.31-50.41-68.13 39.42z"/><g id="Box-6" data-name="Box"><g id="_Group_102" data-name="&lt;Group&gt;"><path id="_Path_102" data-name="&lt;Path&gt;" class="cls-9" d="M237.72 126.16l73.11-42.22 85.31 49.25-73.12 42.22-85.3-49.25z"/><path id="_Path_103" data-name="&lt;Path&gt;" class="cls-8" d="M237.72 126.16l73.11-42.22 85.31 49.25-73.12 42.22-85.3-49.25z"/></g><g id="_Group_103" data-name="&lt;Group&gt;"><path id="_Path_104" data-name="&lt;Path&gt;" class="cls-7" d="M276.26 109.68l24.19 13.93c.44.26.32.74-.26 1.07l-27.31 15.77a2.09 2.09 0 0 1-1.85.15l-24.19-13.94c-.44-.25-.32-.73.26-1.07l27.31-15.76a2.13 2.13 0 0 1 1.85-.15z"/></g><path class="cls-2" d="M264.05 133.39a.5.5 0 0 1-.25-.93l22.67-13.09a.5.5 0 0 1 .68.18.51.51 0 0 1-.18.69l-22.67 13.09a.57.57 0 0 1-.25.06zm2.51 1.44a.5.5 0 0 1-.25-.93L289 120.81a.51.51 0 0 1 .69.19.5.5 0 0 1-.19.68l-22.67 13.09a.54.54 0 0 1-.27.06zm2.52 1.45a.5.5 0 0 1-.43-.25.51.51 0 0 1 .18-.69l22.67-13.08a.5.5 0 0 1 .5.86l-22.67 13.09a.47.47 0 0 1-.25.07zm2.52 1.44a.52.52 0 0 1-.44-.25.5.5 0 0 1 .19-.68L294 123.7a.5.5 0 0 1 .5.86l-22.67 13.09a.47.47 0 0 1-.23.07z"/><g id="_Group_104" data-name="&lt;Group&gt;"><g id="_Group_105" data-name="&lt;Group&gt;"><path id="_Path_105" data-name="&lt;Path&gt;" class="cls-3" d="M249.13 126.03l.88-.51 10.32 5.96-.88.51-10.32-5.96z"/></g><g id="_Group_106" data-name="&lt;Group&gt;"><path id="_Path_106" data-name="&lt;Path&gt;" class="cls-3" d="M252.71 123.96l1.53-.88 10.33 5.97-1.53.87-10.33-5.96z"/></g><g id="_Group_107" data-name="&lt;Group&gt;"><path id="_Path_107" data-name="&lt;Path&gt;" class="cls-3" d="M256.3 121.88l.88-.5 10.33 5.96-.88.51-10.33-5.97z"/></g><g id="_Group_108" data-name="&lt;Group&gt;"><path id="_Path_108" data-name="&lt;Path&gt;" class="cls-3" d="M258.99 120.31l1.78-1.01 10.33 5.97-1.78 1-10.33-5.96z"/></g><g id="_Group_109" data-name="&lt;Group&gt;"><path id="_Path_109" data-name="&lt;Path&gt;" class="cls-3" d="M263.48 117.74l.88-.51 10.33 5.96-.88.51-10.33-5.96z"/></g><g id="_Group_110" data-name="&lt;Group&gt;"><path id="_Path_110" data-name="&lt;Path&gt;" class="cls-3" d="M266.04 116.23l1.91-1.07 10.33 5.96-1.91 1.08-10.33-5.97z"/></g><g id="_Group_111" data-name="&lt;Group&gt;"><path id="_Path_111" data-name="&lt;Path&gt;" class="cls-3" d="M270.66 113.59l.88-.51 10.33 5.97-.89.51-10.32-5.97z"/></g><g id="_Group_112" data-name="&lt;Group&gt;"><path id="_Path_112" data-name="&lt;Path&gt;" class="cls-3" d="M272.69 112.41l.44-.26 10.33 5.96-.44.26-10.33-5.96z"/></g><g id="_Group_113" data-name="&lt;Group&gt;"><path id="_Path_113" data-name="&lt;Path&gt;" class="cls-3" d="M269.07 114.57l.44-.26 10.33 5.97-.44.25-10.33-5.96z"/></g><g id="_Group_114" data-name="&lt;Group&gt;"><path id="_Path_114" data-name="&lt;Path&gt;" class="cls-3" d="M261.8 118.72l.44-.25 10.33 5.96-.44.25-10.33-5.96z"/></g><g id="_Group_115" data-name="&lt;Group&gt;"><path id="_Path_115" data-name="&lt;Path&gt;" class="cls-3" d="M257.85 121.01l.44-.25 10.33 5.96-.44.25-10.33-5.96z"/></g><g id="_Group_116" data-name="&lt;Group&gt;"><path id="_Path_116" data-name="&lt;Path&gt;" class="cls-3" d="M255.05 122.68l.45-.26 10.32 5.97-.44.25-10.33-5.96z"/></g><g id="_Group_117" data-name="&lt;Group&gt;"><path id="_Path_117" data-name="&lt;Path&gt;" class="cls-3" d="M251.12 124.86l.44-.25 10.33 5.96-.44.26-10.33-5.97z"/></g><g id="_Group_118" data-name="&lt;Group&gt;"><path id="_Path_118" data-name="&lt;Path&gt;" class="cls-3" d="M274.25 111.52l.88-.51 10.32 5.96-.88.51-10.32-5.96z"/></g></g><g id="_Group_119" data-name="&lt;Group&gt;"><path id="_Path_119" data-name="&lt;Path&gt;" class="cls-9" d="M323.02 203.55l-85.3-49.25v-28.14l85.3 49.25v28.14z"/></g><g id="_Group_120" data-name="&lt;Group&gt;" class="cls-14"><path id="_Path_120" data-name="&lt;Path&gt;" d="M323.02 203.55l-85.3-49.25v-28.14l85.3 49.25v28.14z"/></g><g id="_Group_121" data-name="&lt;Group&gt;"><path id="_Path_121" data-name="&lt;Path&gt;" class="cls-9" d="M323.02 203.55l73.12-42.21v-28.15l-73.12 42.22v28.14z"/><path id="_Path_122" data-name="&lt;Path&gt;" class="cls-15" d="M323.02 203.55l73.12-42.21v-28.15l-73.12 42.22v28.14z"/></g><g id="_Group_122" data-name="&lt;Group&gt;"><path id="_Path_123" data-name="&lt;Path&gt;" class="cls-4" d="M367.16 159.01l-5.91 3.42v-9.18l5.91-3.42v9.18z"/></g><g id="_Group_123" data-name="&lt;Group&gt;"><path id="_Path_124" data-name="&lt;Path&gt;" class="cls-3" d="M361.25 153.25L275.95 104l5.91-3.42 85.3 49.25-5.91 3.42z"/></g><g id="_Group_124" data-name="&lt;Group&gt;"><g id="_Group_125" data-name="&lt;Group&gt;"><path id="_Compound_Path_5" data-name="&lt;Compound Path&gt;" class="cls-3" d="M289.67 174.66a5 5 0 0 1-2.11-4v-6.11l4.29 2.52h.27v5.88a2.06 2.06 0 0 1-.83 1.86 1.32 1.32 0 0 1-.67.18 2 2 0 0 1-.95-.33zm.48-6.59l-.32 2.15h-1.58v.44a4.31 4.31 0 0 0 1.76 3.4 1 1 0 0 0 .93.1 1.39 1.39 0 0 0 .5-1.26v-5.06zm-.61-.59l1.26-.23-2.55-1.5v3.78h1z"/></g><g id="_Group_126" data-name="&lt;Group&gt;"><path id="_Path_125" data-name="&lt;Path&gt;" class="cls-3" d="M289.84 179.3a.35.35 0 0 0 .35-.35v-4.59a.35.35 0 0 0-.35-.35.35.35 0 0 0-.34.35V179a.35.35 0 0 0 .34.3z"/></g><g id="_Group_127" data-name="&lt;Group&gt;"><path id="_Path_126" data-name="&lt;Path&gt;" class="cls-3" d="M291.84 180.45a.35.35 0 0 0 .3-.17.34.34 0 0 0-.13-.47l-4-2.31a.33.33 0 0 0-.47.13.34.34 0 0 0 .12.47l4 2.3a.34.34 0 0 0 .18.05z"/></g></g><g id="_Group_128" data-name="&lt;Group&gt;"><g id="_Group_129" data-name="&lt;Group&gt;"><path id="_Path_127" data-name="&lt;Path&gt;" class="cls-3" d="M303.81 187.55a.69.69 0 0 0 .37-.1.91.91 0 0 0 .41-.82v-.95a.34.34 0 1 0-.68 0v.95c0 .14 0 .21-.07.23a.29.29 0 0 1-.22-.06 2 2 0 0 1-.64-1.56v-6.11a.35.35 0 0 0-.35-.34.34.34 0 0 0-.34.34v6.11a2.62 2.62 0 0 0 1 2.15 1 1 0 0 0 .52.16z"/></g><g id="_Group_130" data-name="&lt;Group&gt;"><path id="_Compound_Path_6" data-name="&lt;Compound Path&gt;" class="cls-3" d="M298.29 176.93v-.2A2.91 2.91 0 0 1 303 174a9.73 9.73 0 0 1 4.4 7.62v.6zm1.75-2.64a2.55 2.55 0 0 0-1.06 2.24l7.73 4.47a9.11 9.11 0 0 0-4-6.41 3.47 3.47 0 0 0-1.72-.53 1.83 1.83 0 0 0-.99.23z"/></g></g><g id="_Group_131" data-name="&lt;Group&gt;"><g id="_Group_132" data-name="&lt;Group&gt;"><g id="_Group_133" data-name="&lt;Group&gt;"><path id="_Path_128" data-name="&lt;Path&gt;" class="cls-3" d="M317.63 195.26a.34.34 0 0 0 .34-.34v-11.7a.34.34 0 1 0-.68 0v11.7a.34.34 0 0 0 .34.34z"/></g><g id="_Group_134" data-name="&lt;Group&gt;"><path id="_Path_129" data-name="&lt;Path&gt;" class="cls-3" d="M318.63 185.89a.32.32 0 0 0 .14 0 .34.34 0 0 0 .18-.46l-1.22-2.82-1.37 1.57a.35.35 0 0 0 0 .49.34.34 0 0 0 .48 0l.65-.75.79 1.83a.35.35 0 0 0 .35.14z"/></g></g><g id="_Group_135" data-name="&lt;Group&gt;"><g id="_Group_136" data-name="&lt;Group&gt;"><path id="_Path_130" data-name="&lt;Path&gt;" class="cls-3" d="M314.45 193.45a.34.34 0 0 0 .34-.34V181.4a.34.34 0 0 0-.68 0v11.71a.34.34 0 0 0 .34.34z"/></g><g id="_Group_137" data-name="&lt;Group&gt;"><path id="_Path_131" data-name="&lt;Path&gt;" class="cls-3" d="M315.46 184.07a.31.31 0 0 0 .13 0 .33.33 0 0 0 .18-.45l-1.22-2.83-1.37 1.58a.35.35 0 0 0 0 .49.35.35 0 0 0 .48 0l.65-.75.79 1.82a.35.35 0 0 0 .36.14z"/></g></g></g><g id="_Group_138" data-name="&lt;Group&gt;"><path id="_Path_132" data-name="&lt;Path&gt;" class="cls-7" d="M265.51 148.83V164c0 .58-.41.82-.92.53l-23.65-13.66a2 2 0 0 1-.91-1.58v-15.18c0-.58.41-.82.91-.53l23.65 13.67a2 2 0 0 1 .92 1.58z"/></g><g id="_Group_139" data-name="&lt;Group&gt;"><g id="_Group_140" data-name="&lt;Group&gt;"><path id="_Path_133" data-name="&lt;Path&gt;" class="cls-3" d="M241.49 135.75l.77.44v13.78l-.77-.45v-13.77z"/></g><g id="_Group_141" data-name="&lt;Group&gt;"><path id="_Path_134" data-name="&lt;Path&gt;" class="cls-3" d="M244.6 137.55l1.32.77v13.77l-1.32-.77v-13.77z"/></g><g id="_Group_142" data-name="&lt;Group&gt;"><path id="_Path_135" data-name="&lt;Path&gt;" class="cls-3" d="M247.71 139.34l.76.44v13.77l-.76-.44v-13.77z"/></g><g id="_Group_143" data-name="&lt;Group&gt;"><path id="_Path_136" data-name="&lt;Path&gt;" class="cls-3" d="M250.05 140.67l1.53.91v13.77l-1.53-.91v-13.77z"/></g><g id="_Group_144" data-name="&lt;Group&gt;"><path id="_Path_137" data-name="&lt;Path&gt;" class="cls-3" d="M253.93 142.93l.76.44v13.77l-.76-.44v-13.77z"/></g><g id="_Group_145" data-name="&lt;Group&gt;"><path id="_Path_138" data-name="&lt;Path&gt;" class="cls-3" d="M256.17 144.19l1.63.97v13.77l-1.63-.97v-13.77z"/></g><g id="_Group_146" data-name="&lt;Group&gt;"><path id="_Path_139" data-name="&lt;Path&gt;" class="cls-3" d="M260.14 146.52l.77.44v13.77l-.77-.44v-13.77z"/></g><g id="_Group_147" data-name="&lt;Group&gt;"><path id="_Path_140" data-name="&lt;Path&gt;" class="cls-3" d="M261.92 147.53l.38.22v13.77l-.38-.22v-13.77z"/></g><g id="_Group_148" data-name="&lt;Group&gt;"><path id="_Path_141" data-name="&lt;Path&gt;" class="cls-3" d="M258.73 145.77l.38.22v13.77l-.38-.22v-13.77z"/></g><g id="_Group_149" data-name="&lt;Group&gt;"><path id="_Path_142" data-name="&lt;Path&gt;" class="cls-3" d="M252.47 142.1l.38.22v13.77l-.38-.22V142.1z"/></g><g id="_Group_150" data-name="&lt;Group&gt;"><path id="_Path_143" data-name="&lt;Path&gt;" class="cls-3" d="M249.04 140.13l.38.22v13.77l-.38-.22v-13.77z"/></g><g id="_Group_151" data-name="&lt;Group&gt;"><path id="_Path_144" data-name="&lt;Path&gt;" class="cls-3" d="M246.57 138.77l.39.22v13.77l-.39-.22v-13.77z"/></g><g id="_Group_152" data-name="&lt;Group&gt;"><path id="_Path_145" data-name="&lt;Path&gt;" class="cls-3" d="M243.23 136.74l.39.22v13.77l-.39-.22v-13.77z"/></g><g id="_Group_153" data-name="&lt;Group&gt;"><path id="_Path_146" data-name="&lt;Path&gt;" class="cls-3" d="M263.25 148.31l.77.44v13.77l-.77-.44v-13.77z"/></g></g></g></g><g id="Box-7" data-name="Box"><path id="Shadow-6" data-name="Shadow" class="cls-8" d="M278.47 318.26l-66.81 38.52-50.01-28.9 66.96-38.44 49.86 28.82z"/><g id="Box-8" data-name="Box"><g id="_Group_154" data-name="&lt;Group&gt;"><path id="_Path_147" data-name="&lt;Path&gt;" class="cls-9" d="M167.75 204.74l60.93-35.18 44.68 25.79-60.93 35.18-44.68-25.79z"/><path id="_Path_148" data-name="&lt;Path&gt;" class="cls-8" d="M167.75 204.74l60.93-35.18 44.68 25.79-60.93 35.18-44.68-25.79z"/></g><g id="_Group_155" data-name="&lt;Group&gt;"><path id="_Path_149" data-name="&lt;Path&gt;" class="cls-7" d="M228.09 174.61l-18.7 10.78c-.34.19-.25.56.2.82l21.11 12.19a1.6 1.6 0 0 0 1.43.12l18.71-10.78c.34-.19.25-.56-.21-.82l-21.11-12.19a1.64 1.64 0 0 0-1.43-.12z"/></g><path class="cls-2" d="M237.53 193a.39.39 0 0 0 .2-.72l-17.53-10.17a.38.38 0 0 0-.53.14.39.39 0 0 0 .14.53l17.53 10.11a.35.35 0 0 0 .19.11zm-1.94 1.06a.39.39 0 0 0 .33-.19.38.38 0 0 0-.14-.53l-17.53-10.12a.39.39 0 1 0-.38.67L235.39 194a.46.46 0 0 0 .2.06zm-1.95 1.12a.4.4 0 0 0 .34-.2.38.38 0 0 0-.15-.52l-17.52-10.12a.38.38 0 1 0-.39.66l17.53 10.12a.35.35 0 0 0 .19.06zm-1.95 1.11a.39.39 0 0 0 .2-.72l-17.53-10.12a.39.39 0 0 0-.53.14.4.4 0 0 0 .14.53l17.53 10.12a.34.34 0 0 0 .19.05z"/><g id="_Group_156" data-name="&lt;Group&gt;"><g id="_Group_157" data-name="&lt;Group&gt;"><path id="_Path_150" data-name="&lt;Path&gt;" class="cls-3" d="M249.07 187.25l-.68-.39-7.99 4.61.69.39 7.98-4.61z"/></g><g id="_Group_158" data-name="&lt;Group&gt;"><path id="_Path_151" data-name="&lt;Path&gt;" class="cls-3" d="M246.29 185.65l-1.18-.67-7.98 4.61 1.18.67 7.98-4.61z"/></g><g id="_Group_159" data-name="&lt;Group&gt;"><path id="_Path_152" data-name="&lt;Path&gt;" class="cls-3" d="M243.52 184.05l-.68-.39-7.99 4.61.69.39 7.98-4.61z"/></g><g id="_Group_160" data-name="&lt;Group&gt;"><path id="_Path_153" data-name="&lt;Path&gt;" class="cls-3" d="M241.44 182.83l-1.38-.78-7.98 4.61 1.38.78 7.98-4.61z"/></g><g id="_Group_161" data-name="&lt;Group&gt;"><path id="_Path_154" data-name="&lt;Path&gt;" class="cls-3" d="M237.97 180.84l-.68-.39-7.98 4.61.68.4 7.98-4.62z"/></g><g id="_Group_162" data-name="&lt;Group&gt;"><path id="_Path_155" data-name="&lt;Path&gt;" class="cls-3" d="M235.99 179.68l-1.48-.83-7.98 4.61 1.47.83 7.99-4.61z"/></g><g id="_Group_163" data-name="&lt;Group&gt;"><path id="_Path_156" data-name="&lt;Path&gt;" class="cls-3" d="M232.42 177.64l-.68-.39-7.98 4.61.68.39 7.98-4.61z"/></g><g id="_Group_164" data-name="&lt;Group&gt;"><path id="_Path_157" data-name="&lt;Path&gt;" class="cls-3" d="M230.85 176.72l-.34-.2-7.99 4.61.34.2 7.99-4.61z"/></g><g id="_Group_165" data-name="&lt;Group&gt;"><path id="_Path_158" data-name="&lt;Path&gt;" class="cls-3" d="M233.65 178.39l-.34-.19-7.99 4.61.34.19 7.99-4.61z"/></g><g id="_Group_166" data-name="&lt;Group&gt;"><path id="_Path_159" data-name="&lt;Path&gt;" class="cls-3" d="M239.27 181.6l-.34-.19-7.99 4.61.34.19 7.99-4.61z"/></g><g id="_Group_167" data-name="&lt;Group&gt;"><path id="_Path_160" data-name="&lt;Path&gt;" class="cls-3" d="M242.32 183.37l-.34-.19-7.98 4.61.34.19 7.98-4.61z"/></g><g id="_Group_168" data-name="&lt;Group&gt;"><path id="_Path_161" data-name="&lt;Path&gt;" class="cls-3" d="M244.49 184.66l-.34-.19-7.99 4.61.34.19 7.99-4.61z"/></g><g id="_Group_169" data-name="&lt;Group&gt;"><path id="_Path_162" data-name="&lt;Path&gt;" class="cls-3" d="M247.53 186.35l-.35-.19-7.98 4.61.34.19 7.99-4.61z"/></g><g id="_Group_170" data-name="&lt;Group&gt;"><path id="_Path_163" data-name="&lt;Path&gt;" class="cls-3" d="M229.65 176.04l-.68-.4-7.99 4.61.68.4 7.99-4.61z"/></g></g><g id="_Group_171" data-name="&lt;Group&gt;"><path id="_Path_164" data-name="&lt;Path&gt;" class="cls-9" d="M212.43 352.5l-44.68-25.79V204.74l44.68 25.79V352.5z"/></g><g id="_Group_172" data-name="&lt;Group&gt;" class="cls-14"><path id="_Path_165" data-name="&lt;Path&gt;" d="M212.43 352.5l-44.68-25.79V204.74l44.68 25.79V352.5z"/></g><g id="_Group_173" data-name="&lt;Group&gt;"><path id="_Path_166" data-name="&lt;Path&gt;" class="cls-9" d="M212.43 352.5l60.93-35.17V195.35l-60.93 35.18V352.5z"/><path id="_Path_167" data-name="&lt;Path&gt;" class="cls-15" d="M212.43 352.5l60.93-35.17V195.35l-60.93 35.18V352.5z"/></g><g id="_Group_174" data-name="&lt;Group&gt;"><path id="_Path_168" data-name="&lt;Path&gt;" class="cls-4" d="M244.93 220.95l-5.91 3.41v-9.17l5.91-3.42v9.18z"/></g><g id="_Group_175" data-name="&lt;Group&gt;"><path id="_Path_169" data-name="&lt;Path&gt;" class="cls-3" d="M239.02 215.19l-44.69-25.8 5.92-3.42 44.68 25.8-5.91 3.42z"/></g><g id="_Group_176" data-name="&lt;Group&gt;"><g id="_Group_177" data-name="&lt;Group&gt;"><path id="_Compound_Path_7" data-name="&lt;Compound Path&gt;" class="cls-3" d="M179.08 323.61a5 5 0 0 1-2.11-4v-6.11l4.29 2.52h.28v5.87a2 2 0 0 1-.84 1.85 1.32 1.32 0 0 1-.67.18 1.88 1.88 0 0 1-.95-.31zm.48-6.58l-.32 2.14h-1.58v.45a4.34 4.34 0 0 0 1.77 3.4.94.94 0 0 0 .92.1 1.39 1.39 0 0 0 .5-1.26v-5.06zm-.61-.59l1.27-.23-2.56-1.5v3.77h1z"/></g><g id="_Group_178" data-name="&lt;Group&gt;"><path id="_Path_170" data-name="&lt;Path&gt;" class="cls-3" d="M179.25 328.25a.35.35 0 0 0 .35-.34v-4.6a.35.35 0 0 0-.35-.34.34.34 0 0 0-.34.34v4.6a.34.34 0 0 0 .34.34z"/></g><g id="_Group_179" data-name="&lt;Group&gt;"><path id="_Path_171" data-name="&lt;Path&gt;" class="cls-3" d="M181.25 329.4a.34.34 0 0 0 .3-.17.35.35 0 0 0-.13-.47l-4-2.3a.33.33 0 0 0-.47.12.34.34 0 0 0 .12.47l4 2.31a.33.33 0 0 0 .18.04z"/></g></g><g id="_Group_180" data-name="&lt;Group&gt;"><g id="_Group_181" data-name="&lt;Group&gt;"><path id="_Path_172" data-name="&lt;Path&gt;" class="cls-3" d="M193.22 336.5a.78.78 0 0 0 .37-.09.9.9 0 0 0 .42-.83v-.94a.35.35 0 0 0-.35-.35.35.35 0 0 0-.34.35v.94c0 .14 0 .22-.07.23s-.1 0-.22-.06a2 2 0 0 1-.64-1.55v-6.11a.35.35 0 0 0-.34-.35.35.35 0 0 0-.35.35v6.11a2.6 2.6 0 0 0 1 2.14 1 1 0 0 0 .52.16z"/></g><g id="_Group_182" data-name="&lt;Group&gt;"><path id="_Compound_Path_8" data-name="&lt;Compound Path&gt;" class="cls-3" d="M187.7 325.88v-.2a2.91 2.91 0 0 1 4.74-2.73 9.73 9.73 0 0 1 4.4 7.62v.59zm1.75-2.63a2.55 2.55 0 0 0-1.06 2.24l7.73 4.46a9.07 9.07 0 0 0-4-6.41 3.54 3.54 0 0 0-1.72-.53 1.84 1.84 0 0 0-.95.24z"/></g></g><g id="_Group_183" data-name="&lt;Group&gt;"><g id="_Group_184" data-name="&lt;Group&gt;"><g id="_Group_185" data-name="&lt;Group&gt;"><path id="_Path_173" data-name="&lt;Path&gt;" class="cls-3" d="M207 344.22a.35.35 0 0 0 .35-.35v-11.7a.35.35 0 0 0-.35-.34.34.34 0 0 0-.34.34v11.7a.35.35 0 0 0 .34.35z"/></g><g id="_Group_186" data-name="&lt;Group&gt;"><path id="_Path_174" data-name="&lt;Path&gt;" class="cls-3" d="M208.05 334.84a.31.31 0 0 0 .13 0 .33.33 0 0 0 .18-.45l-1.22-2.83-1.37 1.58a.34.34 0 0 0 .52.45l.65-.75.79 1.82a.35.35 0 0 0 .32.18z"/></g></g><g id="_Group_187" data-name="&lt;Group&gt;"><g id="_Group_188" data-name="&lt;Group&gt;"><path id="_Path_175" data-name="&lt;Path&gt;" class="cls-3" d="M203.86 342.4a.35.35 0 0 0 .35-.34v-11.7a.35.35 0 0 0-.35-.35.35.35 0 0 0-.34.35v11.7a.34.34 0 0 0 .34.34z"/></g><g id="_Group_189" data-name="&lt;Group&gt;"><path id="_Path_176" data-name="&lt;Path&gt;" class="cls-3" d="M204.87 333a.31.31 0 0 0 .13 0 .34.34 0 0 0 .18-.45l-1.18-2.83-1.37 1.58a.34.34 0 0 0 .52.45l.65-.75.79 1.82a.36.36 0 0 0 .28.18z"/></g></g></g><g id="_Group_190" data-name="&lt;Group&gt;"><path id="_Path_177" data-name="&lt;Path&gt;" class="cls-7" d="M208.37 306.87V322c0 .58-.41.82-.91.53l-23.65-13.66a2 2 0 0 1-.92-1.58v-15.14c0-.58.41-.82.92-.53l23.65 13.66a2.06 2.06 0 0 1 .91 1.59z"/></g><g id="_Group_191" data-name="&lt;Group&gt;"><g id="_Group_192" data-name="&lt;Group&gt;"><path id="_Path_178" data-name="&lt;Path&gt;" class="cls-3" d="M184.36 293.79l.76.44V308l-.76-.44v-13.77z"/></g><g id="_Group_193" data-name="&lt;Group&gt;"><path id="_Path_179" data-name="&lt;Path&gt;" class="cls-3" d="M187.47 295.58l1.31.78v13.77l-1.31-.77v-13.78z"/></g><g id="_Group_194" data-name="&lt;Group&gt;"><path id="_Path_180" data-name="&lt;Path&gt;" class="cls-3" d="M190.57 297.38l.77.44v13.77l-.77-.44v-13.77z"/></g><g id="_Group_195" data-name="&lt;Group&gt;"><path id="_Path_181" data-name="&lt;Path&gt;" class="cls-3" d="M192.92 298.71l1.53.9-.01 13.77-1.52-.9v-13.77z"/></g><g id="_Group_196" data-name="&lt;Group&gt;"><path id="_Path_182" data-name="&lt;Path&gt;" class="cls-3" d="M196.79 300.97l.76.44v13.77l-.76-.44v-13.77z"/></g><g id="_Group_197" data-name="&lt;Group&gt;"><path id="_Path_183" data-name="&lt;Path&gt;" class="cls-3" d="M199.03 302.23l1.63.97v13.77l-1.63-.97v-13.77z"/></g><g id="_Group_198" data-name="&lt;Group&gt;"><path id="_Path_184" data-name="&lt;Path&gt;" class="cls-3" d="M203.01 304.55l.76.45v13.76l-.76-.44v-13.77z"/></g><g id="_Group_199" data-name="&lt;Group&gt;"><path id="_Path_185" data-name="&lt;Path&gt;" class="cls-3" d="M204.78 305.56l.38.22v13.77l-.38-.22v-13.77z"/></g><g id="_Group_200" data-name="&lt;Group&gt;"><path id="_Path_186" data-name="&lt;Path&gt;" class="cls-3" d="M201.59 303.8l.38.22v13.78l-.38-.23V303.8z"/></g><g id="_Group_201" data-name="&lt;Group&gt;"><path id="_Path_187" data-name="&lt;Path&gt;" class="cls-3" d="M195.33 300.14l.38.22v13.77l-.38-.22v-13.77z"/></g><g id="_Group_202" data-name="&lt;Group&gt;"><path id="_Path_188" data-name="&lt;Path&gt;" class="cls-3" d="M191.9 298.17l.38.22v13.77l-.38-.22v-13.77z"/></g><g id="_Group_203" data-name="&lt;Group&gt;"><path id="_Path_189" data-name="&lt;Path&gt;" class="cls-3" d="M189.44 296.81l.38.22v13.77l-.38-.22v-13.77z"/></g><g id="_Group_204" data-name="&lt;Group&gt;"><path id="_Path_190" data-name="&lt;Path&gt;" class="cls-3" d="M186.1 294.78l.38.22v13.77l-.38-.22v-13.77z"/></g><g id="_Group_205" data-name="&lt;Group&gt;"><path id="_Path_191" data-name="&lt;Path&gt;" class="cls-3" d="M206.12 306.35l.76.44v13.77l-.76-.44v-13.77z"/></g></g></g></g><g id="Box-9" data-name="Box"><path id="Shadow-7" data-name="Shadow" class="cls-8" d="M333.1 349.76l-66.81 38.53L215 358.75l66.96-38.44 51.14 29.45z"/><g id="Box-10" data-name="Box"><g id="_Group_206" data-name="&lt;Group&gt;"><path id="_Path_192" data-name="&lt;Path&gt;" class="cls-9" d="M222.75 299.11l60.93-35.17 44.69 25.79-60.93 35.18-44.69-25.8z"/></g><g id="_Group_207" data-name="&lt;Group&gt;" class="cls-15"><path id="_Path_193" data-name="&lt;Path&gt;" fill="#fff" d="M222.75 299.11l60.93-35.17 44.69 25.79-60.93 35.18-44.69-25.8z"/></g><g id="_Group_208" data-name="&lt;Group&gt;"><path id="_Path_194" data-name="&lt;Path&gt;" class="cls-7" d="M283.09 269l-18.7 10.77c-.34.2-.25.57.2.83l21.12 12.19a1.62 1.62 0 0 0 1.42.12l18.71-10.78c.34-.2.25-.57-.2-.83l-21.12-12.18a1.6 1.6 0 0 0-1.43-.12z"/></g><path class="cls-2" d="M292.54 287.32a.39.39 0 0 0 .19-.72l-17.53-10.12a.39.39 0 0 0-.53.14.4.4 0 0 0 .14.53l17.53 10.12a.35.35 0 0 0 .2.05zm-1.95 1.12a.38.38 0 0 0 .33-.2.37.37 0 0 0-.14-.52l-17.53-10.12a.37.37 0 0 0-.52.14.38.38 0 0 0 .14.53l17.53 10.12a.41.41 0 0 0 .19.05zm-1.95 1.11a.39.39 0 0 0 .2-.72l-17.53-10.12a.39.39 0 0 0-.39.67l17.53 10.12a.34.34 0 0 0 .19.05zm-1.94 1.12a.38.38 0 0 0 .33-.2.37.37 0 0 0-.14-.52l-17.53-10.12a.37.37 0 0 0-.52.14.38.38 0 0 0 .14.53l17.52 10.12a.49.49 0 0 0 .2.05z"/><g id="_Group_209" data-name="&lt;Group&gt;"><g id="_Group_210" data-name="&lt;Group&gt;"><path id="_Path_195" data-name="&lt;Path&gt;" class="cls-3" d="M304.07 281.63l-.68-.39-7.98 4.61.68.39 7.98-4.61z"/></g><g id="_Group_211" data-name="&lt;Group&gt;"><path id="_Path_196" data-name="&lt;Path&gt;" class="cls-3" d="M301.3 280.03l-1.19-.68-7.98 4.61 1.18.68 7.99-4.61z"/></g><g id="_Group_212" data-name="&lt;Group&gt;"><path id="_Path_197" data-name="&lt;Path&gt;" class="cls-3" d="M298.52 278.43l-.68-.4-7.98 4.61.68.4 7.98-4.61z"/></g><g id="_Group_213" data-name="&lt;Group&gt;"><path id="_Path_198" data-name="&lt;Path&gt;" class="cls-3" d="M296.44 277.21l-1.37-.78-7.99 4.61 1.38.78 7.98-4.61z"/></g><g id="_Group_214" data-name="&lt;Group&gt;"><path id="_Path_199" data-name="&lt;Path&gt;" class="cls-3" d="M292.97 275.22l-.68-.39-7.98 4.61.68.39 7.98-4.61z"/></g><g id="_Group_215" data-name="&lt;Group&gt;"><path id="_Path_200" data-name="&lt;Path&gt;" class="cls-3" d="M290.99 274.06l-1.47-.83-7.99 4.6 1.48.84 7.98-4.61z"/></g><g id="_Group_216" data-name="&lt;Group&gt;"><path id="_Path_201" data-name="&lt;Path&gt;" class="cls-3" d="M287.43 272.02l-.69-.4-7.98 4.61.68.4 7.99-4.61z"/></g><g id="_Group_217" data-name="&lt;Group&gt;"><path id="_Path_202" data-name="&lt;Path&gt;" class="cls-3" d="M285.85 271.1l-.34-.2-7.99 4.61.35.2 7.98-4.61z"/></g><g id="_Group_218" data-name="&lt;Group&gt;"><path id="_Path_203" data-name="&lt;Path&gt;" class="cls-3" d="M288.65 272.77l-.34-.2-7.99 4.61.35.2 7.98-4.61z"/></g><g id="_Group_219" data-name="&lt;Group&gt;"><path id="_Path_204" data-name="&lt;Path&gt;" class="cls-3" d="M294.27 275.98l-.34-.2-7.99 4.61.35.2 7.98-4.61z"/></g><g id="_Group_220" data-name="&lt;Group&gt;"><path id="_Path_205" data-name="&lt;Path&gt;" class="cls-3" d="M297.32 277.75l-.34-.2-7.98 4.61.34.2 7.98-4.61z"/></g><g id="_Group_221" data-name="&lt;Group&gt;"><path id="_Path_206" data-name="&lt;Path&gt;" class="cls-3" d="M299.49 279.04l-.34-.2-7.99 4.61.34.2 7.99-4.61z"/></g><g id="_Group_222" data-name="&lt;Group&gt;"><path id="_Path_207" data-name="&lt;Path&gt;" class="cls-3" d="M302.53 280.73l-.34-.2-7.99 4.61.34.2 7.99-4.61z"/></g><g id="_Group_223" data-name="&lt;Group&gt;"><path id="_Path_208" data-name="&lt;Path&gt;" class="cls-3" d="M284.65 270.41l-.68-.39-7.99 4.61.69.39 7.98-4.61z"/></g></g><g id="_Group_224" data-name="&lt;Group&gt;"><path id="_Path_209" data-name="&lt;Path&gt;" class="cls-9" d="M267.44 384.26l-44.69-25.8v-59.35l44.69 25.8v59.35z"/></g><g id="_Group_225" data-name="&lt;Group&gt;"><path id="_Path_210" data-name="&lt;Path&gt;" class="cls-9" d="M267.44 384.26l-44.69-25.8v-59.35l44.69 25.8v59.35z"/></g><g id="_Group_226" data-name="&lt;Group&gt;"><path id="_Path_211" data-name="&lt;Path&gt;" class="cls-9" d="M267.44 384.26l60.93-35.18v-59.35l-60.93 35.18v59.35z"/><path id="_Path_212" data-name="&lt;Path&gt;" class="cls-8" d="M267.44 384.26l60.93-35.18v-59.35l-60.93 35.18v59.35z"/></g><g id="_Group_227" data-name="&lt;Group&gt;"><path id="_Path_213" data-name="&lt;Path&gt;" class="cls-4" d="M299.93 315.32l-5.91 3.42v-9.18l5.91-3.41v9.17z"/></g><g id="_Group_228" data-name="&lt;Group&gt;"><path id="_Path_214" data-name="&lt;Path&gt;" class="cls-3" d="M294.02 309.56l-44.68-25.79 5.91-3.42 44.68 25.8-5.91 3.41z"/></g><g id="_Group_229" data-name="&lt;Group&gt;"><g id="_Group_230" data-name="&lt;Group&gt;"><path id="_Compound_Path_9" data-name="&lt;Compound Path&gt;" class="cls-3" d="M322.73 343.37a.82.82 0 0 1-.44-.11 1.36 1.36 0 0 1-.55-1.23v-3.87h.18l2.82-1.66v4a3.26 3.26 0 0 1-1.39 2.63 1.25 1.25 0 0 1-.62.24zm-.54-4.67v3.3a.93.93 0 0 0 .32.83.65.65 0 0 0 .62-.06 2.86 2.86 0 0 0 1.16-2.24v-.3h-1l-.21-1.41zm1.45 1.11h.65v-2.49l-1.68 1 .83.15z"/></g><g id="_Group_231" data-name="&lt;Group&gt;"><path id="_Path_215" data-name="&lt;Path&gt;" class="cls-3" d="M323.24 346.25a.23.23 0 0 1-.24-.25v-3a.23.23 0 0 1 .46 0v3a.23.23 0 0 1-.22.25z"/></g><g id="_Group_232" data-name="&lt;Group&gt;"><path id="_Path_216" data-name="&lt;Path&gt;" class="cls-3" d="M321.92 347a.22.22 0 0 1-.19-.12.23.23 0 0 1 .08-.31l2.63-1.52a.23.23 0 0 1 .23.4L322 347a.19.19 0 0 1-.08 0z"/></g></g><g id="_Group_233" data-name="&lt;Group&gt;"><g id="_Group_234" data-name="&lt;Group&gt;"><path id="_Path_217" data-name="&lt;Path&gt;" class="cls-3" d="M314 351.68a.54.54 0 0 1-.25-.06.61.61 0 0 1-.27-.55v-.62a.22.22 0 0 1 .23-.22.22.22 0 0 1 .22.22v.78c0 .01.07 0 .14 0a1.34 1.34 0 0 0 .43-1v-4a.23.23 0 1 1 .45 0v4a1.76 1.76 0 0 1-.64 1.42.73.73 0 0 1-.31.03z"/></g><g id="_Group_235" data-name="&lt;Group&gt;"><path id="_Compound_Path_10" data-name="&lt;Compound Path&gt;" class="cls-3" d="M311.65 348.16v-.39a6.42 6.42 0 0 1 2.9-5 1.92 1.92 0 0 1 3.13 1.81v.13zm4.26-5.37a2.33 2.33 0 0 0-1.13.35 6 6 0 0 0-2.65 4.23l5.09-2.94a1.69 1.69 0 0 0-.7-1.48 1.16 1.16 0 0 0-.61-.16z"/></g></g><g id="_Group_236" data-name="&lt;Group&gt;"><g id="_Group_237" data-name="&lt;Group&gt;"><g id="_Group_238" data-name="&lt;Group&gt;"><path id="_Path_218" data-name="&lt;Path&gt;" class="cls-3" d="M304.93 356.76a.22.22 0 0 1-.22-.22v-7.71a.23.23 0 1 1 .45 0v7.71a.22.22 0 0 1-.23.22z"/></g><g id="_Group_239" data-name="&lt;Group&gt;"><path id="_Path_219" data-name="&lt;Path&gt;" class="cls-3" d="M304.27 350.59h-.09a.22.22 0 0 1-.12-.3l.81-1.86.9 1a.23.23 0 0 1 0 .32.22.22 0 0 1-.32 0l-.43-.49-.52 1.2a.23.23 0 0 1-.23.13z"/></g></g><g id="_Group_240" data-name="&lt;Group&gt;"><g id="_Group_241" data-name="&lt;Group&gt;"><path id="_Path_220" data-name="&lt;Path&gt;" class="cls-3" d="M307 355.57a.23.23 0 0 1-.23-.23v-7.71a.22.22 0 0 1 .23-.22.22.22 0 0 1 .22.22v7.71a.22.22 0 0 1-.22.23z"/></g><g id="_Group_242" data-name="&lt;Group&gt;"><path id="_Path_221" data-name="&lt;Path&gt;" class="cls-3" d="M306.36 349.39a.11.11 0 0 1-.08 0 .22.22 0 0 1-.12-.29l.8-1.87.9 1a.22.22 0 0 1 0 .32.23.23 0 0 1-.32 0l-.43-.5-.52 1.21a.22.22 0 0 1-.23.13z"/></g></g></g><g id="_Group_243" data-name="&lt;Group&gt;"><path id="_Path_222" data-name="&lt;Path&gt;" class="cls-7" d="M272.24 359.73v15.15c0 .59.41.82.91.53l23.65-13.65a2 2 0 0 0 .92-1.59V345c0-.59-.41-.82-.91-.53l-23.65 13.66a2 2 0 0 0-.92 1.6z"/></g><g id="_Group_244" data-name="&lt;Group&gt;"><g id="_Group_245" data-name="&lt;Group&gt;"><path id="_Path_223" data-name="&lt;Path&gt;" class="cls-3" d="M296.25 346.66l-.76.44v13.77l.76-.44v-13.77z"/></g><g id="_Group_246" data-name="&lt;Group&gt;"><path id="_Path_224" data-name="&lt;Path&gt;" class="cls-3" d="M293.14 348.45l-1.31.78V363l1.31-.78v-13.77z"/></g><g id="_Group_247" data-name="&lt;Group&gt;"><path id="_Path_225" data-name="&lt;Path&gt;" class="cls-3" d="M290.03 350.25l-.76.44v13.77l.76-.45v-13.76z"/></g><g id="_Group_248" data-name="&lt;Group&gt;"><path id="_Path_226" data-name="&lt;Path&gt;" class="cls-3" d="M287.69 351.57l-1.53.91v13.77l1.53-.91v-13.77z"/></g><g id="_Group_249" data-name="&lt;Group&gt;"><path id="_Path_227" data-name="&lt;Path&gt;" class="cls-3" d="M283.82 353.83l-.77.44v13.77l.77-.44v-13.77z"/></g><g id="_Group_250" data-name="&lt;Group&gt;"><path id="_Path_228" data-name="&lt;Path&gt;" class="cls-3" d="M281.58 355.1l-1.64.97v13.77l1.64-.97V355.1z"/></g><g id="_Group_251" data-name="&lt;Group&gt;"><path id="_Path_229" data-name="&lt;Path&gt;" class="cls-3" d="M277.6 357.42l-.76.44v13.77l.76-.44v-13.77z"/></g><g id="_Group_252" data-name="&lt;Group&gt;"><path id="_Path_230" data-name="&lt;Path&gt;" class="cls-3" d="M275.83 358.43l-.39.22v13.77l.39-.22v-13.77z"/></g><g id="_Group_253" data-name="&lt;Group&gt;"><path id="_Path_231" data-name="&lt;Path&gt;" class="cls-3" d="M279.02 356.67l-.39.22.01 13.77.38-.22v-13.77z"/></g><g id="_Group_254" data-name="&lt;Group&gt;"><path id="_Path_232" data-name="&lt;Path&gt;" class="cls-3" d="M285.28 353l-.38.22v13.77l.38-.22V353z"/></g><g id="_Group_255" data-name="&lt;Group&gt;"><path id="_Path_233" data-name="&lt;Path&gt;" class="cls-3" d="M288.71 351.04l-.38.21v13.77l.38-.21v-13.77z"/></g><g id="_Group_256" data-name="&lt;Group&gt;"><path id="_Path_234" data-name="&lt;Path&gt;" class="cls-3" d="M291.17 349.68l-.38.21v13.78l.38-.23v-13.76z"/></g><g id="_Group_257" data-name="&lt;Group&gt;"><path id="_Path_235" data-name="&lt;Path&gt;" class="cls-3" d="M294.51 347.65l-.38.22v13.77l.38-.22v-13.77z"/></g><g id="_Group_258" data-name="&lt;Group&gt;"><path id="_Path_236" data-name="&lt;Path&gt;" class="cls-3" d="M274.49 359.21l-.76.44v13.78l.76-.45v-13.77z"/></g></g></g></g></g><g id="Character"><g id="Character-2" data-name="Character"><g id="Botom"><g id="_Group_259" data-name="&lt;Group&gt;"><g id="_Group_260" data-name="&lt;Group&gt;"><g id="_Group_261" data-name="&lt;Group&gt;"><path id="_Path_237" data-name="&lt;Path&gt;" class="cls-17" d="M132.35 335.74c.33-5.3 3.17-58.8 3.17-58.8l-26 18.34c4.54 30.58 5.54 39.79 5.73 44.89a4.33 4.33 0 0 0-.12 1.31c.14 6.06 7.39 9.23 13.08 13.19a106.82 106.82 0 0 0 15.36 9.2c4.12 1.89 12.4 1.95 13.38-.56-6.93-4.86-14.93-10.16-20.47-15.75-2.62-2.66-4.48-5.45-4.13-11.82z"/></g><path class="cls-5" d="M168.74 369.66c.35 0 .95 3.66-.92 5.25-2.16 1.83-8.55 4.88-17.09 3.95s-13.19-3.36-16.65-6-8.3-6.41-12.17-7.17c-3.59-.7-7.51-2.18-8.67-3.22s-1.1-5.71-1.1-5.71z"/><path id="_Path_238" data-name="&lt;Path&gt;" class="cls-4" d="M115.2 338.69a1.36 1.36 0 0 0-1.27 1.12c-.24 1.29-.45 5-1 7.16-.72 2.95-1.13 9-.62 11.37s6.38 4 10.13 5.26 8.29 4.11 12.22 7.08 12.54 6.11 18.09 6.11c8.47 0 13.92-2.27 15.56-5.19 2-3.61.34-5.66-9.47-9.81-1.86-.79-8.41-4.34-10.64-5.63-6-3.48-12-8.37-14.91-14.65a3.54 3.54 0 0 0-1.44-1.92 3.19 3.19 0 0 0-1.89-.13 16.65 16.65 0 0 0-4.66 1.41c-1.3.61-3.14 1.33-3.08 2.92a5.08 5.08 0 0 0 .4 1.61c.12.32.22.75-.08 1s-.65 0-.91-.23a24.28 24.28 0 0 1-2.68-3 9.53 9.53 0 0 0-1.57-1.47 17.48 17.48 0 0 1-1.69-1c-.58-.56-.45-1.26-.49-2.01z"/><path class="cls-7" d="M160.44 362.47c-12.25 1-16 8.24-16.42 12.7a30.44 30.44 0 0 0 8.75 1.62c8.47 0 14.27-2.27 15.91-5.19 1.91-3.41.52-6.11-8.24-9.13z"/><path class="cls-6" d="M142.05 362.85a.54.54 0 0 1-.38-.12.55.55 0 0 1-.1-.8 14.74 14.74 0 0 1 11-4.31.57.57 0 0 1 .55.61.58.58 0 0 1-.65.52 13.67 13.67 0 0 0-10 3.89.57.57 0 0 1-.42.21zm-5.34-2.85a.57.57 0 0 1-.48-.92 14.77 14.77 0 0 1 11-4.32.57.57 0 1 1-.11 1.14 13.63 13.63 0 0 0-10 3.89.57.57 0 0 1-.41.21zm-4.95-3.27a.64.64 0 0 1-.38-.12.54.54 0 0 1-.1-.8 14.73 14.73 0 0 1 11-4.32.58.58 0 0 1 .54.62.6.6 0 0 1-.65.52 13.6 13.6 0 0 0-10 3.89.64.64 0 0 1-.41.21zm-4.86-3.27a.68.68 0 0 1-.38-.12.56.56 0 0 1-.11-.8c2.3-2.85 7.57-4.79 12-4.39a.57.57 0 1 1-.1 1.14c-4-.36-8.94 1.41-11 3.94a.61.61 0 0 1-.41.23z"/><g id="_Group_262" data-name="&lt;Group&gt;"><path id="_Path_239" data-name="&lt;Path&gt;" class="cls-17" d="M89.51 292.7l-27.09-5.86c-.71 16.78-.28 39.47-.86 55.21-.1 3-1.64 23-.79 29.14 1.28 9.25 13.68 8.64 14.7 3.2s1.92-28.69 2.12-31.1c.58-10.08 6.33-27 10.37-45 .2-.87 1.37-4.73 1.55-5.59z"/></g><path class="cls-5" d="M79.85 378.44c-.11 5.39-.89 9-2.91 12.22s-6 4.37-10.23 3.6-9.57-3-11-7.63-1.31-7.78-.6-12.8z"/><path id="_Path_240" data-name="&lt;Path&gt;" class="cls-4" d="M61.62 340.13c-1.69.18-1.87 7.41-2.51 14.68-.7 7.78-3.18 11.08-3.82 17.47-.75 7.29-.16 10.52 2.92 14.8s13.49 8.2 18.23 1.73c3.86-5.27 3.77-11 3.06-18.19-.73-7.47-1.31-12.73-1.22-18.43.08-5.44 1-10.51-.49-11.06-.07.8-.14 1.82-.22 2.61-.07.6-.1 3.55-1.06 3.61a9.94 9.94 0 0 1-.11-2 2.2 2.2 0 0 0-.55-1.74 6.49 6.49 0 0 0-2.67-.88c-1.69-.23-3.39-.43-5.1-.51h-2.55a8.19 8.19 0 0 0-2.15.35 1.51 1.51 0 0 0-.89.78 2.3 2.3 0 0 0-.05.83 5 5 0 0 1-.14 1.49c0 .22-.21.49-.46.45a.42.42 0 0 1-.29-.43c0-.88.05-1.52.05-2.54v-1.59c0-.47.01-.97.02-1.43z"/><path class="cls-7" d="M55 376.5c-.09 4.52.34 7.59 2.76 10.94 3.08 4.28 14.3 8.19 19 1.72 2.35-3.22 2.86-6.94 3-10.72-3.15-4.73-20.19-6.24-24.76-1.94z"/><path class="cls-6" d="M75.12 370.71a.78.78 0 0 1-.21 0 27.88 27.88 0 0 0-14.75-.8.65.65 0 0 1-.78-.39.56.56 0 0 1 .45-.68 29 29 0 0 1 15.57.84.54.54 0 0 1 .34.73.66.66 0 0 1-.62.3zm-14.79-6.26a.63.63 0 0 1-.56-.35.56.56 0 0 1 .37-.73c7.52-2.56 15.22.58 15.55.72a.53.53 0 0 1 .3.74.69.69 0 0 1-.84.27c-.08 0-7.56-3.08-14.56-.69a.61.61 0 0 1-.26.04zm.2-5.11A.67.67 0 0 1 60 359a.55.55 0 0 1 .35-.73 22 22 0 0 1 15.86.66.53.53 0 0 1 .25.76.68.68 0 0 1-.86.22 20.94 20.94 0 0 0-14.78-.61.65.65 0 0 1-.29.04z"/><path d="M60.78 353.59a.63.63 0 0 1-.54-.34.53.53 0 0 1 .34-.73c7.74-2.89 15.64.66 16 .81a.52.52 0 0 1 .26.75.66.66 0 0 1-.85.24c-.08 0-7.71-3.46-14.9-.78a.74.74 0 0 1-.31.05z" fill="#ebebeb"/><path id="_Path_241" data-name="&lt;Path&gt;" class="cls-3" d="M73.8 155.3c-.64 30.51-6.1 98.3-6.1 98.3-.46 3.75-5.88 19.69-6.08 33.25-.31 21.27-.77 37.38-.77 37.38s11.89 4.71 20.61 1.45c0 0 11.36-45.22 14.54-59.33 3.79-16.8 13.26-48.06 13.26-48.06l-.69 44.43a121.64 121.64 0 0 0-.36 26.85c1.05 9 4.65 33.92 4.65 33.92s10.94 2.2 20.42-.61c0 0 5.71-53.58 6.18-61.82.54-9.4 3.44-103.93 3.44-103.93z"/><path class="cls-4" d="M109.26 218.29l4.25-28.29s10.37-.41 17.47-7.06c0 0-.88 6.64-13.85 10.64l-4.91 23.89-3.8 44.45z"/></g></g></g><g id="Top"><path class="cls-17" d="M127.77 66.32c5.51-.29 15.77-.64 23.14 8.43 5.19 6.39 19.32 21.74 27.33 31.87 5.36-5.59 18.38-19.13 20.51-23.09a61.85 61.85 0 0 0 4.86-11.65 40.66 40.66 0 0 0 1.72-7.27 39.63 39.63 0 0 0 .15-9.11c-.06-2.75 4-1.34 5.59 3a23.65 23.65 0 0 1 1.2 7.49c1.52-.73 5.92-2.89 6.61-3.21 2.4-1.11 10-3.79 10.74.5.16 1-.14 2 .28 2.89a6.91 6.91 0 0 0 .83 1.12 4.9 4.9 0 0 1 .6 5 3.88 3.88 0 0 0-.42 2.27A6.23 6.23 0 0 1 231 77a10.1 10.1 0 0 1-1 1.77 7.4 7.4 0 0 0-.66 2.53 9.62 9.62 0 0 1-.58 2.56c-.84 1.9-3.14 2.34-4.91 3-2.35.85-5.49 2-7.94 3.13-4.25 2.8-15.69 23.5-27.28 36.77-4 4.54-7.53 7.39-11.3 6.89-3.05-.07-6.82-2.84-10.45-6-11.55-10-30.1-29.57-30.1-29.57-7.72-9.4-9.89-25.47-9.01-31.76z"/><path class="cls-3" d="M132.89 64.77c3.66.57 6.18.46 10.83 3.11 4.11 2.33 5.58 4.29 10.33 9.6s16.1 19.11 16.1 19.11-4.83 11.55-19.79 15.75L133.8 96.27z"/><path class="cls-19" d="M215.34 66.42c-2.36.83-3 2.43-2.79 5.85.11 2-.38 5.81-2.53 7.38a5.2 5.2 0 0 0 2.83-1.34c1-1.1 1.29-1.23 1.89-.64a3.89 3.89 0 0 0 1.55.83 2.63 2.63 0 0 0-.14 3.15c1.12 1.72 5.88 1.61 9.71-.54 0 0-6.27 2.18-7.8.21s1.74-4.59 4.22-5.35c0 0-6.06 1.65-7.06-.32s1.47-3.58 5-4.61c0 0-5 1.08-5.94-.61-1.08-2.05.41-3.31 1.06-4.01z"/><g id="_Group_263" data-name="&lt;Group&gt;"><path id="_Path_242" data-name="&lt;Path&gt;" class="cls-9" d="M76.68 67.9s-5.86 5.16-7.36 10.74c-.74 2.74-1.42 5 .9 20.25 2.22 14.53 2.21 18.89 2.71 30.2l.58 30.36c8.69 10.18 50.87 15.71 71.17 2 0 0 .11-52.62-1.32-70-1-11.78-4.59-22.84-8.64-26.45-5.51-1-10.82-1.6-10.82-1.6l-20.3-1.18z"/></g><g id="Head"><g id="_Group_264" data-name="&lt;Group&gt;"><g id="_Group_265" data-name="&lt;Group&gt;"><path class="cls-4" d="M134.11 25.71c2.7-6.2.06-14.42-3.17-18.29-4.68-5.58-12-8-22.9-7.31C99.7.63 91.51 4.09 90 12.64c-6.7 2-5.94 13-4.27 17.85 3.38 9.85 10 18.41 10.14 23.45z"/><path class="cls-17" d="M134.11 48.87c-1.32 4.76-4.07 8.24-8.47 8.93a37.46 37.46 0 0 1-6.94 0l.17 6c5.92 5.06 3.75 11.71-.2 17.7-4.9-5.45-10.51-7.39-15.41-9.55a15.66 15.66 0 0 1-7.14-6.92l-.63-20.44s-2.69 3.06-7.13.17a9.68 9.68 0 0 1-3-11.84c2.2-4.64 6.6-2.72 8-1.32s2.93 4.06 4.06 3.69a4.09 4.09 0 0 0 2.72-2.78 24.73 24.73 0 0 0 1.44-9A12 12 0 0 0 105 21a11.08 11.08 0 0 0 3-6.87c9.5-3 20.42-1.58 24.37 1.48 2.28 4 2.36 13.31 2.73 18.67.37 5.72.11 10.62-.99 14.59z"/><path class="cls-19" d="M118.7 57.83c-4.86-.27-14.64-2.54-17.24-5.26s-3.72-8.26-3.72-8.26.39 7 2.41 10.11 7.1 4.44 10.19 5.21a77.53 77.53 0 0 0 8.45 1.28z"/><path class="cls-3" d="M118.67 81.6c-2.54-1.56-8.16-7.94-11-5s-4.29 3.78-6.13 3.23-5.87-4.55-8.54-7.49a16.92 16.92 0 0 1-3.5-7.16A48.72 48.72 0 0 0 93.26 60c1.26-2.24 1-2.87 2.61-3l.13 4.21s1 2.3 5.6 5.42 13.78 7.77 17.07 14.97zm0 0c1.52-1.38 4-7.84 4.64-7.65 1 .29 2.71 4.73 3.54 3.7 1.34-1.64.93-9.13-1.28-11.85s-5.16-5.61-6.81-5.9l.12 4a16.11 16.11 0 0 1 1.64 6.44c-.02 2.25-1.52 9.08-1.85 11.26z"/></g><g id="_Group_266" data-name="&lt;Group&gt;"><path id="_Path_243" data-name="&lt;Path&gt;" class="cls-5" d="M115.63 31.12a2 2 0 1 1-2-2.05 2 2 0 0 1 2 2.05z"/><path id="_Path_244" data-name="&lt;Path&gt;" class="cls-5" d="M112.87 24.83l-4 2.69a2.52 2.52 0 0 1 .68-3.42 2.33 2.33 0 0 1 3.32.73z"/><path id="_Path_245" data-name="&lt;Path&gt;" class="cls-5" d="M132 26.67l-4.37-2.08a2.32 2.32 0 0 1 3.15-1.2 2.55 2.55 0 0 1 1.22 3.28z"/><path id="_Path_246" data-name="&lt;Path&gt;" class="cls-5" d="M130.48 31a2 2 0 1 1-2-2 2 2 0 0 1 2 2z"/><path id="_Path_247" data-name="&lt;Path&gt;" class="cls-19" d="M120.14 26.89l1.42 14.13 7.58-2.29-9-11.84z"/></g></g><path id="_Path_248" data-name="&lt;Path&gt;" d="M115.61 44.31l8.14 1.8a4.09 4.09 0 0 1-4.88 3.3 4.36 4.36 0 0 1-3.26-5.1z" fill="#b16668"/><path class="cls-19" d="M118.87 49.41a3 3 0 0 0 .51.06 3.78 3.78 0 0 0-3.79-3.68 4.29 4.29 0 0 0 3.28 3.62z"/></g><g id="_Group_267" data-name="&lt;Group&gt;"><path id="_Path_249" data-name="&lt;Path&gt;" class="cls-5" d="M184.5 113.02l-53.16 10.39-19.61 63.87 50.63-11.22 22.14-63.04z"/><path id="_Path_250" data-name="&lt;Path&gt;" class="cls-21" d="M140.17 161.1a12.23 12.23 0 0 1-8.61 8.86c-7 1.84-14.25-.84-14.25-.84l1.64-5.34z"/><path id="_Path_251" data-name="&lt;Path&gt;" class="cls-21" d="M168.59 121.42l.56-2c.31-1.09-2.75-1.33-6.84-.55l-7.83 1.5c-4.09.78-7.66 2.3-8 3.38l-.56 2z"/><g id="_Group_268" data-name="&lt;Group&gt;"><path id="_Path_252" data-name="&lt;Path&gt;" class="cls-9" d="M172.7 114.14c.2-.68-1-.94-2.75-.59l-3.1.65s1.15-4.2-5.68-3.2-8.66 5.87-8.66 5.87l-3.32.71c-1.83.4-3.52 1.26-3.78 1.93l-.46 1.22 27.38-5.35.37-1.24z"/><path id="_Path_253" data-name="&lt;Path&gt;" class="cls-15" d="M172.7 114.14c.2-.68-1-.94-2.75-.59l-3.1.65s1.15-4.2-5.68-3.2-8.66 5.87-8.66 5.87l-3.32.71c-1.83.4-3.52 1.26-3.78 1.93l-.46 1.22 27.38-5.35.37-1.24z"/><path class="cls-9" d="M146.83 124c.25-.9 2.77-2.09 6-2.92l.08-.32c.25-.94-.12-1.54-2.05-1.17l-.11-.77 19-3.55-.84.78c-2.5.44-3.55.7-4 2.37 0 .14-.06.25-.1.38 3-.34 5 0 4.74.87l-.56 2-22.72 4.33z"/><path class="cls-22" d="M146.83 124c.25-.9 2.77-2.09 6-2.92l.08-.32c.25-.94-.12-1.54-2.05-1.17l-.11-.77 19-3.55-.84.78c-2.5.44-3.55.7-4 2.37 0 .14-.06.25-.1.38 3-.34 5 0 4.74.87l-.56 2-22.72 4.33z"/></g></g><path class="cls-17" d="M123.13 150.15c6.51 2.18 13 2.34 19.77 2.33 1.65 0 2.9.25 3.39 1.82.17.56.4 1.34-1.74 2a2.84 2.84 0 0 0-1.65.86c-.5.77-.25 1.55-.38 2.46a7 7 0 0 1-2 3.45 16.17 16.17 0 0 1-3.34 3.12c-4.12 2.59-10.47 2.91-15.16 2.15a51 51 0 0 1-9.36-2.76c-2.86-1.06-20.29-6.2-22.36-6.92-15.39-5.37-36.56-11.95-37.8-19.25s2.67-30 5.47-48.54c2.26-15 8.33-20.29 18.16-22.35 10.78 12.24 4 33.45 4 33.45l-3.97 28.23c1.65 1.38 26.83 15.51 31.18 16.92 1.58.51 4.54-.11 6.1-.64 4.21-1.44 7.09-1.32 11.17-1.14"/><path class="cls-3" d="M76.68 67.9C66.24 69.34 60.06 74.68 58 84.8c-1.77 8.5-5.07 36-5.07 36 6.95 6.12 18.34 5.79 24.5 3.65l3.19-22.05c2.51-5.69 6.53-22.52-3.94-34.5zM70 157.08L64.71 160a2.59 2.59 0 0 0-1.2 2c-.13 4.73-.51 20.95.24 29.84a2.78 2.78 0 0 0 1.28 2c3 1.69 11.14 6.15 14.87 7.18a4.68 4.68 0 0 0 2.53-.27l3.76-1.51a2.13 2.13 0 0 0 1.23-1.82c0-9.44 1.66-19.81 3.23-30.1a1.9 1.9 0 0 0-1-1.88L72.34 157a2.86 2.86 0 0 0-2.34.08z"/><path class="cls-4" d="M63.75 191.8c-.75-8.89-.38-25.11-.24-29.84a.79.79 0 0 1 1.23-.74l16.11 8a2.1 2.1 0 0 1 1.08 1.91 252.93 252.93 0 0 0-.8 28.71A1 1 0 0 1 79.9 201c-3.73-1-11.86-5.49-14.87-7.18a2.78 2.78 0 0 1-1.28-2.02z"/><path class="cls-5" d="M80.1 201a4.82 4.82 0 0 0 2.33-.32l3.77-1.51a2.18 2.18 0 0 0 1.21-1.82c.74-9.69 1.67-19.81 3.24-30.09a1.6 1.6 0 0 0-.19-1l-8.73 4a1.75 1.75 0 0 1 .19.94 251.68 251.68 0 0 0-.78 28.71A1 1 0 0 1 80.1 201zm-13.46-35.69L78.47 171l-.63 9.64-11.53-5.08s.08-6.17.33-10.25z"/><path class="cls-9" d="M77.89 179.93L67 175.12s.07-5.47.29-9.51L78.47 171z"/><path class="cls-22" d="M77.89 179.93L67 175.12s.07-5.47.29-9.51L78.47 171z"/><path class="cls-5" d="M83.44 164.7l-2.94 1.41-10.6-5.19 2.85-1.44 10.69 5.22z"/><path class="cls-9" d="M83 164.91l-2.5 1.2-10.16-4.98 2.43-1.21L83 164.91z"/><path class="cls-22" d="M83 164.91l-2.5 1.2-10.16-4.98 2.43-1.21L83 164.91z"/><path class="cls-22" d="M81.49 164.17l-2.52 1.19-.33-.16 2.52-1.19.33.16zm-2.27-1.11l-2.49 1.2-.36-.18 2.52-1.18.33.16zm-2.24-1.09l-2.51 1.19-.33-.16 2.51-1.19.33.16zm-2.05-1l-2.51 1.18-.33-.16 2.5-1.18.34.16z"/><path class="cls-5" d="M78.36 184l-.09 1.19a.45.45 0 0 1-.66.41l-2.14-.88a1 1 0 0 1-.57-.92l.07-1.21a.44.44 0 0 1 .65-.41l2.17.9a1 1 0 0 1 .57.92zm.01 3.83l-.06 1.17a.45.45 0 0 1-.65.42l-2.16-.85a1 1 0 0 1-.58-.9v-1.22a.44.44 0 0 1 .64-.42l2.18.87a1 1 0 0 1 .63.93zm.02 3.87v1.19a.45.45 0 0 1-.65.43l-2.16-.81a1 1 0 0 1-.61-.9v-1.21a.44.44 0 0 1 .64-.43l2.19.83a1 1 0 0 1 .59.9zm.02 3.87v1.19a.45.45 0 0 1-.64.44l-2.18-.78a1 1 0 0 1-.62-.88v-1.22a.44.44 0 0 1 .63-.44l2.21.8a1 1 0 0 1 .6.89zm-4.85-13.8L73.5 183a.44.44 0 0 1-.65.41l-2.12-.88a1 1 0 0 1-.59-.92v-1.26a.43.43 0 0 1 .64-.41l2.16.9a1 1 0 0 1 .62.93zm-.01 3.85l-.06 1.24a.44.44 0 0 1-.65.41l-2.12-.87a1 1 0 0 1-.6-.92v-1.26a.43.43 0 0 1 .64-.41l2.16.89a1 1 0 0 1 .63.92zm-.02 3.84v1.24a.44.44 0 0 1-.64.42l-2.14-.86a1 1 0 0 1-.59-.91v-1.27a.43.43 0 0 1 .63-.42l2.16.89a1 1 0 0 1 .58.91zm-.02 3.85v1.24a.44.44 0 0 1-.64.41l-2.14-.85a1 1 0 0 1-.6-.9v-1.27a.44.44 0 0 1 .64-.42l2.16.88a1 1 0 0 1 .58.91zm-4.74-13.72v1.29a.43.43 0 0 1-.64.41L66 180.4a1 1 0 0 1-.59-.91v-1.32a.42.42 0 0 1 .62-.41l2.14.91a1 1 0 0 1 .6.92zm.02 3.74l-.05 1.29a.42.42 0 0 1-.63.4l-2.11-.88a1 1 0 0 1-.6-.92v-1.32a.42.42 0 0 1 .63-.4l2.14.91a1 1 0 0 1 .62.92zm.01 3.74v1.29a.43.43 0 0 1-.64.4l-2.16-.88a1.06 1.06 0 0 1-.6-.92v-1.32a.42.42 0 0 1 .63-.4l2.14.91a1 1 0 0 1 .63.92zm.01 3.74v1.29a.42.42 0 0 1-.63.4l-2.18-.88a1 1 0 0 1-.59-.92v-1.32a.42.42 0 0 1 .62-.4l2.14.91a1 1 0 0 1 .64.92z"/></g></g></g></g></svg>