<svg xmlns="http://www.w3.org/2000/svg" viewBox="0 0 453.23 512"><defs><style>.cls-1{fill:#00a651}</style></defs><g id="Layer_2" data-name="Layer 2"><g id="Capa_1" data-name="Capa 1"><path class="cls-1" d="M452.14 310.85l-35.84-70.39a10 10 0 0 0-8.92-5.47H45.84a10 10 0 0 0-8.91 5.47L1.09 310.85A10 10 0 0 0 10 325.39h12.49V502a10 10 0 0 0 10 10H420.7a10 10 0 0 0 10-10V325.39h12.52a10 10 0 0 0 8.92-14.54zM401.25 255l25.65 50.38H268.58L242.93 255zM52 255h158.29l-25.65 50.38H26.33zm358.69 237H236.62v-55.46a10 10 0 1 0-20 0V492H42.5V325.39h148.28a10 10 0 0 0 8.91-5.46l16.92-33.23v60a10 10 0 0 0 20 0v-60l16.91 33.23a10 10 0 0 0 8.92 5.46h148.25z"/><path class="cls-1" d="M141.06 437.2h-57a10 10 0 1 0 0 20h57a10 10 0 0 0 0-20zm85.55-231.63a102.79 102.79 0 1 0-102.69-102.8 102.86 102.86 0 0 0 102.69 102.8zm0-185.56a82.78 82.78 0 1 1-82.69 82.76A82.81 82.81 0 0 1 226.61 20z"/><path class="cls-1" d="M181.76 117.78l26.63 22.57a10 10 0 0 0 6.47 2.37h.85a10 10 0 0 0 6.82-3.55l50.12-59.9A10 10 0 0 0 257.3 66.4l-43.65 52.18-19-16.07a10 10 0 0 0-12.94 15.27zm-151.7-5h43.29a10 10 0 1 0 0-20H30.06a10 10 0 0 0 0 20zM25.4 43.16L68.68 66A10 10 0 0 0 78 48.29L34.73 25.46a10 10 0 1 0-9.33 17.7zm-4.19 132.73a10 10 0 0 0 13.52 4.19L78 157.28a10 10 0 0 0-9.32-17.7l-43.28 22.8a10 10 0 0 0-4.19 13.51zm358.64-63.11h43.29a10 10 0 0 0 0-20h-43.29a10 10 0 1 0 0 20zm.01-45.63a10 10 0 0 0 4.66-1.15l43.28-22.84a10 10 0 1 0-9.33-17.7l-43.29 22.83a10 10 0 0 0 4.68 18.86zm-4.67 90.13l43.28 22.8a10 10 0 1 0 9.33-17.7l-43.29-22.8a10 10 0 1 0-9.32 17.7zM226.61 381.61a10 10 0 0 0-10 10v.06a10 10 0 1 0 10-10.07z"/></g></g></svg>