<svg xmlns="http://www.w3.org/2000/svg" viewBox="0 0 512 446"><defs><style>.cls-1{fill:#00a651;}</style></defs><title>customer-satisfaction</title><g id="Layer_2" data-name="Layer 2"><g id="Capa_1" data-name="Capa 1"><path class="cls-1" d="M256,174a87,87,0,1,0-87-87A87.1,87.1,0,0,0,256,174Zm0-144a57,57,0,1,1-57,57A57.06,57.06,0,0,1,256,30Z"/><path class="cls-1" d="M432,174a55,55,0,1,0-55-55A55.06,55.06,0,0,0,432,174Zm0-80a25,25,0,1,1-25,25A25,25,0,0,1,432,94Z"/><path class="cls-1" d="M444.1,208H420.9a68,68,0,0,0-61.69,39.35A120.73,120.73,0,0,0,270,208H242a120.73,120.73,0,0,0-89.23,39.35A68,68,0,0,0,91.1,208H67.9C30.46,208,0,238.28,0,275.49V384.7A29.38,29.38,0,0,0,29.41,414h91.73A35.06,35.06,0,0,0,156,446H356a35.06,35.06,0,0,0,34.88-32h90.68A30.43,30.43,0,0,0,512,383.66V275.49c0-37.21-30.46-67.49-67.9-67.49ZM30,275.49A37.74,37.74,0,0,1,67.9,238H91.1A37.74,37.74,0,0,1,129,275.49v10.27c-10.09,26.26-8,42-8,98.24H30ZM361,411a5,5,0,0,1-5,5H156a5,5,0,0,1-5-5V329a91.12,91.12,0,0,1,91-91h28a91.12,91.12,0,0,1,91,91Zm121-27.32c0,.52,5.59.34-91,.34,0-56.65,2.07-72-8-98.24V275.49A37.74,37.74,0,0,1,420.9,238h23.2A37.74,37.74,0,0,1,482,275.49Z"/><path class="cls-1" d="M80,174a55,55,0,1,0-55-55A55.06,55.06,0,0,0,80,174Zm0-80a25,25,0,1,1-25,25A25,25,0,0,1,80,94Z"/></g></g></svg>