<svg xmlns="http://www.w3.org/2000/svg" viewBox="0 0 414 414"><defs><style>.cls-1{fill:#f0c48a;}.cls-2{fill:#d3e6f8;}.cls-3{fill:#0f752a;}.cls-4{fill:#2a9342;}.cls-5{fill:#a4cff2;}.cls-6{fill:#ec7123;}.cls-7{fill:#fff;}</style></defs><title>deliveries</title><g id="Layer_2" data-name="Layer 2"><g id="Icon_Set" data-name="Icon Set"><g id="Fast_Delivery" data-name="Fast Delivery"><circle class="cls-1" cx="207" cy="207" r="207"/><path class="cls-2" d="M83.39,232.54H280.74a0,0,0,0,1,0,0v53.7a0,0,0,0,1,0,0H96.35a13,13,0,0,1-13-13V232.54A0,0,0,0,1,83.39,232.54Z"/><path class="cls-3" d="M97.91,95.52H266.22A14.52,14.52,0,0,1,280.74,110v122.5a0,0,0,0,1,0,0H83.39a0,0,0,0,1,0,0V110A14.52,14.52,0,0,1,97.91,95.52Z"/><path class="cls-4" d="M266.22,95.52h-14.4v137h28.92V110A14.52,14.52,0,0,0,266.22,95.52Z"/><rect class="cls-5" x="251.82" y="232.54" width="28.92" height="53.7"/><path class="cls-6" d="M280.74,292.23H96.35a19,19,0,0,1-19-19V232.54a6,6,0,0,1,6-6H280.74a6,6,0,0,1,6,6v53.69A6,6,0,0,1,280.74,292.23ZM89.39,238.54v34.73a7,7,0,0,0,7,7H274.74V238.54Z"/><path class="cls-6" d="M280.74,238.54H83.39a6,6,0,0,1-6-6V110A20.54,20.54,0,0,1,97.91,89.52H266.22A20.53,20.53,0,0,1,286.74,110V232.54A6,6,0,0,1,280.74,238.54Zm-191.35-12H274.74V110a8.52,8.52,0,0,0-8.52-8.51H97.91A8.52,8.52,0,0,0,89.39,110Z"/><rect class="cls-2" x="64.12" y="259.89" width="323.45" height="26.35" rx="5.9" ry="5.9"/><path class="cls-2" d="M375.68,259.89H280.74V137.79h51a18.93,18.93,0,0,1,15.86,8.6l25,38.4a19.09,19.09,0,0,1,3.09,10.43Z"/><path class="cls-7" d="M353.29,155.14h-53.8v40.08h76.19a19.09,19.09,0,0,0-3.09-10.43Z"/><path class="cls-7" d="M360.76,216.86h14.93a0,0,0,0,1,0,0v29.27a0,0,0,0,1,0,0H360.76a4.5,4.5,0,0,1-4.5-4.5V221.36A4.5,4.5,0,0,1,360.76,216.86Z"/><path class="cls-6" d="M375.68,265.89H280.74a6,6,0,0,1-6-6V137.79a6,6,0,0,1,6-6h51a24.86,24.86,0,0,1,20.89,11.33l25,38.39a25.08,25.08,0,0,1,4.06,13.71v64.67A6,6,0,0,1,375.68,265.89Zm-88.94-12h82.94V195.22a13.07,13.07,0,0,0-2.12-7.16l-25-38.39a12.87,12.87,0,0,0-10.83-5.88h-45Z"/><path class="cls-6" d="M381.67,292.23H70a11.91,11.91,0,0,1-11.9-11.89V265.79A11.91,11.91,0,0,1,70,253.89H381.67a11.91,11.91,0,0,1,11.9,11.9v14.55A11.91,11.91,0,0,1,381.67,292.23Zm0-12v0Zm-311.55,0H381.57V265.89H70.12Z"/><path class="cls-6" d="M375.68,252.13H360.76a10.51,10.51,0,0,1-10.5-10.5V221.36a10.51,10.51,0,0,1,10.5-10.5h14.92a6,6,0,0,1,6,6v29.27A6,6,0,0,1,375.68,252.13Zm-13.42-12h7.42V222.86h-7.42Z"/><path class="cls-6" d="M299.49,265.89a6,6,0,0,1-6-6V155.14a6,6,0,0,1,6-6h53.8a6,6,0,0,1,0,12h-47.8v98.75A6,6,0,0,1,299.49,265.89Z"/><path class="cls-6" d="M375.68,201.22H349.34a6,6,0,0,1,0-12h26.34a6,6,0,0,1,0,12Z"/><path class="cls-6" d="M329.92,201.22H299.49a6,6,0,0,1,0-12h30.43a6,6,0,0,1,0,12Z"/><circle class="cls-4" cx="328.91" cy="286.23" r="32.25" transform="translate(-83.23 143.92) rotate(-21.98)"/><path class="cls-6" d="M328.91,324.48a38.25,38.25,0,1,1,38.25-38.25A38.29,38.29,0,0,1,328.91,324.48Zm0-64.49a26.25,26.25,0,1,0,26.25,26.24A26.27,26.27,0,0,0,328.91,260Z"/><circle class="cls-7" cx="328.91" cy="286.23" r="13.17" transform="matrix(0.16, -0.99, 0.99, 0.16, -6.5, 564.82)"/><path class="cls-6" d="M328.91,305.41a19.18,19.18,0,1,1,19.17-19.18A19.19,19.19,0,0,1,328.91,305.41Zm0-26.35a7.18,7.18,0,1,0,7.17,7.17A7.18,7.18,0,0,0,328.91,279.06Z"/><rect class="cls-2" x="329.92" y="175.04" width="19.42" height="34.85" rx="4.5" ry="4.5"/><path class="cls-6" d="M344.84,215.89H334.42a10.51,10.51,0,0,1-10.5-10.5V179.54a10.51,10.51,0,0,1,10.5-10.5h10.42a10.51,10.51,0,0,1,10.5,10.5v25.85A10.51,10.51,0,0,1,344.84,215.89Zm-8.92-12h7.42V181h-7.42Z"/><circle class="cls-4" cx="154.37" cy="286.23" r="32.25" transform="translate(-30.73 18.84) rotate(-6.35)"/><path class="cls-6" d="M154.37,324.48a38.25,38.25,0,1,1,38.24-38.25A38.29,38.29,0,0,1,154.37,324.48Zm0-64.49a26.25,26.25,0,1,0,26.24,26.24A26.27,26.27,0,0,0,154.37,260Z"/><circle class="cls-7" cx="154.37" cy="286.23" r="13.17" transform="translate(-152.97 392.55) rotate(-80.74)"/><path class="cls-6" d="M154.37,305.41a19.18,19.18,0,1,1,19.17-19.18A19.2,19.2,0,0,1,154.37,305.41Zm0-26.35a7.18,7.18,0,1,0,7.17,7.17A7.18,7.18,0,0,0,154.37,279.06Z"/><path class="cls-6" d="M123.86,134.46H40.08a6,6,0,1,1,0-12h83.78a6,6,0,0,1,0,12Z"/><path class="cls-6" d="M147.67,187.82H40.08a6,6,0,1,1,0-12H147.67a6,6,0,1,1,0,12Z"/><path class="cls-6" d="M115.53,215.89H64.12a6,6,0,0,1,0-12h51.41a6,6,0,0,1,0,12Z"/><path class="cls-6" d="M45.94,215.89H26.66a6,6,0,1,1,0-12H45.94a6,6,0,0,1,0,12Z"/><path class="cls-6" d="M40.51,161.14H26.43a6,6,0,0,1,0-12H40.51a6,6,0,0,1,0,12Z"/><path class="cls-6" d="M101.25,161.14H59.88a6,6,0,1,1,0-12h41.37a6,6,0,0,1,0,12Z"/><path class="cls-6" d="M83.39,247.54H30.44a6,6,0,0,1,0-12h53a6,6,0,1,1,0,12Z"/><path class="cls-6" d="M137.93,161.14H123.86a6,6,0,0,1,0-12h14.07a6,6,0,0,1,0,12Z"/></g></g></g></svg>