<svg xmlns="http://www.w3.org/2000/svg" viewBox="0 0 414 414"><defs><style>.cls-1{fill:#f0c48a;}.cls-2{fill:#ec7123;}.cls-3{fill:#d3e6f8;}.cls-4{fill:#a4cff2;}.cls-5{fill:#0f752a;}</style></defs><title>farmer-engagement</title><g id="Layer_2" data-name="Layer 2"><g id="Icon_Set" data-name="Icon Set"><circle class="cls-1" cx="207" cy="207" r="207"/><path class="cls-2" d="M206.67,187a6,6,0,0,1-6-6V104a6,6,0,1,1,12,0v77A6,6,0,0,1,206.67,187Z"/><circle class="cls-3" cx="207" cy="290.29" r="108.77"/><path class="cls-4" d="M207,181.52a109.14,109.14,0,0,0-15.11,1,108.78,108.78,0,0,1,0,215.44A110.71,110.71,0,0,0,207,399.06a108.77,108.77,0,0,0,0-217.54Z"/><path class="cls-2" d="M207,405.06A114.77,114.77,0,1,1,321.77,290.29,114.91,114.91,0,0,1,207,405.06Zm0-217.54A102.77,102.77,0,1,0,309.77,290.29,102.88,102.88,0,0,0,207,187.52Z"/><path class="cls-2" d="M207.82,228.39a6.23,6.23,0,0,1,6.27,6.28v3.21a53.07,53.07,0,0,1,22.61,8,7.81,7.81,0,0,1,4.38,7,8,8,0,0,1-8.17,8,8.5,8.5,0,0,1-4.38-1.31,53.08,53.08,0,0,0-15-6.42v28c22.17,5.54,31.65,14.44,31.65,30,0,16.05-12.54,26.69-31.07,28.45v8.75a6.22,6.22,0,0,1-6.27,6.27,6.35,6.35,0,0,1-6.42-6.27v-9.05A63,63,0,0,1,171.5,328a8,8,0,0,1-3.94-7,8,8,0,0,1,12.84-6.42c6.85,5,13.56,8.31,21.59,9.77V295.64c-21.3-5.55-31.22-13.57-31.22-30.05,0-15.61,12.4-26.4,30.63-27.86v-3.06A6.36,6.36,0,0,1,207.82,228.39ZM202,278.13V252.32c-9.34.87-14,5.83-14,12.25C188,270.69,190.75,274.49,202,278.13Zm11.52,20.28V325c9.33-1,14.44-5.69,14.44-12.69C228,305.85,224.74,301.91,213.51,298.41Z"/><path class="cls-5" d="M320.36,22.63a6.68,6.68,0,0,0-4.7-4.7,86.33,86.33,0,0,0-22.51-3A85.38,85.38,0,0,0,232.39,40.1a86.25,86.25,0,0,0-22.17,83.27,6.68,6.68,0,0,0,4.7,4.7,86.32,86.32,0,0,0,22.51,3,85.3,85.3,0,0,0,60.75-25.16A86.21,86.21,0,0,0,320.36,22.63Z"/><path class="cls-5" d="M93.59,23.65a6.52,6.52,0,0,1,4.6-4.6,84.59,84.59,0,0,1,22.06-2.93,84.18,84.18,0,0,1,81.24,106.23,6.55,6.55,0,0,1-4.6,4.6,84.64,84.64,0,0,1-22.06,2.92,83.6,83.6,0,0,1-59.52-24.65A84.47,84.47,0,0,1,93.59,23.65Z"/><path class="cls-2" d="M235.93,133.15A90.05,90.05,0,0,1,212.48,130a6,6,0,0,1-4.23-4.23,89.84,89.84,0,0,1,23.1-86.75A89.65,89.65,0,0,1,318.1,16a6,6,0,0,1,4.23,4.22,89.85,89.85,0,0,1-23.1,86.76A88.93,88.93,0,0,1,235.93,133.15ZM219,119.29a78.27,78.27,0,0,0,16.93,1.86,77,77,0,0,0,54.81-22.7,77.8,77.8,0,0,0,20.84-71.74A77.51,77.51,0,0,0,219,119.29Z"/><path class="cls-2" d="M176.9,133.38h0a89,89,0,0,1-63.29-26.33A90,90,0,0,1,90.5,20.24,6,6,0,0,1,94.73,16a90.06,90.06,0,0,1,23.45-3.12,88.92,88.92,0,0,1,63.3,26.2,89.85,89.85,0,0,1,23.1,86.76,6.17,6.17,0,0,1-4.23,4.34A90.16,90.16,0,0,1,176.9,133.38ZM101.25,26.71a78.06,78.06,0,0,0,20.83,71.86,77.14,77.14,0,0,0,54.81,22.81h0a78.38,78.38,0,0,0,16.93-2A77.93,77.93,0,0,0,173,47.6a77.84,77.84,0,0,0-71.74-20.89Z"/></g></g></svg>