<?xml version="1.0" encoding="UTF-8"?>
<svg width="166px" height="122px" viewBox="0 0 166 122" version="1.1" xmlns="http://www.w3.org/2000/svg" xmlns:xlink="http://www.w3.org/1999/xlink">
    <!-- Generator: Sketch 57.1 (83088) - https://sketch.com -->
    <title>Group Copy</title>
    <desc>Created with Sketch.</desc>
    <g id="V2" stroke="none" stroke-width="1" fill="none" fill-rule="evenodd">
        <g id="INTI-HOME-V1" transform="translate(-648.000000, -22.000000)">
            <g id="Group-Copy" transform="translate(648.000000, 22.000000)">
                <g id="Group-11">
                    <polygon id="Fill-2" fill="#000000" points="0.157142857 96.5 2.15714286 96.5 2.15714286 27.5 0.157142857 27.5"/>
                    <polygon id="Fill-3" fill="#000000" points="78.9434828 96.5 76.9167642 96.5 33.8243109 32.1507541 33.3977869 32.1507541 33.2902933 74.9782197 33.2902933 96.5 31.1571429 96.5 31.1571429 75.9513204 31.2646364 27.6084512 33.2902933 27.6084512 76.3835429 91.957428 76.8103323 91.957428 77.0239924 27.7163642 79.1571429 27.5 79.0507109 77.4656008"/>
                    <path d="M121.235631,40.9339244 L121.235631,30.3812285 L136.972514,30.3812285 C134.039455,36.383053 128.124767,40.5917359 121.235631,40.9339244 L121.235631,40.9339244 Z M103.679966,30.3812285 L119.181161,30.3812285 L119.181161,40.9179049 C112.393253,40.4924671 106.579282,36.3145102 103.679966,30.3812285 L103.679966,30.3812285 Z M101.709085,21.8317669 C101.709085,11.2851111 110.060661,2.70492336 120.325856,2.70492336 C130.591564,2.70492336 138.94365,11.2851111 138.94365,21.8317669 C138.94365,24.0902639 138.55791,26.2573705 137.855192,28.2705843 L102.797543,28.2705843 C102.09457,26.2573705 101.709085,24.0902639 101.709085,21.8317669 L101.709085,21.8317669 Z M143.157143,28.2705843 L140.121066,28.2705843 C140.749141,26.2379369 141.090146,24.0752948 141.090146,21.8317669 C141.090146,10.0694619 131.775115,0.5 120.325856,0.5 C108.87711,0.5 99.5625888,10.0694619 99.5625888,21.8317669 C99.5625888,24.0752948 99.9035946,26.2379369 100.531413,28.2705843 L97.1571429,28.2705843 L97.1571429,30.3812285 L101.309029,30.3812285 C104.378082,37.557734 111.18235,42.6797952 119.181161,43.1288684 L119.181161,95.5 L121.235631,95.5 L121.235631,43.1391104 C129.336181,42.7782761 136.244489,37.6278525 139.34345,30.3812285 L143.157143,30.3812285 L143.157143,28.2705843 Z" id="Fill-4" fill="#000000"/>
                    <polygon id="Fill-6" fill="#000000" points="163.157143 95.5 165.157143 95.5 165.157143 28.5 163.157143 28.5"/>
                    <path d="M7.84267899,117.933698 L10.1048137,112.11796 C10.1248651,112.070545 10.1424711,112.024703 10.1571429,111.981218 C10.1720591,112.024965 10.1891761,112.070283 10.2087384,112.116126 L12.4716067,117.933698 L7.84267899,117.933698 Z M13.8575952,121.5 L14.1571429,121.5 L10.2635128,111.5 L10.0510174,111.5 L6.15714286,121.5 L6.45815765,121.5 L7.73997694,118.203777 L12.5743088,118.203777 L13.8553945,121.496333 C13.855639,121.497904 13.8571062,121.498428 13.8575952,121.5 L13.8575952,121.5 Z" id="Fill-8" fill="#E7E8E3"/>
                    <path d="M23.9866734,119.214218 L18.2619888,111.783257 C18.1459069,111.605728 17.9462791,111.5 17.7290047,111.5 L17.1571429,111.5 L17.1571429,121.5 L18.3276123,121.5 L18.3276123,113.747383 L24.1022039,121.245937 C24.2215945,121.407422 24.4027484,121.5 24.6393239,121.5 L25.1571429,121.5 L25.1571429,111.5 L23.9866734,111.5 L23.9866734,119.214218 Z" id="Fill-9" fill="#E7E8E3"/>
                    <polygon id="Fill-10" fill="#E7E8E3" points="27.1571429 121.5 28.1571429 121.5 28.1571429 111.5 27.1571429 111.5"/>
                    <path d="M39.8822187,111.5 L38.5582628,111.5 C38.4316004,111.5 38.3164042,111.525249 38.2166742,111.574694 C38.1508097,111.607043 38.0838786,111.651754 37.9766822,111.74065 L33.7133576,115.777524 C33.6890918,115.80172 33.6661592,115.822234 33.6029613,115.846694 C33.5544296,115.850113 33.4962982,115.851691 33.4280338,115.851691 L33.3155042,115.851691 L33.3155042,111.5 L32.1571429,111.5 L32.1571429,121.5 L33.3155042,121.5 L33.3155042,116.96815 L33.4280338,116.96815 C33.4989648,116.96815 33.5565629,116.970254 33.5997614,116.977355 C33.6272272,116.981826 33.6424267,116.986297 33.6450933,116.986297 L38.2422734,121.264347 C38.3198708,121.341145 38.3982682,121.397165 38.4814654,121.435038 C38.5787955,121.479486 38.6899918,121.5 38.832387,121.5 L40.1571429,121.5 L34.691725,116.408737 L39.8822187,111.5 Z" id="Fill-11" fill="#E7E8E3"/>
                    <path d="M48.8822187,111.5 L47.5582628,111.5 C47.4316004,111.5 47.3164042,111.525249 47.2166742,111.574694 C47.1508097,111.607043 47.0838786,111.651754 46.9766822,111.74065 L42.7133576,115.777524 C42.6890918,115.80172 42.6661592,115.822234 42.6029613,115.846694 C42.5544296,115.850113 42.4962982,115.851691 42.4280338,115.851691 L42.3155042,115.851691 L42.3155042,111.5 L41.1571429,111.5 L41.1571429,121.5 L42.3155042,121.5 L42.3155042,116.96815 L42.4280338,116.96815 C42.4989648,116.96815 42.5565629,116.970254 42.5997614,116.977355 C42.6272272,116.981826 42.6424267,116.986297 42.6450933,116.986297 L47.2422734,121.264347 C47.3198708,121.341145 47.3982682,121.397165 47.4814654,121.435038 C47.5787955,121.479486 47.6899918,121.5 47.832387,121.5 L49.1571429,121.5 L43.691725,116.408737 L48.8822187,111.5 Z" id="Fill-12" fill="#E7E8E3"/>
                    <polygon id="Fill-13" fill="#E7E8E3" points="53.2428024 116.993925 57.3667087 116.993925 57.3667087 115.864578 53.2428024 115.864578 53.2428024 112.629346 58.1008975 112.629346 58.1008975 111.5 52.1571429 111.5 52.1571429 121.5 58.0604009 121.5 58.1571429 120.370654 53.2428024 120.370654"/>
                    <polygon id="Fill-14" fill="#E7E8E3" points="60.1571429 121.5 61.1571429 121.5 61.1571429 111.5 60.1571429 111.5"/>
                    <polygon id="Fill-15" fill="#E7E8E3" points="66.4567039 116.562949 71.2784128 116.562949 71.2784128 116.282039 66.4567039 116.282039 66.4567039 111.781173 72.1366578 111.781173 72.1366578 111.5 66.1571429 111.5 66.1571429 121.5 72.1310709 121.5 72.1571429 121.218827 66.4567039 121.218827"/>
                    <path d="M81.9859516,111.5 L81.7028481,111.5 C81.6571262,111.5 81.6153917,111.517311 81.5824294,111.550098 C81.5577077,111.57423 81.5364417,111.600721 81.5220872,111.62459 L78.1740227,116.157836 C78.1684404,116.16623 78.1636556,116.174361 78.1594024,116.181443 L74.7858187,111.617246 C74.777844,111.609377 74.7650844,111.594689 74.7478058,111.567672 C74.7276031,111.536721 74.6877293,111.5 74.6119692,111.5 L74.3283341,111.5 L77.9706667,116.380262 L74.1571429,121.5 L74.4402464,121.5 C74.4888923,121.5 74.5298293,121.48059 74.5582726,121.444393 C74.5736905,121.424984 74.592564,121.404525 74.6207415,121.37541 L78.1500985,116.595607 C78.1567441,116.586951 78.1631239,116.57882 78.1689721,116.571213 L81.7001899,121.382754 C81.7078988,121.390361 81.7206584,121.405049 81.7382028,121.432328 C81.7584055,121.463279 81.7982793,121.5 81.8743052,121.5 L82.1571429,121.5 L78.3579736,116.366098 L81.9859516,111.5 Z" id="Fill-16" fill="#E7E8E3"/>
                    <path d="M90.8461361,114.384121 C90.8461361,114.748964 90.7682463,115.093611 90.6141239,115.408619 C90.4602778,115.724151 90.2393138,116.002964 89.9586896,116.23745 C89.6766844,116.473771 89.3300472,116.661832 88.9289976,116.796648 C88.5273956,116.932513 88.0705526,117.001233 87.5706217,117.001233 L85.4681496,117.001233 L85.4681496,111.767009 L87.5706217,111.767009 C88.6630122,111.767009 89.491627,111.991004 90.0338173,112.432435 C90.5726932,112.871505 90.8461361,113.528275 90.8461361,114.384121 M90.2227415,112.212112 C89.6068045,111.739731 88.7141101,111.5 87.5706217,111.5 L85.1571429,111.5 L85.1571429,121.5 L85.4681496,121.5 L85.4681496,117.268242 L87.5706217,117.268242 C88.0954111,117.268242 88.5820842,117.195851 89.0176594,117.053166 C89.4548918,116.909956 89.836607,116.709306 90.1531379,116.45646 C90.471326,116.202303 90.7204628,115.894901 90.8947482,115.54291 C91.0690335,115.190133 91.1571429,114.800372 91.1571429,114.384121 C91.1571429,113.4189 90.8425454,112.688166 90.2227415,112.212112" id="Fill-17" fill="#E7E8E3"/>
                    <polygon id="Fill-18" fill="#E7E8E3" points="95.4562116 116.562949 100.278562 116.562949 100.278562 116.282039 95.4562116 116.282039 95.4562116 111.781173 101.137187 111.781173 101.137187 111.5 95.1571429 111.5 95.1571429 121.5 101.131866 121.5 101.157143 121.218827 95.4562116 121.218827"/>
                    <path d="M109.933475,115.812018 C109.649163,116.020013 109.300057,116.182631 108.896211,116.294891 C108.491806,116.407937 108.029869,116.465378 107.522128,116.465378 L105.471618,116.465378 L105.471618,111.767009 L107.657582,111.767009 C108.679206,111.767009 109.472097,111.95166 110.014468,112.315979 C110.54902,112.675576 110.819926,113.252872 110.819926,114.031606 C110.819926,114.41035 110.742564,114.753685 110.590075,115.051645 C110.437585,115.349342 110.21667,115.605073 109.933475,115.812018 M107.872631,116.724519 C108.300775,116.701962 108.700711,116.634816 109.063782,116.524655 C109.488295,116.395872 109.858068,116.214106 110.163048,115.984866 C110.469144,115.754839 110.710446,115.471043 110.879972,115.141347 C111.04894,114.811651 111.134401,114.438152 111.134401,114.031606 C111.134401,113.167891 110.828305,112.521875 110.223932,112.111394 C109.62682,111.705634 108.763271,111.5 107.657582,111.5 L105.157143,111.5 L105.157143,121.5 L105.471618,121.5 L105.471618,116.732125 L107.041758,116.732125 C107.144814,116.732125 107.231951,116.735797 107.300935,116.742617 C107.367125,116.748912 107.423262,116.761501 107.469902,116.780124 C107.515984,116.798746 107.558715,116.822877 107.59586,116.851728 C107.634401,116.881892 107.673222,116.919137 107.711204,116.963463 L111.647727,121.394036 C111.696881,121.446493 111.737936,121.475869 111.776757,121.486886 C111.808037,121.495541 111.846299,121.5 111.893498,121.5 L112.157143,121.5 L107.96312,116.811074 C107.934074,116.780124 107.903911,116.751272 107.872631,116.724519" id="Fill-19" fill="#E7E8E3"/>
                    <polygon id="Fill-20" fill="#E7E8E3" points="114.010102 121.5 114.304184 121.5 114.304184 111.5 114.010102 111.5"/>
                    <polygon id="Fill-21" fill="#E7E8E3" points="120.456664 116.562949 125.277998 116.562949 125.277998 116.282039 120.456664 116.282039 120.456664 111.781173 126.136128 111.781173 126.136128 111.5 120.157143 111.5 120.157143 121.5 126.130276 121.5 126.157143 121.218827 120.456664 121.218827"/>
                    <path d="M136.904716,120.931869 L130.413537,111.58577 C130.38031,111.529639 130.330469,111.5 130.269966,111.5 L130.157143,111.5 L130.157143,121.5 L130.409569,121.5 L130.409569,112.025639 L136.935712,121.423934 C136.97737,121.486885 137.024731,121.5 137.057462,121.5 L137.157143,121.5 L137.157143,111.5 L136.904716,111.5 L136.904716,120.931869 Z" id="Fill-22" fill="#E7E8E3"/>
                    <path d="M148.957703,119.963038 C148.916949,119.963038 148.882563,119.992792 148.861931,120.013569 C148.648992,120.209537 148.433251,120.385497 148.220566,120.536321 C148.009155,120.686888 147.775584,120.815908 147.526476,120.919535 C147.278895,121.022906 147.001004,121.102934 146.700189,121.157313 C146.399884,121.211435 146.05322,121.238881 145.670643,121.238881 C145.069522,121.238881 144.504825,121.13038 143.99158,120.916201 C143.479608,120.702278 143.029277,120.388062 142.653832,119.982532 C142.277876,119.576745 141.978844,119.07554 141.765396,118.492767 C141.552456,117.909993 141.444458,117.239496 141.444458,116.5 C141.444458,115.774611 141.55373,115.111296 141.769216,114.528267 C141.984448,113.945493 142.287555,113.443005 142.670133,113.035166 C143.05373,112.627071 143.516542,112.309521 144.046598,112.090981 C144.578182,111.872185 145.170388,111.761119 145.807168,111.761119 C146.28781,111.761119 146.709614,111.816011 147.060352,111.923998 C147.412619,112.032499 147.711397,112.153824 147.948788,112.284641 C148.184652,112.414431 148.369063,112.534987 148.497693,112.643487 C148.693821,112.809444 148.746037,112.823296 148.779659,112.823296 C148.855818,112.823296 148.888676,112.790207 148.899374,112.768148 L148.956684,112.68068 L148.914657,112.645539 C148.69484,112.461114 148.466873,112.29567 148.236613,112.154081 C148.006608,112.012748 147.762339,111.891679 147.510683,111.793952 C147.258773,111.696481 146.989033,111.622095 146.708085,111.57336 C146.426883,111.524624 146.123776,111.5 145.807168,111.5 C145.121993,111.5 144.486231,111.621069 143.917713,111.860129 C143.348432,112.099189 142.852762,112.443159 142.444458,112.881778 C142.036409,113.320654 141.716236,113.853409 141.493618,114.46491 C141.270235,115.075386 141.157143,115.759991 141.157143,116.5 C141.157143,117.267455 141.270235,117.96745 141.493618,118.579977 C141.715981,119.193531 142.032589,119.723721 142.43376,120.156441 C142.835441,120.588647 143.317612,120.924152 143.866007,121.153978 C144.414147,121.383548 145.021381,121.5 145.670643,121.5 C146.069267,121.5 146.439619,121.465885 146.772273,121.398938 C147.10238,121.331991 147.410327,121.237855 147.687708,121.119351 C147.963816,121.000846 148.222094,120.857205 148.455666,120.692274 C148.688218,120.5276 148.908544,120.343174 149.110531,120.144642 L149.157143,120.098471 L149.048381,120.000487 C149.022655,119.97612 148.991325,119.963038 148.957703,119.963038" id="Fill-23" fill="#E7E8E3"/>
                    <polygon id="Fill-24" fill="#E7E8E3" points="153.456744 121.218827 153.456744 116.562949 158.278562 116.562949 158.278562 116.281776 153.456744 116.281776 153.456744 111.781173 159.137187 111.781173 159.137187 111.5 153.157143 111.5 153.157143 121.5 159.131866 121.5 159.157143 121.218827"/>
                </g>
            </g>
        </g>
    </g>
</svg>