<svg xmlns="http://www.w3.org/2000/svg" viewBox="0 0 698.16 424.68"><defs><style>.cls-1{fill:#f5f5f5;}.cls-2{fill:#ebebeb;}.cls-3{fill:#e0e0e0;}.cls-4{fill:#fafafa;}.cls-5{fill:#fff;}.cls-6{fill:#263238;}.cls-7{fill:#e8505b;}.cls-8{opacity:0.3;}.cls-9{opacity:0.4;}.cls-10{fill:#455a64;}.cls-11{opacity:0.5;}.cls-12{opacity:0.6;}.cls-13{fill:#ffbe9d;}.cls-14{fill:#eb996e;}</style></defs><title>order-delivery</title><g id="Layer_2" data-name="Layer 2"><g id="Background_Complete" data-name="Background Complete"><path class="cls-1" d="M635.37,23.47c.58-4.24-5.4-7.73-9.9-8.09-2.14-.18-4.37.15-6.4-.56-4.41-1.53-6.16-7.22-10.46-9-3.21-1.35-6.91-.15-10,1.42s-6.19,3.54-9.67,3.76c-3,.19-6.31-.93-8.95.55-2,1.1-3,3.37-4.83,4.71s-4.1,1.59-6.3,1.71-4.49.15-6.5,1.07-3.68,3-3.26,5.21Z"/><rect class="cls-1" x="69.16" y="98.99" width="84.52" height="267.86"/><rect class="cls-2" x="111.41" y="98.99" width="42.26" height="267.12"/><rect class="cls-1" x="78.81" y="72.7" width="29.85" height="26.3"/><rect class="cls-2" x="101.54" y="72.7" width="7.11" height="26.3"/><polyline class="cls-3" points="62.11 98.99 62.11 97.46 156.15 97.46 156.15 98.99"/><rect class="cls-4" x="85.84" y="110.46" width="7.15" height="15.08"/><path class="cls-3" d="M111.41,131.47c0,.16-9.46.28-21.12.28s-21.13-.12-21.13-.28,9.45-.29,21.13-.29S111.41,131.31,111.41,131.47Z"/><rect class="cls-3" x="128.46" y="110.46" width="7.15" height="15.08"/><path class="cls-3" d="M154,131.47c0,.16-9.46.28-21.13.28s-21.13-.12-21.13-.28,9.46-.29,21.13-.29S154,131.31,154,131.47Z"/><rect class="cls-3" x="128.46" y="140.41" width="7.15" height="15.09"/><path class="cls-3" d="M154,161.42c0,.15-9.46.28-21.13.28s-21.13-.13-21.13-.28,9.46-.29,21.13-.29S154,161.26,154,161.42Z"/><rect class="cls-3" x="128.46" y="171.26" width="7.15" height="15.08"/><path class="cls-3" d="M154,192.27c0,.16-9.46.29-21.13.29s-21.13-.13-21.13-.29,9.46-.29,21.13-.29S154,192.11,154,192.27Z"/><rect class="cls-3" x="128.46" y="202.12" width="7.15" height="15.08"/><path class="cls-3" d="M154,223.12c0,.16-9.46.29-21.13.29s-21.13-.13-21.13-.29,9.46-.29,21.13-.29S154,223,154,223.12Z"/><rect class="cls-3" x="128.46" y="232.09" width="7.15" height="15.08"/><path class="cls-3" d="M154,253.09c0,.16-9.46.29-21.13.29s-21.13-.13-21.13-.29,9.46-.29,21.13-.29S154,252.93,154,253.09Z"/><rect class="cls-3" x="128.46" y="262.18" width="7.15" height="15.08"/><rect class="cls-3" x="128.46" y="292.67" width="7.15" height="15.08"/><path class="cls-3" d="M154,283.18c0,.16-9.46.29-21.13.29s-21.13-.13-21.13-.29,9.46-.28,21.13-.28S154,283,154,283.18Z"/><rect class="cls-4" x="85.84" y="140.87" width="7.15" height="15.08"/><path class="cls-3" d="M111.41,161.87c0,.16-9.46.29-21.12.29s-21.13-.13-21.13-.29,9.45-.28,21.13-.28S111.41,161.71,111.41,161.87Z"/><rect class="cls-4" x="85.84" y="171.27" width="7.15" height="15.08"/><path class="cls-3" d="M111.41,192.28c0,.16-9.46.29-21.12.29s-21.13-.13-21.13-.29,9.45-.29,21.13-.29S111.41,192.12,111.41,192.28Z"/><rect class="cls-4" x="85.84" y="201.68" width="7.15" height="15.08"/><path class="cls-3" d="M111.41,222.69c0,.16-9.46.28-21.12.28s-21.13-.12-21.13-.28,9.45-.29,21.13-.29S111.41,222.53,111.41,222.69Z"/><rect class="cls-4" x="85.84" y="232.09" width="7.15" height="15.08"/><path class="cls-3" d="M111.41,253.09c0,.16-9.46.29-21.12.29s-21.13-.13-21.13-.29,9.45-.29,21.13-.29S111.41,252.93,111.41,253.09Z"/><rect class="cls-4" x="85.84" y="262.49" width="7.15" height="15.08"/><path class="cls-3" d="M111.41,283.5c0,.16-9.46.29-21.12.29s-21.13-.13-21.13-.29,9.45-.29,21.13-.29S111.41,283.34,111.41,283.5Z"/><rect class="cls-4" x="85.84" y="292.9" width="7.15" height="15.08"/><rect class="cls-1" x="365.34" y="37.91" width="121.83" height="386.1"/><rect class="cls-2" x="426.26" y="37.91" width="60.91" height="385.04"/><rect class="cls-1" x="379.25" width="43.02" height="37.91"/><rect class="cls-2" x="412.02" width="10.25" height="37.91"/><polyline class="cls-3" points="355.19 37.91 355.19 35.7 490.74 35.7 490.74 37.91"/><rect class="cls-4" x="389.39" y="54.44" width="10.31" height="21.74"/><path class="cls-3" d="M426.26,84.72c0,.22-13.64.41-30.46.41s-30.46-.19-30.46-.41S379,84.3,395.8,84.3,426.26,84.49,426.26,84.72Z"/><rect class="cls-3" x="450.84" y="54.44" width="10.31" height="21.74"/><path class="cls-3" d="M487.7,84.72c0,.22-13.63.41-30.45.41s-30.46-.19-30.46-.41,13.63-.42,30.46-.42S487.7,84.49,487.7,84.72Z"/><rect class="cls-3" x="450.84" y="97.61" width="10.31" height="21.74"/><path class="cls-3" d="M487.7,127.89c0,.23-13.63.41-30.45.41s-30.46-.18-30.46-.41,13.63-.42,30.46-.42S487.7,127.66,487.7,127.89Z"/><rect class="cls-3" x="450.84" y="142.08" width="10.31" height="21.74"/><path class="cls-3" d="M487.7,172.36c0,.23-13.63.42-30.45.42s-30.46-.19-30.46-.42,13.63-.41,30.46-.41S487.7,172.13,487.7,172.36Z"/><rect class="cls-3" x="450.84" y="186.56" width="10.31" height="21.74"/><path class="cls-3" d="M487.7,216.83c0,.23-13.63.42-30.45.42s-30.46-.19-30.46-.42,13.63-.41,30.46-.41S487.7,216.61,487.7,216.83Z"/><rect class="cls-3" x="450.84" y="229.76" width="10.31" height="21.74"/><path class="cls-3" d="M487.7,260c0,.23-13.63.41-30.45.41s-30.46-.18-30.46-.41,13.63-.42,30.46-.42S487.7,259.81,487.7,260Z"/><rect class="cls-3" x="450.84" y="273.13" width="10.31" height="21.74"/><rect class="cls-3" x="450.84" y="317.08" width="10.31" height="21.74"/><path class="cls-3" d="M487.7,303.41c0,.23-13.63.42-30.45.42s-30.46-.19-30.46-.42,13.63-.41,30.46-.41S487.7,303.18,487.7,303.41Z"/><rect class="cls-4" x="389.39" y="98.27" width="10.31" height="21.74"/><path class="cls-3" d="M426.26,128.55c0,.23-13.64.41-30.46.41s-30.46-.18-30.46-.41,13.64-.42,30.46-.42S426.26,128.32,426.26,128.55Z"/><rect class="cls-4" x="389.39" y="142.1" width="10.31" height="21.74"/><path class="cls-3" d="M426.26,172.38c0,.23-13.64.41-30.46.41s-30.46-.18-30.46-.41S379,172,395.8,172,426.26,172.15,426.26,172.38Z"/><rect class="cls-4" x="389.39" y="185.93" width="10.31" height="21.74"/><path class="cls-3" d="M426.26,216.21c0,.23-13.64.41-30.46.41s-30.46-.18-30.46-.41,13.64-.42,30.46-.42S426.26,216,426.26,216.21Z"/><rect class="cls-4" x="389.39" y="229.76" width="10.31" height="21.74"/><path class="cls-3" d="M426.26,260c0,.23-13.64.41-30.46.41s-30.46-.18-30.46-.41,13.64-.42,30.46-.42S426.26,259.81,426.26,260Z"/><rect class="cls-4" x="389.39" y="273.59" width="10.31" height="21.74"/><path class="cls-3" d="M426.26,303.87c0,.23-13.64.41-30.46.41s-30.46-.18-30.46-.41,13.64-.42,30.46-.42S426.26,303.64,426.26,303.87Z"/><rect class="cls-4" x="389.39" y="317.42" width="10.31" height="21.74"/><rect class="cls-1" x="463.6" y="213.05" width="66.56" height="210.94"/><rect class="cls-2" x="496.88" y="213.05" width="33.28" height="210.36"/><rect class="cls-1" x="471.2" y="192.34" width="23.5" height="20.71"/><rect class="cls-2" x="489.11" y="192.34" width="5.6" height="20.71"/><polyline class="cls-3" points="458.06 213.05 458.06 211.84 532.11 211.84 532.11 213.05"/><rect class="cls-4" x="476.74" y="222.08" width="5.63" height="11.88"/><path class="cls-3" d="M496.88,238.63c0,.12-7.45.22-16.63.22s-16.65-.1-16.65-.22,7.45-.23,16.65-.23S496.88,238.5,496.88,238.63Z"/><rect class="cls-3" x="510.31" y="222.08" width="5.63" height="11.88"/><path class="cls-3" d="M530.45,238.63c0,.12-7.45.22-16.64.22s-16.64-.1-16.64-.22,7.45-.23,16.64-.23S530.45,238.5,530.45,238.63Z"/><rect class="cls-3" x="510.31" y="245.67" width="5.63" height="11.88"/><path class="cls-3" d="M530.45,262.21c0,.13-7.45.23-16.64.23s-16.64-.1-16.64-.23,7.45-.22,16.64-.22S530.45,262.09,530.45,262.21Z"/><rect class="cls-3" x="510.31" y="269.97" width="5.63" height="11.88"/><path class="cls-3" d="M530.45,286.51c0,.13-7.45.23-16.64.23s-16.64-.1-16.64-.23,7.45-.23,16.64-.23S530.45,286.38,530.45,286.51Z"/><rect class="cls-3" x="510.31" y="294.27" width="5.63" height="11.88"/><path class="cls-3" d="M530.45,310.81c0,.12-7.45.22-16.64.22s-16.64-.1-16.64-.22,7.45-.23,16.64-.23S530.45,310.68,530.45,310.81Z"/><rect class="cls-3" x="510.31" y="317.87" width="5.63" height="11.88"/><path class="cls-3" d="M530.45,334.41c0,.13-7.45.23-16.64.23s-16.64-.1-16.64-.23,7.45-.23,16.64-.23S530.45,334.29,530.45,334.41Z"/><rect class="cls-3" x="510.31" y="341.57" width="5.63" height="11.88"/><rect class="cls-3" x="510.31" y="365.57" width="5.63" height="11.88"/><path class="cls-3" d="M530.45,358.11c0,.12-7.45.23-16.64.23s-16.64-.11-16.64-.23,7.45-.23,16.64-.23S530.45,358,530.45,358.11Z"/><rect class="cls-4" x="476.74" y="246.03" width="5.63" height="11.88"/><path class="cls-3" d="M496.88,262.57c0,.13-7.45.23-16.63.23s-16.65-.1-16.65-.23,7.45-.22,16.65-.22S496.88,262.45,496.88,262.57Z"/><rect class="cls-4" x="476.74" y="269.98" width="5.63" height="11.88"/><path class="cls-3" d="M496.88,286.52c0,.12-7.45.22-16.63.22s-16.65-.1-16.65-.22,7.45-.23,16.65-.23S496.88,286.39,496.88,286.52Z"/><rect class="cls-4" x="476.74" y="293.92" width="5.63" height="11.88"/><path class="cls-3" d="M496.88,310.46c0,.13-7.45.23-16.63.23s-16.65-.1-16.65-.23,7.45-.22,16.65-.22S496.88,310.34,496.88,310.46Z"/><rect class="cls-4" x="476.74" y="317.87" width="5.63" height="11.88"/><path class="cls-3" d="M496.88,334.41c0,.13-7.45.23-16.63.23s-16.65-.1-16.65-.23,7.45-.23,16.65-.23S496.88,334.29,496.88,334.41Z"/><rect class="cls-4" x="476.74" y="341.81" width="5.63" height="11.88"/><path class="cls-3" d="M496.88,358.36c0,.12-7.45.22-16.63.22s-16.65-.1-16.65-.22,7.45-.23,16.65-.23S496.88,358.23,496.88,358.36Z"/><rect class="cls-4" x="476.74" y="365.76" width="5.63" height="11.88"/><rect class="cls-3" x="124.71" y="288" width="71.66" height="136"/><rect class="cls-2" x="162.77" y="288" width="33.6" height="136"/><rect class="cls-1" x="139.73" y="300.79" width="6.44" height="15.65"/><rect class="cls-1" x="139.73" y="362.06" width="6.44" height="15.65"/><path class="cls-1" d="M162.77,322.59c0,.14-8.52.25-19,.25s-19-.11-19-.25,8.52-.24,19-.24S162.77,322.46,162.77,322.59Z"/><rect class="cls-1" x="139.73" y="331.66" width="6.44" height="15.65"/><path class="cls-1" d="M162.77,353.46c0,.13-8.52.24-19,.24s-19-.11-19-.24,8.52-.25,19-.25S162.77,353.32,162.77,353.46Z"/><rect class="cls-3" x="169.9" y="300.79" width="6.44" height="15.65"/><rect class="cls-3" x="183.88" y="300.79" width="6.44" height="15.65"/><rect class="cls-3" x="169.9" y="330.5" width="6.44" height="15.65"/><rect class="cls-3" x="183.88" y="330.5" width="6.44" height="15.65"/><rect class="cls-3" x="169.9" y="360.2" width="6.44" height="15.65"/><rect class="cls-3" x="183.88" y="360.2" width="6.44" height="15.65"/><rect class="cls-3" x="119.32" y="284.71" width="82.43" height="3.41"/><path class="cls-2" d="M196.87,288.44c0,.13-16,.24-35.77.24s-35.78-.11-35.78-.24,16-.25,35.78-.25S196.87,288.3,196.87,288.44Z"/><polygon class="cls-2" points="125.53 423.9 10.12 423.9 9.62 241.51 125.03 241.51 125.53 423.9"/><rect class="cls-3" x="67.32" y="241.51" width="57.7" height="182.39"/><rect class="cls-2" x="22.8" y="205.6" width="40.75" height="35.91"/><rect class="cls-3" x="53.84" y="205.6" width="9.71" height="35.91"/><rect class="cls-3" y="239.41" width="128.4" height="2.09"/><rect class="cls-5" x="32.4" y="257.17" width="9.77" height="20.6"/><path class="cls-3" d="M67.32,285.85c0,.22-12.92.39-28.85.39s-28.85-.17-28.85-.39,12.91-.39,28.85-.39S67.32,285.63,67.32,285.85Z"/><rect class="cls-1" x="90.6" y="257.17" width="9.77" height="20.6"/><path class="cls-2" d="M125.53,285.85c0,.22-12.92.39-28.85.39s-28.86-.17-28.86-.39,12.92-.39,28.86-.39S125.53,285.63,125.53,285.85Z"/><rect class="cls-1" x="90.6" y="298.06" width="9.77" height="20.6"/><path class="cls-2" d="M125.53,326.75c0,.21-12.92.39-28.85.39s-28.86-.18-28.86-.39,12.92-.4,28.86-.4S125.53,326.53,125.53,326.75Z"/><rect class="cls-1" x="90.6" y="340.19" width="9.77" height="20.6"/><path class="cls-2" d="M125.53,368.88c0,.21-12.92.39-28.85.39s-28.86-.18-28.86-.39,12.92-.4,28.86-.4S125.53,368.66,125.53,368.88Z"/><rect class="cls-1" x="90.6" y="382.32" width="9.77" height="20.6"/><path class="cls-2" d="M125.53,411c0,.21-12.92.39-28.85.39s-28.86-.18-28.86-.39,12.92-.4,28.86-.4S125.53,410.79,125.53,411Z"/><rect class="cls-5" x="32.4" y="298.69" width="9.77" height="20.6"/><path class="cls-3" d="M67.32,327.37c0,.22-12.92.39-28.85.39s-28.85-.17-28.85-.39S22.53,327,38.47,327,67.32,327.15,67.32,327.37Z"/><rect class="cls-5" x="32.4" y="340.21" width="9.77" height="20.6"/><path class="cls-3" d="M67.32,368.89c0,.22-12.92.39-28.85.39s-28.85-.17-28.85-.39,12.91-.39,28.85-.39S67.32,368.67,67.32,368.89Z"/><rect class="cls-5" x="32.4" y="381.73" width="9.77" height="20.6"/><path class="cls-3" d="M67.32,410.41c0,.22-12.92.39-28.85.39s-28.85-.17-28.85-.39S22.53,410,38.47,410,67.32,410.19,67.32,410.41Z"/><path class="cls-1" d="M672.58,141.47c.84-6.06-7.72-11-14.14-11.56-3.07-.25-6.25.22-9.16-.79-6.29-2.19-8.8-10.32-14.94-12.91-4.59-1.94-9.87-.21-14.32,2s-8.85,5.05-13.82,5.37c-4.32.28-9-1.32-12.8.79-2.82,1.57-4.29,4.82-6.89,6.74s-5.86,2.27-9,2.44-6.42.2-9.29,1.52-5.25,4.35-4.66,7.45Z"/><rect class="cls-2" x="605.32" y="357.25" width="92.84" height="66.74"/><path class="cls-1" d="M630.22,357.25c.13,0,0,14.09,0,14.09h-6.87V357.25Z"/><rect class="cls-3" x="651.74" y="357.25" width="46.42" height="66.74" transform="translate(1349.89 781.25) rotate(180)"/><rect class="cls-5" x="608.15" y="410.93" width="12.43" height="8.79"/><rect class="cls-5" x="622.87" y="410.93" width="6.21" height="8.79"/><rect class="cls-2" x="628.89" y="313.79" width="60.45" height="43.46"/><path class="cls-1" d="M645.1,313.79c.09,0,0,9.18,0,9.18h-4.47v-9.18Z"/><rect class="cls-3" x="659.11" y="313.79" width="30.22" height="43.46" transform="translate(1348.45 671.04) rotate(180)"/><rect class="cls-5" x="630.73" y="348.74" width="8.09" height="5.73"/><rect class="cls-5" x="640.32" y="348.74" width="4.05" height="5.73"/><path class="cls-2" d="M71.44,25c.47-3.43-4.37-6.26-8-6.55-1.74-.14-3.54.12-5.18-.45-3.57-1.24-5-5.84-8.47-7.31-2.59-1.09-5.59-.12-8.11,1.15s-5,2.86-7.82,3c-2.45.16-5.11-.75-7.25.45-1.6.89-2.43,2.73-3.9,3.81a9.29,9.29,0,0,1-5.11,1.39,14.14,14.14,0,0,0-5.26.86c-1.62.74-3,2.46-2.63,4.22Z"/><path class="cls-2" d="M689.45,94.65c.46-3.35-4.27-6.1-7.82-6.39-1.69-.13-3.45.13-5-.43-3.48-1.22-4.86-5.7-8.25-7.13-2.54-1.07-5.46-.12-7.92,1.11s-4.88,2.8-7.63,3c-2.39.16-5-.73-7.07.44-1.56.87-2.37,2.66-3.81,3.72a9.06,9.06,0,0,1-5,1.35,13.79,13.79,0,0,0-5.13.84c-1.59.72-2.9,2.4-2.57,4.11Z"/><path class="cls-1" d="M177.75,46.23c.86-6.27-8-11.43-14.63-12-3.17-.26-6.46.22-9.47-.82-6.5-2.27-9.1-10.68-15.45-13.36-4.75-2-10.22-.22-14.82,2.1s-9.15,5.23-14.29,5.56c-4.47.29-9.33-1.37-13.24.81-2.92,1.63-4.44,5-7.13,7s-6.06,2.35-9.32,2.53-6.64.21-9.61,1.57-5.43,4.5-4.81,7.71Z"/></g><g id="Floor"><path class="cls-6" d="M697.82,424c0,.15-152.7.27-341,.27s-341-.12-341-.27,152.66-.26,341.05-.26S697.82,423.85,697.82,424Z"/></g><g id="Plants"><path class="cls-7" d="M288.58,382.12a8.09,8.09,0,0,1,5.13,3.75,14.35,14.35,0,0,1,1.93,6.17c.43,4.19-1,8.83-2.76,12.64-4.11-2.25-6.05-7.31-6.87-9.94-1.31-4.16-1.14-12.47,2.57-12.62"/><path class="cls-7" d="M298.36,410.55a6.92,6.92,0,0,1,.77-6.91,9.16,9.16,0,0,1,6.16-3.52,3.83,3.83,0,0,1,3.19.67,3,3,0,0,1,.69,2.92,6,6,0,0,1-1.7,2.61c-2.57,2.52-5.52,4.5-9.11,4.23"/><path class="cls-6" d="M296.7,424.05a5.22,5.22,0,0,1-.06-.87c0-.61-.05-1.41-.09-2.36a24.65,24.65,0,0,1,.75-7.77,14.93,14.93,0,0,1,4-6.67,9.76,9.76,0,0,1,1.92-1.4,4.38,4.38,0,0,1,.57-.29l.21-.08a15.73,15.73,0,0,0-2.55,1.93,15.26,15.26,0,0,0-3.84,6.6,26.17,26.17,0,0,0-.83,7.68c0,1,0,1.8,0,2.36A5.07,5.07,0,0,1,296.7,424.05Z"/><path class="cls-6" d="M289,388.46a1.63,1.63,0,0,1,.12.35l.3,1c.25.91.59,2.22,1,3.85.82,3.25,1.9,7.75,3,12.76s1.95,9.56,2.53,12.86c.3,1.65.52,3,.66,3.91.07.44.12.8.16,1.07a1.56,1.56,0,0,1,0,.38,2.63,2.63,0,0,1-.1-.37c0-.27-.12-.62-.21-1.06-.19-.95-.45-2.28-.76-3.89-.64-3.29-1.54-7.84-2.62-12.84S291,397,290.23,393.75c-.38-1.61-.69-2.92-.92-3.87q-.13-.64-.24-1.05A1.71,1.71,0,0,1,289,388.46Z"/><path class="cls-7" d="M293,414.34a16.18,16.18,0,0,0-11.17-9.68c-1.27-.3-2.85-.32-3.61.74s-.21,2.55.51,3.64a13.83,13.83,0,0,0,14.26,5.66"/><path class="cls-6" d="M283.19,408.42a4,4,0,0,1,.8.15c.25.06.57.14.92.26s.76.23,1.19.43a12.11,12.11,0,0,1,1.4.64,16.57,16.57,0,0,1,1.54.88,17.73,17.73,0,0,1,3.11,2.59,17.07,17.07,0,0,1,2.4,3.27c.29.55.57,1.07.78,1.59a14.43,14.43,0,0,1,.53,1.44c.16.45.23.87.33,1.23a7.56,7.56,0,0,1,.18.94,4.4,4.4,0,0,1,.08.81c-.07,0-.2-1.15-.8-2.91a11.76,11.76,0,0,0-.56-1.41,14.06,14.06,0,0,0-.78-1.55,17.14,17.14,0,0,0-5.43-5.76,15.14,15.14,0,0,0-1.49-.9c-.48-.27-.95-.47-1.37-.66C284.31,408.72,283.17,408.48,283.19,408.42Z"/><path class="cls-7" d="M607,413.52c.38-1.47-.58-2.94-1.66-4s-2.36-2-2.92-3.42c-.91-2.28.31-5.23-1.24-7.13-.91-1.12-2.55-1.5-3.36-2.69a6.31,6.31,0,0,1-.73-2.14A21.67,21.67,0,0,0,591.71,384a18.81,18.81,0,0,0,2.11,9.73,12.33,12.33,0,0,1,1.61,3.69c.34,2.17-.87,4.4-.34,6.53.61,2.43,3.34,4.06,3.47,6.57.11,2.11-1.73,4-1.59,6.09a5.58,5.58,0,0,0,.94,2.51,8.38,8.38,0,0,0,7.69,4.53l4.46.16Z"/><g class="cls-8"><path d="M607,413.52c.38-1.47-.58-2.94-1.66-4s-2.36-2-2.92-3.42c-.91-2.28.31-5.23-1.24-7.13-.91-1.12-2.55-1.5-3.36-2.69a6.31,6.31,0,0,1-.73-2.14A21.67,21.67,0,0,0,591.71,384a18.81,18.81,0,0,0,2.11,9.73,12.33,12.33,0,0,1,1.61,3.69c.34,2.17-.87,4.4-.34,6.53.61,2.43,3.34,4.06,3.47,6.57.11,2.11-1.73,4-1.59,6.09a5.58,5.58,0,0,0,.94,2.51,8.38,8.38,0,0,0,7.69,4.53l4.46.16Z"/></g><path class="cls-6" d="M611,424a3.44,3.44,0,0,0,1.22,0,7.67,7.67,0,0,0,1.46-.36,6.47,6.47,0,0,0,1.79-1,2.37,2.37,0,0,0,.73-1,4.16,4.16,0,0,0,.21-1.33c0-.47,0-.95.11-1.45a4,4,0,0,1,.54-1.43,10.82,10.82,0,0,0,1.69-3.06,10.36,10.36,0,0,0-.12-3.91,8.32,8.32,0,0,1,.1-4.2c.48-1.39,1.46-2.65,1.95-4.23s.26-3.3.36-5a6.75,6.75,0,0,1,.58-2.48c.36-.79.87-1.53,1.26-2.36a17.56,17.56,0,0,0,1.15-5.46c.1-.94.21-1.89.32-2.85a13.8,13.8,0,0,1,.49-2.86,26.62,26.62,0,0,1,1.07-2.76,9.57,9.57,0,0,0,.52-1.45,13.38,13.38,0,0,0,.14-1.53,17.76,17.76,0,0,0-.12-3.09c-.12-1-.3-2.06-.41-3.09l0-.18,0-.2-.18.09a6.84,6.84,0,0,0-2.4,2,10.91,10.91,0,0,0-1.48,2.72,33.54,33.54,0,0,0-1.39,5.85,15.85,15.85,0,0,1-1.84,5.4c-.48.79-1.08,1.52-1.59,2.3a6.16,6.16,0,0,0-1.11,2.54c-.27,1.89.77,3.55.56,5.22a5.81,5.81,0,0,1-.82,2.32c-.4.71-.88,1.37-1.33,2a13.32,13.32,0,0,0-1.2,2.06,6.63,6.63,0,0,0-.55,2.24c-.11,1.5.11,2.93,0,4.28a9.77,9.77,0,0,1-1.11,3.67c-.54,1.1-1.14,2.09-1.64,3.06-.25.48-.49,1-.68,1.42a6.92,6.92,0,0,0-.39,1.41,8.77,8.77,0,0,0,0,2.55,6.32,6.32,0,0,0,1.28,3.25,2.77,2.77,0,0,0,.36.39,1.56,1.56,0,0,0,.29.25l.26.18a5.09,5.09,0,0,1-.87-.86,6.4,6.4,0,0,1-1.21-3.23,8.56,8.56,0,0,1,.06-2.51,6.66,6.66,0,0,1,.39-1.38c.19-.46.43-.92.68-1.4.51-.95,1.12-1.94,1.67-3a10.18,10.18,0,0,0,1.14-3.73c.12-1.38-.09-2.82,0-4.29a6.42,6.42,0,0,1,.54-2.16,13,13,0,0,1,1.18-2c.46-.66.94-1.32,1.36-2a6.2,6.2,0,0,0,.85-2.41c.21-1.78-.82-3.45-.55-5.21a6,6,0,0,1,1.07-2.43c.51-.77,1.1-1.49,1.61-2.31a16.4,16.4,0,0,0,1.88-5.49,32,32,0,0,1,1.38-5.8A10.78,10.78,0,0,1,623.6,371a6.56,6.56,0,0,1,2.31-1.94l-.21-.12,0,.18c.11,1.05.3,2.07.42,3.09a17.26,17.26,0,0,1,.12,3,14.2,14.2,0,0,1-.14,1.49,9.37,9.37,0,0,1-.5,1.4,24.75,24.75,0,0,0-1.08,2.79,14,14,0,0,0-.5,2.9c-.11,1-.21,1.92-.32,2.86a17.12,17.12,0,0,1-1.11,5.37c-.38.81-.88,1.56-1.25,2.38a6.66,6.66,0,0,0-.6,2.57c-.1,1.72.13,3.41-.34,4.93s-1.44,2.79-1.93,4.23a8.39,8.39,0,0,0-.09,4.3,10,10,0,0,1,.14,3.84,11.1,11.1,0,0,1-1.64,3,4.23,4.23,0,0,0-.56,1.49,12.56,12.56,0,0,0-.09,1.46,4.49,4.49,0,0,1-.19,1.3,2.45,2.45,0,0,1-.69.94,6.42,6.42,0,0,1-1.75,1,7.69,7.69,0,0,1-1.43.38,4.53,4.53,0,0,1-.91.09A2.38,2.38,0,0,0,611,424Z"/><path class="cls-6" d="M625.07,371.36a1,1,0,0,0,0,.14l-.1.4c-.09.35-.19.88-.36,1.55s-.58,1.41-.93,2.33-.72,2-1.06,3.17-.64,2.51-1,3.93a16.69,16.69,0,0,1-1.42,4.36c-.37.72-.78,1.46-1.11,2.26a10,10,0,0,0-.64,2.56,51.2,51.2,0,0,1-1,5.4c-.89,3.66-1.74,7.15-2.52,10.32s-1.51,6-2.12,8.42-1.06,4.31-1.4,5.68c-.15.65-.28,1.17-.37,1.54l-.08.41c0,.09,0,.14,0,.14a1.11,1.11,0,0,0,0-.13l.12-.4c.1-.38.24-.89.42-1.54.36-1.36.87-3.28,1.49-5.65s1.36-5.25,2.18-8.4,1.64-6.66,2.54-10.32a50.11,50.11,0,0,0,1-5.43,10.28,10.28,0,0,1,.61-2.5c.32-.78.73-1.51,1.09-2.25a16.61,16.61,0,0,0,1.43-4.42c.3-1.42.59-2.74.92-3.93s.67-2.25,1-3.16.72-1.68.89-2.37.24-1.2.31-1.56c0-.16,0-.3.07-.41S625.08,371.36,625.07,371.36Z"/><path class="cls-7" d="M611.75,424c2.92-1.73,3.76-7,2.54-10.16s-3.35-6.06-3.67-9.44c-.26-2.6.59-5.26,0-7.8-.82-3.42-4.16-6.07-4.12-9.59,0-2,1.14-3.84,1-5.81-.11-2.42-2-4.34-3.11-6.47-1.76-3.27-1.88-7.12-2.48-10.78s-2-7.58-5.24-9.38c-.48,3.11-1.3,5.24-1,9.44.09,1.52,1.85,4.41,2.09,7.72.14,2,.24,4,.36,5.94a19.16,19.16,0,0,0,.93,5.7c.53,1.38,1.38,2.64,1.78,4.06.73,2.69-.24,5.6.36,8.32.51,2.3,2.1,4.28,2.43,6.62.45,3.28-1.67,6.69-.58,9.83.54,1.55,1.82,2.8,2.18,4.4.28,1.25,0,2.56.23,3.82.41,2,4.25,3.58,6.3,3.45"/><path class="cls-6" d="M597.51,357.64s0,.06,0,.17l.07.51c.07.45.14,1.11.29,2s.61,1.82,1,3,.74,2.5,1.07,4,.61,3.15.9,4.93a21.09,21.09,0,0,0,1.5,5.58c.41.94.87,1.87,1.21,2.86a12.56,12.56,0,0,1,.62,3.16,63.92,63.92,0,0,0,.85,6.79c.9,4.6,1.75,9,2.52,13s1.55,7.55,2.17,10.57,1.13,5.42,1.49,7.12l.42,1.93.11.5,0,.17s0-.06,0-.17l-.08-.51c-.09-.46-.21-1.12-.37-1.94-.33-1.71-.81-4.14-1.4-7.14s-1.32-6.61-2.11-10.59-1.61-8.37-2.49-13a60.86,60.86,0,0,1-.86-6.77,12.86,12.86,0,0,0-.64-3.22c-.35-1-.82-2-1.23-2.87a20.4,20.4,0,0,1-1.5-5.52c-.3-1.78-.59-3.44-.94-4.94a41,41,0,0,0-1.12-4c-.37-1.16-.82-2.12-1-2.95s-.26-1.5-.34-1.95c0-.21-.07-.37-.1-.5S597.52,357.64,597.51,357.64Z"/></g><g id="Vehicle"><rect class="cls-7" x="82.52" y="292.01" width="444.07" height="44.38"/><g class="cls-9"><rect x="82.52" y="292.01" width="444.07" height="44.38"/></g><path class="cls-7" d="M517.38,159.38c-3.28,0-5.2,2.15-5.7,5.89h11.46C522.68,161.53,520.72,159.38,517.38,159.38Z"/><path class="cls-7" d="M437.48,159.79c-4.07,0-6.76,3-6.76,7.49s2.69,7.4,6.76,7.4,6.76-3,6.76-7.44S441.5,159.79,437.48,159.79Z"/><path class="cls-7" d="M607,323.12V60.8H213V323.12ZM292.07,178.57l-8.73-10.32h-2.1v10.32h-6.18V143.11h6.18v20h2.14l8.1-9.09h7.82l-10.87,11.59,11.46,12.91Zm39.87,0h-6.18l-5.36-16.91L315,178.57h-6.18l-9-24.5h6.78l5.73,17.46,5.5-17.46h5.09l5.5,17.46,5.73-17.46H341Zm18.74,0H344.5v-24.5h6.18Zm-3.09-28.5a3.67,3.67,0,1,1,3.64-3.64A3.52,3.52,0,0,1,347.59,150.07ZM374,178.57l-8.73-10.32h-2.09v10.32H357V143.11h6.18v20h2.14l8.09-9.09h7.82l-10.86,11.59,11.45,12.91ZM395.29,188a3.39,3.39,0,1,1,3.39-3.39A3.39,3.39,0,0,1,395.29,188ZM410,188a3.39,3.39,0,1,1,3.38-3.39A3.38,3.38,0,0,1,410,188Zm-1.07-8.43h-19L384.08,141h-9.85a3,3,0,0,1-3-3.32,3.12,3.12,0,0,1,3.16-2.7h13.06A2.57,2.57,0,0,1,390,137.2l5.3,35.85h13.18c3.34,0,5.57-4,5.57-8s-2.23-4.85-5.47-4.85H395L394,153.7l13.2,0c12.37,0,13.52,6,13.52,11.57C420.68,173.85,416,179.56,408.89,179.56Zm41.55,0h-6l-.13-3.69a9.39,9.39,0,0,1-8.27,4.15c-6.66,0-11.78-5.07-11.78-12.65s5.12-12.87,11.78-12.87a9.39,9.39,0,0,1,8.27,4.15l.13-3.7h6Zm14.48.46c-3.74,0-7.08-1-9.31-2.92l2.32-3.75a13.46,13.46,0,0,0,7.08,1.83c2.28,0,3.84-1,3.84-2.46s-1.74-2.33-4.2-3l-2.06-.55c-4.15-1.1-7-2.69-7-6.58,0-4.88,3.83-8.12,9.67-8.12a16.23,16.23,0,0,1,9.27,2.42L472,161a12.67,12.67,0,0,0-6.25-1.6c-2.24,0-3.79.83-3.79,2.24s1.55,2.15,3.69,2.69l2.06.6c4.2,1.09,7.53,3,7.53,7.35C475.19,176.92,471.08,180,464.92,180Zm32.37-.46-8.76-10.36h-2.1v10.36h-6.21V144h6.21v20.14h2.14L496.7,155h7.85L493.64,166.6l11.51,13Zm32.19-10.09h-17.8c.45,3.47,2.28,5.67,5.89,5.67a7.64,7.64,0,0,0,6-2.93l4.8,2.42A12.62,12.62,0,0,1,517.66,180c-7.54,0-12.56-5-12.56-12.6,0-7.76,4.89-12.92,12.28-12.92s12.29,4.93,12.29,12.37A22.65,22.65,0,0,1,529.48,169.47ZM548,178.88a16.72,16.72,0,0,1-6.3,1.14c-4.47,0-7.53-3.1-7.53-7.76V147.74h6.21V155h7.26V160H540.4v11c0,2.24,1.37,3.7,3.33,3.7a10.94,10.94,0,0,0,4.29-.82Z"/><rect class="cls-10" x="299.31" y="342" width="131.08" height="41.1"/><polygon class="cls-6" points="207.7 323.4 207.7 377.73 252.46 377.73 270.4 351.73 597.21 351.73 597.21 323.4 207.7 323.4"/><path class="cls-7" d="M204.91,151.36a3.33,3.33,0,0,0-3.46-3.15c-17.68.73-101.67,4.58-118.94,12.88-13.21,6.36-27.7,30.1-37.91,46.09-7.32,11.46-23.49,36.9-26.76,49.91-2.77,11-4.44,33.88-4.24,45.24l4.61,60.05H94.33L102,342.54a33.48,33.48,0,0,1,31.26-21.47h75.63V221.4Z"/><path class="cls-10" d="M73.49,167.74c-10.47,10-21,27-28.89,39.44-6.77,10.61-21.14,33.2-25.83,46.82-.08.25-.15.49-.24.74,2.32-.64,5.89-2,7-4.15,1.66-3.33,3.81-14.74,30.26-57.81C63.84,179.66,71.68,172,73.49,167.74Z"/><path class="cls-6" d="M165.82,163.29c-19.46,1.11-61.65,4-75.13,8.58-17.56,6-37.27,52.49-38.2,54.53l-13.29,34a1.48,1.48,0,0,0,1.41,1.95H74.94a11,11,0,0,0,3.8-.68L169,228a10.42,10.42,0,0,0,6.79-9.78V172.76A9.47,9.47,0,0,0,165.82,163.29Z"/><path class="cls-10" d="M43,259s12.74-28.55,17-37.88c6.46-14.12,21.55-43,31.74-46.1,9.37-2.81,36.31-6.24,74.24-8.41h.36a6.15,6.15,0,0,1,6.13,6.15v46.51a5.64,5.64,0,0,1-3.66,5.26l-66.71,8.23A18.55,18.55,0,0,0,88.89,241L77.33,258.63a6.21,6.21,0,0,1-2.13.38Z"/><path class="cls-6" d="M99.71,233.28,77,258.54l12.55-83.87,3.14-1.08-6.17,62.13a1.82,1.82,0,0,0,2.5,1.87Z"/><path class="cls-2" d="M12.11,308.15c-.08-1.09.29-2,.84-2L25.11,305c1-.09,1.94,1.79,2.06,4l.54,9.33c.09,1.5-.36,2.77-1,2.88l-12.4,2.14c-.56.1-1.09-.73-1.17-1.83Z"/><rect class="cls-6" x="12.1" y="351.74" width="87.62" height="35.13"/><circle class="cls-6" cx="156.39" cy="375.65" r="47.94" transform="translate(-14.32 6.29) rotate(-2.2)"/><path class="cls-6" d="M108.47,374.83c0,.05,0,.09,0,.13a47.93,47.93,0,1,0,95.86,1.38s0-.08,0-.12Z"/><path class="cls-4" d="M122.74,375.16A33.65,33.65,0,1,0,156.87,342,33.65,33.65,0,0,0,122.74,375.16Z"/><path class="cls-3" d="M156.87,342a33.65,33.65,0,0,0-34.13,33.16l67.3,1A33.65,33.65,0,0,0,156.87,342Z"/><path class="cls-6" d="M135.89,375.35a20.5,20.5,0,1,0,20.79-20.2A20.51,20.51,0,0,0,135.89,375.35Z"/><rect class="cls-6" x="51.52" y="193.74" width="19.87" height="47.69" rx="7.98" ry="7.98"/><path class="cls-6" d="M43.29,270.91h-1V220.49a9.08,9.08,0,0,1,9.07-9.07h2.4v1h-2.4a8.08,8.08,0,0,0-8.07,8.07Z"/><path class="cls-6" d="M50.11,271l-2.78-47.16a6,6,0,0,1,5.93-6.29v1a4.93,4.93,0,0,0-4.93,5.23l2.78,47.16Z"/><rect class="cls-6" x="39.77" y="266.37" width="13.48" height="15.61"/><rect class="cls-6" x="42.79" y="236.74" width="5.48" height="1"/><path class="cls-6" d="M94,164.64l1.2-.16,3.51-.41,13.59-1.57L163,156.73c2.71-.29,5.46-.65,8.31-.9a15.51,15.51,0,0,1,4.34.28,16.73,16.73,0,0,1,4.17,1.58,15.49,15.49,0,0,1,6.31,6.56,14.62,14.62,0,0,1,1.45,4.51,17.4,17.4,0,0,1,.21,2.4v2.41c0,12.91,0,26.77,0,41.46,0,29.38,0,62.06,0,97v.26H135.16a57.12,57.12,0,0,0-9,.43,35.06,35.06,0,0,0-8.67,2.42,35.61,35.61,0,0,0-19,19.65,27.31,27.31,0,0,0-1.1,3.27,27.93,27.93,0,0,0-.76,3.35l-.26,1.7-.13.85,0,.85-.09,1.71,0,.86v.1c.23-.22-.31.34-.27.28H29.08v-.25c0-15.07,0-29.6,0-43.48q0-10.41,0-20.33,0-4.95,0-9.78c0-1.61,0-3.2,0-4.79s.15-3.17.34-4.73a47.45,47.45,0,0,1,5.66-17.22l8-15,14.16-26.56L68.77,184l2.43-4.55c.4-.72.74-1.45,1.17-2.13a19.6,19.6,0,0,1,1.34-1.91,28.22,28.22,0,0,1,6.07-5.64,30.47,30.47,0,0,1,10.37-4.51,26.3,26.3,0,0,1,3.86-.63l-1,.15c-.64.1-1.61.27-2.86.56a30.72,30.72,0,0,0-10.3,4.56,28.43,28.43,0,0,0-6,5.63,19.38,19.38,0,0,0-1.33,1.9c-.41.67-.76,1.4-1.15,2.13L69,184.13,57.53,205.72l-14.1,26.59q-3.82,7.23-8,15a47.1,47.1,0,0,0-5.6,17.09c-.18,1.55-.29,3.11-.33,4.69s0,3.18,0,4.78q0,4.83,0,9.78,0,9.92,0,20.33c0,13.88,0,28.41,0,43.48l-.24-.24H95.85c.07-.05-.48.48-.25.24v-.11l0-.86.09-1.74.05-.86.12-.86.27-1.73a28.76,28.76,0,0,1,.77-3.4,27.51,27.51,0,0,1,1.11-3.32,35.48,35.48,0,0,1,28.05-22.4,57.27,57.27,0,0,1,9-.43h52.42l-.25.25c0-34.9,0-67.58,0-97,0-14.69,0-28.55,0-41.46a28.62,28.62,0,0,0-.21-4.75,14.3,14.3,0,0,0-1.4-4.41,15.15,15.15,0,0,0-6.15-6.4,16.11,16.11,0,0,0-4.07-1.55,15.23,15.23,0,0,0-4.25-.29c-2.82.24-5.59.6-8.29.89l-50.69,5.61-13.6,1.49-3.52.37Z"/><path class="cls-6" d="M171.87,275.16s.27,0,.78-.12a5.33,5.33,0,0,0,2.06-.82,5.26,5.26,0,0,0,2.09-2.72,6,6,0,0,0,.27-2.16,5.39,5.39,0,0,0-.61-2.32,5.18,5.18,0,0,0-4.51-2.75l-6.6,0-15.12,0a5.11,5.11,0,0,0-5.08,4.55,5.77,5.77,0,0,0,.62,3.45,5.27,5.27,0,0,0,2.51,2.23,7.91,7.91,0,0,0,3.25.39l3.21,0,5.75,0,8.33.08,2.26.05a3.71,3.71,0,0,1,.79.05,6.93,6.93,0,0,1-.79,0l-2.26.05-8.33.08-5.75,0h-3.21c-.55,0-1.09,0-1.69,0a5.87,5.87,0,0,1-1.74-.4,5.62,5.62,0,0,1-2.75-2.42,6.21,6.21,0,0,1-.7-3.75,5.63,5.63,0,0,1,5.58-5l15.12,0,6.61,0a5.56,5.56,0,0,1,4.82,3,5.67,5.67,0,0,1,.61,2.49,6.11,6.11,0,0,1-.32,2.25,5.45,5.45,0,0,1-2.26,2.8,5.15,5.15,0,0,1-2.15.75A3.37,3.37,0,0,1,171.87,275.16Z"/><path class="cls-5" d="M170,262.6a73.3,73.3,0,0,1-8.58.25,73.2,73.2,0,0,1-8.57-.25,71.79,71.79,0,0,1,8.57-.26A71.89,71.89,0,0,1,170,262.6Z"/><path class="cls-6" d="M103.7,387.16l-8-.58c2.09-28.65,5.15-45.79,9.36-52.4,8.08-12.7,16.11-15,25-16.51,8.28-1.41,16.64-1.07,24.72-.75l2,.08c16.68.65,51.62.07,52,.07l.14,8c-.35,0-35.52.59-52.42-.07l-2-.08c-7.67-.3-15.6-.63-23.05.65-8,1.36-13.25,2.9-19.62,12.92C109.9,341.51,106.28,351.87,103.7,387.16Z"/><path class="cls-6" d="M602.29,317.93c0-1.69-.08-97.9-.2-251.2l.2.2-385,.06h0l.26-.26c0,89.29,0,174.28,0,251.2l-.23-.24,385,.24-385,.24H217v-.24c0-76.92,0-161.91,0-251.2v-.26h.29l385,0h.21v.21C602.38,220,602.3,316.25,602.29,317.93Z"/><g class="cls-11"><polygon points="426.95 257.27 428.37 285.93 539.98 262.71 538.01 232.84 426.95 257.27"/></g><path class="cls-5" d="M435.42,277.11l.75-2.68a7.8,7.8,0,0,0,4.74.45c1.71-.36,2.66-1.19,2.45-2.17-.46-2.15-6.88.43-7.8-3.86-.6-2.76,1.44-5.07,5.17-5.87a9,9,0,0,1,4.9.16l-.67,2.63a6.66,6.66,0,0,0-3.87-.25c-1.81.38-2.71,1.3-2.51,2.26.46,2.22,6.9-.37,7.78,3.76.6,2.79-1.47,5.1-5.22,5.91A9.87,9.87,0,0,1,435.42,277.11Z"/><path class="cls-5" d="M460.8,258.91l.2,14-3.12.67-.08-5.71-6.09,1.31.08,5.71-3.13.67-.2-14,3.13-.67.08,5.51,6.09-1.31-.07-5.51Z"/><path class="cls-5" d="M464,258.23l3.13-.67.2,14-3.13.67Z"/><path class="cls-5" d="M481.89,258.77c.74,3.42-1.32,6.09-5.34,7l-3,.65.06,3.86-3.13.68-.2-14,5.44-1.17C479.09,255,481.33,256.14,481.89,258.77Zm-3.09.94c-.28-1.3-1.33-1.72-2.91-1.38l-2.44.52.06,4.87,2.63-.56C478.2,262.72,479.18,261.5,478.8,259.71Z"/><path class="cls-5" d="M495.77,255.79c.73,3.42-1.33,6.09-5.34,7l-3,.64.06,3.87-3.13.67-.2-14,5.44-1.17C493,252,495.2,253.16,495.77,255.79Zm-3.1,1c-.28-1.31-1.33-1.73-2.91-1.39l-2.44.52.06,4.88,2.64-.57C492.07,259.74,493.06,258.52,492.67,256.74Z"/><path class="cls-5" d="M498,250.92l3.13-.67.2,14-3.13.67Z"/><path class="cls-5" d="M516.68,246.92l.2,14-2.56.55-6.82-7.34.11,8.78-3.07.66-.2-14,2.58-.55,6.82,7.35-.14-8.79Z"/><path class="cls-5" d="M529.07,251.07l2.84-.61.08,5.78a8.83,8.83,0,0,1-4.8,2.74c-4.08.87-7.16-.94-7.91-4.42-1-4.59,1.63-8.79,6.73-9.88,2.57-.56,4.63-.13,6.11,1.14l-1.84,2.28a4.32,4.32,0,0,0-3.84-.74,5.09,5.09,0,0,0-4.05,6.33c.44,2,2.07,3.1,4.63,2.55a5.35,5.35,0,0,0,2.13-1Z"/><polygon class="cls-7" points="449.2 230.75 449.2 255.78 512.81 241.79 512.78 217.05 449.2 230.75"/><g class="cls-8"><polygon points="449.2 230.75 449.2 255.78 512.81 241.79 512.78 217.05 449.2 230.75"/></g><path class="cls-5" d="M458.53,237l.14,5.51,7-1.58,0,1.28-7,1.58.16,5.95-1.4.32-.36-14,9.2-2.09,0,1.28Z"/><path class="cls-5" d="M476.76,240.94l3.55,3.91-1.53.34-3.39-3.72a7,7,0,0,1-.69.17l-3.81.87L471,247l-1.42.32-.36-14,4.83-1.09c3.05-.69,5.11.31,5.65,2.7A5.05,5.05,0,0,1,476.76,240.94Zm1.57-5.62c-.4-1.76-1.86-2.42-4.09-1.91l-3.56.81.16,7,3.62-.82C477.49,239.72,478.93,238,478.33,235.32Z"/><path class="cls-5" d="M484.51,231.07l.13,5,7-1.58,0,1.26-7,1.58.14,5.21,8.07-1.83,0,1.28-9.47,2.15-.36-14,9.2-2.09,0,1.28Z"/><path class="cls-5" d="M497.34,228.16l.12,5,7-1.58,0,1.26-6.95,1.58.13,5.21,8.07-1.83,0,1.28-9.47,2.15-.36-14,9.2-2.09,0,1.29Z"/><polygon class="cls-4" points="520.1 230.75 542.63 225.47 541.74 223.08 520.1 230.75"/><polygon class="cls-4" points="419.24 247.61 434.9 243.94 434.28 242.27 419.24 247.61"/><polygon class="cls-4" points="472.86 285.34 495.38 280.07 494.5 277.67 472.86 285.34"/><path class="cls-4" d="M502.72,218.75c0,.06-12,2.93-26.88,6.42s-26.92,6.29-26.93,6.23,12-2.92,26.88-6.42S502.7,218.7,502.72,218.75Z"/><path class="cls-4" d="M449,253.27s-5.15,1.14-11.54,2.43-11.57,2.29-11.58,2.23,5.15-1.14,11.54-2.43S449,253.21,449,253.27Z"/><path class="cls-4" d="M449.23,251s0-.07,0-.2l0-.58c0-.53,0-1.25,0-2.12,0-1.82,0-4.29-.05-7s-.05-5.19-.07-7l0-2.12v-.58a1.57,1.57,0,0,1,0-.2.55.55,0,0,1,0,.2l0,.57c0,.51.06,1.23.09,2.13.07,1.79.12,4.27.13,7s0,5.21,0,7l0,2.12,0,.58C449.25,250.93,449.24,251,449.23,251Z"/><path class="cls-4" d="M157,185s-.11.12-.36.31l-1.1.8c-1,.68-2.37,1.64-4.12,2.83-3.49,2.36-8.35,5.58-13.77,9s-10.37,6.54-14,8.73c-1.81,1.09-3.27,2-4.29,2.56l-1.19.67a2.22,2.22,0,0,1-.43.2s.12-.12.38-.29l1.13-.76,4.2-2.69,13.89-8.86,13.85-8.92,4.2-2.69,1.16-.72A2.73,2.73,0,0,1,157,185Z"/><path class="cls-4" d="M139.94,189.54s-.12.12-.36.31-.67.48-1.11.79c-1,.68-2.37,1.65-4.11,2.83-3.49,2.37-8.35,5.58-13.77,9.06s-10.37,6.54-14,8.73c-1.8,1.09-3.27,2-4.29,2.55l-1.18.67c-.27.15-.42.22-.43.2a2,2,0,0,1,.38-.29l1.13-.75,4.2-2.7,13.89-8.85c5.37-3.47,10.24-6.6,13.85-8.92l4.2-2.7,1.16-.71A1.91,1.91,0,0,1,139.94,189.54Z"/><path class="cls-4" d="M55.75,218.65a3.49,3.49,0,0,1-.31-.88c-.16-.57-.38-1.41-.62-2.45a35.55,35.55,0,0,1-1.06-8.3,17.82,17.82,0,0,1,1.91-8.14,11.83,11.83,0,0,1,1.41-2.12c.39-.45.64-.67.67-.65A30.68,30.68,0,0,0,56,199.05a19.34,19.34,0,0,0-1.71,8,43.46,43.46,0,0,0,.9,8.22A26,26,0,0,1,55.75,218.65Z"/><path class="cls-4" d="M15.06,289.55a4.74,4.74,0,0,1-.06-1.12c0-.72,0-1.76.07-3,.08-2.57.26-6.12.57-10s.68-7.44,1-10c.16-1.28.3-2.31.42-3a4,4,0,0,1,.23-1.09,5.3,5.3,0,0,1,0,1.12l-.25,3c-.23,2.68-.52,6.15-.85,10s-.53,7.31-.73,10c-.09,1.2-.16,2.21-.22,3A5,5,0,0,1,15.06,289.55Z"/><path class="cls-4" d="M124.62,309c0,.11-1.92.39-4.92,1.35a39.38,39.38,0,0,0-5.1,2.07,42.68,42.68,0,0,0-5.76,3.5,41.07,41.07,0,0,0-5.06,4.45,37.58,37.58,0,0,0-3.51,4.25c-1.82,2.57-2.66,4.34-2.76,4.29a7.71,7.71,0,0,1,.56-1.26,15,15,0,0,1,.76-1.42c.33-.54.67-1.17,1.14-1.82a34.13,34.13,0,0,1,3.46-4.37,39.73,39.73,0,0,1,5.1-4.54,38.76,38.76,0,0,1,5.86-3.51,34.72,34.72,0,0,1,5.21-2c.75-.25,1.46-.39,2.07-.54a15.1,15.1,0,0,1,1.58-.3A7.27,7.27,0,0,1,124.62,309Z"/><path class="cls-4" d="M223.1,248.59a2.43,2.43,0,0,1,0-.43q0-.47,0-1.26c0-1.14,0-2.77-.06-4.85-.06-4.24-.15-10.33-.25-17.84-.27-15.08-.64-35.88-1.06-58.85s-.76-43.8-.9-58.86c-.07-7.53-.09-13.63-.08-17.84,0-2.09,0-3.72,0-4.85l0-1.26a2.3,2.3,0,0,1,0-.43,2.3,2.3,0,0,1,0,.43q0,.45,0,1.26c0,1.13,0,2.76.06,4.85.06,4.24.15,10.32.25,17.83.27,15.09.64,35.89,1.06,58.86s.76,43.79.9,58.85c.07,7.54.09,13.63.08,17.85,0,2.08,0,3.71,0,4.85,0,.53,0,.95,0,1.26A2.43,2.43,0,0,1,223.1,248.59Z"/><circle class="cls-6" cx="510.49" cy="375.65" r="47.94" transform="translate(-14.57 20.66) rotate(-2.29)"/><path class="cls-6" d="M462.57,374.83c0,.05,0,.09,0,.13a47.93,47.93,0,1,0,95.86,1.38s0-.08,0-.12Z"/><path class="cls-4" d="M476.84,375.16A33.65,33.65,0,1,0,511,342,33.65,33.65,0,0,0,476.84,375.16Z"/><path class="cls-3" d="M511,342a33.65,33.65,0,0,0-34.13,33.16l67.3,1A33.65,33.65,0,0,0,511,342Z"/><path class="cls-6" d="M490,375.35a20.5,20.5,0,1,0,20.79-20.2A20.51,20.51,0,0,0,490,375.35Z"/><path class="cls-10" d="M447.47,388.78s-7.3-68,63.16-68c65,0,63.56,58.48,63,67.53h-10.2s5.2-57.64-52.75-57.64-52.9,58.81-52.9,58.81S453.45,389.27,447.47,388.78Z"/><path class="cls-4" d="M485.21,327.82a1.91,1.91,0,0,1-.55.2c-.36.13-.91.26-1.6.5a48.72,48.72,0,0,0-5.73,2.23,45.79,45.79,0,0,0-25.21,30,47.51,47.51,0,0,0-1.22,6c-.11.72-.15,1.29-.21,1.66a2.54,2.54,0,0,1-.1.58,2.14,2.14,0,0,1,0-.58c0-.39,0-1,.11-1.68a42.36,42.36,0,0,1,1.06-6.1,44.79,44.79,0,0,1,25.42-30.27,42.57,42.57,0,0,1,5.82-2.1c.7-.2,1.26-.31,1.63-.4A3.61,3.61,0,0,1,485.21,327.82Z"/></g><g id="Character"><path class="cls-10" d="M658.28,397l8.53,12.82,3.82,12.08a1.57,1.57,0,0,0,2.08,1h0a1.56,1.56,0,0,0,1-1.08c.78-3.16,3.59-14.8,2.91-15.7-.78-1.05-8.1-14.12-8.1-14.12Z"/><g class="cls-12"><path class="cls-5" d="M672.71,422.91,676,405.25l.34.55a2.31,2.31,0,0,1,.35,1.6c-.21,1.49-.88,5.61-3,14.4a1.57,1.57,0,0,1-1,1.11Z"/></g><g class="cls-12"><path class="cls-5" d="M670.7,402.74a1,1,0,0,0,.45,1.19.91.91,0,0,0,1.18-.43,1,1,0,0,0-.48-1.26,1,1,0,0,0-1.18.59"/></g><path class="cls-6" d="M672.09,415.35a4.61,4.61,0,0,0-1.78-.29,4.79,4.79,0,0,0-1.68.66s.07-.23.34-.47a2.56,2.56,0,0,1,1.3-.53,2.38,2.38,0,0,1,1.38.25C672,415.14,672.11,415.32,672.09,415.35Z"/><path class="cls-6" d="M672.26,417.68a10.36,10.36,0,0,0-1.5.17,11.42,11.42,0,0,0-1.38.64c-.08-.05.38-.72,1.29-1A1.72,1.72,0,0,1,672.26,417.68Z"/><path class="cls-6" d="M672.4,412a15.19,15.19,0,0,0-2.34.11,16.46,16.46,0,0,0-2.22.77,3.48,3.48,0,0,1,2.15-1.1A3.57,3.57,0,0,1,672.4,412Z"/><path class="cls-6" d="M670.13,407.91c0,.1-.89.26-1.85.81s-1.55,1.26-1.63,1.19a3.9,3.9,0,0,1,3.48-2Z"/><path class="cls-6" d="M667.72,404.08a8.22,8.22,0,0,0-1.94.8c-1,.65-1.36,1.57-1.46,1.52s0-.26.2-.63a3.41,3.41,0,0,1,1.06-1.17,3.45,3.45,0,0,1,1.49-.57C667.48,404,667.73,404,667.72,404.08Z"/><path class="cls-6" d="M665.34,404.14s-.16-.15-.33-.48a4.27,4.27,0,0,1-.43-1.54,1.77,1.77,0,0,1,.2-1.13.64.64,0,0,1,.68-.27,1,1,0,0,1,.57.46,2.23,2.23,0,0,1-.54,2.79,2.59,2.59,0,0,1-2.87.21.89.89,0,0,1-.44-.6.63.63,0,0,1,.37-.63,2.2,2.2,0,0,1,1.14-.1,4.52,4.52,0,0,1,1.53.45,1.53,1.53,0,0,1,.49.32,7.65,7.65,0,0,0-2-.53,2.08,2.08,0,0,0-1,.11.32.32,0,0,0-.2.34.57.57,0,0,0,.3.38,2.32,2.32,0,0,0,2.49-.21,1.94,1.94,0,0,0,.5-2.36.74.74,0,0,0-.39-.34.36.36,0,0,0-.38.14,1.73,1.73,0,0,0-.18,1A5.92,5.92,0,0,0,665.34,404.14Z"/><path class="cls-10" d="M650.18,404.35l-1,12.87S662,421.59,662,424l-25-.06.7-20.11Z"/><g class="cls-12"><path class="cls-5" d="M641.51,415.83a1,1,0,0,0-.75,1.14,1,1,0,0,0,1.12.75,1.08,1.08,0,0,0,.79-1.21,1,1,0,0,0-1.25-.65"/></g><g class="cls-12"><path class="cls-5" d="M637,423.93l.07-2,24.18.9a1.72,1.72,0,0,1,.91,1.37Z"/></g><path class="cls-6" d="M649.62,417.11c0,.12-.63.15-1.24.52s-1,.87-1.07.82.1-.75.85-1.19S649.65,417,649.62,417.11Z"/><path class="cls-6" d="M652.2,418.3c0,.12-.52.3-1,.8s-.58,1-.7,1-.17-.7.38-1.31S652.2,418.18,652.2,418.3Z"/><path class="cls-6" d="M653.56,421.5c-.11,0-.26-.6.08-1.26s.93-.9,1-.79-.32.45-.59,1S653.68,421.49,653.56,421.5Z"/><path class="cls-6" d="M649.51,414.15c0,.11-.61-.08-1.3-.06s-1.24.22-1.3.11.48-.52,1.29-.54S649.58,414.06,649.51,414.15Z"/><g class="cls-8"><polygon points="649.99 406.9 649.81 409.19 637.53 408.59 637.59 406.52 649.99 406.9"/></g><path class="cls-6" d="M649.66,411.55a2.33,2.33,0,0,1-1.25-.05,6.2,6.2,0,0,1-1.3-.46,5.76,5.76,0,0,1-.7-.41,1.64,1.64,0,0,1-.37-.31.54.54,0,0,1,0-.65.69.69,0,0,1,.55-.26,1.57,1.57,0,0,1,.47.09,4.71,4.71,0,0,1,.77.29,4.43,4.43,0,0,1,1.12.81c.56.56.74,1,.7,1s-.33-.35-.9-.82a5.24,5.24,0,0,0-1.09-.67,4,4,0,0,0-.71-.25c-.26-.08-.49-.09-.56,0s0,.06,0,.14a1.08,1.08,0,0,0,.27.23,5,5,0,0,0,.65.4,6.53,6.53,0,0,0,1.19.52A8.33,8.33,0,0,1,649.66,411.55Z"/><path class="cls-6" d="M649.5,411.72s-.27-.43-.29-1.22a4.31,4.31,0,0,1,.23-1.37,4.13,4.13,0,0,1,.35-.74,1,1,0,0,1,.82-.6.58.58,0,0,1,.51.37,1.39,1.39,0,0,1,.11.46,2.6,2.6,0,0,1,0,.84,2.93,2.93,0,0,1-.59,1.28c-.51.62-1,.75-1,.71s.4-.28.8-.89a2.76,2.76,0,0,0,.44-1.16,2.54,2.54,0,0,0,0-.73c0-.26-.12-.48-.22-.46s-.35.19-.46.39a5.19,5.19,0,0,0-.33.67,4.72,4.72,0,0,0-.3,1.24C649.45,411.24,649.56,411.71,649.5,411.72Z"/><path class="cls-6" d="M659.33,298.43s4.59,9.41,5.79,16.12c.33,1.9-13.15,98.36-13.15,98.36l-15.94-.6,7.47-89.76-2.66-18Z"/><path class="cls-6" d="M620.6,304.31a143.21,143.21,0,0,0,1,19.5c1.18,9.46,3.88,20.23,4.76,26.25,2,13.32,5.76,15.84,5.76,15.84L662.75,405l12-10.79-27-43.13s-7.18-47.86-6.93-46.57S620.6,304.31,620.6,304.31Z"/><path class="cls-10" d="M632.77,366.45a2.62,2.62,0,0,0,.28.41l.88,1.12,3.21,4.14,10.48,13.72c4.09,5.37,7.81,10.21,10.57,13.67,1.38,1.73,2.51,3.12,3.3,4.07l.92,1.08a3,3,0,0,0,.34.37,2.62,2.62,0,0,0-.28-.41l-.88-1.13-3.21-4.13L647.9,385.63c-4.09-5.36-7.81-10.21-10.57-13.66-1.38-1.74-2.51-3.12-3.3-4.07l-.92-1.09A3.26,3.26,0,0,0,632.77,366.45Z"/><path class="cls-10" d="M629.35,311.64a3.38,3.38,0,0,1-.42,1.53,9.86,9.86,0,0,1-5.47,5.12,3.66,3.66,0,0,1-1.55.33,13,13,0,0,0,7.44-7Z"/><path class="cls-10" d="M662.36,306.18a4.19,4.19,0,0,1-4.49-.66c.08-.13,1,.3,2.22.47S662.32,306,662.36,306.18Z"/><path class="cls-10" d="M645.14,319.48a3.39,3.39,0,0,1,.11.64c.06.46.14,1.07.23,1.84.19,1.65.45,4,.77,6.86.62,5.89,1.48,14,2.45,23.34l0-.11,4.43,7.08,15.39,24.77,4.61,7.54,1.23,2.06a5,5,0,0,1,.4.74,5.1,5.1,0,0,1-.49-.69c-.33-.49-.76-1.16-1.31-2l-4.76-7.45-15.51-24.68-4.43-7.09,0-.05v-.06c-.91-9.31-1.7-17.47-2.28-23.36L645.3,322c-.06-.77-.1-1.38-.14-1.85A3.86,3.86,0,0,1,645.14,319.48Z"/><path class="cls-10" d="M640.5,235.42l9.55,3.06.73,20.23s5.13,23.72,6.24,26.74a61.26,61.26,0,0,1,2.91,11.08s-1.83,13.42-15.24,15-25.89-6.12-25.89-6.12-4.48-20-8.58-37.94c-3.9-17.07-.73-27.25-.73-27.25l14.7-5.28Z"/><rect class="cls-4" x="638.93" y="247.2" width="8.83" height="2.27" transform="translate(-25.17 79.09) rotate(-6.9)"/><path class="cls-6" d="M649.69,222.43a2,2,0,0,0-2.12-1.66,1.67,1.67,0,0,0-.22-2.8,3.45,3.45,0,0,0-.7-4.56L636.57,227.3a7.33,7.33,0,0,0,5.56,1.52,14.87,14.87,0,0,0,5.54-2,2.26,2.26,0,0,0,1.11-1c.19-.47-.09-1.15-.6-1.16A2,2,0,0,0,649.69,222.43Z"/><path class="cls-6" d="M624.68,214.89a.95.95,0,0,0-1,1.48,1.7,1.7,0,0,0-1.59.67,1.72,1.72,0,0,0-.15,1.71,3.27,3.27,0,0,0-2,.55,1.91,1.91,0,0,0-.8,1.87,1.36,1.36,0,0,0,1.61,1,1.86,1.86,0,0,0,.1,2,1.2,1.2,0,0,0,1.81.05,1.47,1.47,0,0,0,.06,1.76,1.49,1.49,0,0,0,1.73.38A1.57,1.57,0,0,0,626.9,228Z"/><path class="cls-13" d="M625.3,212.23l-.43,24.59a7.64,7.64,0,0,0,7,7.75h0a7.65,7.65,0,0,0,8.32-7.44c.05-2.34.08-4.26.08-4.26s6-.4,6.6-6.3c.34-3.42.44-11.22.46-17.21a7.8,7.8,0,0,0-7.11-7.78l-3.57-.31A11,11,0,0,0,625.3,212.23Z"/><path class="cls-14" d="M640.24,232.87a14.35,14.35,0,0,1-7.5-3s1.53,4.47,7.48,4.46Z"/><path class="cls-6" d="M645.65,215.37c-.12.1-.71-.43-1.62-.51s-1.62.32-1.71.2.08-.24.39-.43a2.34,2.34,0,0,1,2.66.25C645.63,215.12,645.7,215.32,645.65,215.37Z"/><path class="cls-6" d="M636,215.77a.85.85,0,0,1-.89.78.81.81,0,0,1-.8-.84.84.84,0,0,1,.89-.78A.8.8,0,0,1,636,215.77Z"/><path class="cls-6" d="M644.84,216.56a.87.87,0,0,1-.89.78.82.82,0,0,1-.81-.84.85.85,0,0,1,.89-.78A.81.81,0,0,1,644.84,216.56Z"/><path class="cls-6" d="M636.8,214.59c-.11.1-.71-.43-1.62-.51s-1.61.32-1.7.2.08-.25.39-.43a2.31,2.31,0,0,1,2.65.24C636.78,214.33,636.86,214.54,636.8,214.59Z"/><path class="cls-6" d="M639.51,221.62a6.21,6.21,0,0,1,1.5-.14c.23,0,.45,0,.51-.18a1.17,1.17,0,0,0-.1-.7c-.16-.58-.34-1.19-.53-1.83a31,31,0,0,1-1.13-4.76,29.66,29.66,0,0,1,1.51,4.66c.18.64.35,1.25.5,1.83a1.31,1.31,0,0,1,0,.92.58.58,0,0,1-.41.31,1.88,1.88,0,0,1-.4,0A5.92,5.92,0,0,1,639.51,221.62Z"/><path class="cls-6" d="M636.78,222c.14,0,.06,1,.84,1.77s1.84.76,1.84.9-.25.17-.7.14a2.48,2.48,0,0,1-1.54-.69,2.2,2.2,0,0,1-.64-1.48C636.58,222.23,636.71,222,636.78,222Z"/><path class="cls-6" d="M637.3,211.65c-.11.24-1,0-2.09.08s-2,.25-2.08,0,.11-.33.48-.54a3.69,3.69,0,0,1,1.58-.4,3.53,3.53,0,0,1,1.6.33C637.17,211.33,637.35,211.54,637.3,211.65Z"/><path class="cls-6" d="M645.75,212.75c-.18.2-.78-.07-1.54-.15s-1.4,0-1.53-.21.07-.31.36-.48a2.15,2.15,0,0,1,1.28-.23,2.13,2.13,0,0,1,1.19.52C645.76,212.44,645.83,212.66,645.75,212.75Z"/><path class="cls-13" d="M626.9,216.85c-.09-.06-3.95-1.57-4.18,2.49s3.89,3.45,3.9,3.33S626.9,216.85,626.9,216.85Z"/><path class="cls-14" d="M625.47,221.06s-.07.05-.2.1a.7.7,0,0,1-.53,0,1.77,1.77,0,0,1-.72-1.61,2.28,2.28,0,0,1,.26-1,.83.83,0,0,1,.56-.52.38.38,0,0,1,.41.22c0,.12,0,.2,0,.2s.09-.06.06-.23a.42.42,0,0,0-.14-.26.56.56,0,0,0-.39-.13,1,1,0,0,0-.77.59,2.36,2.36,0,0,0-.31,1.12,1.85,1.85,0,0,0,.93,1.81.81.81,0,0,0,.66-.07C625.46,221.16,625.48,221.07,625.47,221.06Z"/><path class="cls-6" d="M624.67,216.51a2.11,2.11,0,0,1,1.85,1.17c.22.6.22,1.26.43,1.86s.76,1.18,1.39,1.08a1.24,1.24,0,0,0,.92-.84,3.61,3.61,0,0,0,.13-1.31c-.07-1.91-.31-3.81-.21-5.72a9.71,9.71,0,0,1,1.68-5.4,5.33,5.33,0,0,1,5-2.24c1.25.22,2.34,1,3.58,1.26a5,5,0,0,0,4.22-1c.15-.12.82-.48.82-.48a2.31,2.31,0,0,0-.32-1.29c-2.27-2.51-6.68-3.54-10-3a11.83,11.83,0,0,0-8.3,5.51c-1.68,2.95-1.63,7.25-1.13,10.42"/><path class="cls-6" d="M648,208.35a3.87,3.87,0,0,1-3.4,1.8,10.8,10.8,0,0,1-3.89-.92,31.21,31.21,0,0,0-6-1.44c-.2,0-.44,0-.53-.21s.12-.49.35-.64c1.88-1.22,6.22-1.69,8.46-1.59a6.61,6.61,0,0,1,5.56,3.26"/><path class="cls-10" d="M647.44,208.46a7.23,7.23,0,0,0-4.73-2.68,19.55,19.55,0,0,0-18.24,9.15,25.17,25.17,0,0,1-.55-5.25c.11-1.21,1.46-8.31,9-9.91C633,199.77,644.43,196.52,647.44,208.46Z"/><path class="cls-10" d="M625.26,213.41a29.25,29.25,0,0,1,9.8-7.86,57.51,57.51,0,0,1,14-4.31,8.89,8.89,0,0,1,3.77-.07,3.39,3.39,0,0,1,2.57,2.52c.25,1.56-2.68,3.69-4,4.5a42.13,42.13,0,0,1-4.09,2s.29-2.84-4.21-3.83C637,205,625.26,213.41,625.26,213.41Z"/><path class="cls-6" d="M653.64,201.37a12.58,12.58,0,0,0-1.3-.2,17,17,0,0,0-3.56.24,53.93,53.93,0,0,0-11.39,3.23,31.28,31.28,0,0,0-10,6.2,13.78,13.78,0,0,0-2.28,2.74c-.44.72-.62,1.16-.66,1.15s0-.13.08-.34a7.77,7.77,0,0,1,.4-.91,12.43,12.43,0,0,1,2.2-2.9,29.44,29.44,0,0,1,10.06-6.42A48.49,48.49,0,0,1,648.73,201a15.07,15.07,0,0,1,3.63-.07,3.23,3.23,0,0,1,1,.24C653.54,201.3,653.65,201.35,653.64,201.37Z"/><path class="cls-4" d="M639,202.94a14.63,14.63,0,0,1,4.61-1.13,5.84,5.84,0,0,0-1.15-.84,11.73,11.73,0,0,0-3.6.87Z"/><path class="cls-6" d="M648.13,210.47a1.84,1.84,0,0,0,.16-1.8,1.81,1.81,0,0,0-1.49-1,1.63,1.63,0,0,0,.86-2.24,2.08,2.08,0,0,0-2.37-.93,2.91,2.91,0,0,0-1.85,1.88,1.94,1.94,0,0,0-3.31.14,1.06,1.06,0,0,0-1.28-.66,3.65,3.65,0,0,0-1.36.81,2.41,2.41,0,0,1-1.42.65l-.36.15a2.24,2.24,0,0,0,2.83.84,1.56,1.56,0,0,0,2.88.87,1.56,1.56,0,0,0,2.47.86,2,2,0,0,0,3.1.86,3.33,3.33,0,0,1,.38,2.75,1.81,1.81,0,0,0,.76-3.15Z"/><path class="cls-6" d="M631.21,209.5a26.6,26.6,0,0,0-4,2.21,8.7,8.7,0,0,0-3,3.45l2,1.91c.54.18,1,.37,1.41,0a1.71,1.71,0,0,0,.58-1.54,1.48,1.48,0,0,0,1.73-2.09,1.14,1.14,0,0,0,.54-1.92,1.16,1.16,0,0,0,.73-2Z"/><path class="cls-10" d="M650.05,238.48s5.92,3.55,7.69,6.71,11.24,26.23,10.85,30-9.26,6.12-9.26,6.12l-9.28-12,4.24-2.53-4.24-8.12Z"/><path class="cls-13" d="M659.33,281.28s-21.49,4.29-29.28-5l2.26-7.85s14.19,3.36,18.62,1.92Z"/><path class="cls-6" d="M661.54,262.19c.08.16-2.51,1.25-5.22,3.32s-4.43,4.31-4.56,4.2a5.58,5.58,0,0,1,1-1.52,19.66,19.66,0,0,1,7-5.38A5.65,5.65,0,0,1,661.54,262.19Z"/><path class="cls-6" d="M654.65,266.43a22.14,22.14,0,0,1-1.93-3.83,28.83,28.83,0,0,1-1.75-3.91,13.16,13.16,0,0,1,2.22,3.69A15,15,0,0,1,654.65,266.43Z"/><path class="cls-6" d="M650.76,256.78a17.61,17.61,0,0,0-.53-3.35,16.91,16.91,0,0,0-.86-3.28,16.22,16.22,0,0,0,.52,3.35A17.33,17.33,0,0,0,650.76,256.78Z"/><path class="cls-10" d="M612.19,241.44c.41.43,6.31,4.34,8.28,11s4.14,13.61,4.14,13.61l7.7,1L628,284.82a20.73,20.73,0,0,1-14.4-9.46,96.41,96.41,0,0,1-8.28-18.93S605.94,234.94,612.19,241.44Z"/><path class="cls-13" d="M629.67,266.74s-3.27-7.3-3.7-7.4-6.74-2.31-6.74-2.31a2.27,2.27,0,0,0,0,1.59l-2.26.29s.34,1.39,1.11,1.58l-.82.73a4.49,4.49,0,0,0,1.54,1.3,1.68,1.68,0,0,0,1.49,0s-.29.52,1,1.34,3.51,2,3.51,2Z"/><path class="cls-14" d="M624.81,265.9h0s-2.22-1.21-3.51-2c-1.1-.7-1.07-1.18-1-1.32a1.8,1.8,0,0,1-1.47,0,4.67,4.67,0,0,1-1.55-1.31v0l.8-.71c-.75-.22-1.07-1.53-1.09-1.59v0l2.26-.29a2.39,2.39,0,0,1,0-1.58h0c.06,0,6.3,2.22,6.73,2.31s3.58,7.11,3.71,7.41v0Zm-5.57-7.29v0l-2.26.29c0,.16.38,1.38,1.09,1.56h0l-.83.73a4.52,4.52,0,0,0,1.52,1.29,1.71,1.71,0,0,0,1.48,0l.05,0,0,0s-.26.52,1,1.32,3.42,2,3.51,2l4.82.85c-1.13-2.53-3.34-7.29-3.68-7.36s-6.37-2.19-6.72-2.31A2.3,2.3,0,0,0,619.24,258.61Z"/><path class="cls-14" d="M619.43,258.65a31.21,31.21,0,0,0,4.13,1.6c.57.21,1.14.37,1.59.58a2.13,2.13,0,0,1,1,.9c.37.68.51,1.17.57,1.15a3,3,0,0,0-.36-1.27,2.27,2.27,0,0,0-1-1.06,14.16,14.16,0,0,0-1.63-.62A28.13,28.13,0,0,0,619.43,258.65Z"/><path class="cls-14" d="M618,260.5a3.28,3.28,0,0,0,1.14.41c.72.2,1.74.36,2.82.65a7.55,7.55,0,0,1,2.56,1.2c.57.45.82.84.87.81a2.11,2.11,0,0,0-.72-1,6.24,6.24,0,0,0-2.62-1.35c-1.11-.3-2.13-.42-2.86-.55A5.43,5.43,0,0,0,618,260.5Z"/><path class="cls-14" d="M623.74,263.82a2.75,2.75,0,0,0-1.51-1,2.7,2.7,0,0,0-1.82-.16c0,.1.79.15,1.7.48S623.68,263.9,623.74,263.82Z"/><path class="cls-13" d="M631.65,269,651,259.2l3.56,7.23s-17.88,17.71-26.25,17.48"/><path class="cls-6" d="M619.86,248.47a6.6,6.6,0,0,0,.27,1.43c.2.87.5,2.07.86,3.39s.7,2.52,1,3.38a6.25,6.25,0,0,0,.49,1.36,6.05,6.05,0,0,0-.26-1.43c-.21-.87-.51-2.07-.87-3.4s-.7-2.51-1-3.36A5.37,5.37,0,0,0,619.86,248.47Z"/><path class="cls-6" d="M620.7,272.55c.06,0,.23-.89.68-2.28a7.22,7.22,0,0,1,1.17-2.24,4.14,4.14,0,0,1,2.51-1.59,9.66,9.66,0,0,1,3.07.35l2.54.51a3.91,3.91,0,0,1,.93.24.87.87,0,0,1,.47.48.73.73,0,0,1,0,.58s.28-.16.16-.62a1,1,0,0,0-.51-.61,3.68,3.68,0,0,0-1-.31l-2.52-.57a9.19,9.19,0,0,0-3.19-.39,4.37,4.37,0,0,0-2.71,1.73,7.24,7.24,0,0,0-1.15,2.37,14,14,0,0,0-.38,1.71A2.34,2.34,0,0,0,620.7,272.55Z"/><path class="cls-6" d="M618.06,268.65a8.35,8.35,0,0,1,2.1-2.41,11.65,11.65,0,0,1,3-1.3c0-.05-.38-.06-1,.07A5.93,5.93,0,0,0,620,266a5.13,5.13,0,0,0-1.58,1.77C618.09,268.27,618,268.64,618.06,268.65Z"/><path class="cls-6" d="M605.29,256.43a1.64,1.64,0,0,0,.1.38c.1.27.22.63.36,1.06.33,1,.79,2.28,1.34,3.89s1.25,3.61,2.21,5.71,2.09,4.36,3.46,6.65a22.42,22.42,0,0,0,4.83,5.74,20.66,20.66,0,0,0,5.2,3.25,15.82,15.82,0,0,0,4,1.12c.49.06.87.09,1.12.1s.4,0,.4,0-.54-.05-1.49-.23a16.68,16.68,0,0,1-3.91-1.21,22.18,22.18,0,0,1-9.83-8.93c-1.35-2.27-2.45-4.56-3.47-6.61s-1.66-4-2.26-5.66-1.09-2.95-1.44-3.86l-.42-1A1.61,1.61,0,0,0,605.29,256.43Z"/><path class="cls-6" d="M610.85,241.9c0,.1,1.48.64,3.17,1.65s2.9,2.06,3,2a12,12,0,0,0-6.14-3.63Z"/><path class="cls-6" d="M625.56,289a7.18,7.18,0,0,0,1,.5,12.5,12.5,0,0,0,1.2.52c.47.19,1,.42,1.61.61a39.5,39.5,0,0,0,4.33,1.26,40.42,40.42,0,0,0,11,1,40.55,40.55,0,0,0,4.48-.48c.63-.09,1.2-.22,1.7-.32s.92-.2,1.27-.3a6.37,6.37,0,0,0,1.06-.32,8.34,8.34,0,0,0-1.09.19c-.35.07-.78.16-1.28.24s-1.06.2-1.7.27a42.18,42.18,0,0,1-4.45.4,46.72,46.72,0,0,1-5.47-.14,44.75,44.75,0,0,1-5.41-.82,43.08,43.08,0,0,1-4.32-1.18c-.61-.18-1.15-.39-1.63-.56s-.88-.32-1.21-.46A7.66,7.66,0,0,0,625.56,289Z"/><path class="cls-6" d="M641.31,299.09a16.63,16.63,0,0,0,3.93-1,17,17,0,0,0,3.73-1.58c0-.09-1.73.55-3.84,1.25S641.29,299,641.31,299.09Z"/><g class="cls-8"><path d="M656.11,281.8a37.21,37.21,0,0,1-13.43.2,14.84,14.84,0,0,0-5-.6,16.66,16.66,0,0,0-3.85,1.46,15.05,15.05,0,0,1-14.18-1.47,9.79,9.79,0,0,0,7.34,5.15,21.74,21.74,0,0,0,9.22-.82,23.75,23.75,0,0,1,5.45-1.1c2.36-.06,4.67.71,7,.75a12.66,12.66,0,0,0,7.66-2.3Z"/></g><g class="cls-8"><path d="M648.44,297.2a12.44,12.44,0,0,1-9.45,6,6.16,6.16,0,0,1-2.49-.2,3.12,3.12,0,0,1-1.88-1.57,9,9,0,0,1,2.93-1.21l10.77-2.95"/></g><path class="cls-14" d="M654.29,266.72a5.48,5.48,0,0,1-.87.89c-.57.56-1.41,1.36-2.41,2.38s-2.17,2.28-3.61,3.53-3.07,2.54-4.8,3.89a51.94,51.94,0,0,1-5.11,3.5,26.14,26.14,0,0,1-4.6,2.13,20.64,20.64,0,0,1-3.32.8,5.36,5.36,0,0,1-1.25.07,38.71,38.71,0,0,0,4.45-1.22,26.88,26.88,0,0,0,4.47-2.2,55.2,55.2,0,0,0,5-3.5c1.72-1.34,3.37-2.61,4.81-3.83s2.62-2.43,3.66-3.43,1.92-1.76,2.54-2.27A5.14,5.14,0,0,1,654.29,266.72Z"/></g></g></svg>