<svg xmlns="http://www.w3.org/2000/svg" viewBox="0 0 453.23 512"><defs><style>.cls-1{fill:#00a651;}</style></defs><title>orders-delivered</title><g id="Layer_2" data-name="Layer 2"><g id="Capa_1" data-name="Capa 1"><path class="cls-1" d="M452.14,310.85,416.3,240.46a10,10,0,0,0-8.92-5.47H45.84a10,10,0,0,0-8.91,5.47L1.09,310.85A10,10,0,0,0,10,325.39H22.49V502a10,10,0,0,0,10,10H420.7a10,10,0,0,0,10-10V325.39h12.52a10,10,0,0,0,8.92-14.54ZM401.25,255l25.65,50.38H268.58L242.93,255ZM52,255H210.29l-25.65,50.38H26.33ZM410.69,492H236.62V436.54a10,10,0,1,0-20,0V492H42.5V325.39H190.78a10,10,0,0,0,8.91-5.46l16.92-33.23v60a10,10,0,0,0,20,0v-60l16.91,33.23a10,10,0,0,0,8.92,5.46H410.69Z"/><path class="cls-1" d="M141.06,437.2h-57a10,10,0,1,0,0,20h57a10,10,0,0,0,0-20Z"/><path class="cls-1" d="M226.61,205.57a102.79,102.79,0,1,0-102.69-102.8,102.86,102.86,0,0,0,102.69,102.8Zm0-185.56a82.78,82.78,0,1,1-82.69,82.76A82.81,82.81,0,0,1,226.61,20Z"/><path class="cls-1" d="M181.76,117.78l26.63,22.57a10,10,0,0,0,6.47,2.37c.28,0,.57,0,.85,0a10,10,0,0,0,6.82-3.55l50.12-59.9A10,10,0,0,0,257.3,66.4l-43.65,52.18-19-16.07a10,10,0,0,0-12.94,15.27Z"/><path class="cls-1" d="M30.06,112.78H73.35a10,10,0,1,0,0-20H30.06a10,10,0,0,0,0,20Z"/><path class="cls-1" d="M25.4,43.16,68.68,66A10,10,0,0,0,78,48.29L34.73,25.46a10,10,0,1,0-9.33,17.7Z"/><path class="cls-1" d="M21.21,175.89a10,10,0,0,0,13.52,4.19L78,157.28a10,10,0,0,0-9.32-17.7L25.4,162.38a10,10,0,0,0-4.19,13.51Z"/><path class="cls-1" d="M379.85,112.78h43.29a10,10,0,0,0,0-20H379.85a10,10,0,1,0,0,20Z"/><path class="cls-1" d="M379.86,67.15A10,10,0,0,0,384.52,66L427.8,43.16a10,10,0,1,0-9.33-17.7L375.18,48.29a10,10,0,0,0,4.68,18.86Z"/><path class="cls-1" d="M375.19,157.28l43.28,22.8a10,10,0,1,0,9.33-17.7l-43.29-22.8a10,10,0,1,0-9.32,17.7Z"/><path class="cls-1" d="M226.61,381.61a10,10,0,0,0-10,10v.06a10,10,0,1,0,10-10.07Z"/></g></g></svg>