<svg xmlns="http://www.w3.org/2000/svg" viewBox="0 0 489.88 465.08"><defs><style>.cls-1{fill:#f5f5f5;}.cls-2{fill:#e0e0e0;}.cls-3{fill:#455a64;}.cls-4{fill:#37474f;}.cls-5{fill:#263238;}.cls-6{fill:#f0f0f0;}.cls-7{fill:#fafafa;}.cls-8{opacity:0.1;}.cls-9{fill:#27debf;}.cls-10,.cls-11,.cls-12,.cls-13,.cls-16{fill:#fff;}.cls-10{opacity:0.7;}.cls-11{opacity:0.6;}.cls-12{opacity:0.5;}.cls-13,.cls-15{opacity:0.3;}.cls-14{opacity:0.2;}.cls-17{fill:#ffa8a7;}.cls-18{fill:#ebebeb;}.cls-19{fill:#f28f8f;}.cls-20{fill:#b16668;}.cls-21{opacity:0.15;}.cls-22{opacity:0.4;}</style></defs><title>order-preparation</title><g id="Layer_2" data-name="Layer 2"><g id="Floor"><ellipse id="Floor-2" data-name="Floor" class="cls-1" cx="244.94" cy="341.18" rx="244.94" ry="123.89"/></g><g id="Shadows"><ellipse id="Shadow" class="cls-2" cx="105.42" cy="373.59" rx="71.75" ry="41.43"/><path id="Shadow-2" data-name="Shadow" class="cls-2" d="M460.37,328.49,342.54,260.66a7.94,7.94,0,0,0-7.2,0L160.9,361.38c-2,1.15-2,3,0,4.16l117.83,67.82a7.94,7.94,0,0,0,7.2,0L460.37,332.65C462.36,331.5,462.36,329.64,460.37,328.49Z"/></g><g id="Cargo_Car" data-name="Cargo Car"><g id="Cargo_Car-2" data-name="Cargo Car"><path class="cls-2" d="M352.08,87.56l70,40.45c5,2.86,9,9.91,9,15.64V281.86l5.94,3.43V143.12c0-8.11-5.74-18.05-12.75-22.1L351.81,79.14c-7-4-12.75-.74-12.75,7.36V228.67l6,3.46V91.63C345,87.15,348.21,85.32,352.08,87.56Z"/><path id="_Path_" data-name="&lt;Path&gt;" class="cls-3" d="M298.07,396.4c0-7.29,5.12-16.15,11.43-19.79,3.31-1.91,6.28-2,8.36-.59h0l7.71,4.4-16.39,27.84-7.63-4.4h0C299.41,402.68,298.07,400.11,298.07,396.4Z"/><path id="_Path_2" data-name="&lt;Path&gt;" class="cls-4" d="M317.5,381.22c-6.31,3.64-11.43,12.5-11.43,19.79s5.12,10.24,11.43,6.59,11.42-12.5,11.42-19.79S323.81,377.57,317.5,381.22Z"/><path id="_Path_3" data-name="&lt;Path&gt;" class="cls-5" d="M321.36,392.18c0-2.85-1.73-4.16-3.86-2.93s-3.87,4.54-3.87,7.39,1.73,4.16,3.87,2.93S321.36,395,321.36,392.18Z"/><path id="_Path_4" data-name="&lt;Path&gt;" class="cls-6" d="M304.1,369.06s0,13,6.22,17.65c1.17.87,2.42,1.47,3.15,2.08,1.59,1.32.54,3.75-1.39,4.78-2.8,1.5-18.05-2.56-24.52-15Z"/><path id="_Path_5" data-name="&lt;Path&gt;" class="cls-7" d="M310,372.46s0,13,6.22,17.65c1.17.87,2.41,1.47,3.14,2.08,1.59,1.32.54,3.75-1.39,4.78-2.8,1.5-18.05-2.56-24.52-15Z"/><path id="_Path_6" data-name="&lt;Path&gt;" class="cls-5" d="M317.5,393.14a2.42,2.42,0,0,0-1.1,1.9c0,.7.49,1,1.1.64a2.43,2.43,0,0,0,1.09-1.9C318.59,393.08,318.1,392.79,317.5,393.14Z"/><path id="_Path_7" data-name="&lt;Path&gt;" class="cls-3" d="M422.11,324.78c0-7.28,5.12-16.14,11.43-19.79,3.31-1.91,6.28-2,8.37-.59h0l7.7,4.4-16.39,27.84-7.63-4.39v0C423.45,331.07,422.11,328.5,422.11,324.78Z"/><path id="_Path_8" data-name="&lt;Path&gt;" class="cls-4" d="M441.54,309.6c-6.31,3.65-11.43,12.51-11.43,19.79s5.12,10.24,11.43,6.6S453,323.49,453,316.2,447.85,306,441.54,309.6Z"/><path id="_Path_9" data-name="&lt;Path&gt;" class="cls-5" d="M445.4,320.56c0-2.85-1.73-4.16-3.86-2.92s-3.87,4.54-3.87,7.39,1.73,4.16,3.87,2.92S445.4,323.41,445.4,320.56Z"/><path id="_Path_10" data-name="&lt;Path&gt;" class="cls-6" d="M428.14,297.45s0,13,6.22,17.65c1.18.86,2.42,1.47,3.15,2.08,1.59,1.32.54,3.74-1.39,4.77-2.8,1.5-18.05-2.56-24.52-15Z"/><path id="_Path_11" data-name="&lt;Path&gt;" class="cls-7" d="M434.07,300.85s0,13,6.22,17.65c1.17.87,2.41,1.47,3.14,2.08,1.59,1.32.54,3.74-1.39,4.78-2.8,1.5-18.05-2.56-24.51-15Z"/><path id="_Path_12" data-name="&lt;Path&gt;" class="cls-5" d="M441.54,321.53a2.42,2.42,0,0,0-1.1,1.9c0,.7.49,1,1.1.63a2.43,2.43,0,0,0,1.09-1.9C442.63,321.46,442.14,321.18,441.54,321.53Z"/><polygon class="cls-3" points="443.06 288.74 333.07 225.22 153.36 328.98 263.35 392.5 443.06 288.74"/><polygon class="cls-4" points="443.06 288.74 443.06 295.65 263.35 399.41 263.35 392.5 443.06 288.74"/><polygon class="cls-5" points="153.36 328.98 153.36 335.89 263.35 399.41 263.35 392.5 153.36 328.98"/></g></g><g id="Boxes"><g id="Box"><polygon id="Shadow-3" data-name="Shadow" class="cls-8" points="427.08 289.04 332.73 343.53 236.52 288.06 331.12 233.71 427.08 289.04"/><g id="Box-2" data-name="Box"><g id="_Group_" data-name="&lt;Group&gt;"><polygon id="_Path_13" data-name="&lt;Path&gt;" class="cls-9" points="423.87 224.25 337.47 174.28 246.16 227.13 332.56 277.1 423.87 224.25"/><polygon id="_Path_14" data-name="&lt;Path&gt;" class="cls-10" points="423.87 224.25 337.47 174.28 246.16 227.13 332.56 277.1 423.87 224.25"/></g><g id="_Group_2" data-name="&lt;Group&gt;"><polygon id="_Path_15" data-name="&lt;Path&gt;" class="cls-9" points="332.56 337.5 423.87 284.65 423.87 224.25 332.56 277.1 332.56 337.5"/><polygon id="_Path_16" data-name="&lt;Path&gt;" class="cls-11" points="332.56 337.5 423.87 284.65 423.87 224.25 332.56 277.1 332.56 337.5"/></g><g id="_Group_3" data-name="&lt;Group&gt;"><g id="_Group_4" data-name="&lt;Group&gt;"><path id="_Compound_Path_" data-name="&lt;Compound Path&gt;" class="cls-3" d="M342.64,317.46a1.63,1.63,0,0,1-.79-.2,2.42,2.42,0,0,1-1-2.18V308.2l.33.06,5-2.95v7.15a5.77,5.77,0,0,1-2.47,4.67A2.21,2.21,0,0,1,342.64,317.46Zm-1-8.3v5.92a1.64,1.64,0,0,0,.58,1.48,1.11,1.11,0,0,0,1.09-.12,5.08,5.08,0,0,0,2.07-4v-.52h-1.86l-.37-2.51Zm2.58,2h1.16v-4.41l-3,1.75,1.49.27Z"/></g><g id="_Group_5" data-name="&lt;Group&gt;"><path id="_Path_17" data-name="&lt;Path&gt;" class="cls-3" d="M343.54,322.56a.4.4,0,0,1-.4-.4v-5.37a.4.4,0,1,1,.8,0v5.37A.4.4,0,0,1,343.54,322.56Z"/></g><g id="_Group_6" data-name="&lt;Group&gt;"><path id="_Path_18" data-name="&lt;Path&gt;" class="cls-3" d="M341.2,323.91a.39.39,0,0,1-.34-.2.4.4,0,0,1,.14-.55l4.68-2.7a.4.4,0,0,1,.55.15.41.41,0,0,1-.15.55l-4.68,2.7A.46.46,0,0,1,341.2,323.91Z"/></g></g><g id="_Group_7" data-name="&lt;Group&gt;"><g id="_Group_8" data-name="&lt;Group&gt;"><path id="_Path_19" data-name="&lt;Path&gt;" class="cls-3" d="M357.85,314.65a.87.87,0,0,1-.44-.11,1.07,1.07,0,0,1-.48-1v-1.1a.41.41,0,0,1,.81,0v1.1c0,.17,0,.25.07.27s.13,0,.27-.07a2.36,2.36,0,0,0,.74-1.81v-7.15a.41.41,0,1,1,.81,0V312a3.08,3.08,0,0,1-1.14,2.51A1.32,1.32,0,0,1,357.85,314.65Z"/></g><g id="_Group_9" data-name="&lt;Group&gt;"><path id="_Compound_Path_2" data-name="&lt;Compound Path&gt;" class="cls-3" d="M353.62,308.4v-.69a11.39,11.39,0,0,1,5.14-8.92,3.41,3.41,0,0,1,5.55,3.2v.24Zm7.55-9.53a4.15,4.15,0,0,0-2,.62,10.63,10.63,0,0,0-4.7,7.5l9-5.22a3,3,0,0,0-1.24-2.63A2.2,2.2,0,0,0,361.17,298.87Z"/></g></g><g id="_Group_10" data-name="&lt;Group&gt;"><g id="_Group_11" data-name="&lt;Group&gt;"><g id="_Group_12" data-name="&lt;Group&gt;"><path id="_Path_20" data-name="&lt;Path&gt;" class="cls-3" d="M372.3,306.42a.4.4,0,0,1-.4-.41V292.32a.4.4,0,0,1,.8,0V306A.4.4,0,0,1,372.3,306.42Z"/></g><g id="_Group_13" data-name="&lt;Group&gt;"><path id="_Path_21" data-name="&lt;Path&gt;" class="cls-3" d="M371.13,295.44a.41.41,0,0,1-.16,0,.4.4,0,0,1-.21-.53l1.43-3.31,1.6,1.85a.42.42,0,0,1,0,.57.41.41,0,0,1-.57-.05l-.76-.87-.93,2.13A.39.39,0,0,1,371.13,295.44Z"/></g></g><g id="_Group_14" data-name="&lt;Group&gt;"><g id="_Group_15" data-name="&lt;Group&gt;"><path id="_Path_22" data-name="&lt;Path&gt;" class="cls-3" d="M376,304.29a.4.4,0,0,1-.4-.4V290.2a.41.41,0,0,1,.81,0v13.69A.4.4,0,0,1,376,304.29Z"/></g><g id="_Group_16" data-name="&lt;Group&gt;"><path id="_Path_23" data-name="&lt;Path&gt;" class="cls-3" d="M374.85,293.32a.41.41,0,0,1-.16,0,.4.4,0,0,1-.21-.53l1.43-3.31,1.6,1.85a.41.41,0,0,1,0,.56.4.4,0,0,1-.57,0l-.76-.87-.93,2.13A.39.39,0,0,1,374.85,293.32Z"/></g></g></g><g id="_Group_17" data-name="&lt;Group&gt;"><polygon id="_Path_24" data-name="&lt;Path&gt;" class="cls-9" points="332.56 337.5 246.16 287.53 246.16 227.13 332.56 277.1 332.56 337.5"/><polygon id="_Path_25" data-name="&lt;Path&gt;" class="cls-12" points="332.56 337.5 246.16 287.53 246.16 227.13 332.56 277.1 332.56 337.5"/></g><g id="_Group_18" data-name="&lt;Group&gt;"><polygon id="_Path_26" data-name="&lt;Path&gt;" class="cls-4" points="282.43 257.25 288.34 260.66 288.34 251.49 282.43 248.07 282.43 257.25"/><polygon id="_Path_27" data-name="&lt;Path&gt;" class="cls-3" points="288.34 251.49 379.65 198.64 373.74 195.22 282.43 248.07 288.34 251.49"/><polygon class="cls-4" points="285.11 246.51 291.02 249.93 294.32 248.03 288.4 244.61 285.11 246.51"/></g><g id="_Group_19" data-name="&lt;Group&gt;"><path id="_Path_28" data-name="&lt;Path&gt;" class="cls-7" d="M379.89,206.34,355.7,220.28c-.44.25-.32.73.26,1.06l27.31,15.77a2.09,2.09,0,0,0,1.85.15l24.19-13.94c.44-.25.32-.73-.26-1.07l-27.31-15.76A2.13,2.13,0,0,0,379.89,206.34Z"/></g><path class="cls-2" d="M392.1,230.05a.51.51,0,0,0,.44-.25.51.51,0,0,0-.19-.68L369.68,216a.49.49,0,0,0-.68.18.51.51,0,0,0,.18.69L391.85,230A.57.57,0,0,0,392.1,230.05Z"/><path class="cls-2" d="M389.59,231.49a.5.5,0,0,0,.25-.93l-22.68-13.09a.5.5,0,0,0-.68.19.5.5,0,0,0,.18.68l22.68,13.09A.51.51,0,0,0,389.59,231.49Z"/><path class="cls-2" d="M387.07,232.94a.5.5,0,0,0,.43-.25.51.51,0,0,0-.18-.69l-22.67-13.08a.5.5,0,1,0-.5.86l22.67,13.09A.45.45,0,0,0,387.07,232.94Z"/><path class="cls-2" d="M384.55,234.38a.5.5,0,0,0,.25-.93l-22.67-13.09a.5.5,0,0,0-.5.86l22.67,13.09A.47.47,0,0,0,384.55,234.38Z"/><g id="_Group_20" data-name="&lt;Group&gt;"><g id="_Group_21" data-name="&lt;Group&gt;"><polygon id="_Path_29" data-name="&lt;Path&gt;" class="cls-3" points="407.02 222.69 406.14 222.18 395.81 228.14 396.7 228.65 407.02 222.69"/></g><g id="_Group_22" data-name="&lt;Group&gt;"><polygon id="_Path_30" data-name="&lt;Path&gt;" class="cls-3" points="403.44 220.62 401.9 219.75 391.58 225.71 393.11 226.58 403.44 220.62"/></g><g id="_Group_23" data-name="&lt;Group&gt;"><polygon id="_Path_31" data-name="&lt;Path&gt;" class="cls-3" points="399.85 218.54 398.96 218.03 388.64 224 389.52 224.51 399.85 218.54"/></g><g id="_Group_24" data-name="&lt;Group&gt;"><polygon id="_Path_32" data-name="&lt;Path&gt;" class="cls-3" points="397.16 216.97 395.38 215.96 385.05 221.93 386.83 222.93 397.16 216.97"/></g><g id="_Group_25" data-name="&lt;Group&gt;"><polygon id="_Path_33" data-name="&lt;Path&gt;" class="cls-3" points="392.67 214.4 391.79 213.89 381.46 219.85 382.34 220.36 392.67 214.4"/></g><g id="_Group_26" data-name="&lt;Group&gt;"><polygon id="_Path_34" data-name="&lt;Path&gt;" class="cls-3" points="390.11 212.9 388.2 211.82 377.87 217.78 379.78 218.86 390.11 212.9"/></g><g id="_Group_27" data-name="&lt;Group&gt;"><polygon id="_Path_35" data-name="&lt;Path&gt;" class="cls-3" points="385.49 210.25 384.61 209.75 374.28 215.71 375.17 216.22 385.49 210.25"/></g><g id="_Group_28" data-name="&lt;Group&gt;"><polygon id="_Path_36" data-name="&lt;Path&gt;" class="cls-3" points="383.46 209.06 383.01 208.81 372.69 214.77 373.13 215.03 383.46 209.06"/></g><g id="_Group_29" data-name="&lt;Group&gt;"><polygon id="_Path_37" data-name="&lt;Path&gt;" class="cls-3" points="387.08 211.23 386.64 210.97 376.31 216.94 376.75 217.19 387.08 211.23"/></g><g id="_Group_30" data-name="&lt;Group&gt;"><polygon id="_Path_38" data-name="&lt;Path&gt;" class="cls-3" points="394.35 215.38 393.91 215.13 383.58 221.09 384.02 221.34 394.35 215.38"/></g><g id="_Group_31" data-name="&lt;Group&gt;"><polygon id="_Path_39" data-name="&lt;Path&gt;" class="cls-3" points="398.3 217.67 397.86 217.42 387.53 223.38 387.97 223.63 398.3 217.67"/></g><g id="_Group_32" data-name="&lt;Group&gt;"><polygon id="_Path_40" data-name="&lt;Path&gt;" class="cls-3" points="401.1 219.34 400.65 219.09 390.33 225.05 390.77 225.3 401.1 219.34"/></g><g id="_Group_33" data-name="&lt;Group&gt;"><polygon id="_Path_41" data-name="&lt;Path&gt;" class="cls-3" points="405.03 221.52 404.58 221.27 394.26 227.23 394.7 227.49 405.03 221.52"/></g><g id="_Group_34" data-name="&lt;Group&gt;"><polygon id="_Path_42" data-name="&lt;Path&gt;" class="cls-3" points="381.9 208.18 381.02 207.67 370.69 213.63 371.58 214.14 381.9 208.18"/></g></g><g id="_Group_35" data-name="&lt;Group&gt;"><path id="_Path_43" data-name="&lt;Path&gt;" class="cls-7" d="M395.81,278.64v15.15c0,.58.41.82.92.53l23.65-13.65a2.06,2.06,0,0,0,.91-1.59V263.92c0-.58-.41-.82-.91-.52l-23.65,13.66A2,2,0,0,0,395.81,278.64Z"/></g><g id="_Group_36" data-name="&lt;Group&gt;"><g id="_Group_37" data-name="&lt;Group&gt;"><polygon id="_Path_44" data-name="&lt;Path&gt;" class="cls-3" points="419.83 265.56 419.06 266.01 419.06 279.78 419.83 279.33 419.83 265.56"/></g><g id="_Group_38" data-name="&lt;Group&gt;"><polygon id="_Path_45" data-name="&lt;Path&gt;" class="cls-3" points="416.72 267.36 415.4 268.13 415.4 281.9 416.72 281.13 416.72 267.36"/></g><g id="_Group_39" data-name="&lt;Group&gt;"><polygon id="_Path_46" data-name="&lt;Path&gt;" class="cls-3" points="413.61 269.15 412.85 269.59 412.85 283.36 413.61 282.92 413.61 269.15"/></g><g id="_Group_40" data-name="&lt;Group&gt;"><polygon id="_Path_47" data-name="&lt;Path&gt;" class="cls-3" points="411.27 270.48 409.74 271.39 409.74 285.16 411.27 284.25 411.27 270.48"/></g><g id="_Group_41" data-name="&lt;Group&gt;"><polygon id="_Path_48" data-name="&lt;Path&gt;" class="cls-3" points="407.39 272.74 406.63 273.18 406.63 286.95 407.39 286.51 407.39 272.74"/></g><g id="_Group_42" data-name="&lt;Group&gt;"><polygon id="_Path_49" data-name="&lt;Path&gt;" class="cls-3" points="405.15 274 403.52 274.98 403.52 288.75 405.15 287.77 405.15 274"/></g><g id="_Group_43" data-name="&lt;Group&gt;"><polygon id="_Path_50" data-name="&lt;Path&gt;" class="cls-3" points="401.18 276.33 400.41 276.77 400.41 290.54 401.18 290.1 401.18 276.33"/></g><g id="_Group_44" data-name="&lt;Group&gt;"><polygon id="_Path_51" data-name="&lt;Path&gt;" class="cls-3" points="399.4 277.34 399.02 277.56 399.02 291.33 399.4 291.11 399.4 277.34"/></g><g id="_Group_45" data-name="&lt;Group&gt;"><polygon id="_Path_52" data-name="&lt;Path&gt;" class="cls-3" points="402.59 275.58 402.21 275.8 402.21 289.57 402.59 289.35 402.59 275.58"/></g><g id="_Group_46" data-name="&lt;Group&gt;"><polygon id="_Path_53" data-name="&lt;Path&gt;" class="cls-3" points="408.86 271.91 408.47 272.13 408.47 285.9 408.86 285.68 408.86 271.91"/></g><g id="_Group_47" data-name="&lt;Group&gt;"><polygon id="_Path_54" data-name="&lt;Path&gt;" class="cls-3" points="412.28 269.94 411.9 270.16 411.9 283.93 412.28 283.71 412.28 269.94"/></g><g id="_Group_48" data-name="&lt;Group&gt;"><polygon id="_Path_55" data-name="&lt;Path&gt;" class="cls-3" points="414.75 268.58 414.37 268.8 414.37 282.57 414.75 282.35 414.75 268.58"/></g><g id="_Group_49" data-name="&lt;Group&gt;"><polygon id="_Path_56" data-name="&lt;Path&gt;" class="cls-3" points="418.09 266.56 417.7 266.77 417.7 280.55 418.09 280.32 418.09 266.56"/></g><g id="_Group_50" data-name="&lt;Group&gt;"><polygon id="_Path_57" data-name="&lt;Path&gt;" class="cls-3" points="398.07 278.12 397.3 278.56 397.31 292.33 398.07 291.89 398.07 278.12"/></g></g></g></g><g id="Box-3" data-name="Box"><polygon id="Shadow-4" data-name="Shadow" class="cls-8" points="417.99 222.97 334.17 271.42 245.5 220.12 329.32 171.67 417.99 222.97"/><g id="Box-4" data-name="Box"><g id="_Group_51" data-name="&lt;Group&gt;"><polygon id="_Path_58" data-name="&lt;Path&gt;" class="cls-9" points="243.19 154.52 323.6 108 414.6 160.65 334.19 207.17 243.19 154.52"/><polygon id="_Path_59" data-name="&lt;Path&gt;" class="cls-13" points="243.19 154.52 323.6 108 414.6 160.65 334.19 207.17 243.19 154.52"/></g><g id="_Group_52" data-name="&lt;Group&gt;"><path id="_Path_60" data-name="&lt;Path&gt;" class="cls-7" d="M281.73,138,305.92,152c.44.26.32.73-.26,1.07l-27.31,15.77a2.12,2.12,0,0,1-1.85.15L252.31,155c-.44-.25-.32-.73.26-1.07l27.31-15.76A2.09,2.09,0,0,1,281.73,138Z"/></g><path class="cls-2" d="M269.52,161.75a.5.5,0,0,1-.25-.93l22.67-13.09a.5.5,0,1,1,.5.86l-22.67,13.09A.47.47,0,0,1,269.52,161.75Z"/><path class="cls-2" d="M272,163.19a.5.5,0,0,1-.25-.93l22.67-13.09a.51.51,0,0,1,.69.18.52.52,0,0,1-.19.69l-22.67,13.09A.54.54,0,0,1,272,163.19Z"/><path class="cls-2" d="M274.55,164.63a.48.48,0,0,1-.43-.25.5.5,0,0,1,.18-.68L297,150.61a.5.5,0,0,1,.5.87L274.8,164.57A.57.57,0,0,1,274.55,164.63Z"/><path class="cls-2" d="M277.07,166.08a.51.51,0,0,1-.44-.25.52.52,0,0,1,.19-.69l22.67-13.08a.5.5,0,1,1,.5.86L277.32,166A.47.47,0,0,1,277.07,166.08Z"/><g id="_Group_53" data-name="&lt;Group&gt;"><g id="_Group_54" data-name="&lt;Group&gt;"><polygon id="_Path_61" data-name="&lt;Path&gt;" class="cls-3" points="254.59 154.39 255.48 153.88 265.8 159.84 264.92 160.35 254.59 154.39"/></g><g id="_Group_55" data-name="&lt;Group&gt;"><polygon id="_Path_62" data-name="&lt;Path&gt;" class="cls-3" points="258.18 152.31 259.71 151.44 270.04 157.41 268.51 158.28 258.18 152.31"/></g><g id="_Group_56" data-name="&lt;Group&gt;"><polygon id="_Path_63" data-name="&lt;Path&gt;" class="cls-3" points="261.77 150.24 262.65 149.73 272.98 155.7 272.1 156.21 261.77 150.24"/></g><g id="_Group_57" data-name="&lt;Group&gt;"><polygon id="_Path_64" data-name="&lt;Path&gt;" class="cls-3" points="264.46 148.67 266.24 147.66 276.57 153.62 274.79 154.63 264.46 148.67"/></g><g id="_Group_58" data-name="&lt;Group&gt;"><polygon id="_Path_65" data-name="&lt;Path&gt;" class="cls-3" points="268.95 146.1 269.83 145.59 280.16 151.55 279.28 152.06 268.95 146.1"/></g><g id="_Group_59" data-name="&lt;Group&gt;"><polygon id="_Path_66" data-name="&lt;Path&gt;" class="cls-3" points="271.51 144.59 273.42 143.52 283.75 149.48 281.84 150.56 271.51 144.59"/></g><g id="_Group_60" data-name="&lt;Group&gt;"><polygon id="_Path_67" data-name="&lt;Path&gt;" class="cls-3" points="276.13 141.95 277.01 141.44 287.33 147.41 286.45 147.91 276.13 141.95"/></g><g id="_Group_61" data-name="&lt;Group&gt;"><polygon id="_Path_68" data-name="&lt;Path&gt;" class="cls-3" points="278.16 140.76 278.6 140.51 288.93 146.47 288.49 146.73 278.16 140.76"/></g><g id="_Group_62" data-name="&lt;Group&gt;"><polygon id="_Path_69" data-name="&lt;Path&gt;" class="cls-3" points="274.54 142.93 274.98 142.67 285.31 148.63 284.87 148.89 274.54 142.93"/></g><g id="_Group_63" data-name="&lt;Group&gt;"><polygon id="_Path_70" data-name="&lt;Path&gt;" class="cls-3" points="267.27 147.08 267.71 146.82 278.04 152.79 277.6 153.04 267.27 147.08"/></g><g id="_Group_64" data-name="&lt;Group&gt;"><polygon id="_Path_71" data-name="&lt;Path&gt;" class="cls-3" points="263.32 149.37 263.76 149.11 274.09 155.08 273.65 155.33 263.32 149.37"/></g><g id="_Group_65" data-name="&lt;Group&gt;"><polygon id="_Path_72" data-name="&lt;Path&gt;" class="cls-3" points="260.52 151.04 260.96 150.78 271.29 156.75 270.85 157 260.52 151.04"/></g><g id="_Group_66" data-name="&lt;Group&gt;"><polygon id="_Path_73" data-name="&lt;Path&gt;" class="cls-3" points="256.59 153.22 257.03 152.97 267.36 158.93 266.92 159.18 256.59 153.22"/></g><g id="_Group_67" data-name="&lt;Group&gt;"><polygon id="_Path_74" data-name="&lt;Path&gt;" class="cls-3" points="279.71 139.88 280.6 139.37 290.92 145.33 290.04 145.84 279.71 139.88"/></g></g><g id="_Group_68" data-name="&lt;Group&gt;"><polygon id="_Path_75" data-name="&lt;Path&gt;" class="cls-9" points="334.18 267.56 243.19 214.91 243.19 154.51 334.18 207.17 334.18 267.56"/></g><g id="_Group_69" data-name="&lt;Group&gt;"><polygon id="_Path_76" data-name="&lt;Path&gt;" class="cls-9" points="334.18 267.56 414.6 221.05 414.6 160.65 334.19 207.17 334.18 267.56"/><polygon id="_Path_77" data-name="&lt;Path&gt;" class="cls-8" points="334.18 267.56 414.6 221.05 414.6 160.65 334.19 207.17 334.18 267.56"/></g><g id="_Group_70" data-name="&lt;Group&gt;"><polygon id="_Path_78" data-name="&lt;Path&gt;" class="cls-4" points="378.33 190.77 372.41 194.19 372.41 185.01 378.33 181.59 378.33 190.77"/></g><g id="_Group_71" data-name="&lt;Group&gt;"><polygon id="_Path_79" data-name="&lt;Path&gt;" class="cls-3" points="372.41 185.01 281.42 132.36 287.33 128.94 378.33 181.59 372.41 185.01"/></g><g id="_Group_72" data-name="&lt;Group&gt;"><g id="_Group_73" data-name="&lt;Group&gt;"><path id="_Compound_Path_3" data-name="&lt;Compound Path&gt;" class="cls-3" d="M300.83,238.67a5,5,0,0,1-2.11-4v-6.11l4.29,2.52.28-.05v.4h0v5.47a2,2,0,0,1-.84,1.85,1.32,1.32,0,0,1-.67.18A1.91,1.91,0,0,1,300.83,238.67Zm.48-6.58-.31,2.14h-1.59v.45a4.34,4.34,0,0,0,1.77,3.4,1,1,0,0,0,.93.1,1.41,1.41,0,0,0,.49-1.26v-5.06Zm-.61-.59,1.27-.23-2.56-1.5v3.77h1Z"/></g><g id="_Group_74" data-name="&lt;Group&gt;"><path id="_Path_80" data-name="&lt;Path&gt;" class="cls-3" d="M301,243.31a.35.35,0,0,0,.35-.34v-4.6A.35.35,0,0,0,301,238a.34.34,0,0,0-.34.34V243A.34.34,0,0,0,301,243.31Z"/></g><g id="_Group_75" data-name="&lt;Group&gt;"><path id="_Path_81" data-name="&lt;Path&gt;" class="cls-3" d="M303,244.46a.34.34,0,0,0,.3-.17.35.35,0,0,0-.13-.47l-4-2.3a.34.34,0,0,0-.47.12.34.34,0,0,0,.13.47l4,2.31A.33.33,0,0,0,303,244.46Z"/></g></g><g id="_Group_76" data-name="&lt;Group&gt;"><g id="_Group_77" data-name="&lt;Group&gt;"><path id="_Path_82" data-name="&lt;Path&gt;" class="cls-3" d="M315,251.56a.85.85,0,0,0,.38-.09.91.91,0,0,0,.41-.83v-.94a.35.35,0,0,0-.35-.35.35.35,0,0,0-.34.35v.94c0,.14,0,.22-.07.23s-.1,0-.22-.06a2,2,0,0,1-.64-1.55v-6.11a.35.35,0,0,0-.34-.35.35.35,0,0,0-.35.35v6.11a2.6,2.6,0,0,0,1,2.14A1,1,0,0,0,315,251.56Z"/></g><g id="_Group_78" data-name="&lt;Group&gt;"><path id="_Compound_Path_4" data-name="&lt;Compound Path&gt;" class="cls-3" d="M309.45,240.94v-.2a2.91,2.91,0,0,1,4.74-2.73,9.73,9.73,0,0,1,4.4,7.62v.59Zm1.75-2.63a2.55,2.55,0,0,0-1.06,2.24l7.73,4.46a9.07,9.07,0,0,0-4-6.41,3.54,3.54,0,0,0-1.72-.53A1.84,1.84,0,0,0,311.2,238.31Z"/></g></g><g id="_Group_79" data-name="&lt;Group&gt;"><g id="_Group_80" data-name="&lt;Group&gt;"><g id="_Group_81" data-name="&lt;Group&gt;"><path id="_Path_83" data-name="&lt;Path&gt;" class="cls-3" d="M328.79,259.28a.35.35,0,0,0,.35-.35v-11.7a.35.35,0,0,0-.35-.34.34.34,0,0,0-.34.34v11.7A.35.35,0,0,0,328.79,259.28Z"/></g><g id="_Group_82" data-name="&lt;Group&gt;"><path id="_Path_84" data-name="&lt;Path&gt;" class="cls-3" d="M329.8,249.9a.28.28,0,0,0,.13,0,.33.33,0,0,0,.18-.45l-1.22-2.83-1.36,1.58a.34.34,0,1,0,.51.45l.65-.75.79,1.82A.36.36,0,0,0,329.8,249.9Z"/></g></g><g id="_Group_83" data-name="&lt;Group&gt;"><g id="_Group_84" data-name="&lt;Group&gt;"><path id="_Path_85" data-name="&lt;Path&gt;" class="cls-3" d="M325.61,257.46a.35.35,0,0,0,.35-.34v-11.7a.35.35,0,0,0-.35-.35.35.35,0,0,0-.34.35v11.7A.34.34,0,0,0,325.61,257.46Z"/></g><g id="_Group_85" data-name="&lt;Group&gt;"><path id="_Path_86" data-name="&lt;Path&gt;" class="cls-3" d="M326.62,248.09a.35.35,0,0,0,.14,0,.34.34,0,0,0,.17-.45l-1.22-2.83-1.36,1.58a.34.34,0,0,0,0,.48.36.36,0,0,0,.49,0l.64-.75.79,1.82A.36.36,0,0,0,326.62,248.09Z"/></g></g></g><g id="_Group_86" data-name="&lt;Group&gt;"><path id="_Path_87" data-name="&lt;Path&gt;" class="cls-7" d="M271,209.44v15.15c0,.59-.41.82-.92.53l-23.65-13.65a2,2,0,0,1-.91-1.59V194.73c0-.59.41-.82.91-.53l23.65,13.66A2,2,0,0,1,271,209.44Z"/></g><g id="_Group_87" data-name="&lt;Group&gt;"><g id="_Group_88" data-name="&lt;Group&gt;"><polygon id="_Path_88" data-name="&lt;Path&gt;" class="cls-3" points="246.96 196.37 247.73 196.81 247.73 210.58 246.96 210.14 246.96 196.37"/></g><g id="_Group_89" data-name="&lt;Group&gt;"><polygon id="_Path_89" data-name="&lt;Path&gt;" class="cls-3" points="250.07 198.16 251.39 198.94 251.39 212.71 250.07 211.93 250.07 198.16"/></g><g id="_Group_90" data-name="&lt;Group&gt;"><polygon id="_Path_90" data-name="&lt;Path&gt;" class="cls-3" points="253.18 199.96 253.94 200.4 253.94 214.17 253.18 213.72 253.18 199.96"/></g><g id="_Group_91" data-name="&lt;Group&gt;"><polygon id="_Path_91" data-name="&lt;Path&gt;" class="cls-3" points="255.52 201.28 257.05 202.19 257.05 215.96 255.52 215.05 255.52 201.28"/></g><g id="_Group_92" data-name="&lt;Group&gt;"><polygon id="_Path_92" data-name="&lt;Path&gt;" class="cls-3" points="259.4 203.54 260.16 203.98 260.16 217.75 259.4 217.31 259.4 203.54"/></g><g id="_Group_93" data-name="&lt;Group&gt;"><polygon id="_Path_93" data-name="&lt;Path&gt;" class="cls-3" points="261.63 204.81 263.27 205.78 263.27 219.55 261.63 218.58 261.63 204.81"/></g><g id="_Group_94" data-name="&lt;Group&gt;"><polygon id="_Path_94" data-name="&lt;Path&gt;" class="cls-3" points="265.61 207.13 266.38 207.57 266.38 221.34 265.61 220.9 265.61 207.13"/></g><g id="_Group_95" data-name="&lt;Group&gt;"><polygon id="_Path_95" data-name="&lt;Path&gt;" class="cls-3" points="267.39 208.14 267.77 208.36 267.77 222.13 267.39 221.91 267.39 208.14"/></g><g id="_Group_96" data-name="&lt;Group&gt;"><polygon id="_Path_96" data-name="&lt;Path&gt;" class="cls-3" points="264.2 206.38 264.58 206.6 264.58 220.37 264.2 220.15 264.2 206.38"/></g><g id="_Group_97" data-name="&lt;Group&gt;"><polygon id="_Path_97" data-name="&lt;Path&gt;" class="cls-3" points="257.94 202.71 258.32 202.93 258.32 216.7 257.93 216.48 257.94 202.71"/></g><g id="_Group_98" data-name="&lt;Group&gt;"><polygon id="_Path_98" data-name="&lt;Path&gt;" class="cls-3" points="254.51 200.75 254.89 200.97 254.89 214.74 254.5 214.51 254.51 200.75"/></g><g id="_Group_99" data-name="&lt;Group&gt;"><polygon id="_Path_99" data-name="&lt;Path&gt;" class="cls-3" points="252.04 199.38 252.42 199.6 252.42 213.38 252.04 213.16 252.04 199.38"/></g><g id="_Group_100" data-name="&lt;Group&gt;"><polygon id="_Path_100" data-name="&lt;Path&gt;" class="cls-3" points="248.7 197.36 249.09 197.58 249.08 211.35 248.7 211.13 248.7 197.36"/></g><g id="_Group_101" data-name="&lt;Group&gt;"><polygon id="_Path_101" data-name="&lt;Path&gt;" class="cls-3" points="268.72 208.92 269.49 209.37 269.49 223.13 268.72 222.69 268.72 208.92"/></g></g></g></g><g id="Box-5" data-name="Box"><polygon id="Shadow-5" data-name="Shadow" class="cls-8" points="241.75 153.69 328.9 204.11 397.19 164.68 309.88 114.27 241.75 153.69"/><g id="Box-6" data-name="Box"><g id="_Group_102" data-name="&lt;Group&gt;"><polygon id="_Path_102" data-name="&lt;Path&gt;" class="cls-9" points="237.72 126.16 310.83 83.94 396.14 133.19 323.02 175.41 237.72 126.16"/><polygon id="_Path_103" data-name="&lt;Path&gt;" class="cls-8" points="237.72 126.16 310.83 83.94 396.14 133.19 323.02 175.41 237.72 126.16"/></g><g id="_Group_103" data-name="&lt;Group&gt;"><path id="_Path_104" data-name="&lt;Path&gt;" class="cls-7" d="M276.26,109.68l24.19,13.93c.44.26.32.74-.26,1.07l-27.31,15.77a2.09,2.09,0,0,1-1.85.15l-24.19-13.94c-.44-.25-.32-.73.26-1.07l27.31-15.76A2.13,2.13,0,0,1,276.26,109.68Z"/></g><path class="cls-2" d="M264.05,133.39a.5.5,0,0,1-.25-.93l22.67-13.09a.5.5,0,0,1,.68.18.51.51,0,0,1-.18.69L264.3,133.33A.57.57,0,0,1,264.05,133.39Z"/><path class="cls-2" d="M266.56,134.83a.5.5,0,0,1-.25-.93L289,120.81a.51.51,0,0,1,.69.19.5.5,0,0,1-.19.68l-22.67,13.09A.54.54,0,0,1,266.56,134.83Z"/><path class="cls-2" d="M269.08,136.28a.5.5,0,0,1-.43-.25.51.51,0,0,1,.18-.69l22.67-13.08a.5.5,0,0,1,.5.86l-22.67,13.09A.47.47,0,0,1,269.08,136.28Z"/><path class="cls-2" d="M271.6,137.72a.52.52,0,0,1-.44-.25.5.5,0,0,1,.19-.68L294,123.7a.5.5,0,0,1,.5.86l-22.67,13.09A.47.47,0,0,1,271.6,137.72Z"/><g id="_Group_104" data-name="&lt;Group&gt;"><g id="_Group_105" data-name="&lt;Group&gt;"><polygon id="_Path_105" data-name="&lt;Path&gt;" class="cls-3" points="249.13 126.03 250.01 125.52 260.33 131.48 259.45 131.99 249.13 126.03"/></g><g id="_Group_106" data-name="&lt;Group&gt;"><polygon id="_Path_106" data-name="&lt;Path&gt;" class="cls-3" points="252.71 123.96 254.24 123.08 264.57 129.05 263.04 129.92 252.71 123.96"/></g><g id="_Group_107" data-name="&lt;Group&gt;"><polygon id="_Path_107" data-name="&lt;Path&gt;" class="cls-3" points="256.3 121.88 257.18 121.38 267.51 127.34 266.63 127.85 256.3 121.88"/></g><g id="_Group_108" data-name="&lt;Group&gt;"><polygon id="_Path_108" data-name="&lt;Path&gt;" class="cls-3" points="258.99 120.31 260.77 119.3 271.1 125.27 269.32 126.27 258.99 120.31"/></g><g id="_Group_109" data-name="&lt;Group&gt;"><polygon id="_Path_109" data-name="&lt;Path&gt;" class="cls-3" points="263.48 117.74 264.36 117.23 274.69 123.19 273.81 123.7 263.48 117.74"/></g><g id="_Group_110" data-name="&lt;Group&gt;"><polygon id="_Path_110" data-name="&lt;Path&gt;" class="cls-3" points="266.04 116.23 267.95 115.16 278.28 121.12 276.37 122.2 266.04 116.23"/></g><g id="_Group_111" data-name="&lt;Group&gt;"><polygon id="_Path_111" data-name="&lt;Path&gt;" class="cls-3" points="270.66 113.59 271.54 113.08 281.87 119.05 280.98 119.56 270.66 113.59"/></g><g id="_Group_112" data-name="&lt;Group&gt;"><polygon id="_Path_112" data-name="&lt;Path&gt;" class="cls-3" points="272.69 112.41 273.13 112.15 283.46 118.11 283.02 118.37 272.69 112.41"/></g><g id="_Group_113" data-name="&lt;Group&gt;"><polygon id="_Path_113" data-name="&lt;Path&gt;" class="cls-3" points="269.07 114.57 269.51 114.31 279.84 120.28 279.4 120.53 269.07 114.57"/></g><g id="_Group_114" data-name="&lt;Group&gt;"><polygon id="_Path_114" data-name="&lt;Path&gt;" class="cls-3" points="261.8 118.72 262.24 118.47 272.57 124.43 272.13 124.68 261.8 118.72"/></g><g id="_Group_115" data-name="&lt;Group&gt;"><polygon id="_Path_115" data-name="&lt;Path&gt;" class="cls-3" points="257.85 121.01 258.29 120.76 268.62 126.72 268.18 126.97 257.85 121.01"/></g><g id="_Group_116" data-name="&lt;Group&gt;"><polygon id="_Path_116" data-name="&lt;Path&gt;" class="cls-3" points="255.05 122.68 255.5 122.42 265.82 128.39 265.38 128.64 255.05 122.68"/></g><g id="_Group_117" data-name="&lt;Group&gt;"><polygon id="_Path_117" data-name="&lt;Path&gt;" class="cls-3" points="251.12 124.86 251.56 124.61 261.89 130.57 261.45 130.83 251.12 124.86"/></g><g id="_Group_118" data-name="&lt;Group&gt;"><polygon id="_Path_118" data-name="&lt;Path&gt;" class="cls-3" points="274.25 111.52 275.13 111.01 285.45 116.97 284.57 117.48 274.25 111.52"/></g></g><g id="_Group_119" data-name="&lt;Group&gt;"><polygon id="_Path_119" data-name="&lt;Path&gt;" class="cls-9" points="323.02 203.55 237.72 154.3 237.72 126.16 323.02 175.41 323.02 203.55"/></g><g id="_Group_120" data-name="&lt;Group&gt;" class="cls-14"><polygon id="_Path_120" data-name="&lt;Path&gt;" points="323.02 203.55 237.72 154.3 237.72 126.16 323.02 175.41 323.02 203.55"/></g><g id="_Group_121" data-name="&lt;Group&gt;"><polygon id="_Path_121" data-name="&lt;Path&gt;" class="cls-9" points="323.02 203.55 396.14 161.34 396.14 133.19 323.02 175.41 323.02 203.55"/><polygon id="_Path_122" data-name="&lt;Path&gt;" class="cls-15" points="323.02 203.55 396.14 161.34 396.14 133.19 323.02 175.41 323.02 203.55"/></g><g id="_Group_122" data-name="&lt;Group&gt;"><polygon id="_Path_123" data-name="&lt;Path&gt;" class="cls-4" points="367.16 159.01 361.25 162.43 361.25 153.25 367.16 149.83 367.16 159.01"/></g><g id="_Group_123" data-name="&lt;Group&gt;"><polygon id="_Path_124" data-name="&lt;Path&gt;" class="cls-3" points="361.25 153.25 275.95 104 281.86 100.58 367.16 149.83 361.25 153.25"/></g><g id="_Group_124" data-name="&lt;Group&gt;"><g id="_Group_125" data-name="&lt;Group&gt;"><path id="_Compound_Path_5" data-name="&lt;Compound Path&gt;" class="cls-3" d="M289.67,174.66a5,5,0,0,1-2.11-4v-6.11l4.29,2.52.27,0v5.88a2.06,2.06,0,0,1-.83,1.86,1.32,1.32,0,0,1-.67.18A2,2,0,0,1,289.67,174.66Zm.48-6.59-.32,2.15h-1.58v.44a4.31,4.31,0,0,0,1.76,3.4,1,1,0,0,0,.93.1,1.39,1.39,0,0,0,.5-1.26v-5.06Zm-.61-.59,1.26-.23-2.55-1.5v3.78h1Z"/></g><g id="_Group_126" data-name="&lt;Group&gt;"><path id="_Path_125" data-name="&lt;Path&gt;" class="cls-3" d="M289.84,179.3a.35.35,0,0,0,.35-.35v-4.59a.35.35,0,0,0-.35-.35.35.35,0,0,0-.34.35V179A.35.35,0,0,0,289.84,179.3Z"/></g><g id="_Group_127" data-name="&lt;Group&gt;"><path id="_Path_126" data-name="&lt;Path&gt;" class="cls-3" d="M291.84,180.45a.35.35,0,0,0,.3-.17.34.34,0,0,0-.13-.47l-4-2.31a.33.33,0,0,0-.47.13.34.34,0,0,0,.12.47l4,2.3A.34.34,0,0,0,291.84,180.45Z"/></g></g><g id="_Group_128" data-name="&lt;Group&gt;"><g id="_Group_129" data-name="&lt;Group&gt;"><path id="_Path_127" data-name="&lt;Path&gt;" class="cls-3" d="M303.81,187.55a.69.69,0,0,0,.37-.1.91.91,0,0,0,.41-.82v-.95a.34.34,0,1,0-.68,0v.95c0,.14,0,.21-.07.23a.29.29,0,0,1-.22-.06,2,2,0,0,1-.64-1.56v-6.11a.35.35,0,0,0-.35-.34.34.34,0,0,0-.34.34v6.11a2.62,2.62,0,0,0,1,2.15A1,1,0,0,0,303.81,187.55Z"/></g><g id="_Group_130" data-name="&lt;Group&gt;"><path id="_Compound_Path_6" data-name="&lt;Compound Path&gt;" class="cls-3" d="M298.29,176.93v-.2A2.91,2.91,0,0,1,303,174a9.73,9.73,0,0,1,4.4,7.62v.6Zm1.75-2.64a2.55,2.55,0,0,0-1.06,2.24l7.73,4.47a9.11,9.11,0,0,0-4-6.41,3.47,3.47,0,0,0-1.72-.53A1.83,1.83,0,0,0,300,174.29Z"/></g></g><g id="_Group_131" data-name="&lt;Group&gt;"><g id="_Group_132" data-name="&lt;Group&gt;"><g id="_Group_133" data-name="&lt;Group&gt;"><path id="_Path_128" data-name="&lt;Path&gt;" class="cls-3" d="M317.63,195.26a.34.34,0,0,0,.34-.34v-11.7a.34.34,0,1,0-.68,0v11.7A.34.34,0,0,0,317.63,195.26Z"/></g><g id="_Group_134" data-name="&lt;Group&gt;"><path id="_Path_129" data-name="&lt;Path&gt;" class="cls-3" d="M318.63,185.89a.32.32,0,0,0,.14,0,.34.34,0,0,0,.18-.46l-1.22-2.82-1.37,1.57a.35.35,0,0,0,0,.49.34.34,0,0,0,.48,0l.65-.75.79,1.83A.35.35,0,0,0,318.63,185.89Z"/></g></g><g id="_Group_135" data-name="&lt;Group&gt;"><g id="_Group_136" data-name="&lt;Group&gt;"><path id="_Path_130" data-name="&lt;Path&gt;" class="cls-3" d="M314.45,193.45a.34.34,0,0,0,.34-.34V181.4a.34.34,0,0,0-.68,0v11.71A.34.34,0,0,0,314.45,193.45Z"/></g><g id="_Group_137" data-name="&lt;Group&gt;"><path id="_Path_131" data-name="&lt;Path&gt;" class="cls-3" d="M315.46,184.07a.31.31,0,0,0,.13,0,.33.33,0,0,0,.18-.45l-1.22-2.83-1.37,1.58a.35.35,0,0,0,0,.49.35.35,0,0,0,.48,0l.65-.75.79,1.82A.35.35,0,0,0,315.46,184.07Z"/></g></g></g><g id="_Group_138" data-name="&lt;Group&gt;"><path id="_Path_132" data-name="&lt;Path&gt;" class="cls-7" d="M265.51,148.83V164c0,.58-.41.82-.92.53l-23.65-13.66a2,2,0,0,1-.91-1.58V134.11c0-.58.41-.82.91-.53l23.65,13.67A2,2,0,0,1,265.51,148.83Z"/></g><g id="_Group_139" data-name="&lt;Group&gt;"><g id="_Group_140" data-name="&lt;Group&gt;"><polygon id="_Path_133" data-name="&lt;Path&gt;" class="cls-3" points="241.49 135.75 242.26 136.19 242.26 149.97 241.49 149.52 241.49 135.75"/></g><g id="_Group_141" data-name="&lt;Group&gt;"><polygon id="_Path_134" data-name="&lt;Path&gt;" class="cls-3" points="244.6 137.55 245.92 138.32 245.92 152.09 244.6 151.32 244.6 137.55"/></g><g id="_Group_142" data-name="&lt;Group&gt;"><polygon id="_Path_135" data-name="&lt;Path&gt;" class="cls-3" points="247.71 139.34 248.47 139.78 248.47 153.55 247.71 153.11 247.71 139.34"/></g><g id="_Group_143" data-name="&lt;Group&gt;"><polygon id="_Path_136" data-name="&lt;Path&gt;" class="cls-3" points="250.05 140.67 251.58 141.58 251.58 155.35 250.05 154.44 250.05 140.67"/></g><g id="_Group_144" data-name="&lt;Group&gt;"><polygon id="_Path_137" data-name="&lt;Path&gt;" class="cls-3" points="253.93 142.93 254.69 143.37 254.69 157.14 253.93 156.7 253.93 142.93"/></g><g id="_Group_145" data-name="&lt;Group&gt;"><polygon id="_Path_138" data-name="&lt;Path&gt;" class="cls-3" points="256.17 144.19 257.8 145.16 257.8 158.93 256.17 157.96 256.17 144.19"/></g><g id="_Group_146" data-name="&lt;Group&gt;"><polygon id="_Path_139" data-name="&lt;Path&gt;" class="cls-3" points="260.14 146.52 260.91 146.96 260.91 160.73 260.14 160.29 260.14 146.52"/></g><g id="_Group_147" data-name="&lt;Group&gt;"><polygon id="_Path_140" data-name="&lt;Path&gt;" class="cls-3" points="261.92 147.53 262.3 147.75 262.3 161.52 261.92 161.3 261.92 147.53"/></g><g id="_Group_148" data-name="&lt;Group&gt;"><polygon id="_Path_141" data-name="&lt;Path&gt;" class="cls-3" points="258.73 145.77 259.11 145.99 259.11 159.76 258.73 159.54 258.73 145.77"/></g><g id="_Group_149" data-name="&lt;Group&gt;"><polygon id="_Path_142" data-name="&lt;Path&gt;" class="cls-3" points="252.47 142.1 252.85 142.32 252.85 156.09 252.47 155.87 252.47 142.1"/></g><g id="_Group_150" data-name="&lt;Group&gt;"><polygon id="_Path_143" data-name="&lt;Path&gt;" class="cls-3" points="249.04 140.13 249.42 140.35 249.42 154.12 249.04 153.9 249.04 140.13"/></g><g id="_Group_151" data-name="&lt;Group&gt;"><polygon id="_Path_144" data-name="&lt;Path&gt;" class="cls-3" points="246.57 138.77 246.96 138.99 246.96 152.76 246.57 152.54 246.57 138.77"/></g><g id="_Group_152" data-name="&lt;Group&gt;"><polygon id="_Path_145" data-name="&lt;Path&gt;" class="cls-3" points="243.23 136.74 243.62 136.96 243.62 150.73 243.23 150.51 243.23 136.74"/></g><g id="_Group_153" data-name="&lt;Group&gt;"><polygon id="_Path_146" data-name="&lt;Path&gt;" class="cls-3" points="263.25 148.31 264.02 148.75 264.02 162.52 263.25 162.08 263.25 148.31"/></g></g></g></g><g id="Box-7" data-name="Box"><polygon id="Shadow-6" data-name="Shadow" class="cls-8" points="278.47 318.26 211.66 356.78 161.65 327.88 228.61 289.44 278.47 318.26"/><g id="Box-8" data-name="Box"><g id="_Group_154" data-name="&lt;Group&gt;"><polygon id="_Path_147" data-name="&lt;Path&gt;" class="cls-9" points="167.75 204.74 228.68 169.56 273.36 195.35 212.43 230.53 167.75 204.74"/><polygon id="_Path_148" data-name="&lt;Path&gt;" class="cls-8" points="167.75 204.74 228.68 169.56 273.36 195.35 212.43 230.53 167.75 204.74"/></g><g id="_Group_155" data-name="&lt;Group&gt;"><path id="_Path_149" data-name="&lt;Path&gt;" class="cls-7" d="M228.09,174.61l-18.7,10.78c-.34.19-.25.56.2.82L230.7,198.4a1.6,1.6,0,0,0,1.43.12l18.71-10.78c.34-.19.25-.56-.21-.82l-21.11-12.19A1.64,1.64,0,0,0,228.09,174.61Z"/></g><path class="cls-2" d="M237.53,193a.39.39,0,0,0,.2-.72L220.2,182.11a.38.38,0,0,0-.53.14.39.39,0,0,0,.14.53l17.53,10.11A.35.35,0,0,0,237.53,193Z"/><path class="cls-2" d="M235.59,194.06a.39.39,0,0,0,.33-.19.38.38,0,0,0-.14-.53l-17.53-10.12a.39.39,0,1,0-.38.67L235.39,194A.46.46,0,0,0,235.59,194.06Z"/><path class="cls-2" d="M233.64,195.18a.4.4,0,0,0,.34-.2.38.38,0,0,0-.15-.52l-17.52-10.12a.38.38,0,1,0-.39.66l17.53,10.12A.35.35,0,0,0,233.64,195.18Z"/><path class="cls-2" d="M231.69,196.29a.39.39,0,0,0,.2-.72l-17.53-10.12a.39.39,0,0,0-.53.14.4.4,0,0,0,.14.53l17.53,10.12A.34.34,0,0,0,231.69,196.29Z"/><g id="_Group_156" data-name="&lt;Group&gt;"><g id="_Group_157" data-name="&lt;Group&gt;"><polygon id="_Path_150" data-name="&lt;Path&gt;" class="cls-3" points="249.07 187.25 248.39 186.86 240.4 191.47 241.09 191.86 249.07 187.25"/></g><g id="_Group_158" data-name="&lt;Group&gt;"><polygon id="_Path_151" data-name="&lt;Path&gt;" class="cls-3" points="246.29 185.65 245.11 184.98 237.13 189.59 238.31 190.26 246.29 185.65"/></g><g id="_Group_159" data-name="&lt;Group&gt;"><polygon id="_Path_152" data-name="&lt;Path&gt;" class="cls-3" points="243.52 184.05 242.84 183.66 234.85 188.27 235.54 188.66 243.52 184.05"/></g><g id="_Group_160" data-name="&lt;Group&gt;"><polygon id="_Path_153" data-name="&lt;Path&gt;" class="cls-3" points="241.44 182.83 240.06 182.05 232.08 186.66 233.46 187.44 241.44 182.83"/></g><g id="_Group_161" data-name="&lt;Group&gt;"><polygon id="_Path_154" data-name="&lt;Path&gt;" class="cls-3" points="237.97 180.84 237.29 180.45 229.31 185.06 229.99 185.46 237.97 180.84"/></g><g id="_Group_162" data-name="&lt;Group&gt;"><polygon id="_Path_155" data-name="&lt;Path&gt;" class="cls-3" points="235.99 179.68 234.51 178.85 226.53 183.46 228 184.29 235.99 179.68"/></g><g id="_Group_163" data-name="&lt;Group&gt;"><polygon id="_Path_156" data-name="&lt;Path&gt;" class="cls-3" points="232.42 177.64 231.74 177.25 223.76 181.86 224.44 182.25 232.42 177.64"/></g><g id="_Group_164" data-name="&lt;Group&gt;"><polygon id="_Path_157" data-name="&lt;Path&gt;" class="cls-3" points="230.85 176.72 230.51 176.52 222.52 181.13 222.86 181.33 230.85 176.72"/></g><g id="_Group_165" data-name="&lt;Group&gt;"><polygon id="_Path_158" data-name="&lt;Path&gt;" class="cls-3" points="233.65 178.39 233.31 178.2 225.32 182.81 225.66 183 233.65 178.39"/></g><g id="_Group_166" data-name="&lt;Group&gt;"><polygon id="_Path_159" data-name="&lt;Path&gt;" class="cls-3" points="239.27 181.6 238.93 181.41 230.94 186.02 231.28 186.21 239.27 181.6"/></g><g id="_Group_167" data-name="&lt;Group&gt;"><polygon id="_Path_160" data-name="&lt;Path&gt;" class="cls-3" points="242.32 183.37 241.98 183.18 234 187.79 234.34 187.98 242.32 183.37"/></g><g id="_Group_168" data-name="&lt;Group&gt;"><polygon id="_Path_161" data-name="&lt;Path&gt;" class="cls-3" points="244.49 184.66 244.15 184.47 236.16 189.08 236.5 189.27 244.49 184.66"/></g><g id="_Group_169" data-name="&lt;Group&gt;"><polygon id="_Path_162" data-name="&lt;Path&gt;" class="cls-3" points="247.53 186.35 247.18 186.16 239.2 190.77 239.54 190.96 247.53 186.35"/></g><g id="_Group_170" data-name="&lt;Group&gt;"><polygon id="_Path_163" data-name="&lt;Path&gt;" class="cls-3" points="229.65 176.04 228.97 175.64 220.98 180.25 221.66 180.65 229.65 176.04"/></g></g><g id="_Group_171" data-name="&lt;Group&gt;"><polygon id="_Path_164" data-name="&lt;Path&gt;" class="cls-9" points="212.43 352.5 167.75 326.71 167.75 204.74 212.43 230.53 212.43 352.5"/></g><g id="_Group_172" data-name="&lt;Group&gt;" class="cls-14"><polygon id="_Path_165" data-name="&lt;Path&gt;" points="212.43 352.5 167.75 326.71 167.75 204.74 212.43 230.53 212.43 352.5"/></g><g id="_Group_173" data-name="&lt;Group&gt;"><polygon id="_Path_166" data-name="&lt;Path&gt;" class="cls-9" points="212.43 352.5 273.36 317.33 273.36 195.35 212.43 230.53 212.43 352.5"/><polygon id="_Path_167" data-name="&lt;Path&gt;" class="cls-15" points="212.43 352.5 273.36 317.33 273.36 195.35 212.43 230.53 212.43 352.5"/></g><g id="_Group_174" data-name="&lt;Group&gt;"><polygon id="_Path_168" data-name="&lt;Path&gt;" class="cls-4" points="244.93 220.95 239.02 224.36 239.02 215.19 244.93 211.77 244.93 220.95"/></g><g id="_Group_175" data-name="&lt;Group&gt;"><polygon id="_Path_169" data-name="&lt;Path&gt;" class="cls-3" points="239.02 215.19 194.33 189.39 200.25 185.97 244.93 211.77 239.02 215.19"/></g><g id="_Group_176" data-name="&lt;Group&gt;"><g id="_Group_177" data-name="&lt;Group&gt;"><path id="_Compound_Path_7" data-name="&lt;Compound Path&gt;" class="cls-3" d="M179.08,323.61a5,5,0,0,1-2.11-4v-6.11l4.29,2.52.28,0v.4h0v5.47a2,2,0,0,1-.84,1.85,1.32,1.32,0,0,1-.67.18A1.88,1.88,0,0,1,179.08,323.61Zm.48-6.58-.32,2.14h-1.58v.45a4.34,4.34,0,0,0,1.77,3.4.94.94,0,0,0,.92.1,1.39,1.39,0,0,0,.5-1.26V316.8Zm-.61-.59,1.27-.23-2.56-1.5v3.77h1Z"/></g><g id="_Group_178" data-name="&lt;Group&gt;"><path id="_Path_170" data-name="&lt;Path&gt;" class="cls-3" d="M179.25,328.25a.35.35,0,0,0,.35-.34v-4.6a.35.35,0,0,0-.35-.34.34.34,0,0,0-.34.34v4.6A.34.34,0,0,0,179.25,328.25Z"/></g><g id="_Group_179" data-name="&lt;Group&gt;"><path id="_Path_171" data-name="&lt;Path&gt;" class="cls-3" d="M181.25,329.4a.34.34,0,0,0,.3-.17.35.35,0,0,0-.13-.47l-4-2.3a.33.33,0,0,0-.47.12.34.34,0,0,0,.12.47l4,2.31A.33.33,0,0,0,181.25,329.4Z"/></g></g><g id="_Group_180" data-name="&lt;Group&gt;"><g id="_Group_181" data-name="&lt;Group&gt;"><path id="_Path_172" data-name="&lt;Path&gt;" class="cls-3" d="M193.22,336.5a.78.78,0,0,0,.37-.09.9.9,0,0,0,.42-.83v-.94a.35.35,0,0,0-.35-.35.35.35,0,0,0-.34.35v.94c0,.14,0,.22-.07.23s-.1,0-.22-.06a2,2,0,0,1-.64-1.55v-6.11a.35.35,0,0,0-.34-.35.35.35,0,0,0-.35.35v6.11a2.6,2.6,0,0,0,1,2.14A1,1,0,0,0,193.22,336.5Z"/></g><g id="_Group_182" data-name="&lt;Group&gt;"><path id="_Compound_Path_8" data-name="&lt;Compound Path&gt;" class="cls-3" d="M187.7,325.88v-.2a2.91,2.91,0,0,1,4.74-2.73,9.73,9.73,0,0,1,4.4,7.62v.59Zm1.75-2.63a2.55,2.55,0,0,0-1.06,2.24l7.73,4.46a9.07,9.07,0,0,0-4-6.41,3.54,3.54,0,0,0-1.72-.53A1.84,1.84,0,0,0,189.45,323.25Z"/></g></g><g id="_Group_183" data-name="&lt;Group&gt;"><g id="_Group_184" data-name="&lt;Group&gt;"><g id="_Group_185" data-name="&lt;Group&gt;"><path id="_Path_173" data-name="&lt;Path&gt;" class="cls-3" d="M207,344.22a.35.35,0,0,0,.35-.35v-11.7a.35.35,0,0,0-.35-.34.34.34,0,0,0-.34.34v11.7A.35.35,0,0,0,207,344.22Z"/></g><g id="_Group_186" data-name="&lt;Group&gt;"><path id="_Path_174" data-name="&lt;Path&gt;" class="cls-3" d="M208.05,334.84a.31.31,0,0,0,.13,0,.33.33,0,0,0,.18-.45l-1.22-2.83-1.37,1.58a.34.34,0,0,0,.52.45l.65-.75.79,1.82A.35.35,0,0,0,208.05,334.84Z"/></g></g><g id="_Group_187" data-name="&lt;Group&gt;"><g id="_Group_188" data-name="&lt;Group&gt;"><path id="_Path_175" data-name="&lt;Path&gt;" class="cls-3" d="M203.86,342.4a.35.35,0,0,0,.35-.34v-11.7a.35.35,0,0,0-.35-.35.35.35,0,0,0-.34.35v11.7A.34.34,0,0,0,203.86,342.4Z"/></g><g id="_Group_189" data-name="&lt;Group&gt;"><path id="_Path_176" data-name="&lt;Path&gt;" class="cls-3" d="M204.87,333a.31.31,0,0,0,.13,0,.34.34,0,0,0,.18-.45L204,329.72l-1.37,1.58a.34.34,0,0,0,.52.45l.65-.75.79,1.82A.36.36,0,0,0,204.87,333Z"/></g></g></g><g id="_Group_190" data-name="&lt;Group&gt;"><path id="_Path_177" data-name="&lt;Path&gt;" class="cls-7" d="M208.37,306.87V322c0,.58-.41.82-.91.53l-23.65-13.66a2,2,0,0,1-.92-1.58V292.15c0-.58.41-.82.92-.53l23.65,13.66A2.06,2.06,0,0,1,208.37,306.87Z"/></g><g id="_Group_191" data-name="&lt;Group&gt;"><g id="_Group_192" data-name="&lt;Group&gt;"><polygon id="_Path_178" data-name="&lt;Path&gt;" class="cls-3" points="184.36 293.79 185.12 294.23 185.12 308 184.36 307.56 184.36 293.79"/></g><g id="_Group_193" data-name="&lt;Group&gt;"><polygon id="_Path_179" data-name="&lt;Path&gt;" class="cls-3" points="187.47 295.58 188.78 296.36 188.78 310.13 187.47 309.36 187.47 295.58"/></g><g id="_Group_194" data-name="&lt;Group&gt;"><polygon id="_Path_180" data-name="&lt;Path&gt;" class="cls-3" points="190.57 297.38 191.34 297.82 191.34 311.59 190.57 311.15 190.57 297.38"/></g><g id="_Group_195" data-name="&lt;Group&gt;"><polygon id="_Path_181" data-name="&lt;Path&gt;" class="cls-3" points="192.92 298.71 194.45 299.61 194.44 313.38 192.92 312.48 192.92 298.71"/></g><g id="_Group_196" data-name="&lt;Group&gt;"><polygon id="_Path_182" data-name="&lt;Path&gt;" class="cls-3" points="196.79 300.97 197.55 301.41 197.55 315.18 196.79 314.74 196.79 300.97"/></g><g id="_Group_197" data-name="&lt;Group&gt;"><polygon id="_Path_183" data-name="&lt;Path&gt;" class="cls-3" points="199.03 302.23 200.66 303.2 200.66 316.97 199.03 316 199.03 302.23"/></g><g id="_Group_198" data-name="&lt;Group&gt;"><polygon id="_Path_184" data-name="&lt;Path&gt;" class="cls-3" points="203.01 304.55 203.77 305 203.77 318.76 203.01 318.32 203.01 304.55"/></g><g id="_Group_199" data-name="&lt;Group&gt;"><polygon id="_Path_185" data-name="&lt;Path&gt;" class="cls-3" points="204.78 305.56 205.16 305.78 205.16 319.55 204.78 319.33 204.78 305.56"/></g><g id="_Group_200" data-name="&lt;Group&gt;"><polygon id="_Path_186" data-name="&lt;Path&gt;" class="cls-3" points="201.59 303.8 201.97 304.02 201.97 317.8 201.59 317.57 201.59 303.8"/></g><g id="_Group_201" data-name="&lt;Group&gt;"><polygon id="_Path_187" data-name="&lt;Path&gt;" class="cls-3" points="195.33 300.14 195.71 300.36 195.71 314.13 195.33 313.91 195.33 300.14"/></g><g id="_Group_202" data-name="&lt;Group&gt;"><polygon id="_Path_188" data-name="&lt;Path&gt;" class="cls-3" points="191.9 298.17 192.28 298.39 192.28 312.16 191.9 311.94 191.9 298.17"/></g><g id="_Group_203" data-name="&lt;Group&gt;"><polygon id="_Path_189" data-name="&lt;Path&gt;" class="cls-3" points="189.44 296.81 189.82 297.03 189.82 310.8 189.44 310.58 189.44 296.81"/></g><g id="_Group_204" data-name="&lt;Group&gt;"><polygon id="_Path_190" data-name="&lt;Path&gt;" class="cls-3" points="186.1 294.78 186.48 295 186.48 308.77 186.1 308.55 186.1 294.78"/></g><g id="_Group_205" data-name="&lt;Group&gt;"><polygon id="_Path_191" data-name="&lt;Path&gt;" class="cls-3" points="206.12 306.35 206.88 306.79 206.88 320.56 206.12 320.12 206.12 306.35"/></g></g></g></g><g id="Box-9" data-name="Box"><polygon id="Shadow-7" data-name="Shadow" class="cls-8" points="333.1 349.76 266.29 388.29 215 358.75 281.96 320.31 333.1 349.76"/><g id="Box-10" data-name="Box"><g id="_Group_206" data-name="&lt;Group&gt;"><polygon id="_Path_192" data-name="&lt;Path&gt;" class="cls-9" points="222.75 299.11 283.68 263.94 328.37 289.73 267.44 324.91 222.75 299.11"/></g><g id="_Group_207" data-name="&lt;Group&gt;" class="cls-15"><polygon id="_Path_193" data-name="&lt;Path&gt;" class="cls-16" points="222.75 299.11 283.68 263.94 328.37 289.73 267.44 324.91 222.75 299.11"/></g><g id="_Group_208" data-name="&lt;Group&gt;"><path id="_Path_194" data-name="&lt;Path&gt;" class="cls-7" d="M283.09,269l-18.7,10.77c-.34.2-.25.57.2.83l21.12,12.19a1.62,1.62,0,0,0,1.42.12l18.71-10.78c.34-.2.25-.57-.2-.83l-21.12-12.18A1.6,1.6,0,0,0,283.09,269Z"/></g><path class="cls-2" d="M292.54,287.32a.39.39,0,0,0,.19-.72L275.2,276.48a.39.39,0,0,0-.53.14.4.4,0,0,0,.14.53l17.53,10.12A.35.35,0,0,0,292.54,287.32Z"/><path class="cls-2" d="M290.59,288.44a.38.38,0,0,0,.33-.2.37.37,0,0,0-.14-.52L273.25,277.6a.37.37,0,0,0-.52.14.38.38,0,0,0,.14.53l17.53,10.12A.41.41,0,0,0,290.59,288.44Z"/><path class="cls-2" d="M288.64,289.55a.39.39,0,0,0,.2-.72l-17.53-10.12a.39.39,0,0,0-.39.67l17.53,10.12A.34.34,0,0,0,288.64,289.55Z"/><path class="cls-2" d="M286.7,290.67a.38.38,0,0,0,.33-.2.37.37,0,0,0-.14-.52l-17.53-10.12a.37.37,0,0,0-.52.14.38.38,0,0,0,.14.53l17.52,10.12A.49.49,0,0,0,286.7,290.67Z"/><g id="_Group_209" data-name="&lt;Group&gt;"><g id="_Group_210" data-name="&lt;Group&gt;"><polygon id="_Path_195" data-name="&lt;Path&gt;" class="cls-3" points="304.07 281.63 303.39 281.24 295.41 285.85 296.09 286.24 304.07 281.63"/></g><g id="_Group_211" data-name="&lt;Group&gt;"><polygon id="_Path_196" data-name="&lt;Path&gt;" class="cls-3" points="301.3 280.03 300.11 279.35 292.13 283.96 293.31 284.64 301.3 280.03"/></g><g id="_Group_212" data-name="&lt;Group&gt;"><polygon id="_Path_197" data-name="&lt;Path&gt;" class="cls-3" points="298.52 278.43 297.84 278.03 289.86 282.64 290.54 283.04 298.52 278.43"/></g><g id="_Group_213" data-name="&lt;Group&gt;"><polygon id="_Path_198" data-name="&lt;Path&gt;" class="cls-3" points="296.44 277.21 295.07 276.43 287.08 281.04 288.46 281.82 296.44 277.21"/></g><g id="_Group_214" data-name="&lt;Group&gt;"><polygon id="_Path_199" data-name="&lt;Path&gt;" class="cls-3" points="292.97 275.22 292.29 274.83 284.31 279.44 284.99 279.83 292.97 275.22"/></g><g id="_Group_215" data-name="&lt;Group&gt;"><polygon id="_Path_200" data-name="&lt;Path&gt;" class="cls-3" points="290.99 274.06 289.52 273.23 281.53 277.83 283.01 278.67 290.99 274.06"/></g><g id="_Group_216" data-name="&lt;Group&gt;"><polygon id="_Path_201" data-name="&lt;Path&gt;" class="cls-3" points="287.43 272.02 286.74 271.62 278.76 276.23 279.44 276.63 287.43 272.02"/></g><g id="_Group_217" data-name="&lt;Group&gt;"><polygon id="_Path_202" data-name="&lt;Path&gt;" class="cls-3" points="285.85 271.1 285.51 270.9 277.52 275.51 277.87 275.71 285.85 271.1"/></g><g id="_Group_218" data-name="&lt;Group&gt;"><polygon id="_Path_203" data-name="&lt;Path&gt;" class="cls-3" points="288.65 272.77 288.31 272.57 280.32 277.18 280.67 277.38 288.65 272.77"/></g><g id="_Group_219" data-name="&lt;Group&gt;"><polygon id="_Path_204" data-name="&lt;Path&gt;" class="cls-3" points="294.27 275.98 293.93 275.78 285.94 280.39 286.29 280.59 294.27 275.98"/></g><g id="_Group_220" data-name="&lt;Group&gt;"><polygon id="_Path_205" data-name="&lt;Path&gt;" class="cls-3" points="297.32 277.75 296.98 277.55 289 282.16 289.34 282.36 297.32 277.75"/></g><g id="_Group_221" data-name="&lt;Group&gt;"><polygon id="_Path_206" data-name="&lt;Path&gt;" class="cls-3" points="299.49 279.04 299.15 278.84 291.16 283.45 291.5 283.65 299.49 279.04"/></g><g id="_Group_222" data-name="&lt;Group&gt;"><polygon id="_Path_207" data-name="&lt;Path&gt;" class="cls-3" points="302.53 280.73 302.19 280.53 294.2 285.14 294.54 285.34 302.53 280.73"/></g><g id="_Group_223" data-name="&lt;Group&gt;"><polygon id="_Path_208" data-name="&lt;Path&gt;" class="cls-3" points="284.65 270.41 283.97 270.02 275.98 274.63 276.67 275.02 284.65 270.41"/></g></g><g id="_Group_224" data-name="&lt;Group&gt;"><polygon id="_Path_209" data-name="&lt;Path&gt;" class="cls-9" points="267.44 384.26 222.75 358.46 222.75 299.11 267.44 324.91 267.44 384.26"/></g><g id="_Group_225" data-name="&lt;Group&gt;"><polygon id="_Path_210" data-name="&lt;Path&gt;" class="cls-9" points="267.44 384.26 222.75 358.46 222.75 299.11 267.44 324.91 267.44 384.26"/></g><g id="_Group_226" data-name="&lt;Group&gt;"><polygon id="_Path_211" data-name="&lt;Path&gt;" class="cls-9" points="267.44 384.26 328.37 349.08 328.37 289.73 267.44 324.91 267.44 384.26"/><polygon id="_Path_212" data-name="&lt;Path&gt;" class="cls-8" points="267.44 384.26 328.37 349.08 328.37 289.73 267.44 324.91 267.44 384.26"/></g><g id="_Group_227" data-name="&lt;Group&gt;"><polygon id="_Path_213" data-name="&lt;Path&gt;" class="cls-4" points="299.93 315.32 294.02 318.74 294.02 309.56 299.93 306.15 299.93 315.32"/></g><g id="_Group_228" data-name="&lt;Group&gt;"><polygon id="_Path_214" data-name="&lt;Path&gt;" class="cls-3" points="294.02 309.56 249.34 283.77 255.25 280.35 299.93 306.15 294.02 309.56"/></g><g id="_Group_229" data-name="&lt;Group&gt;"><g id="_Group_230" data-name="&lt;Group&gt;"><path id="_Compound_Path_9" data-name="&lt;Compound Path&gt;" class="cls-3" d="M322.73,343.37a.82.82,0,0,1-.44-.11,1.36,1.36,0,0,1-.55-1.23v-3.6h0v-.27l.18,0,2.82-1.66v4a3.26,3.26,0,0,1-1.39,2.63A1.25,1.25,0,0,1,322.73,343.37Zm-.54-4.67V342a.93.93,0,0,0,.32.83.65.65,0,0,0,.62-.06,2.86,2.86,0,0,0,1.16-2.24v-.3h-1l-.21-1.41Zm1.45,1.11h.65v-2.49l-1.68,1,.83.15Z"/></g><g id="_Group_231" data-name="&lt;Group&gt;"><path id="_Path_215" data-name="&lt;Path&gt;" class="cls-3" d="M323.24,346.25A.23.23,0,0,1,323,346v-3a.23.23,0,0,1,.46,0v3A.23.23,0,0,1,323.24,346.25Z"/></g><g id="_Group_232" data-name="&lt;Group&gt;"><path id="_Path_216" data-name="&lt;Path&gt;" class="cls-3" d="M321.92,347a.22.22,0,0,1-.19-.12.23.23,0,0,1,.08-.31l2.63-1.52a.23.23,0,0,1,.23.4L322,347A.19.19,0,0,1,321.92,347Z"/></g></g><g id="_Group_233" data-name="&lt;Group&gt;"><g id="_Group_234" data-name="&lt;Group&gt;"><path id="_Path_217" data-name="&lt;Path&gt;" class="cls-3" d="M314,351.68a.54.54,0,0,1-.25-.06.61.61,0,0,1-.27-.55v-.62a.22.22,0,0,1,.23-.22.22.22,0,0,1,.22.22v.62c0,.1,0,.15,0,.16s.07,0,.14,0a1.34,1.34,0,0,0,.43-1v-4a.23.23,0,1,1,.45,0v4a1.76,1.76,0,0,1-.64,1.42A.73.73,0,0,1,314,351.68Z"/></g><g id="_Group_235" data-name="&lt;Group&gt;"><path id="_Compound_Path_10" data-name="&lt;Compound Path&gt;" class="cls-3" d="M311.65,348.16v-.39a6.42,6.42,0,0,1,2.9-5,1.92,1.92,0,0,1,3.13,1.81v.13Zm4.26-5.37a2.33,2.33,0,0,0-1.13.35,6,6,0,0,0-2.65,4.23l5.09-2.94a1.69,1.69,0,0,0-.7-1.48A1.16,1.16,0,0,0,315.91,342.79Z"/></g></g><g id="_Group_236" data-name="&lt;Group&gt;"><g id="_Group_237" data-name="&lt;Group&gt;"><g id="_Group_238" data-name="&lt;Group&gt;"><path id="_Path_218" data-name="&lt;Path&gt;" class="cls-3" d="M304.93,356.76a.22.22,0,0,1-.22-.22v-7.71a.23.23,0,1,1,.45,0v7.71A.22.22,0,0,1,304.93,356.76Z"/></g><g id="_Group_239" data-name="&lt;Group&gt;"><path id="_Path_219" data-name="&lt;Path&gt;" class="cls-3" d="M304.27,350.59l-.09,0a.22.22,0,0,1-.12-.3l.81-1.86.9,1a.23.23,0,0,1,0,.32.22.22,0,0,1-.32,0l-.43-.49-.52,1.2A.23.23,0,0,1,304.27,350.59Z"/></g></g><g id="_Group_240" data-name="&lt;Group&gt;"><g id="_Group_241" data-name="&lt;Group&gt;"><path id="_Path_220" data-name="&lt;Path&gt;" class="cls-3" d="M307,355.57a.23.23,0,0,1-.23-.23v-7.71a.22.22,0,0,1,.23-.22.22.22,0,0,1,.22.22v7.71A.22.22,0,0,1,307,355.57Z"/></g><g id="_Group_242" data-name="&lt;Group&gt;"><path id="_Path_221" data-name="&lt;Path&gt;" class="cls-3" d="M306.36,349.39a.11.11,0,0,1-.08,0,.22.22,0,0,1-.12-.29l.8-1.87.9,1a.22.22,0,0,1,0,.32.23.23,0,0,1-.32,0l-.43-.5-.52,1.21A.22.22,0,0,1,306.36,349.39Z"/></g></g></g><g id="_Group_243" data-name="&lt;Group&gt;"><path id="_Path_222" data-name="&lt;Path&gt;" class="cls-7" d="M272.24,359.73v15.15c0,.59.41.82.91.53l23.65-13.65a2,2,0,0,0,.92-1.59V345c0-.59-.41-.82-.91-.53l-23.65,13.66A2,2,0,0,0,272.24,359.73Z"/></g><g id="_Group_244" data-name="&lt;Group&gt;"><g id="_Group_245" data-name="&lt;Group&gt;"><polygon id="_Path_223" data-name="&lt;Path&gt;" class="cls-3" points="296.25 346.66 295.49 347.1 295.49 360.87 296.25 360.43 296.25 346.66"/></g><g id="_Group_246" data-name="&lt;Group&gt;"><polygon id="_Path_224" data-name="&lt;Path&gt;" class="cls-3" points="293.14 348.45 291.83 349.23 291.83 363 293.14 362.22 293.14 348.45"/></g><g id="_Group_247" data-name="&lt;Group&gt;"><polygon id="_Path_225" data-name="&lt;Path&gt;" class="cls-3" points="290.03 350.25 289.27 350.69 289.27 364.46 290.03 364.01 290.03 350.25"/></g><g id="_Group_248" data-name="&lt;Group&gt;"><polygon id="_Path_226" data-name="&lt;Path&gt;" class="cls-3" points="287.69 351.57 286.16 352.48 286.16 366.25 287.69 365.34 287.69 351.57"/></g><g id="_Group_249" data-name="&lt;Group&gt;"><polygon id="_Path_227" data-name="&lt;Path&gt;" class="cls-3" points="283.82 353.83 283.05 354.27 283.05 368.04 283.82 367.6 283.82 353.83"/></g><g id="_Group_250" data-name="&lt;Group&gt;"><polygon id="_Path_228" data-name="&lt;Path&gt;" class="cls-3" points="281.58 355.1 279.94 356.07 279.94 369.84 281.58 368.87 281.58 355.1"/></g><g id="_Group_251" data-name="&lt;Group&gt;"><polygon id="_Path_229" data-name="&lt;Path&gt;" class="cls-3" points="277.6 357.42 276.84 357.86 276.84 371.63 277.6 371.19 277.6 357.42"/></g><g id="_Group_252" data-name="&lt;Group&gt;"><polygon id="_Path_230" data-name="&lt;Path&gt;" class="cls-3" points="275.83 358.43 275.44 358.65 275.44 372.42 275.83 372.2 275.83 358.43"/></g><g id="_Group_253" data-name="&lt;Group&gt;"><polygon id="_Path_231" data-name="&lt;Path&gt;" class="cls-3" points="279.02 356.67 278.63 356.89 278.64 370.66 279.02 370.44 279.02 356.67"/></g><g id="_Group_254" data-name="&lt;Group&gt;"><polygon id="_Path_232" data-name="&lt;Path&gt;" class="cls-3" points="285.28 353 284.9 353.22 284.9 366.99 285.28 366.77 285.28 353"/></g><g id="_Group_255" data-name="&lt;Group&gt;"><polygon id="_Path_233" data-name="&lt;Path&gt;" class="cls-3" points="288.71 351.04 288.33 351.25 288.33 365.02 288.71 364.81 288.71 351.04"/></g><g id="_Group_256" data-name="&lt;Group&gt;"><polygon id="_Path_234" data-name="&lt;Path&gt;" class="cls-3" points="291.17 349.68 290.79 349.89 290.79 363.67 291.17 363.44 291.17 349.68"/></g><g id="_Group_257" data-name="&lt;Group&gt;"><polygon id="_Path_235" data-name="&lt;Path&gt;" class="cls-3" points="294.51 347.65 294.13 347.87 294.13 361.64 294.51 361.42 294.51 347.65"/></g><g id="_Group_258" data-name="&lt;Group&gt;"><polygon id="_Path_236" data-name="&lt;Path&gt;" class="cls-3" points="274.49 359.21 273.73 359.65 273.73 373.43 274.49 372.98 274.49 359.21"/></g></g></g></g></g><g id="Character"><g id="Character-2" data-name="Character"><g id="Botom"><g id="_Group_259" data-name="&lt;Group&gt;"><g id="_Group_260" data-name="&lt;Group&gt;"><g id="_Group_261" data-name="&lt;Group&gt;"><path id="_Path_237" data-name="&lt;Path&gt;" class="cls-17" d="M132.35,335.74c.33-5.3,3.17-58.8,3.17-58.8l-26,18.34c4.54,30.58,5.54,39.79,5.73,44.89h0a4.33,4.33,0,0,0-.12,1.31c.14,6.06,7.39,9.23,13.08,13.19a106.82,106.82,0,0,0,15.36,9.2c4.12,1.89,12.4,1.95,13.38-.56-6.93-4.86-14.93-10.16-20.47-15.75C133.86,344.9,132,342.11,132.35,335.74Z"/></g><path class="cls-5" d="M168.74,369.66c.35,0,.95,3.66-.92,5.25-2.16,1.83-8.55,4.88-17.09,3.95s-13.19-3.36-16.65-6-8.3-6.41-12.17-7.17c-3.59-.7-7.51-2.18-8.67-3.22s-1.1-5.71-1.1-5.71Z"/><path id="_Path_238" data-name="&lt;Path&gt;" class="cls-4" d="M115.2,338.69a1.36,1.36,0,0,0-1.27,1.12c-.24,1.29-.45,5-1,7.16-.72,2.95-1.13,9-.62,11.37s6.38,4,10.13,5.26,8.29,4.11,12.22,7.08,12.54,6.11,18.09,6.11c8.47,0,13.92-2.27,15.56-5.19,2-3.61.34-5.66-9.47-9.81-1.86-.79-8.41-4.34-10.64-5.63-6-3.48-12-8.37-14.91-14.65a3.54,3.54,0,0,0-1.44-1.92,3.19,3.19,0,0,0-1.89-.13,16.65,16.65,0,0,0-4.66,1.41c-1.3.61-3.14,1.33-3.08,2.92a5.08,5.08,0,0,0,.4,1.61c.12.32.22.75-.08,1s-.65,0-.91-.23a24.28,24.28,0,0,1-2.68-3,9.53,9.53,0,0,0-1.57-1.47,17.48,17.48,0,0,1-1.69-1C115.11,340.14,115.24,339.44,115.2,338.69Z"/><path class="cls-7" d="M160.44,362.47c-12.25,1-16,8.24-16.42,12.7a30.44,30.44,0,0,0,8.75,1.62c8.47,0,14.27-2.27,15.91-5.19C170.59,368.19,169.2,365.49,160.44,362.47Z"/><path class="cls-6" d="M142.05,362.85a.54.54,0,0,1-.38-.12.55.55,0,0,1-.1-.8,14.74,14.74,0,0,1,11-4.31.57.57,0,0,1,.55.61.58.58,0,0,1-.65.52,13.67,13.67,0,0,0-10,3.89A.57.57,0,0,1,142.05,362.85Z"/><path class="cls-6" d="M136.71,360a.57.57,0,0,1-.48-.92,14.77,14.77,0,0,1,11-4.32.57.57,0,1,1-.11,1.14,13.63,13.63,0,0,0-10,3.89A.57.57,0,0,1,136.71,360Z"/><path class="cls-6" d="M131.76,356.73a.64.64,0,0,1-.38-.12.54.54,0,0,1-.1-.8,14.73,14.73,0,0,1,11-4.32.58.58,0,0,1,.54.62.6.6,0,0,1-.65.52,13.6,13.6,0,0,0-10,3.89A.64.64,0,0,1,131.76,356.73Z"/><path class="cls-6" d="M126.9,353.46a.68.68,0,0,1-.38-.12.56.56,0,0,1-.11-.8c2.3-2.85,7.57-4.79,12-4.39a.57.57,0,1,1-.1,1.14c-4-.36-8.94,1.41-11,3.94A.61.61,0,0,1,126.9,353.46Z"/><g id="_Group_262" data-name="&lt;Group&gt;"><path id="_Path_239" data-name="&lt;Path&gt;" class="cls-17" d="M89.51,292.7l-27.09-5.86c-.71,16.78-.28,39.47-.86,55.21-.1,3-1.64,23-.79,29.14,1.28,9.25,13.68,8.64,14.7,3.2s1.92-28.69,2.12-31.1c.58-10.08,6.33-27,10.37-45C88.16,297.42,89.33,293.56,89.51,292.7Z"/></g><path class="cls-5" d="M79.85,378.44c-.11,5.39-.89,9-2.91,12.22s-6,4.37-10.23,3.6-9.57-3-11-7.63-1.31-7.78-.6-12.8Z"/><path id="_Path_240" data-name="&lt;Path&gt;" class="cls-4" d="M61.62,340.13c-1.69.18-1.87,7.41-2.51,14.68-.7,7.78-3.18,11.08-3.82,17.47-.75,7.29-.16,10.52,2.92,14.8s13.49,8.2,18.23,1.73c3.86-5.27,3.77-11,3.06-18.19-.73-7.47-1.31-12.73-1.22-18.43.08-5.44,1-10.51-.49-11.06-.07.8-.14,1.82-.22,2.61-.07.6-.1,3.55-1.06,3.61a9.94,9.94,0,0,1-.11-2,2.2,2.2,0,0,0-.55-1.74,6.49,6.49,0,0,0-2.67-.88c-1.69-.23-3.39-.43-5.1-.51-.85,0-1.7,0-2.55,0a8.19,8.19,0,0,0-2.15.35,1.51,1.51,0,0,0-.89.78,2.3,2.3,0,0,0-.05.83,5,5,0,0,1-.14,1.49c0,.22-.21.49-.46.45a.42.42,0,0,1-.29-.43c0-.88.05-1.52.05-2.54,0-.47,0-1.12,0-1.59S61.61,340.59,61.62,340.13Z"/><path class="cls-7" d="M55,376.5c-.09,4.52.34,7.59,2.76,10.94,3.08,4.28,14.3,8.19,19,1.72,2.35-3.22,2.86-6.94,3-10.72C76.61,373.71,59.57,372.2,55,376.5Z"/><path class="cls-6" d="M75.12,370.71a.78.78,0,0,1-.21,0,27.88,27.88,0,0,0-14.75-.8.65.65,0,0,1-.78-.39.56.56,0,0,1,.45-.68,29,29,0,0,1,15.57.84.54.54,0,0,1,.34.73A.66.66,0,0,1,75.12,370.71Z"/><path class="cls-6" d="M60.33,364.45a.63.63,0,0,1-.56-.35.56.56,0,0,1,.37-.73c7.52-2.56,15.22.58,15.55.72a.53.53,0,0,1,.3.74.69.69,0,0,1-.84.27c-.08,0-7.56-3.08-14.56-.69A.61.61,0,0,1,60.33,364.45Z"/><path class="cls-6" d="M60.53,359.34A.67.67,0,0,1,60,359a.55.55,0,0,1,.35-.73,22,22,0,0,1,15.86.66.53.53,0,0,1,.25.76.68.68,0,0,1-.86.22,20.94,20.94,0,0,0-14.78-.61A.65.65,0,0,1,60.53,359.34Z"/><path class="cls-18" d="M60.78,353.59a.63.63,0,0,1-.54-.34.53.53,0,0,1,.34-.73c7.74-2.89,15.64.66,16,.81a.52.52,0,0,1,.26.75.66.66,0,0,1-.85.24c-.08,0-7.71-3.46-14.9-.78A.74.74,0,0,1,60.78,353.59Z"/><path id="_Path_241" data-name="&lt;Path&gt;" class="cls-3" d="M73.8,155.3c-.64,30.51-6.1,98.3-6.1,98.3-.46,3.75-5.88,19.69-6.08,33.25-.31,21.27-.77,37.38-.77,37.38s11.89,4.71,20.61,1.45c0,0,11.36-45.22,14.54-59.33,3.79-16.8,13.26-48.06,13.26-48.06l-.69,44.43a121.64,121.64,0,0,0-.36,26.85c1.05,9,4.65,33.92,4.65,33.92s10.94,2.2,20.42-.61c0,0,5.71-53.58,6.18-61.82.54-9.4,3.44-103.93,3.44-103.93Z"/><path class="cls-4" d="M109.26,218.29,113.51,190s10.37-.41,17.47-7.06c0,0-.88,6.64-13.85,10.64l-4.91,23.89-3.8,44.45Z"/></g></g></g><g id="Top"><path class="cls-17" d="M127.77,66.32c5.51-.29,15.77-.64,23.14,8.43,5.19,6.39,19.32,21.74,27.33,31.87,5.36-5.59,18.38-19.13,20.51-23.09a61.85,61.85,0,0,0,4.86-11.65,40.66,40.66,0,0,0,1.72-7.27,39.63,39.63,0,0,0,.15-9.11c-.06-2.75,4-1.34,5.59,3a23.65,23.65,0,0,1,1.2,7.49c1.52-.73,5.92-2.89,6.61-3.21,2.4-1.11,10-3.79,10.74.5.16,1-.14,2,.28,2.89a6.91,6.91,0,0,0,.83,1.12,4.9,4.9,0,0,1,.6,5,3.88,3.88,0,0,0-.42,2.27A6.23,6.23,0,0,1,231,77a10.1,10.1,0,0,1-1,1.77,7.4,7.4,0,0,0-.66,2.53,9.62,9.62,0,0,1-.58,2.56c-.84,1.9-3.14,2.34-4.91,3-2.35.85-5.49,2-7.94,3.13-4.25,2.8-15.69,23.5-27.28,36.77-4,4.54-7.53,7.39-11.3,6.89h0c-3.05-.07-6.82-2.84-10.45-6-11.55-10-30.1-29.57-30.1-29.57C129.06,88.68,126.89,72.61,127.77,66.32Z"/><path class="cls-3" d="M132.89,64.77c3.66.57,6.18.46,10.83,3.11,4.11,2.33,5.58,4.29,10.33,9.6s16.1,19.11,16.1,19.11-4.83,11.55-19.79,15.75L133.8,96.27Z"/><path class="cls-19" d="M215.34,66.42c-2.36.83-3,2.43-2.79,5.85.11,2-.38,5.81-2.53,7.38a5.2,5.2,0,0,0,2.83-1.34c1-1.1,1.29-1.23,1.89-.64a3.89,3.89,0,0,0,1.55.83,2.63,2.63,0,0,0-.14,3.15c1.12,1.72,5.88,1.61,9.71-.54,0,0-6.27,2.18-7.8.21s1.74-4.59,4.22-5.35c0,0-6.06,1.65-7.06-.32s1.47-3.58,5-4.61c0,0-5,1.08-5.94-.61C213.2,68.38,214.69,67.12,215.34,66.42Z"/><g id="_Group_263" data-name="&lt;Group&gt;"><path id="_Path_242" data-name="&lt;Path&gt;" class="cls-9" d="M76.68,67.9s-5.86,5.16-7.36,10.74c-.74,2.74-1.42,5,.9,20.25,2.22,14.53,2.21,18.89,2.71,30.2l.58,30.36c8.69,10.18,50.87,15.71,71.17,2,0,0,.11-52.62-1.32-70-1-11.78-4.59-22.84-8.64-26.45-5.51-1-10.82-1.6-10.82-1.6l-20.3-1.18Z"/></g><g id="Head"><g id="_Group_264" data-name="&lt;Group&gt;"><g id="_Group_265" data-name="&lt;Group&gt;"><path class="cls-4" d="M134.11,25.71c2.7-6.2.06-14.42-3.17-18.29-4.68-5.58-12-8-22.9-7.31C99.7.63,91.51,4.09,90,12.64c-6.7,2-5.94,13-4.27,17.85,3.38,9.85,10,18.41,10.14,23.45Z"/><path class="cls-17" d="M134.11,48.87c-1.32,4.76-4.07,8.24-8.47,8.93a37.46,37.46,0,0,1-6.94,0l.17,6c5.92,5.06,3.75,11.71-.2,17.7-4.9-5.45-10.51-7.39-15.41-9.55a15.66,15.66,0,0,1-7.14-6.92l-.63-20.44s-2.69,3.06-7.13.17a9.68,9.68,0,0,1-3-11.84c2.2-4.64,6.6-2.72,8-1.32s2.93,4.06,4.06,3.69a4.09,4.09,0,0,0,2.72-2.78,24.73,24.73,0,0,0,1.44-9A12,12,0,0,0,105,21a11.08,11.08,0,0,0,3-6.87c9.5-3,20.42-1.58,24.37,1.48,2.28,4,2.36,13.31,2.73,18.67C135.47,40,135.21,44.9,134.11,48.87Z"/><path class="cls-19" d="M118.7,57.83c-4.86-.27-14.64-2.54-17.24-5.26s-3.72-8.26-3.72-8.26.39,7,2.41,10.11,7.1,4.44,10.19,5.21a77.53,77.53,0,0,0,8.45,1.28Z"/><path class="cls-3" d="M118.67,81.6c-2.54-1.56-8.16-7.94-11-5s-4.29,3.78-6.13,3.23S95.67,75.28,93,72.34a16.92,16.92,0,0,1-3.5-7.16A48.72,48.72,0,0,0,93.26,60c1.26-2.24,1-2.87,2.61-3L96,61.21s1,2.3,5.6,5.42S115.38,74.4,118.67,81.6Z"/><path class="cls-3" d="M118.67,81.6c1.52-1.38,4-7.84,4.64-7.65,1,.29,2.71,4.73,3.54,3.7,1.34-1.64.93-9.13-1.28-11.85s-5.16-5.61-6.81-5.9l.12,4a16.11,16.11,0,0,1,1.64,6.44C120.5,72.59,119,79.42,118.67,81.6Z"/></g><g id="_Group_266" data-name="&lt;Group&gt;"><path id="_Path_243" data-name="&lt;Path&gt;" class="cls-5" d="M115.63,31.12a2,2,0,1,1-2-2.05A2,2,0,0,1,115.63,31.12Z"/><path id="_Path_244" data-name="&lt;Path&gt;" class="cls-5" d="M112.87,24.83l-4,2.69a2.52,2.52,0,0,1,.68-3.42A2.33,2.33,0,0,1,112.87,24.83Z"/><path id="_Path_245" data-name="&lt;Path&gt;" class="cls-5" d="M132,26.67l-4.37-2.08a2.32,2.32,0,0,1,3.15-1.2A2.55,2.55,0,0,1,132,26.67Z"/><path id="_Path_246" data-name="&lt;Path&gt;" class="cls-5" d="M130.48,31a2,2,0,1,1-2-2A2,2,0,0,1,130.48,31Z"/><polygon id="_Path_247" data-name="&lt;Path&gt;" class="cls-19" points="120.14 26.89 121.56 41.02 129.14 38.73 120.14 26.89"/></g></g><path id="_Path_248" data-name="&lt;Path&gt;" class="cls-20" d="M115.61,44.31l8.14,1.8a4.09,4.09,0,0,1-4.88,3.3A4.36,4.36,0,0,1,115.61,44.31Z"/><path class="cls-19" d="M118.87,49.41a3,3,0,0,0,.51.06,3.78,3.78,0,0,0-3.79-3.68A4.29,4.29,0,0,0,118.87,49.41Z"/></g><g id="_Group_267" data-name="&lt;Group&gt;"><polygon id="_Path_249" data-name="&lt;Path&gt;" class="cls-5" points="184.5 113.02 131.34 123.41 111.73 187.28 162.36 176.06 184.5 113.02"/><path id="_Path_250" data-name="&lt;Path&gt;" class="cls-21" d="M140.17,161.1a12.23,12.23,0,0,1-8.61,8.86c-7,1.84-14.25-.84-14.25-.84l1.64-5.34Z"/><path id="_Path_251" data-name="&lt;Path&gt;" class="cls-21" d="M168.59,121.42l.56-2c.31-1.09-2.75-1.33-6.84-.55l-7.83,1.5c-4.09.78-7.66,2.3-8,3.38l-.56,2Z"/><g id="_Group_268" data-name="&lt;Group&gt;"><path id="_Path_252" data-name="&lt;Path&gt;" class="cls-9" d="M172.7,114.14c.2-.68-1-.94-2.75-.59l-3.1.65S168,110,161.17,111s-8.66,5.87-8.66,5.87l-3.32.71c-1.83.4-3.52,1.26-3.78,1.93l-.46,1.22,27.38-5.35S172.5,114.81,172.7,114.14Z"/><path id="_Path_253" data-name="&lt;Path&gt;" class="cls-15" d="M172.7,114.14c.2-.68-1-.94-2.75-.59l-3.1.65S168,110,161.17,111s-8.66,5.87-8.66,5.87l-3.32.71c-1.83.4-3.52,1.26-3.78,1.93l-.46,1.22,27.38-5.35S172.5,114.81,172.7,114.14Z"/><path class="cls-9" d="M146.83,124c.25-.9,2.77-2.09,6-2.92l.08-.32c.25-.94-.12-1.54-2.05-1.17l-.11-.77,19-3.55-.84.78c-2.5.44-3.55.7-4,2.37,0,.14-.06.25-.1.38,3-.34,5,0,4.74.87l-.56,2L146.27,126Z"/><path class="cls-22" d="M146.83,124c.25-.9,2.77-2.09,6-2.92l.08-.32c.25-.94-.12-1.54-2.05-1.17l-.11-.77,19-3.55-.84.78c-2.5.44-3.55.7-4,2.37,0,.14-.06.25-.1.38,3-.34,5,0,4.74.87l-.56,2L146.27,126Z"/></g></g><path class="cls-17" d="M123.13,150.15c6.51,2.18,13,2.34,19.77,2.33,1.65,0,2.9.25,3.39,1.82.17.56.4,1.34-1.74,2a2.84,2.84,0,0,0-1.65.86c-.5.77-.25,1.55-.38,2.46a7,7,0,0,1-2,3.45,16.17,16.17,0,0,1-3.34,3.12c-4.12,2.59-10.47,2.91-15.16,2.15a51,51,0,0,1-9.36-2.76c-2.86-1.06-20.29-6.2-22.36-6.92-15.39-5.37-36.56-11.95-37.8-19.25s2.67-30,5.47-48.54c2.26-15,8.33-20.29,18.16-22.35,10.78,12.24,4,33.45,4,33.45L76.16,130.2c1.65,1.38,26.83,15.51,31.18,16.92,1.58.51,4.54-.11,6.1-.64,4.21-1.44,7.09-1.32,11.17-1.14"/><path class="cls-3" d="M76.68,67.9C66.24,69.34,60.06,74.68,58,84.8c-1.77,8.5-5.07,36-5.07,36,6.95,6.12,18.34,5.79,24.5,3.65l3.19-22.05C83.13,96.71,87.15,79.88,76.68,67.9Z"/><path class="cls-3" d="M70,157.08,64.71,160a2.59,2.59,0,0,0-1.2,2c-.13,4.73-.51,20.95.24,29.84a2.78,2.78,0,0,0,1.28,2c3,1.69,11.14,6.15,14.87,7.18a4.68,4.68,0,0,0,2.53-.27l3.76-1.51a2.13,2.13,0,0,0,1.23-1.82c0-9.44,1.66-19.81,3.23-30.1a1.9,1.9,0,0,0-1-1.88L72.34,157A2.86,2.86,0,0,0,70,157.08Z"/><path class="cls-4" d="M63.75,191.8c-.75-8.89-.38-25.11-.24-29.84a.79.79,0,0,1,1.23-.74l16.11,8a2.1,2.1,0,0,1,1.08,1.91,252.93,252.93,0,0,0-.8,28.71A1,1,0,0,1,79.9,201c-3.73-1-11.86-5.49-14.87-7.18A2.78,2.78,0,0,1,63.75,191.8Z"/><path class="cls-5" d="M80.1,201a4.82,4.82,0,0,0,2.33-.32l3.77-1.51a2.18,2.18,0,0,0,1.21-1.82c.74-9.69,1.67-19.81,3.24-30.09a1.6,1.6,0,0,0-.19-1l-8.73,4a1.75,1.75,0,0,1,.19.94,251.68,251.68,0,0,0-.78,28.71A1,1,0,0,1,80.1,201Z"/><path class="cls-5" d="M66.64,165.31,78.47,171l-.63,9.64-11.53-5.08S66.39,169.39,66.64,165.31Z"/><path class="cls-9" d="M77.89,179.93,67,175.12s.07-5.47.29-9.51L78.47,171Z"/><path class="cls-22" d="M77.89,179.93,67,175.12s.07-5.47.29-9.51L78.47,171Z"/><polygon class="cls-5" points="83.44 164.7 80.5 166.11 69.9 160.92 72.75 159.48 83.44 164.7"/><polygon class="cls-9" points="83 164.91 80.5 166.11 70.34 161.13 72.77 159.92 83 164.91"/><polygon class="cls-22" points="83 164.91 80.5 166.11 70.34 161.13 72.77 159.92 83 164.91"/><polygon class="cls-22" points="81.49 164.17 78.97 165.36 78.64 165.2 81.16 164.01 81.49 164.17"/><polygon class="cls-22" points="79.22 163.06 76.73 164.26 76.37 164.08 78.89 162.9 79.22 163.06"/><polygon class="cls-22" points="76.98 161.97 74.47 163.16 74.14 163 76.65 161.81 76.98 161.97"/><polygon class="cls-22" points="74.93 160.97 72.42 162.15 72.09 161.99 74.59 160.81 74.93 160.97"/><path class="cls-5" d="M78.36,184l-.09,1.19a.45.45,0,0,1-.66.41l-2.14-.88a1,1,0,0,1-.57-.92l.07-1.21a.44.44,0,0,1,.65-.41l2.17.9A1,1,0,0,1,78.36,184Z"/><path class="cls-5" d="M78.37,187.83,78.31,189a.45.45,0,0,1-.65.42l-2.16-.85a1,1,0,0,1-.58-.9l0-1.22a.44.44,0,0,1,.64-.42l2.18.87A1,1,0,0,1,78.37,187.83Z"/><path class="cls-5" d="M78.39,191.7l0,1.19a.45.45,0,0,1-.65.43l-2.16-.81a1,1,0,0,1-.61-.9l0-1.21a.44.44,0,0,1,.64-.43l2.19.83A1,1,0,0,1,78.39,191.7Z"/><path class="cls-5" d="M78.41,195.57l0,1.19a.45.45,0,0,1-.64.44l-2.18-.78a1,1,0,0,1-.62-.88l0-1.22a.44.44,0,0,1,.63-.44l2.21.8A1,1,0,0,1,78.41,195.57Z"/><path class="cls-5" d="M73.56,181.77,73.5,183a.44.44,0,0,1-.65.41l-2.12-.88a1,1,0,0,1-.59-.92l0-1.26a.43.43,0,0,1,.64-.41l2.16.9A1,1,0,0,1,73.56,181.77Z"/><path class="cls-5" d="M73.55,185.62l-.06,1.24a.44.44,0,0,1-.65.41l-2.12-.87a1,1,0,0,1-.6-.92l0-1.26a.43.43,0,0,1,.64-.41l2.16.89A1,1,0,0,1,73.55,185.62Z"/><path class="cls-5" d="M73.53,189.46l0,1.24a.44.44,0,0,1-.64.42l-2.14-.86a1,1,0,0,1-.59-.91l0-1.27a.43.43,0,0,1,.63-.42l2.16.89A1,1,0,0,1,73.53,189.46Z"/><path class="cls-5" d="M73.51,193.31l0,1.24a.44.44,0,0,1-.64.41l-2.14-.85a1,1,0,0,1-.6-.9l0-1.27a.44.44,0,0,1,.64-.42l2.16.88A1,1,0,0,1,73.51,193.31Z"/><path class="cls-5" d="M68.77,179.59l0,1.29a.43.43,0,0,1-.64.41L66,180.4a1,1,0,0,1-.59-.91l0-1.32a.42.42,0,0,1,.62-.41l2.14.91A1,1,0,0,1,68.77,179.59Z"/><path class="cls-5" d="M68.79,183.33l-.05,1.29a.42.42,0,0,1-.63.4L66,184.14a1,1,0,0,1-.6-.92l0-1.32a.42.42,0,0,1,.63-.4l2.14.91A1,1,0,0,1,68.79,183.33Z"/><path class="cls-5" d="M68.8,187.07l0,1.29a.43.43,0,0,1-.64.4L66,187.88a1.06,1.06,0,0,1-.6-.92l0-1.32a.42.42,0,0,1,.63-.4l2.14.91A1,1,0,0,1,68.8,187.07Z"/><path class="cls-5" d="M68.81,190.81l0,1.29a.42.42,0,0,1-.63.4L66,191.62a1,1,0,0,1-.59-.92l0-1.32a.42.42,0,0,1,.62-.4l2.14.91A1,1,0,0,1,68.81,190.81Z"/></g></g></g></g></svg>