<?xml version="1.0" encoding="utf-8"?>
<!-- Generator: Adobe Illustrator 16.0.3, SVG Export Plug-In . SVG Version: 6.00 Build 0)  -->
<!DOCTYPE svg PUBLIC "-//W3C//DTD SVG 1.1//EN" "http://www.w3.org/Graphics/SVG/1.1/DTD/svg11.dtd">
<svg version="1.1" id="Layer_2" xmlns="http://www.w3.org/2000/svg" xmlns:xlink="http://www.w3.org/1999/xlink" x="0px" y="0px"
	 width="156px" height="81.817px" viewBox="0 0 156 81.817" enable-background="new 0 0 156 81.817" xml:space="preserve">
<g>
	<path fill="#B01E31" d="M85.602,10.811c-1.16,0-2.393,0.269-3.293,0.952c-0.761,0.588-1.411,1.629-1.411,2.593
		c0,1.398,1.008,2.624,2.567,2.624c0.292,0,0.569-0.027,0.86-0.133l-0.174-0.648c-1.007-0.169-1.656-0.997-1.554-1.945
		c0.186-1.535,1.63-2.688,3.191-2.688c2.974,0,4.598,2.817,4.484,5.343c-0.136,3.792-3.367,6.551-7.237,6.551
		c-1.693,0-3.398-0.52-4.744-1.437c1.522-1.246,2.53-2.979,2.53-5.142c0-1.75-0.796-3.078-1.968-4.139
		c0.814-0.513,1.7-0.961,2.505-1.393c2.654-1.388,5.329-2.585,5.329-5.852c0-2.621-2.391-4.27-5.034-4.375
		c-0.874-0.03-1.741,0.313-2.534,0.586l-0.009-1.11h0.576v-0.23h-1.889v0.23c0.463-0.011,0.678,0.044,0.707,0.604V2.77h-2.237V0.598
		h0.603v-0.23h-1.872v0.23c0.466-0.011,0.628,0.044,0.656,0.604v0.506c-0.799-0.273-1.669-0.616-2.547-0.586
		c-2.64,0.105-5.034,1.754-5.034,4.375c0,3.267,2.68,4.464,5.334,5.852c0.807,0.432,1.69,0.864,2.509,1.375
		c-1.176,1.078-1.988,2.397-1.988,4.156c0,2.162,1.009,3.904,2.537,5.154c-1.338,0.904-3.041,1.424-4.729,1.424
		c-3.877,0-7.104-2.759-7.243-6.551c-0.116-2.525,1.513-5.343,4.497-5.343c1.555,0,2.993,1.153,3.186,2.688
		c0.104,0.948-0.555,1.776-1.558,1.945l-0.188,0.648c0.295,0.105,0.582,0.133,0.874,0.133c1.557,0,2.576-1.226,2.576-2.624
		c0-0.964-0.655-2.005-1.422-2.593c-0.903-0.684-2.134-0.952-3.296-0.952c-3.661,0-6.375,2.937-6.375,6.275
		c0,4.53,4.17,7.218,8.695,7.218c2.073,0,4.194-0.563,5.893-1.634c1.721,1.071,3.844,1.634,5.903,1.634
		c4.538,0,8.706-2.688,8.706-7.218C91.981,13.748,89.264,10.811,85.602,10.811 M73.664,9.583c-1.967-1.019-4.322-2.182-4.322-4.607
		c0-1.702,1.41-2.924,3.197-2.998c1.125-0.037,2.091,0.515,2.644,1.44c0.501,0.843,0.44,1.942,0.477,2.86v2.562h-0.57v0.223h1.874
		V8.839c-0.474,0.012-0.679-0.043-0.697-0.601V3.353h2.237v5.486h-0.621v0.223h1.885V8.839c-0.471,0.012-0.627-0.043-0.657-0.601
		l0.009-1.961c0.032-0.918-0.054-2.018,0.468-2.86c0.549-0.926,1.516-1.478,2.646-1.44c1.779,0.074,3.187,0.348,3.187,2.998
		c0,2.426-2.357,3.589-4.316,4.607c-1.198,0.623-2.528,1.269-3.712,2.037C76.196,10.851,74.855,10.206,73.664,9.583 M75.633,17.257
		c0.038-1.464,0.751-2.552,1.758-3.455c1,0.897,1.702,1.999,1.739,3.455c0.03,1.614-0.655,3.004-1.757,4.042
		C76.298,20.261,75.604,18.872,75.633,17.257"/>
	<g>
		<path fill="#B01E31" d="M25.292,66.618h-3.896v-0.537c0.32,0,0.561-0.035,0.725-0.105c0.164-0.07,0.268-0.172,0.315-0.303
			c0.047-0.133,0.07-0.309,0.07-0.527v-2.377h-3.673v2.377c0,0.328,0.068,0.564,0.205,0.713c0.136,0.148,0.447,0.223,0.934,0.223
			v0.537h-3.924v-0.537c0.315,0,0.556-0.035,0.721-0.105c0.166-0.07,0.272-0.17,0.322-0.301c0.048-0.131,0.073-0.307,0.073-0.529
			V60.17c0-0.223-0.023-0.396-0.07-0.523c-0.046-0.127-0.15-0.227-0.31-0.301c-0.16-0.074-0.405-0.111-0.736-0.111v-0.537h3.924
			v0.537c-0.482,0-0.793,0.072-0.931,0.217c-0.139,0.145-0.208,0.385-0.208,0.719v1.951h3.673V60.17
			c0-0.223-0.021-0.396-0.064-0.523c-0.042-0.127-0.144-0.227-0.304-0.301c-0.159-0.074-0.407-0.111-0.742-0.111v-0.537h3.896v0.537
			c-0.331,0-0.576,0.037-0.735,0.111c-0.16,0.074-0.262,0.174-0.307,0.301c-0.045,0.127-0.067,0.301-0.067,0.523v4.975
			c0,0.215,0.021,0.385,0.062,0.512c0.041,0.127,0.143,0.229,0.306,0.307c0.164,0.078,0.411,0.117,0.742,0.117V66.618z"/>
		<path fill="#B01E31" d="M34.999,62.659c0,0.721-0.172,1.395-0.514,2.023c-0.343,0.629-0.85,1.133-1.521,1.512
			c-0.671,0.379-1.465,0.568-2.38,0.568c-0.748,0-1.405-0.119-1.974-0.361c-0.568-0.24-1.033-0.564-1.393-0.969
			c-0.359-0.404-0.626-0.85-0.8-1.332s-0.26-0.967-0.26-1.453c0-0.705,0.166-1.371,0.496-1.998c0.332-0.627,0.83-1.131,1.495-1.516
			c0.667-0.383,1.463-0.574,2.389-0.574c0.845,0,1.563,0.137,2.155,0.414c0.592,0.275,1.053,0.625,1.384,1.045
			c0.331,0.422,0.567,0.861,0.71,1.322C34.927,61.803,34.999,62.241,34.999,62.659z M33.105,62.635c0-0.445-0.038-0.865-0.113-1.262
			c-0.076-0.396-0.209-0.756-0.4-1.078c-0.191-0.32-0.452-0.576-0.783-0.766c-0.331-0.188-0.74-0.281-1.227-0.281
			c-0.669,0-1.192,0.166-1.567,0.498c-0.376,0.332-0.631,0.75-0.766,1.25c-0.134,0.5-0.201,1.047-0.201,1.639
			c0,0.326,0.021,0.668,0.064,1.021s0.146,0.717,0.31,1.09c0.164,0.371,0.424,0.684,0.783,0.939
			c0.358,0.256,0.821,0.383,1.391,0.383c0.563,0,1.022-0.131,1.375-0.395c0.352-0.264,0.609-0.584,0.771-0.963
			c0.162-0.381,0.262-0.744,0.304-1.09C33.086,63.274,33.105,62.946,33.105,62.635z"/>
		<path fill="#B01E31" d="M43.489,60.948h-0.555c-0.05-0.492-0.158-0.854-0.324-1.088c-0.166-0.232-0.344-0.377-0.535-0.432
			s-0.411-0.082-0.66-0.082h-1.004v5.799c0,0.23,0.024,0.408,0.07,0.535c0.047,0.127,0.156,0.225,0.327,0.295
			c0.172,0.07,0.423,0.105,0.754,0.105v0.537h-3.971v-0.537c0.486,0,0.8-0.07,0.94-0.211c0.141-0.139,0.21-0.381,0.21-0.725v-5.799
			H37.9c-0.331,0-0.605,0.027-0.823,0.08c-0.218,0.051-0.409,0.195-0.575,0.432s-0.26,0.598-0.283,1.09h-0.555v-2.25h7.826V60.948z"
			/>
		<path fill="#B01E31" d="M51.216,64.012l-0.064,2.605h-7.055v-0.537c0.487,0,0.8-0.07,0.94-0.211c0.14-0.139,0.21-0.381,0.21-0.725
			V60.17c0-0.227-0.022-0.402-0.067-0.529c-0.045-0.125-0.149-0.225-0.314-0.297c-0.166-0.072-0.422-0.109-0.769-0.109v-0.537h6.57
			l0.105,2.057h-0.538c-0.121-0.455-0.26-0.781-0.418-0.979c-0.157-0.197-0.334-0.316-0.531-0.361
			c-0.196-0.045-0.491-0.068-0.884-0.068h-1.483v2.797h0.806c0.276,0,0.482-0.023,0.619-0.072c0.136-0.049,0.232-0.141,0.286-0.277
			c0.055-0.137,0.092-0.352,0.111-0.643h0.56v2.635h-0.537c-0.015-0.293-0.055-0.508-0.117-0.646
			c-0.062-0.137-0.161-0.23-0.295-0.277s-0.339-0.07-0.616-0.07h-0.818v1.863c0,0.313,0.008,0.539,0.024,0.684
			c0.015,0.145,0.057,0.264,0.125,0.359s0.179,0.164,0.333,0.207c0.154,0.043,0.373,0.064,0.656,0.064h0.637
			c0.269,0,0.525-0.033,0.768-0.102c0.244-0.068,0.482-0.244,0.715-0.525c0.234-0.283,0.397-0.727,0.491-1.33H51.216z"/>
		<path fill="#B01E31" d="M59.047,63.971l-0.052,2.646H51.94v-0.537c0.487,0,0.8-0.07,0.94-0.211c0.14-0.139,0.21-0.381,0.21-0.725
			V60.17c0-0.23-0.023-0.408-0.07-0.535c-0.046-0.125-0.154-0.225-0.325-0.293c-0.168-0.072-0.42-0.107-0.755-0.107v-0.537h3.982
			v0.537c-0.331,0-0.581,0.035-0.75,0.1c-0.169,0.066-0.281,0.164-0.333,0.289c-0.052,0.127-0.079,0.309-0.079,0.547v4.555
			c0,0.357,0.018,0.615,0.052,0.771c0.036,0.156,0.131,0.273,0.287,0.354s0.411,0.119,0.765,0.119c0.448,0,0.84-0.033,1.177-0.102
			s0.648-0.25,0.935-0.543c0.286-0.295,0.464-0.746,0.534-1.354H59.047z"/>
		<path fill="#B01E31" d="M65.716,64.346c0,0.244-0.053,0.504-0.158,0.779c-0.105,0.273-0.264,0.537-0.476,0.787
			c-0.213,0.252-0.48,0.457-0.804,0.615c-0.323,0.156-0.696,0.234-1.121,0.234c-0.421,0-0.838-0.092-1.253-0.273
			c-0.415-0.184-0.766-0.455-1.054-0.816c-0.125,0.287-0.204,0.555-0.24,0.799h-0.538v-2.709h0.538
			c0.097,0.389,0.232,0.756,0.403,1.098c0.172,0.342,0.414,0.637,0.728,0.885c0.313,0.246,0.698,0.371,1.153,0.371
			c0.397,0,0.715-0.109,0.955-0.328c0.239-0.217,0.358-0.492,0.358-0.822c0-0.188-0.037-0.352-0.11-0.49
			c-0.074-0.141-0.181-0.268-0.321-0.377c-0.14-0.111-0.332-0.23-0.576-0.357c-0.243-0.125-0.52-0.26-0.832-0.4
			c-0.479-0.225-0.873-0.453-1.179-0.682c-0.309-0.23-0.541-0.453-0.699-0.668c-0.158-0.217-0.267-0.424-0.327-0.617
			c-0.06-0.195-0.091-0.391-0.091-0.59c0-0.354,0.096-0.705,0.287-1.049c0.191-0.344,0.47-0.627,0.838-0.848
			c0.368-0.219,0.793-0.328,1.276-0.328c0.37,0,0.722,0.082,1.058,0.248c0.335,0.166,0.625,0.391,0.87,0.68
			c0.069-0.164,0.134-0.393,0.193-0.689h0.548v2.209h-0.548c-0.39-1.203-1.067-1.805-2.033-1.805c-0.351,0-0.631,0.092-0.844,0.275
			c-0.212,0.186-0.318,0.424-0.318,0.717c0,0.23,0.066,0.43,0.199,0.598c0.132,0.17,0.306,0.314,0.522,0.436s0.565,0.295,1.048,0.52
			c0.584,0.277,1.041,0.516,1.37,0.719c0.329,0.203,0.607,0.457,0.834,0.766C65.602,63.538,65.716,63.911,65.716,64.346z"/>
		<path fill="#B01E31" d="M78.629,64.678c-0.021,0.334-0.098,0.662-0.229,0.979c-0.132,0.318-0.33,0.584-0.594,0.799
			c-0.266,0.213-0.599,0.32-1.002,0.32c-0.2,0-0.396-0.031-0.588-0.096c-0.193-0.063-0.402-0.176-0.626-0.34
			c-0.225-0.162-0.502-0.41-0.833-0.74c-0.425,0.402-0.856,0.701-1.294,0.896s-0.857,0.291-1.255,0.291
			c-0.458,0-0.87-0.107-1.237-0.322c-0.367-0.217-0.649-0.5-0.849-0.852c-0.2-0.354-0.299-0.73-0.299-1.133
			c0-0.236,0.039-0.494,0.118-0.771c0.079-0.277,0.265-0.598,0.559-0.961c0.295-0.363,0.724-0.695,1.288-1.002
			c-0.216-0.373-0.38-0.703-0.492-0.992c-0.113-0.287-0.169-0.6-0.169-0.934c0-0.322,0.062-0.611,0.185-0.871
			c0.123-0.258,0.281-0.467,0.474-0.627c0.193-0.158,0.412-0.279,0.658-0.365c0.246-0.084,0.494-0.127,0.744-0.127
			c0.369,0,0.69,0.082,0.963,0.244c0.273,0.164,0.482,0.373,0.626,0.627s0.216,0.52,0.216,0.795c0,0.365-0.131,0.727-0.394,1.084
			c-0.263,0.359-0.646,0.668-1.151,0.932l1.965,2.568c0.238-0.297,0.446-0.596,0.627-0.896c0.18-0.301,0.27-0.594,0.27-0.877
			c0-0.094-0.042-0.211-0.124-0.35c-0.083-0.141-0.262-0.211-0.537-0.211v-0.584h2.613v0.584c-0.233,0.053-0.421,0.123-0.563,0.217
			c-0.143,0.094-0.27,0.213-0.382,0.359c-0.113,0.146-0.3,0.428-0.563,0.842L76.48,63.61c-0.233,0.369-0.464,0.682-0.693,0.936
			c0.203,0.295,0.44,0.564,0.712,0.805c0.271,0.238,0.526,0.357,0.763,0.357c0.114,0,0.225-0.029,0.331-0.092
			c0.106-0.061,0.2-0.172,0.28-0.33c0.08-0.16,0.135-0.361,0.165-0.607H78.629z M74.382,65.161l-2.238-2.904
			c-0.636,0.381-0.954,0.854-0.954,1.418c0,0.322,0.085,0.641,0.254,0.957c0.17,0.314,0.396,0.576,0.68,0.781
			c0.285,0.205,0.589,0.309,0.915,0.309c0.263,0,0.5-0.055,0.71-0.162C73.959,65.45,74.17,65.319,74.382,65.161z M74.121,59.471
			c0-0.174-0.032-0.338-0.098-0.49c-0.066-0.152-0.167-0.275-0.302-0.371c-0.136-0.096-0.297-0.143-0.483-0.143
			c-0.267,0-0.477,0.084-0.629,0.256c-0.152,0.172-0.229,0.365-0.229,0.576c0,0.496,0.237,1.068,0.712,1.717
			c0.31-0.232,0.559-0.461,0.748-0.684C74.027,60.11,74.121,59.823,74.121,59.471z"/>
		<path fill="#B01E31" d="M90.835,66.618h-2.12c-0.079-0.086-0.175-0.211-0.289-0.373c-0.115-0.164-0.24-0.355-0.376-0.576
			c-0.137-0.221-0.25-0.402-0.339-0.547l-0.537-0.887c-0.242-0.396-0.423-0.668-0.546-0.814c-0.123-0.146-0.263-0.24-0.42-0.281
			s-0.426-0.061-0.803-0.061h-0.298v2.066c0,0.219,0.023,0.395,0.071,0.527c0.046,0.131,0.156,0.232,0.33,0.303
			c0.173,0.07,0.425,0.105,0.756,0.105v0.537h-3.971v-0.537c0.483,0,0.793-0.07,0.932-0.211c0.138-0.139,0.207-0.381,0.207-0.725
			v-4.998c0-0.338-0.066-0.578-0.201-0.721c-0.134-0.143-0.447-0.215-0.938-0.215v-0.549l1.834-0.057
			c0.141-0.008,0.301-0.014,0.482-0.018s0.35-0.006,0.505-0.006c0.121,0,0.32,0.004,0.601,0.012
			c0.393,0.012,0.761,0.035,1.104,0.068c0.343,0.035,0.613,0.08,0.812,0.135c0.292,0.074,0.569,0.197,0.832,0.369
			c0.263,0.17,0.478,0.396,0.643,0.676c0.166,0.281,0.248,0.605,0.248,0.977c0,0.264-0.057,0.521-0.172,0.771
			c-0.115,0.248-0.3,0.471-0.554,0.664c-0.255,0.195-0.591,0.35-1.008,0.461c0.285,0.168,0.525,0.375,0.724,0.623
			s0.51,0.701,0.935,1.363c0.246,0.379,0.448,0.664,0.607,0.855c0.16,0.193,0.307,0.324,0.441,0.391
			c0.134,0.068,0.305,0.113,0.511,0.133V66.618z M87.553,60.807c0-0.631-0.191-1.049-0.575-1.256
			c-0.384-0.207-0.885-0.311-1.504-0.311c-0.085,0-0.152,0.002-0.201,0.004s-0.104,0.004-0.167,0.004v3.182h0.368
			c0.588,0,1.082-0.096,1.481-0.287C87.353,61.954,87.553,61.508,87.553,60.807z"/>
		<path fill="#B01E31" d="M98.24,64.012l-0.064,2.605h-7.055v-0.537c0.487,0,0.8-0.07,0.94-0.211c0.14-0.139,0.21-0.381,0.21-0.725
			V60.17c0-0.227-0.022-0.402-0.066-0.529c-0.045-0.125-0.15-0.225-0.316-0.297c-0.165-0.072-0.421-0.109-0.768-0.109v-0.537h6.57
			l0.105,2.057h-0.538c-0.12-0.455-0.26-0.781-0.417-0.979c-0.158-0.197-0.335-0.316-0.532-0.361
			c-0.197-0.045-0.492-0.068-0.885-0.068h-1.483v2.797h0.805c0.277,0,0.483-0.023,0.619-0.072s0.232-0.141,0.287-0.277
			c0.054-0.137,0.091-0.352,0.111-0.643h0.561v2.635h-0.538c-0.016-0.293-0.055-0.508-0.117-0.646
			c-0.063-0.137-0.16-0.23-0.294-0.277c-0.135-0.047-0.34-0.07-0.616-0.07h-0.817v1.863c0,0.313,0.007,0.539,0.022,0.684
			s0.058,0.264,0.125,0.359c0.069,0.096,0.179,0.164,0.333,0.207c0.153,0.043,0.373,0.064,0.657,0.064h0.636
			c0.269,0,0.525-0.033,0.768-0.102c0.244-0.068,0.482-0.244,0.715-0.525c0.233-0.283,0.397-0.727,0.491-1.33H98.24z"/>
		<path fill="#B01E31" d="M105.015,64.346c0,0.244-0.053,0.504-0.158,0.779c-0.105,0.273-0.264,0.537-0.476,0.787
			c-0.212,0.252-0.48,0.457-0.803,0.615c-0.323,0.156-0.697,0.234-1.122,0.234c-0.42,0-0.838-0.092-1.253-0.273
			c-0.414-0.184-0.766-0.455-1.054-0.816c-0.125,0.287-0.205,0.555-0.239,0.799h-0.537v-2.709h0.537
			c0.098,0.389,0.231,0.756,0.403,1.098c0.171,0.342,0.414,0.637,0.727,0.885c0.313,0.246,0.697,0.371,1.153,0.371
			c0.397,0,0.716-0.109,0.955-0.328c0.24-0.217,0.359-0.492,0.359-0.822c0-0.188-0.037-0.352-0.11-0.49
			c-0.074-0.141-0.181-0.268-0.321-0.377c-0.14-0.111-0.333-0.23-0.575-0.357c-0.244-0.125-0.521-0.26-0.833-0.4
			c-0.479-0.225-0.872-0.453-1.179-0.682c-0.308-0.23-0.541-0.453-0.698-0.668c-0.158-0.217-0.267-0.424-0.328-0.617
			c-0.06-0.195-0.09-0.391-0.09-0.59c0-0.354,0.095-0.705,0.286-1.049c0.19-0.344,0.47-0.627,0.838-0.848
			c0.368-0.219,0.793-0.328,1.276-0.328c0.37,0,0.722,0.082,1.057,0.248c0.334,0.166,0.625,0.391,0.87,0.68
			c0.07-0.164,0.135-0.393,0.193-0.689h0.549v2.209h-0.549c-0.389-1.203-1.067-1.805-2.032-1.805c-0.351,0-0.632,0.092-0.844,0.275
			c-0.212,0.186-0.318,0.424-0.318,0.717c0,0.23,0.066,0.43,0.198,0.598c0.132,0.17,0.306,0.314,0.523,0.436
			c0.215,0.121,0.565,0.295,1.048,0.52c0.584,0.277,1.04,0.516,1.369,0.719s0.608,0.457,0.835,0.766
			C104.901,63.538,105.015,63.911,105.015,64.346z"/>
		<path fill="#B01E31" d="M114.937,62.659c0,0.721-0.171,1.395-0.514,2.023c-0.343,0.629-0.85,1.133-1.522,1.512
			c-0.671,0.379-1.464,0.568-2.379,0.568c-0.748,0-1.405-0.119-1.974-0.361c-0.569-0.24-1.033-0.564-1.393-0.969
			s-0.627-0.85-0.8-1.332s-0.26-0.967-0.26-1.453c0-0.705,0.166-1.371,0.497-1.998c0.331-0.627,0.83-1.131,1.495-1.516
			c0.666-0.383,1.462-0.574,2.389-0.574c0.844,0,1.563,0.137,2.155,0.414c0.592,0.275,1.053,0.625,1.384,1.045
			c0.331,0.422,0.567,0.861,0.709,1.322C114.865,61.803,114.937,62.241,114.937,62.659z M113.044,62.635
			c0-0.445-0.038-0.865-0.114-1.262c-0.076-0.396-0.209-0.756-0.4-1.078c-0.19-0.32-0.452-0.576-0.782-0.766
			c-0.331-0.188-0.74-0.281-1.227-0.281c-0.67,0-1.192,0.166-1.568,0.498s-0.631,0.75-0.765,1.25
			c-0.134,0.5-0.201,1.047-0.201,1.639c0,0.326,0.021,0.668,0.064,1.021c0.042,0.354,0.146,0.717,0.31,1.09
			c0.164,0.371,0.424,0.684,0.783,0.939c0.358,0.256,0.821,0.383,1.39,0.383c0.564,0,1.023-0.131,1.375-0.395
			s0.61-0.584,0.771-0.963c0.161-0.381,0.263-0.744,0.304-1.09C113.023,63.274,113.044,62.946,113.044,62.635z"/>
		<path fill="#B01E31" d="M124.35,66.618h-2.12c-0.078-0.086-0.174-0.211-0.289-0.373c-0.115-0.164-0.24-0.355-0.377-0.576
			c-0.136-0.221-0.249-0.402-0.339-0.547l-0.537-0.887c-0.242-0.396-0.423-0.668-0.546-0.814c-0.122-0.146-0.263-0.24-0.42-0.281
			c-0.158-0.041-0.426-0.061-0.803-0.061h-0.297v2.066c0,0.219,0.023,0.395,0.069,0.527c0.047,0.131,0.157,0.232,0.331,0.303
			c0.173,0.07,0.426,0.105,0.756,0.105v0.537h-3.971v-0.537c0.483,0,0.793-0.07,0.931-0.211c0.138-0.139,0.208-0.381,0.208-0.725
			v-4.998c0-0.338-0.067-0.578-0.202-0.721c-0.133-0.143-0.446-0.215-0.937-0.215v-0.549l1.833-0.057
			c0.141-0.008,0.302-0.014,0.482-0.018s0.349-0.006,0.505-0.006c0.121,0,0.321,0.004,0.601,0.012
			c0.393,0.012,0.761,0.035,1.104,0.068c0.342,0.035,0.613,0.08,0.812,0.135c0.292,0.074,0.569,0.197,0.832,0.369
			c0.263,0.17,0.477,0.396,0.643,0.676c0.165,0.281,0.248,0.605,0.248,0.977c0,0.264-0.058,0.521-0.172,0.771
			c-0.115,0.248-0.3,0.471-0.555,0.664c-0.255,0.195-0.59,0.35-1.007,0.461c0.284,0.168,0.525,0.375,0.724,0.623
			c0.199,0.248,0.51,0.701,0.935,1.363c0.245,0.379,0.448,0.664,0.607,0.855c0.16,0.193,0.307,0.324,0.441,0.391
			c0.134,0.068,0.305,0.113,0.511,0.133V66.618z M121.068,60.807c0-0.631-0.192-1.049-0.576-1.256
			c-0.383-0.207-0.885-0.311-1.503-0.311c-0.085,0-0.153,0.002-0.201,0.004c-0.049,0.002-0.104,0.004-0.167,0.004v3.182h0.368
			c0.588,0,1.081-0.096,1.48-0.287C120.869,61.954,121.068,61.508,121.068,60.807z"/>
		<path fill="#B01E31" d="M131.837,60.948h-0.555c-0.051-0.492-0.159-0.854-0.324-1.088c-0.166-0.232-0.344-0.377-0.534-0.432
			c-0.191-0.055-0.411-0.082-0.661-0.082h-1.003v5.799c0,0.23,0.022,0.408,0.069,0.535c0.046,0.127,0.156,0.225,0.328,0.295
			c0.17,0.07,0.422,0.105,0.753,0.105v0.537h-3.972v-0.537c0.487,0,0.8-0.07,0.94-0.211c0.14-0.139,0.21-0.381,0.21-0.725v-5.799
			h-0.84c-0.331,0-0.606,0.027-0.824,0.08c-0.218,0.051-0.41,0.195-0.575,0.432c-0.166,0.236-0.26,0.598-0.284,1.09h-0.554v-2.25
			h7.825V60.948z"/>
		<path fill="#B01E31" d="M138.494,64.346c0,0.244-0.053,0.504-0.157,0.779c-0.105,0.273-0.264,0.537-0.476,0.787
			c-0.212,0.252-0.48,0.457-0.803,0.615c-0.323,0.156-0.697,0.234-1.121,0.234c-0.421,0-0.838-0.092-1.252-0.273
			c-0.415-0.184-0.766-0.455-1.054-0.816c-0.125,0.287-0.205,0.555-0.24,0.799h-0.537v-2.709h0.537
			c0.097,0.389,0.231,0.756,0.403,1.098c0.171,0.342,0.414,0.637,0.727,0.885c0.313,0.246,0.698,0.371,1.153,0.371
			c0.397,0,0.716-0.109,0.955-0.328c0.24-0.217,0.359-0.492,0.359-0.822c0-0.188-0.037-0.352-0.111-0.49
			c-0.074-0.141-0.181-0.268-0.321-0.377c-0.14-0.111-0.332-0.23-0.575-0.357c-0.244-0.125-0.521-0.26-0.833-0.4
			c-0.479-0.225-0.872-0.453-1.179-0.682c-0.308-0.23-0.541-0.453-0.699-0.668c-0.157-0.217-0.266-0.424-0.327-0.617
			c-0.06-0.195-0.09-0.391-0.09-0.59c0-0.354,0.096-0.705,0.286-1.049c0.191-0.344,0.471-0.627,0.839-0.848
			c0.368-0.219,0.793-0.328,1.275-0.328c0.37,0,0.723,0.082,1.057,0.248c0.335,0.166,0.625,0.391,0.87,0.68
			c0.071-0.164,0.134-0.393,0.193-0.689h0.549v2.209h-0.549c-0.389-1.203-1.066-1.805-2.032-1.805c-0.35,0-0.632,0.092-0.844,0.275
			c-0.212,0.186-0.318,0.424-0.318,0.717c0,0.23,0.066,0.43,0.198,0.598c0.132,0.17,0.307,0.314,0.522,0.436
			c0.216,0.121,0.565,0.295,1.048,0.52c0.584,0.277,1.04,0.516,1.369,0.719s0.607,0.457,0.835,0.766
			C138.381,63.538,138.494,63.911,138.494,64.346z"/>
	</g>
	<g>
		<path fill="#B01E31" d="M66.623,81.723h-4.142v-0.506h0.336c0.286,0,0.481-0.018,0.586-0.053s0.157-0.098,0.157-0.184
			c0-0.129-0.151-0.404-0.452-0.826l-1.601-2.26l-0.946,0.83v1.611c0,0.326,0.076,0.555,0.226,0.686
			c0.15,0.129,0.437,0.195,0.858,0.195v0.506h-3.729v-0.506c0.319,0,0.555-0.033,0.707-0.1c0.152-0.066,0.251-0.16,0.297-0.281
			s0.068-0.287,0.068-0.5v-4.686c0-0.213-0.021-0.379-0.063-0.498c-0.042-0.119-0.141-0.213-0.297-0.279
			c-0.156-0.068-0.393-0.104-0.712-0.104v-0.506h3.729v0.506c-0.458,0-0.753,0.066-0.885,0.199
			c-0.132,0.131-0.199,0.359-0.199,0.682v2.244l2.321-2.029c0.162-0.141,0.279-0.26,0.352-0.361c0.073-0.1,0.11-0.213,0.11-0.338
			c0-0.264-0.251-0.396-0.754-0.396v-0.506h3.405v0.506c-0.264,0.023-0.479,0.055-0.646,0.094c-0.167,0.041-0.33,0.107-0.487,0.199
			c-0.158,0.092-0.33,0.211-0.517,0.361c-0.188,0.152-0.482,0.402-0.886,0.754l-0.781,0.678l2.2,3.135
			c0.234,0.334,0.427,0.582,0.577,0.744c0.151,0.164,0.312,0.281,0.484,0.355c0.172,0.072,0.399,0.115,0.682,0.127V81.723z"/>
		<path fill="#B01E31" d="M73.553,79.27l-0.061,2.453h-6.644v-0.506c0.458,0,0.753-0.066,0.886-0.199
			c0.132-0.131,0.198-0.359,0.198-0.682v-4.686c0-0.213-0.021-0.379-0.063-0.498c-0.043-0.119-0.142-0.213-0.298-0.279
			c-0.155-0.068-0.396-0.104-0.723-0.104v-0.506h6.187l0.099,1.936h-0.505c-0.114-0.428-0.245-0.734-0.394-0.92
			s-0.315-0.299-0.5-0.342c-0.185-0.041-0.462-0.063-0.833-0.063h-1.396v2.635h0.759c0.261,0,0.455-0.023,0.583-0.07
			c0.129-0.045,0.218-0.131,0.27-0.26c0.051-0.129,0.086-0.33,0.104-0.605h0.528v2.48h-0.506c-0.014-0.275-0.051-0.479-0.11-0.607
			c-0.059-0.131-0.151-0.217-0.277-0.262c-0.127-0.045-0.32-0.066-0.58-0.066h-0.771v1.756c0,0.293,0.007,0.508,0.022,0.643
			c0.015,0.137,0.054,0.248,0.119,0.338c0.063,0.09,0.168,0.154,0.313,0.195c0.144,0.041,0.351,0.061,0.618,0.061h0.6
			c0.253,0,0.494-0.031,0.724-0.096c0.229-0.064,0.454-0.229,0.673-0.496c0.22-0.266,0.374-0.682,0.462-1.25H73.553z"/>
		<path fill="#B01E31" d="M82.347,74.77c-0.355,0-0.61,0.037-0.764,0.107c-0.154,0.072-0.25,0.178-0.286,0.316
			c-0.037,0.141-0.056,0.367-0.056,0.684v5.912h-0.505l-4.878-5.797V80.1c0,0.313,0.019,0.539,0.058,0.68
			c0.038,0.141,0.137,0.248,0.294,0.324c0.158,0.074,0.413,0.113,0.765,0.113v0.506h-2.772v-0.506c0.33,0,0.57-0.039,0.718-0.113
			c0.148-0.076,0.24-0.184,0.275-0.324c0.035-0.141,0.052-0.367,0.052-0.68v-3.805c0-0.309-0.009-0.541-0.025-0.693
			c-0.017-0.154-0.056-0.289-0.119-0.406c-0.062-0.115-0.163-0.207-0.305-0.279c-0.141-0.072-0.336-0.119-0.586-0.146v-0.506h2.172
			l4.246,5.016v-3.402c0-0.279-0.019-0.494-0.057-0.643c-0.039-0.148-0.134-0.262-0.286-0.344c-0.152-0.08-0.394-0.121-0.723-0.121
			v-0.506h2.782V74.77z"/>
		<path fill="#B01E31" d="M90.36,74.77c-0.202,0.016-0.37,0.061-0.503,0.139c-0.134,0.076-0.268,0.203-0.402,0.379
			s-0.331,0.463-0.591,0.857l-1.567,2.426v1.766c0,0.201,0.021,0.363,0.063,0.484s0.14,0.217,0.294,0.289
			c0.153,0.07,0.396,0.107,0.726,0.107v0.506h-3.751v-0.506c0.312,0,0.548-0.031,0.707-0.092s0.264-0.15,0.313-0.271
			c0.05-0.121,0.074-0.293,0.074-0.518V78.67l-1.87-3.119c-0.015-0.021-0.03-0.047-0.046-0.074
			c-0.017-0.027-0.028-0.043-0.036-0.053c-0.162-0.264-0.306-0.436-0.432-0.516c-0.127-0.08-0.313-0.127-0.559-0.139v-0.506h3.492
			v0.506c-0.176,0-0.315,0.006-0.418,0.018c-0.103,0.01-0.186,0.041-0.25,0.088c-0.064,0.049-0.096,0.123-0.096,0.225
			c0,0.07,0.022,0.154,0.066,0.254s0.145,0.285,0.302,0.555l1.161,1.963l1.105-1.748c0.238-0.377,0.357-0.654,0.357-0.83
			c0-0.23-0.075-0.377-0.226-0.436s-0.359-0.088-0.627-0.088v-0.506h2.712V74.77z"/>
		<path fill="#B01E31" d="M97.009,81.723h-3.515v-0.506c0.296,0,0.513-0.021,0.649-0.064c0.136-0.041,0.204-0.143,0.204-0.299
			c0-0.111-0.022-0.223-0.066-0.336l-0.352-0.879h-2.42l-0.181,0.482c-0.103,0.271-0.154,0.469-0.154,0.59
			c0,0.219,0.086,0.359,0.256,0.418c0.17,0.059,0.369,0.088,0.596,0.088v0.506h-2.567v-0.506c0.205,0,0.378-0.039,0.522-0.115
			c0.143-0.078,0.279-0.223,0.41-0.438c0.13-0.215,0.27-0.52,0.42-0.912l2.151-5.631h0.522l2.271,5.809
			c0.165,0.41,0.286,0.688,0.363,0.832c0.077,0.146,0.184,0.258,0.319,0.336c0.136,0.078,0.327,0.119,0.572,0.119V81.723z
			 M93.731,79.1l-1.029-2.602L91.724,79.1H93.731z"/>
	</g>
	<g>
		<path fill="#B01E31" d="M2.522,56.866c0.069-0.484,0.554-4.326,0.554-5.676c0-0.899,0.208-4.636,0.104-5.467l0.796,0.208
			c-0.034,0.449,0.139,2.422,0.242,3.045c0.935,2.214,2.976,3.772,5.363,3.772c2.734,0,4.914-1.801,4.914-4.361
			c0-2.803-2.18-4.187-4.429-5.64c-3.392-2.215-6.09-4.153-6.09-8.063c0-2.698,2.007-6.089,7.128-6.089
			c2.042,0,3.841,0.414,4.672,0.623c0.242-0.832,0.415-1.869,0.623-2.804l0.796-0.104c-0.484,3.427-0.831,6.645-0.831,9.482
			l-0.796-0.347c0-1.177-0.069-2.008-0.138-2.63c-0.381-1.245-2.18-3.114-4.603-3.114c-2.976,0-4.222,1.903-4.222,3.461
			c0,2.249,2.353,3.46,4.983,5.12c2.873,1.8,5.779,3.737,5.779,8.098c0,4.81-3.807,7.544-8.513,7.544
			c-1.661,0-3.807-0.346-4.775-0.865c-0.172,0.658-0.519,2.318-0.761,3.6L2.522,56.866z"/>
		<path fill="#B01E31" d="M34.736,52.782c1.211-0.104,2.422-0.242,3.496-0.484c-0.623-1.799-3.08-9.135-3.633-10.139
			c-1.211,0-6.713,0.243-7.994,0.45c-0.208,0.484-2.075,7.024-2.422,9.688c0.866,0.242,2.008,0.381,2.976,0.484l0.139,0.727
			c-1.073-0.068-4.222-0.137-5.226-0.137c-0.899,0-3.218,0.068-4.014,0.137l0.104-0.727c1.003-0.104,2.042-0.277,2.976-0.484
			c1.246-2.18,8.132-20.796,8.617-22.112c-0.762-0.207-1.904-0.345-2.734-0.448l-0.035-0.728c1.038,0.069,3.911,0.139,4.499,0.139
			c1.453,0,4.913-0.069,5.917-0.139l-0.104,0.728c-0.9,0.104-1.834,0.241-2.629,0.448c0.415,1.524,2.318,6.956,3.633,10.59
			c0.969,2.664,3.115,8.478,4.706,11.522c1.004,0.207,2.007,0.346,3.045,0.484l0.104,0.727c-0.416-0.068-3.91-0.137-5.745-0.137
			c-1.003,0-4.913,0.068-5.848,0.137L34.736,52.782z M30.827,30.775h-0.069c-1.072,3.079-3.322,9.065-3.668,10.207l7.267,0.139
			C33.595,38.836,31.415,32.678,30.827,30.775z"/>
		<path fill="#B01E31" d="M50.203,38.768c0-1.246-0.034-7.89-0.173-8.547c-0.588-0.138-2.94-0.347-3.702-0.416l-0.104-0.727
			l7.474-0.034c3.287,0,7.405,0.034,9.758,0.969c1.833,0.727,2.976,2.041,2.976,3.944c0,2.181-2.214,5.052-4.879,6.54
			c0.381,0.865,5.952,9.932,9.551,13.737l-1.522,0.242c-2.422-1.105-11.627-11.729-12.181-12.457
			c-1.314,0.104-2.734,0.208-3.322,0.208v0.899c0,2.249,0.069,7.578,0.173,9.17c0.588,0.173,2.872,0.416,3.633,0.484l0.138,0.727
			c-0.865-0.068-4.359-0.137-5.951-0.137c-1.419,0-5.052,0.068-5.848,0.137l0.139-0.727c0.484-0.033,2.699-0.242,3.667-0.484
			c0.139-1.004,0.173-7.785,0.173-11.419V38.768z M54.079,41.156c1.246,0,2.734-0.104,4.222-0.658s3.945-2.145,3.945-5.57
			c0-2.215-2.007-4.914-7.993-4.914c-0.104,1.418-0.173,7.613-0.173,10.069V41.156z"/>
		<path fill="#B01E31" d="M75.705,50.048c-2.526-2.596-3.322-5.121-3.322-8.373c0-6.853,5.64-13.08,15.19-13.08
			c3.668,0,6.575,0.588,9.585,2.802c2.734,2.008,4.187,5.364,4.187,8.581c0,8.478-6.437,13.946-14.949,13.946
			C82.902,53.924,78.923,53.336,75.705,50.048z M97.125,42.505c0-7.336-5.086-12.596-10.831-12.596
			c-4.741,0-9.931,3.183-9.931,10.311c0,6.195,4.983,12.284,11.73,12.284C93.041,52.504,97.125,48.042,97.125,42.505z"/>
		<path fill="#B01E31" d="M102.175,29.009c1.108,0.069,3.045,0.139,4.983,0.139c2.145,0,5.225-0.069,5.986-0.139l-0.173,0.728
			c-0.728,0.068-2.665,0.276-3.253,0.484c0.243,1.176,7.024,17.128,7.924,18.234c0.795-1.591,7.059-14.567,7.751-18.234
			c-0.658-0.138-2.077-0.312-3.183-0.484l-0.174-0.728c0.485,0.069,2.941,0.139,5.052,0.139c1.626,0,3.045-0.069,3.875-0.139
			l-0.173,0.728c-0.657,0.138-1.21,0.276-2.11,0.484c-0.727,0.415-12.007,23.564-12.458,24.672
			c-1.107-1.938-10.069-22.319-11.765-24.672c-0.449-0.138-1.038-0.312-2.146-0.484L102.175,29.009z"/>
		<path fill="#B01E31" d="M143.006,52.782c1.21-0.104,2.422-0.242,3.495-0.484c-0.623-1.799-3.08-9.135-3.633-10.139
			c-1.211,0-6.713,0.243-7.994,0.45c-0.207,0.484-2.076,7.024-2.421,9.688c0.865,0.242,2.007,0.381,2.976,0.484l0.138,0.727
			c-1.072-0.068-4.222-0.137-5.225-0.137c-0.899,0-3.218,0.068-4.015,0.137l0.104-0.727c1.004-0.104,2.042-0.277,2.976-0.484
			c1.245-2.18,8.132-20.796,8.616-22.112c-0.762-0.207-1.903-0.345-2.733-0.448l-0.035-0.728c1.038,0.069,3.91,0.139,4.499,0.139
			c1.453,0,4.914-0.069,5.917-0.139l-0.104,0.728c-0.899,0.104-1.834,0.241-2.629,0.448c0.415,1.524,2.318,6.956,3.633,10.59
			c0.969,2.664,3.114,8.478,4.706,11.522c1.003,0.207,2.007,0.346,3.045,0.484l0.104,0.727c-0.416-0.068-3.91-0.137-5.745-0.137
			c-1.003,0-4.913,0.068-5.848,0.137L143.006,52.782z M139.096,30.775h-0.07c-1.072,3.079-3.321,9.065-3.667,10.207l7.266,0.139
			C141.864,38.836,139.685,32.678,139.096,30.775z"/>
	</g>
	<g>
		<rect x="15.818" y="70.127" fill="#B01E31" width="123.13" height="0.734"/>
	</g>
</g>
</svg>
