<svg xmlns="http://www.w3.org/2000/svg" viewBox="0 0 414 414"><defs><style>.cls-2{fill:#ec7123}.cls-5{fill:#0f752a}</style></defs><g id="Layer_2" data-name="Layer 2"><g id="Icon_Set" data-name="Icon Set"><circle cx="207" cy="207" r="207" fill="#f0c48a"/><path class="cls-2" d="M206.67 187a6 6 0 0 1-6-6v-77a6 6 0 1 1 12 0v77a6 6 0 0 1-6 6z"/><circle cx="207" cy="290.29" r="108.77" fill="#d3e6f8"/><path d="M207 181.52a109.14 109.14 0 0 0-15.11 1 108.78 108.78 0 0 1 0 215.44 110.71 110.71 0 0 0 15.11 1.1 108.77 108.77 0 0 0 0-217.54z" fill="#a4cff2"/><path class="cls-2" d="M207 405.06a114.77 114.77 0 1 1 114.77-114.77A114.91 114.91 0 0 1 207 405.06zm0-217.54a102.77 102.77 0 1 0 102.77 102.77A102.88 102.88 0 0 0 207 187.52z"/><path class="cls-2" d="M207.82 228.39a6.23 6.23 0 0 1 6.27 6.28v3.21a53.07 53.07 0 0 1 22.61 8 7.81 7.81 0 0 1 4.38 7 8 8 0 0 1-8.17 8 8.5 8.5 0 0 1-4.38-1.31 53.08 53.08 0 0 0-15-6.42v28c22.17 5.54 31.65 14.44 31.65 30 0 16.05-12.54 26.69-31.07 28.45v8.75a6.22 6.22 0 0 1-6.27 6.27 6.35 6.35 0 0 1-6.42-6.27v-9.05A63 63 0 0 1 171.5 328a8 8 0 0 1-3.94-7 8 8 0 0 1 12.84-6.42c6.85 5 13.56 8.31 21.59 9.77v-28.71c-21.3-5.55-31.22-13.57-31.22-30.05 0-15.61 12.4-26.4 30.63-27.86v-3.06a6.36 6.36 0 0 1 6.42-6.28zM202 278.13v-25.81c-9.34.87-14 5.83-14 12.25 0 6.12 2.75 9.92 14 13.56zm11.52 20.28V325c9.33-1 14.44-5.69 14.44-12.69.04-6.46-3.22-10.4-14.45-13.9z"/><path class="cls-5" d="M320.36 22.63a6.68 6.68 0 0 0-4.7-4.7 86.33 86.33 0 0 0-22.51-3 85.38 85.38 0 0 0-60.76 25.17 86.25 86.25 0 0 0-22.17 83.27 6.68 6.68 0 0 0 4.7 4.7 86.32 86.32 0 0 0 22.51 3 85.3 85.3 0 0 0 60.75-25.16 86.21 86.21 0 0 0 22.18-83.28z"/><path class="cls-5" d="M93.59 23.65a6.52 6.52 0 0 1 4.6-4.6 84.59 84.59 0 0 1 22.06-2.93 84.18 84.18 0 0 1 81.24 106.23 6.55 6.55 0 0 1-4.6 4.6 84.64 84.64 0 0 1-22.06 2.92 83.6 83.6 0 0 1-59.52-24.65 84.47 84.47 0 0 1-21.72-81.57z"/><path class="cls-2" d="M235.93 133.15a90.05 90.05 0 0 1-23.45-3.15 6 6 0 0 1-4.23-4.23 89.84 89.84 0 0 1 23.1-86.75A89.65 89.65 0 0 1 318.1 16a6 6 0 0 1 4.23 4.22 89.85 89.85 0 0 1-23.1 86.76 88.93 88.93 0 0 1-63.3 26.17zM219 119.29a78.27 78.27 0 0 0 16.93 1.86 77 77 0 0 0 54.81-22.7 77.8 77.8 0 0 0 20.84-71.74A77.51 77.51 0 0 0 219 119.29z"/><path class="cls-2" d="M176.9 133.38a89 89 0 0 1-63.29-26.33A90 90 0 0 1 90.5 20.24 6 6 0 0 1 94.73 16a90.06 90.06 0 0 1 23.45-3.12 88.92 88.92 0 0 1 63.3 26.2 89.85 89.85 0 0 1 23.1 86.76 6.17 6.17 0 0 1-4.23 4.34 90.16 90.16 0 0 1-23.45 3.2zM101.25 26.71a78.06 78.06 0 0 0 20.83 71.86 77.14 77.14 0 0 0 54.81 22.81 78.38 78.38 0 0 0 16.93-2A77.93 77.93 0 0 0 173 47.6a77.84 77.84 0 0 0-71.74-20.89z"/></g></g></svg>