<svg xmlns="http://www.w3.org/2000/svg" xmlns:xlink="http://www.w3.org/1999/xlink" viewBox="0 0 99.65 106.73"><defs><style>.cls-1{fill:none;}.cls-2{clip-path:url(#clip-path);}.cls-3{fill:#ea7024;}.cls-4{fill:#2fa149;}</style><clipPath id="clip-path" transform="translate(-9.68 -12.37)"><rect class="cls-1" width="123" height="130"/></clipPath></defs><title>kb-icon</title><g id="Layer_2" data-name="Layer 2"><g id="Layer_1-2" data-name="Layer 1"><g class="cls-2"><path class="cls-3" d="M65,112.28a6.83,6.83,0,1,1-6.83-6.83A6.83,6.83,0,0,1,65,112.28" transform="translate(-9.68 -12.37)"/><path class="cls-4" d="M94.55,112.28a6.83,6.83,0,1,1-6.83-6.83,6.83,6.83,0,0,1,6.83,6.83" transform="translate(-9.68 -12.37)"/><path class="cls-4" d="M82.09,50l-26.6,0,2.16,13H84.94c6.53,0,11,1.49,11,9.79S91.47,89,84.76,89H58.18L47.51,16.77a5.16,5.16,0,0,0-5.11-4.4H16.08a6.29,6.29,0,0,0-6.37,5.44,6,6,0,0,0,6,6.68H35.58l11.74,77.63H85.59c14.35,0,23.73-11.5,23.73-28.76C109.32,62.13,107,50,82.09,50" transform="translate(-9.68 -12.37)"/></g></g></g></svg>