<svg xmlns="http://www.w3.org/2000/svg" viewBox="0 0 550 106.73"><defs><style>.cls-1{fill:#ea7024;}.cls-2{fill:#30a249;}</style></defs><title>logo</title><g id="Layer_2" data-name="Layer 2"><g id="Kwikbasket"><g id="_1" data-name="1"><g id="Wheel"><circle class="cls-1" cx="242.26" cy="99.9" r="6.83"/></g><g id="Wheel-2" data-name="Wheel"><circle class="cls-2" cx="271.81" cy="99.9" r="6.83"/></g><g id="Basket"><path class="cls-2" d="M353.39,40.16V89.75H341.34l-.28-7.45c-3.49,5.24-9,8.37-16.65,8.37-13.43,0-23.74-10.21-23.74-25.48,0-15.55,10.31-25.95,23.74-25.95,7.64,0,13.16,3.13,16.65,8.37l.28-7.45ZM340.88,64.91c0-8.92-5.52-15-13.62-15S313.65,56,313.65,65s5.42,14.91,13.61,14.91S340.88,73.93,340.88,64.91Z"/><path class="cls-2" d="M363.79,84.78l4.69-7.54a27.07,27.07,0,0,0,14.26,3.68c4.6,0,7.73-1.93,7.73-5S387,71.26,382,70l-4.14-1.1c-8.37-2.21-14.07-5.43-14.07-13.25,0-9.84,7.73-16.38,19.5-16.38,7.45,0,13.8,1.57,18.68,4.88l-5.25,8.19a25.39,25.39,0,0,0-12.6-3.22c-4.51,0-7.64,1.65-7.64,4.5s3.13,4.33,7.46,5.43l4.14,1.2c8.46,2.21,15.18,6.07,15.18,14.81,0,9.38-8.28,15.64-20.7,15.64C375,90.67,368.3,88.74,363.79,84.78Z"/><path class="cls-2" d="M430.12,68.87h-4.23V89.75H413.38V18h12.51V58.56h4.32l16.38-18.4h15.83l-22,23.46,23.18,26.13H447.79Z"/><path class="cls-2" d="M512.65,69.42H476.77c.92,7,4.6,11.41,11.87,11.41a15.39,15.39,0,0,0,12.14-5.89l9.66,4.87C506,86.44,498.2,90.67,488.82,90.67c-15.18,0-25.3-10.12-25.3-25.39,0-15.64,9.84-26,24.75-26S513,49.18,513,64.17A46.42,46.42,0,0,1,512.65,69.42ZM476.77,61h23.09c-.92-7.55-4.88-11.87-11.59-11.87S477.78,53.41,476.77,61Z"/><path class="cls-2" d="M550,78.25V88.37a33.73,33.73,0,0,1-12.7,2.3c-9,0-15.18-6.26-15.18-15.64V25.63h12.52V40.16h14.62V50.37H534.64V72.46c0,4.5,2.76,7.45,6.71,7.45A21.82,21.82,0,0,0,550,78.25Z"/><path class="cls-2" d="M266.17,37.67l-26.6,0,2.16,13H269c6.54,0,11,1.49,11,9.78s-4.5,16.17-11.22,16.17H242.27L231.59,4.4a5.16,5.16,0,0,0-5.1-4.4H200.16a6.29,6.29,0,0,0-6.37,5.44,6.07,6.07,0,0,0,6,6.68h19.84L231.4,89.75h38.27c14.35,0,23.74-11.5,23.74-28.76C293.41,49.75,291.11,37.67,266.17,37.67Z"/></g><g id="Kwik"><path class="cls-1" d="M16.67,67H12.46v20.8H0V16.29H12.46V56.7h4.31l16.3-18.33H48.83L26.94,61.74,50,87.76H34.27Z"/><path class="cls-1" d="M132.76,38.37,114.62,87.76H102.16L91.35,53.67,80.54,87.76H68.08L49.94,38.37H63.59L75.13,73.55,86.22,38.37H96.48l11.08,35.18,11.55-35.18Z"/><path class="cls-1" d="M138.72,23a7.18,7.18,0,0,1,7.42-7.42A7.1,7.1,0,0,1,153.47,23a7,7,0,0,1-7.33,7.33A7.1,7.1,0,0,1,138.72,23Zm1.19,15.39h12.46V87.76H139.91Z"/><path class="cls-1" d="M181.69,67h-4.21v20.8H165V16.29h12.46V56.7h4.3l16.31-18.33h15.76L192,61.74l23.09,26H199.28Z"/></g></g></g></g></svg>